<svg width="192" height="80" viewBox="0 0 192 80" fill="none" xmlns="http://www.w3.org/2000/svg">
<path d="M39.7 8.1C39.7 9.53594 38.5359 10.7 37.1 10.7C35.6641 10.7 34.5 9.53594 34.5 8.1C34.5 6.66406 35.6641 5.5 37.1 5.5C38.5359 5.5 39.7 6.66406 39.7 8.1Z" stroke="#546169"/>
<path d="M189.7 73.1C189.7 74.5359 188.536 75.7 187.1 75.7C185.664 75.7 184.5 74.5359 184.5 73.1C184.5 71.6641 185.664 70.5 187.1 70.5C188.536 70.5 189.7 71.6641 189.7 73.1Z" stroke="#546169"/>
<path d="M5.1 70.2C6.81208 70.2 8.2 68.8121 8.2 67.1C8.2 65.3879 6.81208 64 5.1 64C3.38792 64 2 65.3879 2 67.1C2 68.8121 3.38792 70.2 5.1 70.2Z" fill="#27DAD0"/>
<path d="M161.1 16.2C162.812 16.2 164.2 14.8121 164.2 13.1C164.2 11.3879 162.812 10 161.1 10C159.388 10 158 11.3879 158 13.1C158 14.8121 159.388 16.2 161.1 16.2Z" fill="#27DAD0"/>
<g clip-path="url(#clip0)">
<path d="M68.6001 42.7C68.6001 42.7 80.7001 59.9 95.7001 59.9C110.7 59.9 122.8 42.7 122.8 42.7C122.8 42.7 110.7 25.5 95.7001 25.5C80.7001 25.5 68.6001 42.7 68.6001 42.7Z" stroke="#546169" stroke-miterlimit="10"/>
<path d="M95.5 55.9C102.956 55.9 109 49.8559 109 42.4C109 34.9442 102.956 28.9 95.5 28.9C88.0442 28.9 82 34.9442 82 42.4C82 49.8559 88.0442 55.9 95.5 55.9Z" fill="#1ADCD0"/>
<path d="M95.6999 37C97.2999 37 98.7999 37.6 99.8999 38.7C101 39.8 101.6 41.3 101.6 42.9C101.6 44.5 101 46 99.8999 47.1C98.7999 48.2 97.2999 48.8 95.6999 48.8C94.0999 48.8 92.5999 48.2 91.4999 47.1C90.3999 46 89.7999 44.5 89.7999 42.9C89.7999 41.3 90.3999 39.8 91.4999 38.7C92.6999 37.6 94.1999 37 95.6999 37ZM95.6999 36C93.8999 36 92.1999 36.7 90.7999 38C88.0999 40.7 88.0999 45.1 90.7999 47.8C92.1999 49.2 93.8999 49.8 95.6999 49.8C97.4999 49.8 99.1999 49.1 100.6 47.8C103.3 45.1 103.3 40.7 100.6 38C99.2999 36.6 97.4999 36 95.6999 36Z" fill="#546169"/>
</g>
<defs>
<clipPath id="clip0">
<rect width="55.5" height="35.4" fill="white" transform="translate(68 25)"/>
</clipPath>
</defs>
</svg>
