<svg width="192" height="80" viewBox="0 0 192 80" fill="none" xmlns="http://www.w3.org/2000/svg">
<path d="M39.7 8.1C39.7 9.53594 38.5359 10.7 37.1 10.7C35.6641 10.7 34.5 9.53594 34.5 8.1C34.5 6.66406 35.6641 5.5 37.1 5.5C38.5359 5.5 39.7 6.66406 39.7 8.1Z" stroke="#546169"/>
<path d="M189.7 73.1C189.7 74.5359 188.536 75.7 187.1 75.7C185.664 75.7 184.5 74.5359 184.5 73.1C184.5 71.6641 185.664 70.5 187.1 70.5C188.536 70.5 189.7 71.6641 189.7 73.1Z" stroke="#546169"/>
<path d="M5.1 70.2C6.81208 70.2 8.2 68.8121 8.2 67.1C8.2 65.3879 6.81208 64 5.1 64C3.38792 64 2 65.3879 2 67.1C2 68.8121 3.38792 70.2 5.1 70.2Z" fill="#FD583E"/>
<path d="M161.1 16.2C162.812 16.2 164.2 14.8121 164.2 13.1C164.2 11.3879 162.812 10 161.1 10C159.388 10 158 11.3879 158 13.1C158 14.8121 159.388 16.2 161.1 16.2Z" fill="#FD583E"/>
<g clip-path="url(#clip0)">
<path d="M96.5245 46.4701C99.808 46.4701 102.47 43.8083 102.47 40.5248C102.47 37.2412 99.808 34.5794 96.5245 34.5794C93.2409 34.5794 90.5791 37.2412 90.5791 40.5248C90.5791 43.8083 93.2409 46.4701 96.5245 46.4701Z" fill="#FF5533"/>
<path d="M126.476 52.7728C129.802 44.8473 118.853 32.6975 102.023 25.6356C85.1921 18.5737 68.8523 19.2738 65.5269 27.1994C62.2014 35.1249 73.1496 47.2747 89.9803 54.3366C106.811 61.3985 123.151 60.6984 126.476 52.7728Z" stroke="#546169" stroke-miterlimit="10"/>
<path d="M110.352 46.0073C117.414 29.1766 116.714 12.8368 108.788 9.51135C100.863 6.1859 88.7129 17.1341 81.651 33.9647C74.5891 50.7954 75.2892 67.1352 83.2148 70.4607C91.1403 73.7861 103.29 62.838 110.352 46.0073Z" stroke="#546169" stroke-miterlimit="10"/>
</g>
<defs>
<clipPath id="clip0">
<rect width="64" height="64" fill="white" transform="translate(64 8)"/>
</clipPath>
</defs>
</svg>
