<svg width="192" height="80" viewBox="0 0 192 80" fill="none" xmlns="http://www.w3.org/2000/svg">
<path d="M39.7 8.1C39.7 9.53594 38.5359 10.7 37.1 10.7C35.6641 10.7 34.5 9.53594 34.5 8.1C34.5 6.66406 35.6641 5.5 37.1 5.5C38.5359 5.5 39.7 6.66406 39.7 8.1Z" stroke="#546169"/>
<path d="M189.7 73.1C189.7 74.5359 188.536 75.7 187.1 75.7C185.664 75.7 184.5 74.5359 184.5 73.1C184.5 71.6641 185.664 70.5 187.1 70.5C188.536 70.5 189.7 71.6641 189.7 73.1Z" stroke="#546169"/>
<path d="M5.1 70.2C6.81208 70.2 8.2 68.8121 8.2 67.1C8.2 65.3879 6.81208 64 5.1 64C3.38792 64 2 65.3879 2 67.1C2 68.8121 3.38792 70.2 5.1 70.2Z" fill="#27DAD0"/>
<path d="M161.1 16.2C162.812 16.2 164.2 14.8121 164.2 13.1C164.2 11.3879 162.812 10 161.1 10C159.388 10 158 11.3879 158 13.1C158 14.8121 159.388 16.2 161.1 16.2Z" fill="#27DAD0"/>
<path d="M91.2701 40.2586C88.4683 46.2357 83.4252 46.796 87.3476 51.4655C91.2701 56.1351 92.3908 63.6063 86.7873 66.4081C82.4913 68.6495 80.0632 69.023 79.1293 69.023C70.5373 63.4196 64.7471 53.7069 64.7471 42.5C64.7471 41.1926 64.7471 39.8851 64.9339 38.5776C64.9339 38.5776 72.4051 37.4569 73.1522 39.5115C73.8994 41.5661 68.1091 49.2242 73.5258 49.4109C78.9425 49.5977 79.6896 43.6207 81.3706 39.138C83.4252 34.6552 94.0718 34.2816 91.2701 40.2586Z" fill="#1ADCD0" stroke="#1ADCD0" stroke-width="0.9617" stroke-miterlimit="10"/>
<path d="M127.693 37.6435C123.397 38.2038 117.793 34.655 114.618 30.9193C110.509 26.063 108.641 30.7326 106.399 35.9624C104.158 41.1923 94.2587 36.1492 94.0719 29.6119C93.8851 23.0745 105.092 23.8216 107.894 20.086C109.388 18.0314 109.201 15.4165 108.828 13.3619C118.727 17.4711 126.012 26.6234 127.693 37.6435Z" fill="#1ADCD0" stroke="#1ADCD0" stroke-width="0.9617" stroke-miterlimit="10"/>
<path d="M110.135 48.8504C106.213 49.9711 94.4454 44.928 102.29 52.3993C110.135 59.8705 120.595 54.0803 121.529 49.224C122.463 44.3677 113.124 47.9165 110.135 48.8504Z" fill="#1ADCD0" stroke="#1ADCD0" stroke-width="0.9617" stroke-miterlimit="10"/>
<path d="M128.066 42.5C128.066 59.8707 113.871 74.0661 96.4999 74.0661C90.1494 74.0661 84.1723 72.1983 79.316 69.023C70.7241 63.4195 64.9338 53.7069 64.9338 42.5C64.9338 41.1925 64.9338 39.8851 65.1206 38.5776C67.1752 23.0747 80.4367 10.9339 96.4999 10.9339C100.796 10.9339 104.905 11.8678 108.641 13.3621C118.54 17.4713 126.011 26.6236 127.692 37.6437C128.066 39.3247 128.066 40.819 128.066 42.5Z" stroke="#546169" stroke-miterlimit="10"/>
</svg>
