<svg width="192" height="80" viewBox="0 0 192 80" fill="none" xmlns="http://www.w3.org/2000/svg">
<path d="M39.7 8.1C39.7 9.53594 38.5359 10.7 37.1 10.7C35.6641 10.7 34.5 9.53594 34.5 8.1C34.5 6.66406 35.6641 5.5 37.1 5.5C38.5359 5.5 39.7 6.66406 39.7 8.1Z" stroke="#546169"/>
<path d="M189.7 73.1C189.7 74.5359 188.536 75.7 187.1 75.7C185.664 75.7 184.5 74.5359 184.5 73.1C184.5 71.6641 185.664 70.5 187.1 70.5C188.536 70.5 189.7 71.6641 189.7 73.1Z" stroke="#546169"/>
<path d="M5.1 70.2C6.81208 70.2 8.2 68.8121 8.2 67.1C8.2 65.3879 6.81208 64 5.1 64C3.38792 64 2 65.3879 2 67.1C2 68.8121 3.38792 70.2 5.1 70.2Z" fill="#FD583E"/>
<path d="M161.1 16.2C162.812 16.2 164.2 14.8121 164.2 13.1C164.2 11.3879 162.812 10 161.1 10C159.388 10 158 11.3879 158 13.1C158 14.8121 159.388 16.2 161.1 16.2Z" fill="#FD583E"/>
<g clip-path="url(#clip0)">
<path d="M69.3849 26.8186C66.0254 28.2506 60.333 33.883 60.333 39.42H72.1844" stroke="#546169" stroke-miterlimit="10"/>
<path d="M73.2109 62.5226C77.0248 62.5226 80.1165 59.3598 80.1165 55.4582C80.1165 51.5566 77.0248 48.3937 73.2109 48.3937C69.3971 48.3937 66.3054 51.5566 66.3054 55.4582C66.3054 59.3598 69.3971 62.5226 73.2109 62.5226Z" stroke="#546169" stroke-miterlimit="10"/>
<path d="M93.8309 41.6592C93.362 41.6592 92.893 41.8345 92.6116 42.2727C92.3302 42.7109 92.2365 43.1492 92.424 43.675C92.7054 44.4638 93.0806 45.1649 93.362 45.9537L93.7371 46.8301V46.9178V47.0054H93.6434H93.2682H92.893C92.7054 47.0054 92.5178 47.0054 92.3303 47.0054C91.9551 47.0054 91.2047 47.0054 90.8296 47.7942C90.642 48.1448 90.5482 48.7583 91.1109 49.4594C91.3923 49.81 91.7675 50.1606 92.0489 50.5988C92.3303 50.9493 92.7054 51.3875 92.9868 51.7381C93.4558 52.264 93.8309 52.7898 94.2999 53.228C94.7689 53.8415 95.3316 54.455 95.8006 55.0685C95.9882 55.3315 96.4572 55.8573 97.2075 55.8573C97.4889 55.8573 97.7703 55.7697 98.0516 55.5944C98.5206 55.3315 99.0834 54.718 98.5206 53.5786C98.1454 52.8775 97.864 52.0887 97.4889 51.2999L97.3013 50.8617H97.9578H98.2392H98.5206H98.802H98.8958H98.9896C99.7399 50.8617 100.209 50.5988 100.49 50.0729C100.865 49.3718 100.396 48.7583 100.209 48.4953V48.4077L98.1454 45.7784L97.3013 44.6391C96.7385 43.8503 96.082 43.0615 95.5192 42.3604C95.3316 42.1851 94.9565 41.6592 94.2999 41.5716C94.0185 41.6592 93.9247 41.6592 93.8309 41.6592Z" fill="#FD583E"/>
<path d="M132.001 40.3748C132.001 40.3748 136.76 41.1385 137.32 45.8163" stroke="#546169" stroke-miterlimit="10"/>
<path d="M85.0623 58.5131C85.2489 58.5131 85.3422 58.5131 85.5288 58.5131C94.0208 58.5131 102.606 58.5131 111.098 58.5131C111.751 58.5131 111.845 58.5131 111.658 57.7494C111.471 56.7947 111.471 55.7446 111.378 54.6945C111.471 54.2172 111.471 52.9761 112.218 51.1623C112.871 50.0167 113.431 48.8711 114.364 47.821C118.283 43.716 124.909 43.4296 129.108 47.3437C131.348 49.5394 132.468 52.2124 132.561 55.2673C132.561 56.1265 132.468 56.9857 132.188 57.8448C132.095 58.2267 132.188 58.3222 132.468 58.3222C134.241 58.3222 136.014 58.3222 137.787 58.2267C138.067 58.2267 138.16 58.1312 138.16 57.8448C138.347 56.6993 138.347 55.4582 138.347 54.3126C138.347 52.9761 138.347 51.5441 138.347 50.2076C138.347 48.6802 137.974 47.3437 137.32 46.0071C137.134 45.6253 137.04 45.5298 136.574 45.7207C134.894 46.389 132.934 45.8162 132.001 44.3842C131.348 43.3341 131.161 42.0931 131.721 40.852C132.001 40.2792 131.815 40.0883 131.348 39.8974C128.362 37.988 125.189 36.5561 122.109 34.9332C117.257 32.4511 112.124 29.969 106.805 27.8687" stroke="#546169" stroke-miterlimit="10"/>
<path d="M122.016 62.5226C125.83 62.5226 128.922 59.3598 128.922 55.4582C128.922 51.5566 125.83 48.3937 122.016 48.3937C118.202 48.3937 115.111 51.5566 115.111 55.4582C115.111 59.3598 118.202 62.5226 122.016 62.5226Z" stroke="#546169" stroke-miterlimit="10"/>
<path d="M111.564 29.9689C109.698 29.2052 107.925 28.346 106.059 27.6778C102.699 26.3413 99.3398 25.1957 95.8871 24.5274C94.0207 24.1455 92.061 23.9546 90.1013 23.8592C86.7419 23.6682 83.3825 23.4773 79.9297 23.5728C76.1037 23.6682 72.1843 24.241 68.8248 26.3413C68.3583 26.6276 68.3583 27.2959 68.6382 27.2959C71.1578 27.2959 71.9977 30.6372 71.9977 31.8782C71.9977 33.1193 71.9977 39.6109 71.9977 39.6109H59.8663C59.3997 41.3293 59.0265 43.0477 58.8398 44.8615C58.6532 46.389 58.5599 47.9164 58.5599 49.3484C58.5599 49.4439 58.4666 49.5393 58.4666 49.6348C58.4666 51.1623 58.4666 52.7852 58.4666 54.3126C58.4666 55.6491 58.4666 56.9856 58.4666 58.3222C59.8663 58.5131 61.3594 58.3222 62.7592 58.4176C63.1325 58.4176 62.9458 58.1312 62.9458 58.0358C62.6659 56.5083 62.4792 54.9809 62.8525 53.4534C63.3191 50.9713 64.4389 48.9665 66.3053 47.3436C69.1048 44.957 72.2776 44.0978 75.7304 44.957C79.7431 45.9117 82.4493 48.4892 83.5691 52.5942C84.129 54.4081 84.129 56.2219 83.6624 58.0358C83.5691 58.4176 83.6624 58.6086 84.0357 58.6086C84.2223 58.6086 84.409 58.6086 84.5023 58.6086C91.0345 58.6086 97.6601 58.6086 104.192 58.6086" stroke="#546169" stroke-miterlimit="10"/>
<path d="M115.95 36.6516C116.51 37.0335 116.604 37.7972 116.417 38.5609C116.23 39.2292 115.764 39.611 115.017 39.611C113.711 39.611 76.0103 39.4201 76.0103 39.4201C76.0103 36.4607 76.0103 33.5013 76.0103 30.5418C76.0103 29.0144 76.8501 27.9643 78.3432 27.4869C79.1831 27.2005 80.1162 27.1051 81.0494 27.1051C83.849 27.0096 86.7418 27.1051 89.5414 27.3915C92.1543 27.6779 94.8605 27.9643 97.3801 28.8235C100.18 29.8736 115.95 36.6516 115.95 36.6516Z" stroke="#546169" stroke-miterlimit="10"/>
</g>
<defs>
<clipPath id="clip0">
<rect width="81" height="40" fill="white" transform="translate(58 23)"/>
</clipPath>
</defs>
</svg>
