<svg width="192" height="80" viewBox="0 0 192 80" fill="none" xmlns="http://www.w3.org/2000/svg">
<path d="M39.7 8.1C39.7 9.53594 38.5359 10.7 37.1 10.7C35.6641 10.7 34.5 9.53594 34.5 8.1C34.5 6.66406 35.6641 5.5 37.1 5.5C38.5359 5.5 39.7 6.66406 39.7 8.1Z" stroke="#546169"/>
<path d="M189.7 73.1C189.7 74.5359 188.536 75.7 187.1 75.7C185.664 75.7 184.5 74.5359 184.5 73.1C184.5 71.6641 185.664 70.5 187.1 70.5C188.536 70.5 189.7 71.6641 189.7 73.1Z" stroke="#546169"/>
<path d="M5.1 70.2C6.81208 70.2 8.2 68.8121 8.2 67.1C8.2 65.3879 6.81208 64 5.1 64C3.38792 64 2 65.3879 2 67.1C2 68.8121 3.38792 70.2 5.1 70.2Z" fill="#FD583E"/>
<path d="M161.1 16.2C162.812 16.2 164.2 14.8121 164.2 13.1C164.2 11.3879 162.812 10 161.1 10C159.388 10 158 11.3879 158 13.1C158 14.8121 159.388 16.2 161.1 16.2Z" fill="#FD583E"/>
<g clip-path="url(#clip0)">
<path d="M135.547 37.3356C135.288 42.8069 123.115 52.3333 123.115 52.3333C123.115 52.3333 77.7266 52.3333 69.5684 52.3333C68.8561 51.1747 68.3381 41.0046 68.3381 41.0046C68.3381 41.0046 118.971 40.1034 135.547 37.3356Z" stroke="#546169" stroke-miterlimit="10"/>
<path d="M109.129 39.5241V27.9379H122.921C122.921 27.9379 127.194 34.1815 128.165 35.7264C128.554 36.3701 128.813 37.3356 128.942 38.108" stroke="#546169" stroke-miterlimit="10"/>
<path d="M113.662 24.0115H111.266V28.0023H113.662V24.0115Z" stroke="#546169" stroke-miterlimit="10"/>
<path d="M115.799 30.9632H111.849V36.7563H115.799V30.9632Z" stroke="#546169" stroke-miterlimit="10"/>
<path d="M122.273 30.9632H118.324V34.3103H122.273V30.9632Z" stroke="#546169" stroke-miterlimit="10"/>
<path d="M68.4028 41.0046C68.4028 41.0046 69.8273 35.0184 70.2805 33.6023C70.7338 32.1862 71.7697 30.3196 73.3884 30.5771C75.0071 30.8345 75.5251 33.9242 74.7482 36.5633C73.9064 39.2023 73.1942 40.8759 73.1942 40.8759L68.4028 41.0046Z" stroke="#546169" stroke-miterlimit="10" stroke-linejoin="round"/>
<path d="M73.0648 30.8988C73.0648 30.8988 73.3238 30.3839 73.0001 29.9333C72.6763 29.4827 72.5469 27.8735 73.7771 27.8735C75.0073 27.8735 74.9425 29.354 74.7483 29.8046C74.554 30.2551 73.9713 31.2207 73.9713 31.2207C73.9713 31.2207 73.3886 31.285 73.0648 30.8988Z" fill="#EEF1F3" stroke="#546169" stroke-miterlimit="10" stroke-linejoin="round"/>
<path d="M70.669 34.4391C70.669 34.4391 74.1006 15.5149 67.6258 15.3218C61.151 15.1287 60.374 40.3609 60.374 40.3609" stroke="#546169" stroke-miterlimit="10" stroke-linejoin="round"/>
<path d="M74.4245 32.7012C73.3886 32.7656 71.3166 36.692 71.3166 36.692L71.1224 34.4391L70.0217 34.1173C70.0217 34.1173 69.4389 37.915 70.6044 38.3656C71.7699 38.8161 74.295 36.177 74.7483 35.469C75.1368 34.761 75.59 32.5725 74.4245 32.7012Z" fill="#EEF1F3" stroke="#546169" stroke-miterlimit="10" stroke-linejoin="round"/>
<path d="M60.3094 40.2322C60.1799 40.1035 58.2375 42.3563 58.626 44.0299C59.0145 45.7035 60.0504 46.0897 59.4677 47.2483C58.885 48.4069 58.626 49.4368 58.626 49.4368C58.626 49.4368 60.3094 48.6644 60.5684 47.9563C61.0217 48.9862 62.1224 49.5655 62.1224 49.5655C62.1224 49.5655 61.4102 47.4414 61.5397 46.5403C61.6691 45.6391 63.0936 42.9357 60.3094 40.2322Z" fill="#1ADCD0"/>
<path d="M55 52.5908H64.8417" stroke="#546169" stroke-miterlimit="10" stroke-linejoin="round"/>
<path d="M83.1654 40.5541C83.1654 40.5541 82.2589 32.1219 85.4963 30.8989C88.7337 29.6759 88.151 35.0828 88.151 36.6276C88.151 38.1725 88.3452 40.6184 88.3452 40.6184" stroke="#546169" stroke-miterlimit="10" stroke-linejoin="round"/>
<path d="M85.2375 31.092C85.2375 31.092 84.1368 28.9034 85.2375 27.9379C86.3382 27.0368 86.921 27.8092 86.7915 28.5816C86.7267 29.2897 85.9497 29.6115 86.144 29.9977C86.3382 30.3839 86.403 30.9632 86.403 30.9632L85.2375 31.092Z" fill="#EEF1F3" stroke="#546169" stroke-miterlimit="10" stroke-linejoin="round"/>
<path d="M133.928 41.9701C123.115 44.7379 68.144 43.8368 68.144 43.8368L67.9497 40.6828C67.9497 40.6828 128.36 39.0092 136 36.8851C136.065 38.7517 133.928 41.9701 133.928 41.9701Z" fill="#FF5533"/>
<path d="M62.7698 70.6782H67.3669" stroke="#546169" stroke-miterlimit="10" stroke-linejoin="round"/>
<path d="M98.7051 66.816H108.482" stroke="#546169" stroke-miterlimit="10" stroke-linejoin="round"/>
<path d="M111.655 62.6965H129.266" stroke="#546169" stroke-miterlimit="10" stroke-linejoin="round"/>
<path d="M86.9856 40.1034C86.9856 40.1034 87.1151 29.2896 93.3309 24.6552C93.3309 24.6552 97.2158 63.5333 103.82 66.7517" stroke="#546169" stroke-miterlimit="10" stroke-linejoin="round"/>
<path d="M93.072 39.846C93.072 39.846 93.2015 29.2253 99.4173 24.5908C99.4173 24.5908 104.209 58.7701 114.892 62.6322" stroke="#546169" stroke-miterlimit="10" stroke-linejoin="round"/>
<path d="M80.8993 40.2965C80.8993 40.2965 80.8993 29.354 77.3382 24.7195C77.3382 24.7195 77.2087 65.3999 65.1655 70.5494" stroke="#546169" stroke-miterlimit="10" stroke-linejoin="round"/>
</g>
<defs>
<clipPath id="clip0">
<rect width="81" height="56" fill="white" transform="translate(55 15)"/>
</clipPath>
</defs>
</svg>
