<svg width="192" height="80" viewBox="0 0 192 80" fill="none" xmlns="http://www.w3.org/2000/svg">
<path d="M39.7 8.1C39.7 9.53594 38.5359 10.7 37.1 10.7C35.6641 10.7 34.5 9.53594 34.5 8.1C34.5 6.66406 35.6641 5.5 37.1 5.5C38.5359 5.5 39.7 6.66406 39.7 8.1Z" stroke="#546169"/>
<path d="M189.7 73.1C189.7 74.5359 188.536 75.7 187.1 75.7C185.664 75.7 184.5 74.5359 184.5 73.1C184.5 71.6641 185.664 70.5 187.1 70.5C188.536 70.5 189.7 71.6641 189.7 73.1Z" stroke="#546169"/>
<path d="M5.1 70.2C6.81208 70.2 8.2 68.8121 8.2 67.1C8.2 65.3879 6.81208 64 5.1 64C3.38792 64 2 65.3879 2 67.1C2 68.8121 3.38792 70.2 5.1 70.2Z" fill="#27DAD0"/>
<path d="M161.1 16.2C162.812 16.2 164.2 14.8121 164.2 13.1C164.2 11.3879 162.812 10 161.1 10C159.388 10 158 11.3879 158 13.1C158 14.8121 159.388 16.2 161.1 16.2Z" fill="#27DAD0"/>
<path d="M82.457 69.9999C88.2323 69.9999 92.9141 65.3264 92.9141 59.5613C92.9141 53.7961 88.2323 49.1226 82.457 49.1226C76.6818 49.1226 72 53.7961 72 59.5613C72 65.3264 76.6818 69.9999 82.457 69.9999Z" stroke="#546169" stroke-miterlimit="10" stroke-linejoin="round"/>
<path d="M119.405 69.9999C125.181 69.9999 129.862 65.3264 129.862 59.5613C129.862 53.7961 125.181 49.1226 119.405 49.1226C113.63 49.1226 108.948 53.7961 108.948 59.5613C108.948 65.3264 113.63 69.9999 119.405 69.9999Z" stroke="#546169" stroke-miterlimit="10" stroke-linejoin="round"/>
<path d="M92.6153 43.4558L82.2578 59.1636H98.6903L92.6153 43.4558Z" stroke="#546169" stroke-miterlimit="10" stroke-linejoin="round"/>
<path d="M104 43.4558H113.031L98.6903 59.1636L92.6152 43.4558H98" stroke="#546169" stroke-miterlimit="10" stroke-linejoin="round"/>
<path d="M119.405 59.8597L110.044 36.994L114.924 35.0057" stroke="#546169" stroke-miterlimit="10" stroke-linejoin="round"/>
<path d="M90.5 38L93.7108 46.2398" stroke="#546169" stroke-miterlimit="10" stroke-linejoin="round"/>
<path d="M103.176 22.0012C102.579 21.9018 86.3455 28.0656 88.1382 35.7206C88.7357 38.3054 95.8067 40.2937 97.0017 41.8844C98.1968 43.3756 100.288 45.8611 100.288 45.8611L92.4206 54.0132L94.1136 55.5044C94.1136 55.5044 105.467 49.0424 104.67 45.364C103.874 41.6856 99.0931 36.3171 99.0931 36.3171C99.0931 36.3171 101.185 30.2527 101.981 28.0656C104.371 33.0364 111.343 36.6154 111.343 36.6154L112.837 35.4224C112.837 35.4224 106.562 30.1533 106.562 27.0714" stroke="#546169" stroke-miterlimit="10" stroke-linejoin="round"/>
<path d="M103.215 22.0846C102.617 21.9851 86.3841 28.1489 88.1767 35.804C88.7743 38.3888 95.8452 40.3771 97.0403 41.9678C98.2354 43.459 100.327 45.9444 100.327 45.9444L92.4591 54.0965L94.1522 55.5878C94.1522 55.5878 105.506 49.1257 104.709 45.4473C103.912 41.7689 99.1317 36.4005 99.1317 36.4005C99.1317 36.4005 101.223 30.3361 102.02 28.1489C104.41 33.1197 111.381 36.6987 111.381 36.6987L112.875 35.5057C112.875 35.5057 105.104 30.7002 105.104 27.6183C105.104 25.5306 100.604 24.6183 103.215 22.0846Z" stroke="#546169" stroke-miterlimit="10" stroke-linejoin="round"/>
<path fill-rule="evenodd" clip-rule="evenodd" d="M103.298 22.3276C103.047 22.8035 102.778 23.0946 102.778 23.0946C102.37 23.9099 104.038 24.4578 104.761 24.2995C104.866 24.3994 104.97 24.4969 105.074 24.5929C105.861 25.3256 106.562 25.9788 106.562 27.0714C106.562 30.1533 112.837 35.4224 112.837 35.4224L111.343 36.6154C111.343 36.6154 104.494 33.5892 102.104 28.6183C101.307 30.8055 99.604 36.6183 99.604 36.6183L88.1382 35.7206C86.3455 28.0656 102.579 21.9018 103.176 22.0012C103.214 22.114 103.254 22.2227 103.298 22.3276Z" fill="#27DAD0"/>
<path d="M102.778 23.0946L102.411 22.7551C102.379 22.7897 102.352 22.8286 102.331 22.8707L102.778 23.0946ZM103.298 22.3276L103.74 22.5608C103.81 22.4287 103.817 22.2725 103.759 22.1347L103.298 22.3276ZM104.761 24.2995L105.106 23.9378C104.986 23.823 104.817 23.7755 104.654 23.811L104.761 24.2995ZM105.074 24.5929L104.733 24.9589L104.733 24.9589L105.074 24.5929ZM112.837 35.4224L113.149 35.8131C113.266 35.7195 113.335 35.5784 113.337 35.4285C113.338 35.2787 113.273 35.1359 113.158 35.0395L112.837 35.4224ZM111.343 36.6154L111.141 37.0727C111.311 37.148 111.509 37.1223 111.655 37.0061L111.343 36.6154ZM102.104 28.6183L102.555 28.4017C102.467 28.2204 102.28 28.109 102.079 28.119C101.878 28.1289 101.703 28.2582 101.634 28.4472L102.104 28.6183ZM99.604 36.6183L99.565 37.1168C99.8008 37.1353 100.017 36.986 100.084 36.7589L99.604 36.6183ZM88.1382 35.7206L87.6513 35.8346C87.701 36.0466 87.8821 36.2021 88.0991 36.2191L88.1382 35.7206ZM103.176 22.0012L103.651 21.8447C103.593 21.6681 103.442 21.5385 103.258 21.508L103.176 22.0012ZM102.778 23.0946C103.145 23.434 103.145 23.434 103.145 23.4339C103.145 23.4339 103.145 23.4338 103.145 23.4338C103.146 23.4337 103.146 23.4336 103.146 23.4335C103.146 23.4333 103.146 23.4331 103.146 23.4328C103.147 23.4323 103.147 23.4318 103.148 23.4312C103.149 23.4299 103.15 23.4284 103.152 23.4265C103.155 23.4229 103.16 23.4181 103.165 23.4121C103.175 23.4003 103.19 23.3839 103.207 23.3632C103.242 23.3218 103.289 23.263 103.345 23.1885C103.456 23.0399 103.601 22.8262 103.74 22.5608L102.856 22.0944C102.745 22.3049 102.63 22.4747 102.543 22.5906C102.5 22.6483 102.465 22.6921 102.441 22.7202C102.429 22.7342 102.421 22.7443 102.415 22.7502C102.413 22.7531 102.411 22.755 102.41 22.7559C102.41 22.7563 102.41 22.7564 102.41 22.7563C102.41 22.7562 102.41 22.7561 102.41 22.7559C102.41 22.7558 102.41 22.7557 102.411 22.7556C102.411 22.7555 102.411 22.7554 102.411 22.7554C102.411 22.7553 102.411 22.7553 102.411 22.7552C102.411 22.7552 102.411 22.7551 102.778 23.0946ZM104.654 23.811C104.558 23.8321 104.387 23.8355 104.171 23.7994C103.96 23.7644 103.743 23.6983 103.562 23.6114C103.372 23.5203 103.268 23.4287 103.229 23.3696C103.21 23.342 103.211 23.3467 103.225 23.3185L102.331 22.8707C102.141 23.2501 102.197 23.6291 102.399 23.9286C102.58 24.1965 102.862 24.3849 103.129 24.5129C103.404 24.6451 103.714 24.7372 104.007 24.7859C104.293 24.8335 104.602 24.846 104.868 24.7879L104.654 23.811ZM104.416 24.6612C104.523 24.7636 104.63 24.8632 104.733 24.9589L105.414 24.2269C105.311 24.1305 105.208 24.0352 105.106 23.9378L104.416 24.6612ZM104.733 24.9589C105.548 25.7179 106.062 26.2287 106.062 27.0714H107.062C107.062 25.7289 106.173 24.9332 105.414 24.2269L104.733 24.9589ZM106.062 27.0714C106.062 27.9894 106.52 28.9976 107.121 29.9442C107.731 30.907 108.538 31.8792 109.332 32.7414C110.128 33.6056 110.923 34.3704 111.517 34.9186C111.815 35.1929 112.063 35.4137 112.238 35.5662C112.325 35.6425 112.394 35.7018 112.441 35.7422C112.465 35.7625 112.483 35.778 112.495 35.7886C112.502 35.7938 112.506 35.7979 112.51 35.8007C112.511 35.8021 112.513 35.8032 112.514 35.8039C112.514 35.8043 112.514 35.8046 112.515 35.8048C112.515 35.8049 112.515 35.805 112.515 35.8051C112.515 35.8052 112.515 35.8053 112.837 35.4224C113.158 35.0395 113.158 35.0395 113.158 35.0395C113.158 35.0395 113.158 35.0395 113.158 35.0394C113.158 35.0393 113.158 35.0391 113.158 35.0389C113.157 35.0384 113.156 35.0375 113.155 35.0364C113.152 35.0341 113.148 35.0305 113.142 35.0258C113.131 35.0162 113.114 35.0017 113.091 34.9826C113.047 34.9444 112.981 34.8874 112.896 34.8136C112.728 34.666 112.486 34.451 112.195 34.1833C111.614 33.6472 110.84 32.9021 110.067 32.0638C109.293 31.2235 108.531 30.3006 107.965 29.4086C107.389 28.5005 107.062 27.6944 107.062 27.0714H106.062ZM112.525 35.0317L111.031 36.2247L111.655 37.0061L113.149 35.8131L112.525 35.0317ZM111.343 36.6154C111.545 36.158 111.545 36.158 111.545 36.1581C111.545 36.1581 111.545 36.1581 111.545 36.1581C111.545 36.158 111.545 36.158 111.545 36.1578C111.544 36.1576 111.543 36.1572 111.542 36.1566C111.539 36.1554 111.535 36.1534 111.529 36.1507C111.517 36.1454 111.499 36.1371 111.475 36.126C111.426 36.1038 111.354 36.0701 111.261 36.0252C111.074 35.9353 110.803 35.8007 110.47 35.6234C109.803 35.2686 108.889 34.7445 107.902 34.0684C105.916 32.7072 103.693 30.7687 102.555 28.4017L101.653 28.835C102.905 31.4388 105.302 33.4988 107.337 34.8934C108.361 35.5952 109.309 36.1383 110.001 36.5063C110.347 36.6904 110.63 36.831 110.827 36.9261C110.926 36.9736 111.003 37.0098 111.056 37.0343C111.083 37.0465 111.103 37.0559 111.118 37.0623C111.125 37.0655 111.13 37.068 111.134 37.0697C111.136 37.0706 111.138 37.0713 111.139 37.0718C111.139 37.072 111.14 37.0722 111.14 37.0724C111.14 37.0724 111.14 37.0725 111.14 37.0726C111.141 37.0726 111.141 37.0727 111.343 36.6154ZM101.634 28.4472C101.23 29.5557 100.602 31.5688 100.077 33.293C99.8138 34.1576 99.5757 34.9536 99.4033 35.5335C99.3171 35.8234 99.2474 36.0594 99.1992 36.2229C99.1751 36.3046 99.1563 36.3683 99.1436 36.4115C99.1373 36.4332 99.1324 36.4497 99.1291 36.4608C99.1275 36.4664 99.1263 36.4706 99.1254 36.4734C99.125 36.4749 99.1247 36.4759 99.1245 36.4766C99.1244 36.477 99.1243 36.4773 99.1243 36.4775C99.1242 36.4776 99.1242 36.4776 99.1242 36.4777C99.1242 36.4777 99.1242 36.4777 99.604 36.6183C100.084 36.7589 100.084 36.7589 100.084 36.7589C100.084 36.7588 100.084 36.7588 100.084 36.7587C100.084 36.7585 100.084 36.7583 100.084 36.7579C100.084 36.7572 100.085 36.7562 100.085 36.7548C100.086 36.752 100.087 36.7479 100.089 36.7424C100.092 36.7314 100.097 36.715 100.103 36.6935C100.116 36.6505 100.134 36.5872 100.158 36.5057C100.206 36.3428 100.276 36.1075 100.362 35.8184C100.534 35.24 100.771 34.4461 101.034 33.5841C101.56 31.855 102.181 29.8682 102.574 28.7895L101.634 28.4472ZM99.643 36.1199L88.1772 35.2221L88.0991 36.2191L99.565 37.1168L99.643 36.1199ZM88.625 35.6066C88.2235 33.8923 88.8167 32.2241 90.043 30.6395C91.2717 29.0519 93.0971 27.6034 95.0292 26.3749C96.9562 25.1497 98.9608 24.1611 100.521 23.4852C101.301 23.1474 101.966 22.8895 102.45 22.7202C102.693 22.6352 102.885 22.5743 103.022 22.5369C103.091 22.518 103.138 22.507 103.167 22.5016C103.222 22.4914 103.174 22.5076 103.094 22.4944L103.258 21.508C103.142 21.4885 103.026 21.5107 102.984 21.5185C102.917 21.5311 102.839 21.55 102.757 21.5726C102.591 21.6183 102.375 21.6871 102.12 21.7762C101.609 21.9548 100.922 22.2219 100.124 22.5676C98.5283 23.2587 96.4747 24.2708 94.4927 25.531C92.5158 26.788 90.5817 28.3095 89.2522 30.0275C87.9202 31.7485 87.1565 33.7214 87.6513 35.8346L88.625 35.6066ZM102.702 22.1577C102.743 22.2829 102.788 22.4038 102.837 22.5205L103.759 22.1347C103.721 22.0416 103.684 21.945 103.651 21.8447L102.702 22.1577Z" fill="#27DAD0"/>
<path d="M103.063 22.9762C103.063 22.9762 104.259 21.6838 103.96 20.0932C103.661 18.5025 103.362 16.3154 106.151 16.0171C108.939 15.7189 109.039 19.3973 108.74 20.9879C108.441 22.5786 105.454 23.2745 105.354 23.9704C105.155 24.5669 102.566 23.9704 103.063 22.9762Z" stroke="#546169" stroke-miterlimit="10" stroke-linejoin="round"/>
</svg>
