<?xml version="1.0" encoding="UTF-8" standalone="no"?>
<svg
   xmlns:dc="http://purl.org/dc/elements/1.1/"
   xmlns:cc="http://creativecommons.org/ns#"
   xmlns:rdf="http://www.w3.org/1999/02/22-rdf-syntax-ns#"
   xmlns:svg="http://www.w3.org/2000/svg"
   xmlns="http://www.w3.org/2000/svg"
   xmlns:sodipodi="http://sodipodi.sourceforge.net/DTD/sodipodi-0.dtd"
   xmlns:inkscape="http://www.inkscape.org/namespaces/inkscape"
   width="37.177971"
   height="35.500069"
   viewBox="0 0 37.177971 35.500069"
   version="1.1"
   id="svg6"
   sodipodi:docname="quote-start.svg"
   style="fill:none"
   inkscape:version="0.92.3 (2405546, 2018-03-11)">
  <metadata
     id="metadata12">
    <rdf:RDF>
      <cc:Work
         rdf:about="">
        <dc:format>image/svg+xml</dc:format>
        <dc:type
           rdf:resource="http://purl.org/dc/dcmitype/StillImage" />
        <dc:title></dc:title>
      </cc:Work>
    </rdf:RDF>
  </metadata>
  <defs
     id="defs10" />
  <sodipodi:namedview
     pagecolor="#ffffff"
     bordercolor="#666666"
     borderopacity="1"
     objecttolerance="10"
     gridtolerance="10"
     guidetolerance="10"
     inkscape:pageopacity="0"
     inkscape:pageshadow="2"
     inkscape:window-width="1920"
     inkscape:window-height="960"
     id="namedview8"
     showgrid="false"
     inkscape:zoom="6.5555556"
     inkscape:cx="28.427969"
     inkscape:cy="17.750035"
     inkscape:window-x="0"
     inkscape:window-y="27"
     inkscape:window-maximized="1"
     inkscape:current-layer="svg6" />
  <path
     d="m 16.70047,1.9787701 c 0,2.2499 0,4.451 0,6.701 -0.29722,0.8315 -0.89165,1.1739 -1.73375,1.2228 -1.13932,0.0489 -1.98142,0.5868999 -2.62539,1.4183999 -0.6935,0.9294 -1.04025,1.9565 -1.33746,3.0326 -0.34675,1.4674 -0.49536,2.9348 -0.54489,4.5 0.1486,0 0.29721,0 0.44582,0 1.387,0 2.77399,0 4.16099,0 0.64396,0 1.13932,0.1956 1.48607,0.7336 0.09907,0.1468 0.14861,0.2935 0.198143,0.4403 -1e-6,4.4999 -1e-6,8.99985 -1e-6,13.49979 -0.297212,0.92933 -0.990712,1.22281 -1.931892,1.22281 -4.06192,0 -8.1238103,0 -12.1857103,0 -0.1487,0 -0.2973,0 -0.4459,0 -0.9411,-0.19565 -1.4365,-0.7826 -1.4365,-1.80976 0,-4.01082 0,-8.02164 0,-12.03244 0,-1.8098 0.0495,-3.6685 0.2972,-5.4782 0.3468,-2.6413 0.9907,-5.2336 2.3282,-7.6303999 2.4768,-4.4021 6.19194,-6.84770003 11.3436403,-7.04330003 1.13932,-0.049 1.48607,0.1956 1.98143,1.22280003 z"
     stroke-miterlimit="10"
     id="path2"
     inkscape:connector-curvature="0"
     style="stroke:#27dad0;stroke-width:1.5;stroke-miterlimit:10" />
  <path
     d="m 30.047906,18.853934 c 0.04984,-0.5887 0.04984,-1.1284 0.09969,-1.6681 0.14953,-1.4719 0.34891,-2.9437 0.94704,-4.3665 0.69782,-1.7663 1.84424,-2.9927999 3.93769,-3.0418999 0.84736,-0.049 1.395643,-0.6378 1.395643,-1.4228 0,-2.0606 0,-4.1212 0,-6.1327 0,-0.8832 -0.697823,-1.47190003 -1.595013,-1.47190003 -0.39876,0 -0.84735,0.0491 -1.24611,0.0491 -2.64174,0.1962 -4.98442,1.07930003 -6.97818,2.74740003 -2.4424,1.9625 -3.9377,4.5137 -4.8848,7.4574999 -0.9968,3.0418 -1.2959,6.2308 -1.2959,9.4199 0,4.2193 0,8.43865 0,12.60893 0,1.07936 0.5981,1.71717 1.7445,1.71717 4.187,0 8.37388,10e-7 12.5608,10e-7 1.09657,0 1.694701,-0.588741 1.694701,-1.668111 0,-4.17027 0,-8.38959 10e-7,-12.55989 0,-1.0794 -0.598132,-1.6681 -1.694702,-1.6681 -1.39564,0 -2.79128,0 -4.23676,0 -0.09969,0 -0.24922,0 -0.4486,0 z"
     stroke-miterlimit="10"
     id="path4"
     inkscape:connector-curvature="0"
     style="stroke:#27dad0;stroke-width:1.5;stroke-miterlimit:10" />
</svg>
