<svg width="243" height="245" viewBox="0 0 243 245" fill="none" xmlns="http://www.w3.org/2000/svg">
<g clip-path="url(#clip0)">
<path d="M103.976 226.31C46.5518 226.31 3.05176e-05 175.649 3.05176e-05 113.155C3.05176e-05 50.6612 46.5518 0 103.976 0C161.401 0 207.953 50.6612 207.953 113.155C207.953 175.649 161.401 226.31 103.976 226.31Z" fill="white"/>
<path d="M207.875 106.305L201.814 104.275" stroke="#546169" stroke-width="1.5" stroke-miterlimit="10" stroke-linecap="round" stroke-linejoin="round"/>
<path d="M203.601 111.547L207.797 110.533" stroke="#546169" stroke-width="1.5" stroke-miterlimit="10" stroke-linecap="round" stroke-linejoin="round"/>
<path d="M210.129 102.246L206.554 98.7782" stroke="#546169" stroke-width="1.5" stroke-miterlimit="10" stroke-linecap="round" stroke-linejoin="round"/>
<path d="M46.0822 169.141H171.351C173.76 169.141 175.703 167.026 175.703 164.405V76.7053C175.703 74.0836 173.76 71.9694 171.351 71.9694H46.0822C43.6732 71.9694 41.7305 74.0836 41.7305 76.7053V164.405C41.7305 167.026 43.6732 169.141 46.0822 169.141Z" stroke="#546169" stroke-width="1.5" stroke-miterlimit="10" stroke-linecap="round" stroke-linejoin="round"/>
<path d="M115.4 169.902V236.458H141.044V243.393H73.0476V236.458H98.692V169.902" stroke="#546169" stroke-width="1.5" stroke-miterlimit="10" stroke-linecap="round" stroke-linejoin="round"/>
<path d="M230.411 150.873C229.323 129.815 223.417 124.826 222.407 125.164" stroke="#546169" stroke-width="1.5" stroke-miterlimit="10" stroke-linecap="round"/>
<path d="M218.133 126.263C218.133 126.263 222.795 120.597 224.272 116.538C225.826 112.225 223.028 105.459 218.055 106.136C213.082 106.812 212.46 111.125 213.936 113.578C215.335 116.03 215.413 121.95 214.014 123.134C212.615 124.403 217.122 126.855 218.133 126.263Z" fill="white" stroke="#546169" stroke-width="1.5" stroke-miterlimit="10" stroke-linecap="round" stroke-linejoin="round"/>
<path d="M187.437 137.427C184.329 134.044 158.84 121.612 158.84 121.612L161.56 118.229L162.259 117.299C162.259 117.299 180.909 125.502 188.603 126.602C192.955 127.194 196.762 125.418 199.793 123.642C201.969 122.458 207.797 122.035 210.906 122.373C219.531 123.304 224.583 124.995 229.478 130.323C236.006 137.173 240.358 145.038 242.223 155.102C244.088 165.166 228.779 175.145 228.779 175.145L229.789 167.872C229.789 167.872 236.317 160.599 235.462 156.032C234.607 151.635 230.178 145.715 230.178 145.715C230.178 145.715 230.955 163.559 229.789 167.872C227.536 176.075 223.65 198.571 223.65 198.571L195.441 193.243C195.441 193.243 191.09 170.071 192.721 149.182V147.66C192.721 147.829 190.546 140.725 187.437 137.427Z" fill="white" stroke="#546169" stroke-width="1.5" stroke-miterlimit="10" stroke-linecap="round" stroke-linejoin="round"/>
<path d="M221.707 198.317C221.707 198.909 218.055 240.602 218.055 240.602H213.082V196.71" stroke="#546169" stroke-width="1.5" stroke-miterlimit="10" stroke-linecap="round" stroke-linejoin="round"/>
<path d="M206.01 195.527C206.01 196.288 200.959 240.941 200.959 240.941L195.519 240.602L196.218 193.581" stroke="#546169" stroke-width="1.5" stroke-miterlimit="10" stroke-linecap="round" stroke-linejoin="round"/>
<path d="M218.055 240.518C218.599 240.518 218.288 243.985 218.677 243.985C219.065 243.985 207.176 244.154 207.176 244.154L207.642 242.294C207.953 241.786 208.341 241.448 208.885 241.364L213.159 240.518H218.055Z" stroke="#546169" stroke-width="1.5" stroke-miterlimit="10" stroke-linecap="round" stroke-linejoin="round"/>
<path d="M200.57 240.518C201.114 240.518 200.803 243.985 201.192 243.985C201.58 243.985 189.691 244.154 189.691 244.154L190.157 242.294C190.468 241.786 190.856 241.448 191.4 241.364L195.674 240.518H200.57Z" stroke="#546169" stroke-width="1.5" stroke-miterlimit="10" stroke-linecap="round" stroke-linejoin="round"/>
<path d="M228.468 244.408H171.973" stroke="#546169" stroke-width="1.5" stroke-miterlimit="10" stroke-linecap="round" stroke-linejoin="round"/>
<path d="M161.327 117.214C161.327 117.214 155.421 110.787 154.255 111.125C153.089 111.464 155.576 115.354 155.576 115.354C155.576 115.354 153.478 118.652 153.789 119.582C154.099 120.513 160.627 120.09 160.627 120.09L161.327 117.214Z" stroke="#546169" stroke-width="1.5" stroke-miterlimit="10" stroke-linecap="round" stroke-linejoin="round"/>
<path d="M91.2414 117.052L92.2042 100.643L106.268 104.031L100.973 108.638L116.928 132.052L124.837 127.37C126.041 126.646 127.519 126.989 128.413 128.131L140.586 144.35L136.185 148.423L125.525 134.184L117.513 138.943C116.275 139.667 114.727 139.286 113.868 138.068L96.5025 112.56L91.2414 117.052Z" fill="#FF5533"/>
</g>
<defs>
<clipPath id="clip0">
<rect width="243" height="245" fill="white" transform="matrix(-1 0 0 1 243 0)"/>
</clipPath>
</defs>
</svg>
