<svg width="302" height="213" viewBox="0 0 302 213" fill="none" xmlns="http://www.w3.org/2000/svg">
<g clip-path="url(#clip0)">
<path d="M0 106.5C0 165.322 47.5547 213 106.224 213C144.808 213 178.548 192.385 197.126 161.501C203.794 150.517 208.478 138.179 210.781 125.126C206.97 126.24 202.921 126.797 198.713 126.797C174.182 126.797 154.255 106.818 154.255 82.2231C154.255 61.2096 168.704 43.6188 188.234 38.9226C168.863 15.1233 139.33 0 106.224 0C47.5547 0 0 47.6783 0 106.5Z" fill="white"/>
<path d="M235.947 35.4204V189.439" stroke="#546169" stroke-width="1.5" stroke-miterlimit="10" stroke-linecap="round" stroke-linejoin="round"/>
<path d="M159.018 35.4204V189.439" stroke="#546169" stroke-width="1.5" stroke-miterlimit="10" stroke-linecap="round" stroke-linejoin="round"/>
<path d="M301.365 50.8621L296.84 54.046L292.314 50.8621L287.71 54.046L283.185 50.8621L278.58 54.046L274.055 50.8621L269.45 54.046L264.925 50.8621L260.32 54.046L255.795 50.8621L251.19 54.046" stroke="#546169" stroke-width="1.5" stroke-miterlimit="10" stroke-linecap="round" stroke-linejoin="round"/>
<path d="M301.365 81.9843L296.84 85.1682L292.314 81.9843L287.71 85.1682L283.185 81.9843L278.58 85.1682L274.055 81.9843L269.45 85.1682L264.925 81.9843L260.32 85.1682L255.795 81.9843L251.19 85.1682" stroke="#546169" stroke-width="1.5" stroke-miterlimit="10" stroke-linecap="round" stroke-linejoin="round"/>
<path d="M301.365 113.107L296.84 116.37L292.314 113.107L287.71 116.37L283.185 113.107L278.58 116.37L274.055 113.107L269.45 116.37L264.925 113.107L260.32 116.37L255.795 113.107L251.19 116.37" stroke="#546169" stroke-width="1.5" stroke-miterlimit="10" stroke-linecap="round" stroke-linejoin="round"/>
<path d="M238.647 78.0841L231.184 89.148L223.642 78.0841L216.179 89.148L208.717 78.0841L201.175 89.148L193.712 78.0841L186.249 89.148L178.707 78.0841L171.244 89.148L163.782 78.0841L156.24 89.148" stroke="#546169" stroke-width="1.5" stroke-miterlimit="10" stroke-linecap="round" stroke-linejoin="round"/>
<path d="M301.365 144.229L296.84 147.492L292.314 144.229L287.71 147.492L283.185 144.229L278.58 147.492L274.055 144.229L269.45 147.492L264.925 144.229L260.32 147.492L255.795 144.229L251.19 147.492" stroke="#546169" stroke-width="1.5" stroke-miterlimit="10" stroke-linecap="round" stroke-linejoin="round"/>
<path d="M301.365 174.475L296.84 177.659L292.314 174.475L287.71 177.659L283.185 174.475L278.58 177.659L274.055 174.475L269.45 177.659L264.925 174.475L260.32 177.659L255.795 174.475L251.19 177.659" stroke="#546169" stroke-width="1.5" stroke-miterlimit="10" stroke-linecap="round" stroke-linejoin="round"/>
<path d="M144.808 50.8621L140.282 54.046L135.678 50.8621L131.152 54.046L126.627 50.8621L122.023 54.046L117.497 50.8621L112.893 54.046L108.368 50.8621L103.763 54.046L99.2376 50.8621L94.633 54.046" stroke="#546169" stroke-width="1.5" stroke-miterlimit="10" stroke-linecap="round" stroke-linejoin="round"/>
<path d="M144.808 81.9843L140.282 85.1682L135.678 81.9843L131.152 85.1682L126.627 81.9843L122.023 85.1682L117.497 81.9843L112.893 85.1682L108.368 81.9843L103.763 85.1682L99.2376 81.9843L94.633 85.1682" stroke="#546169" stroke-width="1.5" stroke-miterlimit="10" stroke-linecap="round" stroke-linejoin="round"/>
<path d="M144.808 113.107L140.282 116.37L135.678 113.107L131.152 116.37L126.627 113.107L122.023 116.37L117.497 113.107L112.893 116.37L108.368 113.107L103.763 116.37L99.2376 113.107L94.633 116.37" stroke="#546169" stroke-width="1.5" stroke-miterlimit="10" stroke-linecap="round" stroke-linejoin="round"/>
<path d="M144.808 144.229L140.282 147.492L135.678 144.229L131.152 147.492L126.627 144.229L122.023 147.492L117.497 144.229L112.893 147.492L108.368 144.229L103.763 147.492L99.2376 144.229L94.633 147.492" stroke="#546169" stroke-width="1.5" stroke-miterlimit="10" stroke-linecap="round" stroke-linejoin="round"/>
<path d="M144.808 174.475L140.282 177.659L135.678 174.475L131.152 177.659L126.627 174.475L122.023 177.659L117.497 174.475L112.893 177.659L108.368 174.475L103.763 177.659L99.2376 174.475L94.633 177.659" stroke="#546169" stroke-width="1.5" stroke-miterlimit="10" stroke-linecap="round" stroke-linejoin="round"/>
<path d="M223.086 144.229L218.561 147.492L214.036 144.229L209.431 147.492L204.906 144.229L200.301 147.492L195.776 144.229L191.171 147.492L186.646 144.229L182.042 147.492L177.516 144.229L172.912 147.492" stroke="#546169" stroke-width="1.5" stroke-miterlimit="10" stroke-linecap="round" stroke-linejoin="round"/>
<path d="M223.086 174.475L218.561 177.659L214.036 174.475L209.431 177.659L204.906 174.475L200.301 177.659L195.776 174.475L191.171 177.659L186.646 174.475L182.042 177.659L177.516 174.475L172.912 177.659" stroke="#546169" stroke-width="1.5" stroke-miterlimit="10" stroke-linecap="round" stroke-linejoin="round"/>
<path d="M239.19 100.889L243.659 103.476L238.538 112.368L234.069 109.781L239.19 100.889Z" fill="white" stroke="#546169" stroke-width="1.5" stroke-miterlimit="10" stroke-linecap="round" stroke-linejoin="round"/>
<path d="M244.871 100.336L288.047 125.329L279.909 139.46L236.733 114.467L244.871 100.336Z" fill="white" stroke="#546169" stroke-width="1.5" stroke-miterlimit="10" stroke-linecap="round" stroke-linejoin="round"/>
<path fill-rule="evenodd" clip-rule="evenodd" d="M197.829 127.036C222.636 127.036 242.747 106.937 242.747 82.1435C242.747 57.3501 222.636 37.2511 197.829 37.2511C173.022 37.2511 152.911 57.3501 152.911 82.1435C152.911 106.937 173.022 127.036 197.829 127.036ZM197.829 116.529C216.83 116.529 232.234 101.134 232.234 82.1435C232.234 63.1528 216.83 47.7579 197.829 47.7579C178.828 47.7579 163.424 63.1528 163.424 82.1435C163.424 101.134 178.828 116.529 197.829 116.529Z" fill="#27DAD0"/>
</g>
<defs>
<clipPath id="clip0">
<rect width="302" height="213" fill="white" transform="matrix(-1 0 0 1 302 0)"/>
</clipPath>
</defs>
</svg>
