<svg width="208" height="208" viewBox="0 0 208 208" fill="none" xmlns="http://www.w3.org/2000/svg">
<circle cx="104" cy="104" r="104" fill="#2BCBC2"/>
<path d="M44.5078 68.3906C44.3672 69.5938 43.9219 70.5234 43.1719 71.1797C42.4271 71.8307 41.4349 72.1562 40.1953 72.1562C38.8516 72.1562 37.7734 71.6745 36.9609 70.7109C36.1536 69.7474 35.75 68.4583 35.75 66.8438V65.75C35.75 64.6927 35.9375 63.763 36.3125 62.9609C36.6927 62.1589 37.2292 61.5443 37.9219 61.1172C38.6146 60.6849 39.4167 60.4688 40.3281 60.4688C41.5365 60.4688 42.5052 60.8073 43.2344 61.4844C43.9635 62.1562 44.388 63.0885 44.5078 64.2812H43C42.8698 63.375 42.5859 62.7188 42.1484 62.3125C41.7161 61.9062 41.1094 61.7031 40.3281 61.7031C39.3698 61.7031 38.6172 62.0573 38.0703 62.7656C37.5286 63.474 37.2578 64.4818 37.2578 65.7891V66.8906C37.2578 68.125 37.5156 69.1068 38.0312 69.8359C38.5469 70.5651 39.2682 70.9297 40.1953 70.9297C41.0286 70.9297 41.6667 70.7422 42.1094 70.3672C42.5573 69.987 42.8542 69.3281 43 68.3906H44.5078ZM45.9531 67.6953C45.9531 66.8672 46.1146 66.1224 46.4375 65.4609C46.7656 64.7995 47.2188 64.2891 47.7969 63.9297C48.3802 63.5703 49.0443 63.3906 49.7891 63.3906C50.9401 63.3906 51.8698 63.7891 52.5781 64.5859C53.2917 65.3828 53.6484 66.4427 53.6484 67.7656V67.8672C53.6484 68.6901 53.4896 69.4297 53.1719 70.0859C52.8594 70.737 52.4089 71.2448 51.8203 71.6094C51.237 71.974 50.5651 72.1562 49.8047 72.1562C48.6589 72.1562 47.7292 71.7578 47.0156 70.9609C46.3073 70.1641 45.9531 69.1094 45.9531 67.7969V67.6953ZM47.4062 67.8672C47.4062 68.8047 47.6224 69.5573 48.0547 70.125C48.4922 70.6927 49.0755 70.9766 49.8047 70.9766C50.5391 70.9766 51.1224 70.6901 51.5547 70.1172C51.987 69.5391 52.2031 68.7318 52.2031 67.6953C52.2031 66.7682 51.9818 66.0182 51.5391 65.4453C51.1016 64.8672 50.5182 64.5781 49.7891 64.5781C49.0755 64.5781 48.5 64.862 48.0625 65.4297C47.625 65.9974 47.4062 66.8099 47.4062 67.8672ZM56.8281 63.5469L56.875 64.6094C57.5208 63.7969 58.3646 63.3906 59.4062 63.3906C61.1927 63.3906 62.0938 64.3984 62.1094 66.4141V72H60.6641V66.4062C60.6589 65.7969 60.5182 65.3464 60.2422 65.0547C59.9714 64.763 59.5469 64.6172 58.9688 64.6172C58.5 64.6172 58.0885 64.7422 57.7344 64.9922C57.3802 65.2422 57.1042 65.5703 56.9062 65.9766V72H55.4609V63.5469H56.8281ZM69.2109 69.7578C69.2109 69.3672 69.0625 69.0651 68.7656 68.8516C68.474 68.6328 67.9609 68.4453 67.2266 68.2891C66.4974 68.1328 65.9167 67.9453 65.4844 67.7266C65.0573 67.5078 64.7396 67.2474 64.5312 66.9453C64.3281 66.6432 64.2266 66.2839 64.2266 65.8672C64.2266 65.1745 64.5182 64.5885 65.1016 64.1094C65.6901 63.6302 66.4401 63.3906 67.3516 63.3906C68.3099 63.3906 69.0859 63.638 69.6797 64.1328C70.2786 64.6276 70.5781 65.2604 70.5781 66.0312H69.125C69.125 65.6354 68.9557 65.2943 68.6172 65.0078C68.2839 64.7214 67.862 64.5781 67.3516 64.5781C66.8255 64.5781 66.4141 64.6927 66.1172 64.9219C65.8203 65.151 65.6719 65.4505 65.6719 65.8203C65.6719 66.1693 65.8099 66.4323 66.0859 66.6094C66.362 66.7865 66.8594 66.9557 67.5781 67.1172C68.3021 67.2786 68.888 67.4714 69.3359 67.6953C69.7839 67.9193 70.1146 68.1901 70.3281 68.5078C70.5469 68.8203 70.6562 69.2031 70.6562 69.6562C70.6562 70.4115 70.3542 71.0182 69.75 71.4766C69.1458 71.9297 68.362 72.1562 67.3984 72.1562C66.7214 72.1562 66.1224 72.0365 65.6016 71.7969C65.0807 71.5573 64.6719 71.224 64.375 70.7969C64.0833 70.3646 63.9375 69.8984 63.9375 69.3984H65.3828C65.4089 69.8828 65.6016 70.2682 65.9609 70.5547C66.3255 70.8359 66.8047 70.9766 67.3984 70.9766C67.9453 70.9766 68.3828 70.8672 68.7109 70.6484C69.0443 70.4245 69.2109 70.1276 69.2109 69.7578ZM74.5 61.5V63.5469H76.0781V64.6641H74.5V69.9062C74.5 70.2448 74.5703 70.5 74.7109 70.6719C74.8516 70.8385 75.0911 70.9219 75.4297 70.9219C75.5964 70.9219 75.8255 70.8906 76.1172 70.8281V72C75.737 72.1042 75.3672 72.1562 75.0078 72.1562C74.362 72.1562 73.875 71.9609 73.5469 71.5703C73.2188 71.1797 73.0547 70.625 73.0547 69.9062V64.6641H71.5156V63.5469H73.0547V61.5H74.5ZM82.9922 72C82.9089 71.8333 82.8411 71.5365 82.7891 71.1094C82.1172 71.8073 81.3151 72.1562 80.3828 72.1562C79.5495 72.1562 78.8646 71.9219 78.3281 71.4531C77.7969 70.9792 77.5312 70.3802 77.5312 69.6562C77.5312 68.776 77.8646 68.0938 78.5312 67.6094C79.2031 67.1198 80.1458 66.875 81.3594 66.875H82.7656V66.2109C82.7656 65.7057 82.6146 65.3047 82.3125 65.0078C82.0104 64.7057 81.5651 64.5547 80.9766 64.5547C80.4609 64.5547 80.0286 64.6849 79.6797 64.9453C79.3307 65.2057 79.1562 65.5208 79.1562 65.8906H77.7031C77.7031 65.4688 77.8516 65.0625 78.1484 64.6719C78.4505 64.276 78.8568 63.9635 79.3672 63.7344C79.8828 63.5052 80.4479 63.3906 81.0625 63.3906C82.0365 63.3906 82.7995 63.6354 83.3516 64.125C83.9036 64.6094 84.1901 65.2786 84.2109 66.1328V70.0234C84.2109 70.7995 84.3099 71.4167 84.5078 71.875V72H82.9922ZM80.5938 70.8984C81.0469 70.8984 81.4766 70.7812 81.8828 70.5469C82.2891 70.3125 82.5833 70.0078 82.7656 69.6328V67.8984H81.6328C79.862 67.8984 78.9766 68.4167 78.9766 69.4531C78.9766 69.9062 79.1276 70.2604 79.4297 70.5156C79.7318 70.7708 80.1198 70.8984 80.5938 70.8984ZM87.8438 63.5469L87.8906 64.6094C88.5365 63.7969 89.3802 63.3906 90.4219 63.3906C92.2083 63.3906 93.1094 64.3984 93.125 66.4141V72H91.6797V66.4062C91.6745 65.7969 91.5339 65.3464 91.2578 65.0547C90.987 64.763 90.5625 64.6172 89.9844 64.6172C89.5156 64.6172 89.1042 64.7422 88.75 64.9922C88.3958 65.2422 88.1198 65.5703 87.9219 65.9766V72H86.4766V63.5469H87.8438ZM97.2656 61.5V63.5469H98.8438V64.6641H97.2656V69.9062C97.2656 70.2448 97.3359 70.5 97.4766 70.6719C97.6172 70.8385 97.8568 70.9219 98.1953 70.9219C98.362 70.9219 98.5911 70.8906 98.8828 70.8281V72C98.5026 72.1042 98.1328 72.1562 97.7734 72.1562C97.1276 72.1562 96.6406 71.9609 96.3125 71.5703C95.9844 71.1797 95.8203 70.625 95.8203 69.9062V64.6641H94.2812V63.5469H95.8203V61.5H97.2656ZM102.109 72H100.664V60H102.109V72ZM107.195 69.8828L109.164 63.5469H110.711L107.312 73.3047C106.786 74.7109 105.951 75.4141 104.805 75.4141L104.531 75.3906L103.992 75.2891V74.1172L104.383 74.1484C104.872 74.1484 105.253 74.0495 105.523 73.8516C105.799 73.6536 106.026 73.2917 106.203 72.7656L106.523 71.9062L103.508 63.5469H105.086L107.195 69.8828ZM117.547 72H116.102V63.5469H117.547V72ZM115.984 61.3047C115.984 61.0703 116.055 60.8724 116.195 60.7109C116.341 60.5495 116.555 60.4688 116.836 60.4688C117.117 60.4688 117.331 60.5495 117.477 60.7109C117.622 60.8724 117.695 61.0703 117.695 61.3047C117.695 61.5391 117.622 61.7344 117.477 61.8906C117.331 62.0469 117.117 62.125 116.836 62.125C116.555 62.125 116.341 62.0469 116.195 61.8906C116.055 61.7344 115.984 61.5391 115.984 61.3047ZM121.227 63.5469L121.266 64.4844C121.885 63.7552 122.721 63.3906 123.773 63.3906C124.956 63.3906 125.76 63.8438 126.188 64.75C126.469 64.3438 126.833 64.0156 127.281 63.7656C127.734 63.5156 128.268 63.3906 128.883 63.3906C130.737 63.3906 131.68 64.3724 131.711 66.3359V72H130.266V66.4219C130.266 65.8177 130.128 65.3672 129.852 65.0703C129.576 64.7682 129.112 64.6172 128.461 64.6172C127.924 64.6172 127.479 64.7786 127.125 65.1016C126.771 65.4193 126.565 65.849 126.508 66.3906V72H125.055V66.4609C125.055 65.2318 124.453 64.6172 123.25 64.6172C122.302 64.6172 121.654 65.0208 121.305 65.8281V72H119.859V63.5469H121.227ZM141.039 67.8672C141.039 69.1536 140.745 70.1901 140.156 70.9766C139.568 71.763 138.771 72.1562 137.766 72.1562C136.74 72.1562 135.932 71.8307 135.344 71.1797V75.25H133.898V63.5469H135.219L135.289 64.4844C135.878 63.7552 136.695 63.3906 137.742 63.3906C138.758 63.3906 139.56 63.7734 140.148 64.5391C140.742 65.3047 141.039 66.3698 141.039 67.7344V67.8672ZM139.594 67.7031C139.594 66.75 139.391 65.9974 138.984 65.4453C138.578 64.8932 138.021 64.6172 137.312 64.6172C136.438 64.6172 135.781 65.0052 135.344 65.7812V69.8203C135.776 70.5911 136.438 70.9766 137.328 70.9766C138.021 70.9766 138.57 70.7031 138.977 70.1562C139.388 69.6042 139.594 68.7865 139.594 67.7031ZM146.969 64.8438C146.75 64.8073 146.513 64.7891 146.258 64.7891C145.31 64.7891 144.667 65.1927 144.328 66V72H142.883V63.5469H144.289L144.312 64.5234C144.786 63.7682 145.458 63.3906 146.328 63.3906C146.609 63.3906 146.823 63.4271 146.969 63.5V64.8438ZM147.766 67.6953C147.766 66.8672 147.927 66.1224 148.25 65.4609C148.578 64.7995 149.031 64.2891 149.609 63.9297C150.193 63.5703 150.857 63.3906 151.602 63.3906C152.753 63.3906 153.682 63.7891 154.391 64.5859C155.104 65.3828 155.461 66.4427 155.461 67.7656V67.8672C155.461 68.6901 155.302 69.4297 154.984 70.0859C154.672 70.737 154.221 71.2448 153.633 71.6094C153.049 71.974 152.378 72.1562 151.617 72.1562C150.471 72.1562 149.542 71.7578 148.828 70.9609C148.12 70.1641 147.766 69.1094 147.766 67.7969V67.6953ZM149.219 67.8672C149.219 68.8047 149.435 69.5573 149.867 70.125C150.305 70.6927 150.888 70.9766 151.617 70.9766C152.352 70.9766 152.935 70.6901 153.367 70.1172C153.799 69.5391 154.016 68.7318 154.016 67.6953C154.016 66.7682 153.794 66.0182 153.352 65.4453C152.914 64.8672 152.331 64.5781 151.602 64.5781C150.888 64.5781 150.312 64.862 149.875 65.4297C149.438 65.9974 149.219 66.8099 149.219 67.8672ZM159.938 70.0391L162.031 63.5469H163.508L160.477 72H159.375L156.312 63.5469H157.789L159.938 70.0391ZM168.297 72.1562C167.151 72.1562 166.219 71.7812 165.5 71.0312C164.781 70.276 164.422 69.2682 164.422 68.0078V67.7422C164.422 66.9036 164.581 66.1562 164.898 65.5C165.221 64.8385 165.669 64.3229 166.242 63.9531C166.82 63.5781 167.445 63.3906 168.117 63.3906C169.216 63.3906 170.07 63.7526 170.68 64.4766C171.289 65.2005 171.594 66.237 171.594 67.5859V68.1875H165.867C165.888 69.0208 166.13 69.6953 166.594 70.2109C167.062 70.7214 167.656 70.9766 168.375 70.9766C168.885 70.9766 169.318 70.8724 169.672 70.6641C170.026 70.4557 170.336 70.1797 170.602 69.8359L171.484 70.5234C170.776 71.612 169.714 72.1562 168.297 72.1562ZM168.117 64.5781C167.534 64.5781 167.044 64.7917 166.648 65.2188C166.253 65.6406 166.008 66.2344 165.914 67H170.148V66.8906C170.107 66.1562 169.909 65.5885 169.555 65.1875C169.201 64.7812 168.721 64.5781 168.117 64.5781ZM31.8438 94.0078L33.4688 87.5469H34.9141L32.4531 96H31.2812L29.2266 89.5938L27.2266 96H26.0547L23.6016 87.5469H25.0391L26.7031 93.875L28.6719 87.5469H29.8359L31.8438 94.0078ZM37.9609 96H36.5156V87.5469H37.9609V96ZM36.3984 85.3047C36.3984 85.0703 36.4688 84.8724 36.6094 84.7109C36.7552 84.5495 36.9688 84.4688 37.25 84.4688C37.5312 84.4688 37.7448 84.5495 37.8906 84.7109C38.0365 84.8724 38.1094 85.0703 38.1094 85.3047C38.1094 85.5391 38.0365 85.7344 37.8906 85.8906C37.7448 86.0469 37.5312 86.125 37.25 86.125C36.9688 86.125 36.7552 86.0469 36.6094 85.8906C36.4688 85.7344 36.3984 85.5391 36.3984 85.3047ZM42.2422 85.5V87.5469H43.8203V88.6641H42.2422V93.9062C42.2422 94.2448 42.3125 94.5 42.4531 94.6719C42.5938 94.8385 42.8333 94.9219 43.1719 94.9219C43.3385 94.9219 43.5677 94.8906 43.8594 94.8281V96C43.4792 96.1042 43.1094 96.1562 42.75 96.1562C42.1042 96.1562 41.6172 95.9609 41.2891 95.5703C40.9609 95.1797 40.7969 94.625 40.7969 93.9062V88.6641H39.2578V87.5469H40.7969V85.5H42.2422ZM46.9609 88.5703C47.6016 87.7839 48.4349 87.3906 49.4609 87.3906C51.2474 87.3906 52.1484 88.3984 52.1641 90.4141V96H50.7188V90.4062C50.7135 89.7969 50.5729 89.3464 50.2969 89.0547C50.026 88.763 49.6016 88.6172 49.0234 88.6172C48.5547 88.6172 48.1432 88.7422 47.7891 88.9922C47.4349 89.2422 47.1589 89.5703 46.9609 89.9766V96H45.5156V84H46.9609V88.5703ZM59.8672 96H58.4219V87.5469H59.8672V96ZM58.3047 85.3047C58.3047 85.0703 58.375 84.8724 58.5156 84.7109C58.6615 84.5495 58.875 84.4688 59.1562 84.4688C59.4375 84.4688 59.651 84.5495 59.7969 84.7109C59.9427 84.8724 60.0156 85.0703 60.0156 85.3047C60.0156 85.5391 59.9427 85.7344 59.7969 85.8906C59.651 86.0469 59.4375 86.125 59.1562 86.125C58.875 86.125 58.6615 86.0469 58.5156 85.8906C58.375 85.7344 58.3047 85.5391 58.3047 85.3047ZM63.5547 87.5469L63.6016 88.6094C64.2474 87.7969 65.0911 87.3906 66.1328 87.3906C67.9193 87.3906 68.8203 88.3984 68.8359 90.4141V96H67.3906V90.4062C67.3854 89.7969 67.2448 89.3464 66.9688 89.0547C66.6979 88.763 66.2734 88.6172 65.6953 88.6172C65.2266 88.6172 64.8151 88.7422 64.4609 88.9922C64.1068 89.2422 63.8307 89.5703 63.6328 89.9766V96H62.1875V87.5469H63.5547ZM75.9375 93.7578C75.9375 93.3672 75.7891 93.0651 75.4922 92.8516C75.2005 92.6328 74.6875 92.4453 73.9531 92.2891C73.224 92.1328 72.6432 91.9453 72.2109 91.7266C71.7839 91.5078 71.4661 91.2474 71.2578 90.9453C71.0547 90.6432 70.9531 90.2839 70.9531 89.8672C70.9531 89.1745 71.2448 88.5885 71.8281 88.1094C72.4167 87.6302 73.1667 87.3906 74.0781 87.3906C75.0365 87.3906 75.8125 87.638 76.4062 88.1328C77.0052 88.6276 77.3047 89.2604 77.3047 90.0312H75.8516C75.8516 89.6354 75.6823 89.2943 75.3438 89.0078C75.0104 88.7214 74.5885 88.5781 74.0781 88.5781C73.5521 88.5781 73.1406 88.6927 72.8438 88.9219C72.5469 89.151 72.3984 89.4505 72.3984 89.8203C72.3984 90.1693 72.5365 90.4323 72.8125 90.6094C73.0885 90.7865 73.5859 90.9557 74.3047 91.1172C75.0286 91.2786 75.6146 91.4714 76.0625 91.6953C76.5104 91.9193 76.8411 92.1901 77.0547 92.5078C77.2734 92.8203 77.3828 93.2031 77.3828 93.6562C77.3828 94.4115 77.0807 95.0182 76.4766 95.4766C75.8724 95.9297 75.0885 96.1562 74.125 96.1562C73.4479 96.1562 72.849 96.0365 72.3281 95.7969C71.8073 95.5573 71.3984 95.224 71.1016 94.7969C70.8099 94.3646 70.6641 93.8984 70.6641 93.3984H72.1094C72.1354 93.8828 72.3281 94.2682 72.6875 94.5547C73.0521 94.8359 73.5312 94.9766 74.125 94.9766C74.6719 94.9766 75.1094 94.8672 75.4375 94.6484C75.7708 94.4245 75.9375 94.1276 75.9375 93.7578ZM80.8359 96H79.3906V87.5469H80.8359V96ZM79.2734 85.3047C79.2734 85.0703 79.3438 84.8724 79.4844 84.7109C79.6302 84.5495 79.8438 84.4688 80.125 84.4688C80.4062 84.4688 80.6198 84.5495 80.7656 84.7109C80.9115 84.8724 80.9844 85.0703 80.9844 85.3047C80.9844 85.5391 80.9115 85.7344 80.7656 85.8906C80.6198 86.0469 80.4062 86.125 80.125 86.125C79.8438 86.125 79.6302 86.0469 79.4844 85.8906C79.3438 85.7344 79.2734 85.5391 79.2734 85.3047ZM82.8125 91.7031C82.8125 90.3854 83.1172 89.3385 83.7266 88.5625C84.3359 87.7812 85.1432 87.3906 86.1484 87.3906C87.1797 87.3906 87.9844 87.7552 88.5625 88.4844L88.6328 87.5469H89.9531V95.7969C89.9531 96.8906 89.6276 97.7526 88.9766 98.3828C88.3307 99.013 87.4609 99.3281 86.3672 99.3281C85.7578 99.3281 85.1615 99.1979 84.5781 98.9375C83.9948 98.6771 83.5495 98.3203 83.2422 97.8672L83.9922 97C84.612 97.7656 85.3698 98.1484 86.2656 98.1484C86.9688 98.1484 87.5156 97.9505 87.9062 97.5547C88.3021 97.1589 88.5 96.6016 88.5 95.8828V95.1562C87.9219 95.8229 87.1328 96.1562 86.1328 96.1562C85.1432 96.1562 84.3411 95.7578 83.7266 94.9609C83.1172 94.1641 82.8125 93.0781 82.8125 91.7031ZM84.2656 91.8672C84.2656 92.8203 84.4609 93.5703 84.8516 94.1172C85.2422 94.6589 85.7891 94.9297 86.4922 94.9297C87.4036 94.9297 88.0729 94.5156 88.5 93.6875V89.8281C88.0573 89.0208 87.3932 88.6172 86.5078 88.6172C85.8047 88.6172 85.2552 88.8906 84.8594 89.4375C84.4635 89.9844 84.2656 90.7943 84.2656 91.8672ZM93.5859 88.5703C94.2266 87.7839 95.0599 87.3906 96.0859 87.3906C97.8724 87.3906 98.7734 88.3984 98.7891 90.4141V96H97.3438V90.4062C97.3385 89.7969 97.1979 89.3464 96.9219 89.0547C96.651 88.763 96.2266 88.6172 95.6484 88.6172C95.1797 88.6172 94.7682 88.7422 94.4141 88.9922C94.0599 89.2422 93.7839 89.5703 93.5859 89.9766V96H92.1406V84H93.5859V88.5703ZM102.914 85.5V87.5469H104.492V88.6641H102.914V93.9062C102.914 94.2448 102.984 94.5 103.125 94.6719C103.266 94.8385 103.505 94.9219 103.844 94.9219C104.01 94.9219 104.24 94.8906 104.531 94.8281V96C104.151 96.1042 103.781 96.1562 103.422 96.1562C102.776 96.1562 102.289 95.9609 101.961 95.5703C101.633 95.1797 101.469 94.625 101.469 93.9062V88.6641H99.9297V87.5469H101.469V85.5H102.914ZM111.109 93.7578C111.109 93.3672 110.961 93.0651 110.664 92.8516C110.372 92.6328 109.859 92.4453 109.125 92.2891C108.396 92.1328 107.815 91.9453 107.383 91.7266C106.956 91.5078 106.638 91.2474 106.43 90.9453C106.227 90.6432 106.125 90.2839 106.125 89.8672C106.125 89.1745 106.417 88.5885 107 88.1094C107.589 87.6302 108.339 87.3906 109.25 87.3906C110.208 87.3906 110.984 87.638 111.578 88.1328C112.177 88.6276 112.477 89.2604 112.477 90.0312H111.023C111.023 89.6354 110.854 89.2943 110.516 89.0078C110.182 88.7214 109.76 88.5781 109.25 88.5781C108.724 88.5781 108.312 88.6927 108.016 88.9219C107.719 89.151 107.57 89.4505 107.57 89.8203C107.57 90.1693 107.708 90.4323 107.984 90.6094C108.26 90.7865 108.758 90.9557 109.477 91.1172C110.201 91.2786 110.786 91.4714 111.234 91.6953C111.682 91.9193 112.013 92.1901 112.227 92.5078C112.445 92.8203 112.555 93.2031 112.555 93.6562C112.555 94.4115 112.253 95.0182 111.648 95.4766C111.044 95.9297 110.26 96.1562 109.297 96.1562C108.62 96.1562 108.021 96.0365 107.5 95.7969C106.979 95.5573 106.57 95.224 106.273 94.7969C105.982 94.3646 105.836 93.8984 105.836 93.3984H107.281C107.307 93.8828 107.5 94.2682 107.859 94.5547C108.224 94.8359 108.703 94.9766 109.297 94.9766C109.844 94.9766 110.281 94.8672 110.609 94.6484C110.943 94.4245 111.109 94.1276 111.109 93.7578ZM123.625 96C123.542 95.8333 123.474 95.5365 123.422 95.1094C122.75 95.8073 121.948 96.1562 121.016 96.1562C120.182 96.1562 119.497 95.9219 118.961 95.4531C118.43 94.9792 118.164 94.3802 118.164 93.6562C118.164 92.776 118.497 92.0938 119.164 91.6094C119.836 91.1198 120.779 90.875 121.992 90.875H123.398V90.2109C123.398 89.7057 123.247 89.3047 122.945 89.0078C122.643 88.7057 122.198 88.5547 121.609 88.5547C121.094 88.5547 120.661 88.6849 120.312 88.9453C119.964 89.2057 119.789 89.5208 119.789 89.8906H118.336C118.336 89.4688 118.484 89.0625 118.781 88.6719C119.083 88.276 119.49 87.9635 120 87.7344C120.516 87.5052 121.081 87.3906 121.695 87.3906C122.669 87.3906 123.432 87.6354 123.984 88.125C124.536 88.6094 124.823 89.2786 124.844 90.1328V94.0234C124.844 94.7995 124.943 95.4167 125.141 95.875V96H123.625ZM121.227 94.8984C121.68 94.8984 122.109 94.7812 122.516 94.5469C122.922 94.3125 123.216 94.0078 123.398 93.6328V91.8984H122.266C120.495 91.8984 119.609 92.4167 119.609 93.4531C119.609 93.9062 119.76 94.2604 120.062 94.5156C120.365 94.7708 120.753 94.8984 121.227 94.8984ZM128.477 87.5469L128.523 88.6094C129.169 87.7969 130.013 87.3906 131.055 87.3906C132.841 87.3906 133.742 88.3984 133.758 90.4141V96H132.312V90.4062C132.307 89.7969 132.167 89.3464 131.891 89.0547C131.62 88.763 131.195 88.6172 130.617 88.6172C130.148 88.6172 129.737 88.7422 129.383 88.9922C129.029 89.2422 128.753 89.5703 128.555 89.9766V96H127.109V87.5469H128.477ZM135.586 91.7031C135.586 90.4062 135.893 89.3646 136.508 88.5781C137.122 87.7865 137.927 87.3906 138.922 87.3906C139.911 87.3906 140.695 87.7292 141.273 88.4062V84H142.719V96H141.391L141.32 95.0938C140.742 95.8021 139.938 96.1562 138.906 96.1562C137.927 96.1562 137.128 95.7552 136.508 94.9531C135.893 94.151 135.586 93.1042 135.586 91.8125V91.7031ZM137.031 91.8672C137.031 92.8255 137.229 93.5755 137.625 94.1172C138.021 94.6589 138.568 94.9297 139.266 94.9297C140.182 94.9297 140.852 94.5182 141.273 93.6953V89.8125C140.841 89.0156 140.177 88.6172 139.281 88.6172C138.573 88.6172 138.021 88.8906 137.625 89.4375C137.229 89.9844 137.031 90.7943 137.031 91.8672ZM148.586 91.7031C148.586 90.4062 148.893 89.3646 149.508 88.5781C150.122 87.7865 150.927 87.3906 151.922 87.3906C152.911 87.3906 153.695 87.7292 154.273 88.4062V84H155.719V96H154.391L154.32 95.0938C153.742 95.8021 152.938 96.1562 151.906 96.1562C150.927 96.1562 150.128 95.7552 149.508 94.9531C148.893 94.151 148.586 93.1042 148.586 91.8125V91.7031ZM150.031 91.8672C150.031 92.8255 150.229 93.5755 150.625 94.1172C151.021 94.6589 151.568 94.9297 152.266 94.9297C153.182 94.9297 153.852 94.5182 154.273 93.6953V89.8125C153.841 89.0156 153.177 88.6172 152.281 88.6172C151.573 88.6172 151.021 88.8906 150.625 89.4375C150.229 89.9844 150.031 90.7943 150.031 91.8672ZM163.188 96C163.104 95.8333 163.036 95.5365 162.984 95.1094C162.312 95.8073 161.51 96.1562 160.578 96.1562C159.745 96.1562 159.06 95.9219 158.523 95.4531C157.992 94.9792 157.727 94.3802 157.727 93.6562C157.727 92.776 158.06 92.0938 158.727 91.6094C159.398 91.1198 160.341 90.875 161.555 90.875H162.961V90.2109C162.961 89.7057 162.81 89.3047 162.508 89.0078C162.206 88.7057 161.76 88.5547 161.172 88.5547C160.656 88.5547 160.224 88.6849 159.875 88.9453C159.526 89.2057 159.352 89.5208 159.352 89.8906H157.898C157.898 89.4688 158.047 89.0625 158.344 88.6719C158.646 88.276 159.052 87.9635 159.562 87.7344C160.078 87.5052 160.643 87.3906 161.258 87.3906C162.232 87.3906 162.995 87.6354 163.547 88.125C164.099 88.6094 164.385 89.2786 164.406 90.1328V94.0234C164.406 94.7995 164.505 95.4167 164.703 95.875V96H163.188ZM160.789 94.8984C161.242 94.8984 161.672 94.7812 162.078 94.5469C162.484 94.3125 162.779 94.0078 162.961 93.6328V91.8984H161.828C160.057 91.8984 159.172 92.4167 159.172 93.4531C159.172 93.9062 159.323 94.2604 159.625 94.5156C159.927 94.7708 160.315 94.8984 160.789 94.8984ZM168.633 85.5V87.5469H170.211V88.6641H168.633V93.9062C168.633 94.2448 168.703 94.5 168.844 94.6719C168.984 94.8385 169.224 94.9219 169.562 94.9219C169.729 94.9219 169.958 94.8906 170.25 94.8281V96C169.87 96.1042 169.5 96.1562 169.141 96.1562C168.495 96.1562 168.008 95.9609 167.68 95.5703C167.352 95.1797 167.188 94.625 167.188 93.9062V88.6641H165.648V87.5469H167.188V85.5H168.633ZM177.125 96C177.042 95.8333 176.974 95.5365 176.922 95.1094C176.25 95.8073 175.448 96.1562 174.516 96.1562C173.682 96.1562 172.997 95.9219 172.461 95.4531C171.93 94.9792 171.664 94.3802 171.664 93.6562C171.664 92.776 171.997 92.0938 172.664 91.6094C173.336 91.1198 174.279 90.875 175.492 90.875H176.898V90.2109C176.898 89.7057 176.747 89.3047 176.445 89.0078C176.143 88.7057 175.698 88.5547 175.109 88.5547C174.594 88.5547 174.161 88.6849 173.812 88.9453C173.464 89.2057 173.289 89.5208 173.289 89.8906H171.836C171.836 89.4688 171.984 89.0625 172.281 88.6719C172.583 88.276 172.99 87.9635 173.5 87.7344C174.016 87.5052 174.581 87.3906 175.195 87.3906C176.169 87.3906 176.932 87.6354 177.484 88.125C178.036 88.6094 178.323 89.2786 178.344 90.1328V94.0234C178.344 94.7995 178.443 95.4167 178.641 95.875V96H177.125ZM174.727 94.8984C175.18 94.8984 175.609 94.7812 176.016 94.5469C176.422 94.3125 176.716 94.0078 176.898 93.6328V91.8984H175.766C173.995 91.8984 173.109 92.4167 173.109 93.4531C173.109 93.9062 173.26 94.2604 173.562 94.5156C173.865 94.7708 174.253 94.8984 174.727 94.8984ZM180.641 95.2422C180.641 94.9922 180.714 94.7839 180.859 94.6172C181.01 94.4505 181.234 94.3672 181.531 94.3672C181.828 94.3672 182.052 94.4505 182.203 94.6172C182.359 94.7839 182.438 94.9922 182.438 95.2422C182.438 95.4818 182.359 95.6823 182.203 95.8438C182.052 96.0052 181.828 96.0859 181.531 96.0859C181.234 96.0859 181.01 96.0052 180.859 95.8438C180.714 95.6823 180.641 95.4818 180.641 95.2422ZM42.8672 108.625V116.359C42.862 117.432 42.5234 118.31 41.8516 118.992C41.1849 119.674 40.2786 120.057 39.1328 120.141L38.7344 120.156C37.4896 120.156 36.4974 119.82 35.7578 119.148C35.0182 118.477 34.6432 117.552 34.6328 116.375V108.625H36.1172V116.328C36.1172 117.151 36.3438 117.792 36.7969 118.25C37.25 118.703 37.8958 118.93 38.7344 118.93C39.5833 118.93 40.2318 118.703 40.6797 118.25C41.1328 117.797 41.3594 117.159 41.3594 116.336V108.625H42.8672ZM49.9297 117.758C49.9297 117.367 49.7812 117.065 49.4844 116.852C49.1927 116.633 48.6797 116.445 47.9453 116.289C47.2161 116.133 46.6354 115.945 46.2031 115.727C45.776 115.508 45.4583 115.247 45.25 114.945C45.0469 114.643 44.9453 114.284 44.9453 113.867C44.9453 113.174 45.237 112.589 45.8203 112.109C46.4089 111.63 47.1589 111.391 48.0703 111.391C49.0286 111.391 49.8047 111.638 50.3984 112.133C50.9974 112.628 51.2969 113.26 51.2969 114.031H49.8438C49.8438 113.635 49.6745 113.294 49.3359 113.008C49.0026 112.721 48.5807 112.578 48.0703 112.578C47.5443 112.578 47.1328 112.693 46.8359 112.922C46.5391 113.151 46.3906 113.451 46.3906 113.82C46.3906 114.169 46.5286 114.432 46.8047 114.609C47.0807 114.786 47.5781 114.956 48.2969 115.117C49.0208 115.279 49.6068 115.471 50.0547 115.695C50.5026 115.919 50.8333 116.19 51.0469 116.508C51.2656 116.82 51.375 117.203 51.375 117.656C51.375 118.411 51.0729 119.018 50.4688 119.477C49.8646 119.93 49.0807 120.156 48.1172 120.156C47.4401 120.156 46.8411 120.036 46.3203 119.797C45.7995 119.557 45.3906 119.224 45.0938 118.797C44.8021 118.365 44.6562 117.898 44.6562 117.398H46.1016C46.1276 117.883 46.3203 118.268 46.6797 118.555C47.0443 118.836 47.5234 118.977 48.1172 118.977C48.6641 118.977 49.1016 118.867 49.4297 118.648C49.763 118.424 49.9297 118.128 49.9297 117.758ZM56.7656 120.156C55.6198 120.156 54.6875 119.781 53.9688 119.031C53.25 118.276 52.8906 117.268 52.8906 116.008V115.742C52.8906 114.904 53.0495 114.156 53.3672 113.5C53.6901 112.839 54.138 112.323 54.7109 111.953C55.2891 111.578 55.9141 111.391 56.5859 111.391C57.6849 111.391 58.5391 111.753 59.1484 112.477C59.7578 113.201 60.0625 114.237 60.0625 115.586V116.188H54.3359C54.3568 117.021 54.599 117.695 55.0625 118.211C55.5312 118.721 56.125 118.977 56.8438 118.977C57.3542 118.977 57.7865 118.872 58.1406 118.664C58.4948 118.456 58.8047 118.18 59.0703 117.836L59.9531 118.523C59.2448 119.612 58.1823 120.156 56.7656 120.156ZM56.5859 112.578C56.0026 112.578 55.513 112.792 55.1172 113.219C54.7214 113.641 54.4766 114.234 54.3828 115H58.6172V114.891C58.5755 114.156 58.3776 113.589 58.0234 113.188C57.6693 112.781 57.1901 112.578 56.5859 112.578ZM67.6719 109.5V111.547H69.25V112.664H67.6719V117.906C67.6719 118.245 67.7422 118.5 67.8828 118.672C68.0234 118.839 68.263 118.922 68.6016 118.922C68.7682 118.922 68.9974 118.891 69.2891 118.828V120C68.9089 120.104 68.5391 120.156 68.1797 120.156C67.5339 120.156 67.0469 119.961 66.7188 119.57C66.3906 119.18 66.2266 118.625 66.2266 117.906V112.664H64.6875V111.547H66.2266V109.5H67.6719ZM72.3906 112.57C73.0312 111.784 73.8646 111.391 74.8906 111.391C76.6771 111.391 77.5781 112.398 77.5938 114.414V120H76.1484V114.406C76.1432 113.797 76.0026 113.346 75.7266 113.055C75.4557 112.763 75.0312 112.617 74.4531 112.617C73.9844 112.617 73.5729 112.742 73.2188 112.992C72.8646 113.242 72.5885 113.57 72.3906 113.977V120H70.9453V108H72.3906V112.57ZM81.3281 120H79.8828V111.547H81.3281V120ZM79.7656 109.305C79.7656 109.07 79.8359 108.872 79.9766 108.711C80.1224 108.549 80.3359 108.469 80.6172 108.469C80.8984 108.469 81.112 108.549 81.2578 108.711C81.4036 108.872 81.4766 109.07 81.4766 109.305C81.4766 109.539 81.4036 109.734 81.2578 109.891C81.112 110.047 80.8984 110.125 80.6172 110.125C80.3359 110.125 80.1224 110.047 79.9766 109.891C79.8359 109.734 79.7656 109.539 79.7656 109.305ZM88.5703 117.758C88.5703 117.367 88.4219 117.065 88.125 116.852C87.8333 116.633 87.3203 116.445 86.5859 116.289C85.8568 116.133 85.276 115.945 84.8438 115.727C84.4167 115.508 84.099 115.247 83.8906 114.945C83.6875 114.643 83.5859 114.284 83.5859 113.867C83.5859 113.174 83.8776 112.589 84.4609 112.109C85.0495 111.63 85.7995 111.391 86.7109 111.391C87.6693 111.391 88.4453 111.638 89.0391 112.133C89.638 112.628 89.9375 113.26 89.9375 114.031H88.4844C88.4844 113.635 88.3151 113.294 87.9766 113.008C87.6432 112.721 87.2214 112.578 86.7109 112.578C86.1849 112.578 85.7734 112.693 85.4766 112.922C85.1797 113.151 85.0312 113.451 85.0312 113.82C85.0312 114.169 85.1693 114.432 85.4453 114.609C85.7214 114.786 86.2188 114.956 86.9375 115.117C87.6615 115.279 88.2474 115.471 88.6953 115.695C89.1432 115.919 89.474 116.19 89.6875 116.508C89.9062 116.82 90.0156 117.203 90.0156 117.656C90.0156 118.411 89.7135 119.018 89.1094 119.477C88.5052 119.93 87.7214 120.156 86.7578 120.156C86.0807 120.156 85.4818 120.036 84.9609 119.797C84.4401 119.557 84.0312 119.224 83.7344 118.797C83.4427 118.365 83.2969 117.898 83.2969 117.398H84.7422C84.7682 117.883 84.9609 118.268 85.3203 118.555C85.6849 118.836 86.1641 118.977 86.7578 118.977C87.3047 118.977 87.7422 118.867 88.0703 118.648C88.4036 118.424 88.5703 118.128 88.5703 117.758ZM97.8281 109.5V111.547H99.4062V112.664H97.8281V117.906C97.8281 118.245 97.8984 118.5 98.0391 118.672C98.1797 118.839 98.4193 118.922 98.7578 118.922C98.9245 118.922 99.1536 118.891 99.4453 118.828V120C99.0651 120.104 98.6953 120.156 98.3359 120.156C97.6901 120.156 97.2031 119.961 96.875 119.57C96.5469 119.18 96.3828 118.625 96.3828 117.906V112.664H94.8438V111.547H96.3828V109.5H97.8281ZM100.562 115.695C100.562 114.867 100.724 114.122 101.047 113.461C101.375 112.799 101.828 112.289 102.406 111.93C102.99 111.57 103.654 111.391 104.398 111.391C105.549 111.391 106.479 111.789 107.188 112.586C107.901 113.383 108.258 114.443 108.258 115.766V115.867C108.258 116.69 108.099 117.43 107.781 118.086C107.469 118.737 107.018 119.245 106.43 119.609C105.846 119.974 105.174 120.156 104.414 120.156C103.268 120.156 102.339 119.758 101.625 118.961C100.917 118.164 100.562 117.109 100.562 115.797V115.695ZM102.016 115.867C102.016 116.805 102.232 117.557 102.664 118.125C103.102 118.693 103.685 118.977 104.414 118.977C105.148 118.977 105.732 118.69 106.164 118.117C106.596 117.539 106.812 116.732 106.812 115.695C106.812 114.768 106.591 114.018 106.148 113.445C105.711 112.867 105.128 112.578 104.398 112.578C103.685 112.578 103.109 112.862 102.672 113.43C102.234 113.997 102.016 114.81 102.016 115.867ZM117.547 120.156C116.401 120.156 115.469 119.781 114.75 119.031C114.031 118.276 113.672 117.268 113.672 116.008V115.742C113.672 114.904 113.831 114.156 114.148 113.5C114.471 112.839 114.919 112.323 115.492 111.953C116.07 111.578 116.695 111.391 117.367 111.391C118.466 111.391 119.32 111.753 119.93 112.477C120.539 113.201 120.844 114.237 120.844 115.586V116.188H115.117C115.138 117.021 115.38 117.695 115.844 118.211C116.312 118.721 116.906 118.977 117.625 118.977C118.135 118.977 118.568 118.872 118.922 118.664C119.276 118.456 119.586 118.18 119.852 117.836L120.734 118.523C120.026 119.612 118.964 120.156 117.547 120.156ZM117.367 112.578C116.784 112.578 116.294 112.792 115.898 113.219C115.503 113.641 115.258 114.234 115.164 115H119.398V114.891C119.357 114.156 119.159 113.589 118.805 113.188C118.451 112.781 117.971 112.578 117.367 112.578ZM123.891 111.547L123.938 112.609C124.583 111.797 125.427 111.391 126.469 111.391C128.255 111.391 129.156 112.398 129.172 114.414V120H127.727V114.406C127.721 113.797 127.581 113.346 127.305 113.055C127.034 112.763 126.609 112.617 126.031 112.617C125.562 112.617 125.151 112.742 124.797 112.992C124.443 113.242 124.167 113.57 123.969 113.977V120H122.523V111.547H123.891ZM132.797 112.57C133.438 111.784 134.271 111.391 135.297 111.391C137.083 111.391 137.984 112.398 138 114.414V120H136.555V114.406C136.549 113.797 136.409 113.346 136.133 113.055C135.862 112.763 135.438 112.617 134.859 112.617C134.391 112.617 133.979 112.742 133.625 112.992C133.271 113.242 132.995 113.57 132.797 113.977V120H131.352V108H132.797V112.57ZM145.383 120C145.299 119.833 145.232 119.536 145.18 119.109C144.508 119.807 143.706 120.156 142.773 120.156C141.94 120.156 141.255 119.922 140.719 119.453C140.188 118.979 139.922 118.38 139.922 117.656C139.922 116.776 140.255 116.094 140.922 115.609C141.594 115.12 142.536 114.875 143.75 114.875H145.156V114.211C145.156 113.706 145.005 113.305 144.703 113.008C144.401 112.706 143.956 112.555 143.367 112.555C142.852 112.555 142.419 112.685 142.07 112.945C141.721 113.206 141.547 113.521 141.547 113.891H140.094C140.094 113.469 140.242 113.062 140.539 112.672C140.841 112.276 141.247 111.964 141.758 111.734C142.273 111.505 142.839 111.391 143.453 111.391C144.427 111.391 145.19 111.635 145.742 112.125C146.294 112.609 146.581 113.279 146.602 114.133V118.023C146.602 118.799 146.701 119.417 146.898 119.875V120H145.383ZM142.984 118.898C143.438 118.898 143.867 118.781 144.273 118.547C144.68 118.312 144.974 118.008 145.156 117.633V115.898H144.023C142.253 115.898 141.367 116.417 141.367 117.453C141.367 117.906 141.518 118.26 141.82 118.516C142.122 118.771 142.51 118.898 142.984 118.898ZM150.234 111.547L150.281 112.609C150.927 111.797 151.771 111.391 152.812 111.391C154.599 111.391 155.5 112.398 155.516 114.414V120H154.07V114.406C154.065 113.797 153.924 113.346 153.648 113.055C153.378 112.763 152.953 112.617 152.375 112.617C151.906 112.617 151.495 112.742 151.141 112.992C150.786 113.242 150.51 113.57 150.312 113.977V120H148.867V111.547H150.234ZM161.086 118.977C161.602 118.977 162.052 118.82 162.438 118.508C162.823 118.195 163.036 117.805 163.078 117.336H164.445C164.419 117.82 164.253 118.281 163.945 118.719C163.638 119.156 163.227 119.505 162.711 119.766C162.201 120.026 161.659 120.156 161.086 120.156C159.935 120.156 159.018 119.773 158.336 119.008C157.659 118.237 157.32 117.185 157.32 115.852V115.609C157.32 114.786 157.471 114.055 157.773 113.414C158.076 112.773 158.508 112.276 159.07 111.922C159.638 111.568 160.307 111.391 161.078 111.391C162.026 111.391 162.812 111.674 163.438 112.242C164.068 112.81 164.404 113.547 164.445 114.453H163.078C163.036 113.906 162.828 113.458 162.453 113.109C162.083 112.755 161.625 112.578 161.078 112.578C160.344 112.578 159.773 112.844 159.367 113.375C158.966 113.901 158.766 114.664 158.766 115.664V115.938C158.766 116.911 158.966 117.661 159.367 118.188C159.768 118.714 160.341 118.977 161.086 118.977ZM169.578 120.156C168.432 120.156 167.5 119.781 166.781 119.031C166.062 118.276 165.703 117.268 165.703 116.008V115.742C165.703 114.904 165.862 114.156 166.18 113.5C166.503 112.839 166.951 112.323 167.523 111.953C168.102 111.578 168.727 111.391 169.398 111.391C170.497 111.391 171.352 111.753 171.961 112.477C172.57 113.201 172.875 114.237 172.875 115.586V116.188H167.148C167.169 117.021 167.411 117.695 167.875 118.211C168.344 118.721 168.938 118.977 169.656 118.977C170.167 118.977 170.599 118.872 170.953 118.664C171.307 118.456 171.617 118.18 171.883 117.836L172.766 118.523C172.057 119.612 170.995 120.156 169.578 120.156ZM169.398 112.578C168.815 112.578 168.326 112.792 167.93 113.219C167.534 113.641 167.289 114.234 167.195 115H171.43V114.891C171.388 114.156 171.19 113.589 170.836 113.188C170.482 112.781 170.003 112.578 169.398 112.578ZM43.1484 141.883L45.1172 135.547H46.6641L43.2656 145.305C42.7396 146.711 41.9036 147.414 40.7578 147.414L40.4844 147.391L39.9453 147.289V146.117L40.3359 146.148C40.8255 146.148 41.2057 146.049 41.4766 145.852C41.7526 145.654 41.9792 145.292 42.1562 144.766L42.4766 143.906L39.4609 135.547H41.0391L43.1484 141.883ZM47.4531 139.695C47.4531 138.867 47.6146 138.122 47.9375 137.461C48.2656 136.799 48.7188 136.289 49.2969 135.93C49.8802 135.57 50.5443 135.391 51.2891 135.391C52.4401 135.391 53.3698 135.789 54.0781 136.586C54.7917 137.383 55.1484 138.443 55.1484 139.766V139.867C55.1484 140.69 54.9896 141.43 54.6719 142.086C54.3594 142.737 53.9089 143.245 53.3203 143.609C52.737 143.974 52.0651 144.156 51.3047 144.156C50.1589 144.156 49.2292 143.758 48.5156 142.961C47.8073 142.164 47.4531 141.109 47.4531 139.797V139.695ZM48.9062 139.867C48.9062 140.805 49.1224 141.557 49.5547 142.125C49.9922 142.693 50.5755 142.977 51.3047 142.977C52.0391 142.977 52.6224 142.69 53.0547 142.117C53.487 141.539 53.7031 140.732 53.7031 139.695C53.7031 138.768 53.4818 138.018 53.0391 137.445C52.6016 136.867 52.0182 136.578 51.2891 136.578C50.5755 136.578 50 136.862 49.5625 137.43C49.125 137.997 48.9062 138.81 48.9062 139.867ZM62.1797 143.164C61.6172 143.826 60.7917 144.156 59.7031 144.156C58.8021 144.156 58.1146 143.896 57.6406 143.375C57.1719 142.849 56.9349 142.073 56.9297 141.047V135.547H58.375V141.008C58.375 142.289 58.8958 142.93 59.9375 142.93C61.0417 142.93 61.776 142.518 62.1406 141.695V135.547H63.5859V144H62.2109L62.1797 143.164ZM69.875 136.844C69.6562 136.807 69.4193 136.789 69.1641 136.789C68.2161 136.789 67.5729 137.193 67.2344 138V144H65.7891V135.547H67.1953L67.2188 136.523C67.6927 135.768 68.3646 135.391 69.2344 135.391C69.5156 135.391 69.7292 135.427 69.875 135.5V136.844ZM82.3203 139.867C82.3203 141.154 82.026 142.19 81.4375 142.977C80.849 143.763 80.0521 144.156 79.0469 144.156C78.0208 144.156 77.2135 143.831 76.625 143.18V147.25H75.1797V135.547H76.5L76.5703 136.484C77.1589 135.755 77.9766 135.391 79.0234 135.391C80.0391 135.391 80.8411 135.773 81.4297 136.539C82.0234 137.305 82.3203 138.37 82.3203 139.734V139.867ZM80.875 139.703C80.875 138.75 80.6719 137.997 80.2656 137.445C79.8594 136.893 79.3021 136.617 78.5938 136.617C77.7188 136.617 77.0625 137.005 76.625 137.781V141.82C77.0573 142.591 77.7188 142.977 78.6094 142.977C79.3021 142.977 79.8516 142.703 80.2578 142.156C80.6693 141.604 80.875 140.786 80.875 139.703ZM88.25 136.844C88.0312 136.807 87.7943 136.789 87.5391 136.789C86.5911 136.789 85.9479 137.193 85.6094 138V144H84.1641V135.547H85.5703L85.5938 136.523C86.0677 135.768 86.7396 135.391 87.6094 135.391C87.8906 135.391 88.1042 135.427 88.25 135.5V136.844ZM89.0469 139.695C89.0469 138.867 89.2083 138.122 89.5312 137.461C89.8594 136.799 90.3125 136.289 90.8906 135.93C91.474 135.57 92.138 135.391 92.8828 135.391C94.0339 135.391 94.9635 135.789 95.6719 136.586C96.3854 137.383 96.7422 138.443 96.7422 139.766V139.867C96.7422 140.69 96.5833 141.43 96.2656 142.086C95.9531 142.737 95.5026 143.245 94.9141 143.609C94.3307 143.974 93.6589 144.156 92.8984 144.156C91.7526 144.156 90.8229 143.758 90.1094 142.961C89.401 142.164 89.0469 141.109 89.0469 139.797V139.695ZM90.5 139.867C90.5 140.805 90.7161 141.557 91.1484 142.125C91.5859 142.693 92.1693 142.977 92.8984 142.977C93.6328 142.977 94.2161 142.69 94.6484 142.117C95.0807 141.539 95.2969 140.732 95.2969 139.695C95.2969 138.768 95.0755 138.018 94.6328 137.445C94.1953 136.867 93.612 136.578 92.8828 136.578C92.1693 136.578 91.5938 136.862 91.1562 137.43C90.7188 137.997 90.5 138.81 90.5 139.867ZM98.2031 139.703C98.2031 138.406 98.5104 137.365 99.125 136.578C99.7396 135.786 100.544 135.391 101.539 135.391C102.529 135.391 103.312 135.729 103.891 136.406V132H105.336V144H104.008L103.938 143.094C103.359 143.802 102.555 144.156 101.523 144.156C100.544 144.156 99.7448 143.755 99.125 142.953C98.5104 142.151 98.2031 141.104 98.2031 139.812V139.703ZM99.6484 139.867C99.6484 140.826 99.8464 141.576 100.242 142.117C100.638 142.659 101.185 142.93 101.883 142.93C102.799 142.93 103.469 142.518 103.891 141.695V137.812C103.458 137.016 102.794 136.617 101.898 136.617C101.19 136.617 100.638 136.891 100.242 137.438C99.8464 137.984 99.6484 138.794 99.6484 139.867ZM112.805 143.164C112.242 143.826 111.417 144.156 110.328 144.156C109.427 144.156 108.74 143.896 108.266 143.375C107.797 142.849 107.56 142.073 107.555 141.047V135.547H109V141.008C109 142.289 109.521 142.93 110.562 142.93C111.667 142.93 112.401 142.518 112.766 141.695V135.547H114.211V144H112.836L112.805 143.164ZM119.805 142.977C120.32 142.977 120.771 142.82 121.156 142.508C121.542 142.195 121.755 141.805 121.797 141.336H123.164C123.138 141.82 122.971 142.281 122.664 142.719C122.357 143.156 121.945 143.505 121.43 143.766C120.919 144.026 120.378 144.156 119.805 144.156C118.654 144.156 117.737 143.773 117.055 143.008C116.378 142.237 116.039 141.185 116.039 139.852V139.609C116.039 138.786 116.19 138.055 116.492 137.414C116.794 136.773 117.227 136.276 117.789 135.922C118.357 135.568 119.026 135.391 119.797 135.391C120.745 135.391 121.531 135.674 122.156 136.242C122.786 136.81 123.122 137.547 123.164 138.453H121.797C121.755 137.906 121.547 137.458 121.172 137.109C120.802 136.755 120.344 136.578 119.797 136.578C119.062 136.578 118.492 136.844 118.086 137.375C117.685 137.901 117.484 138.664 117.484 139.664V139.938C117.484 140.911 117.685 141.661 118.086 142.188C118.487 142.714 119.06 142.977 119.805 142.977ZM126.75 133.5V135.547H128.328V136.664H126.75V141.906C126.75 142.245 126.82 142.5 126.961 142.672C127.102 142.839 127.341 142.922 127.68 142.922C127.846 142.922 128.076 142.891 128.367 142.828V144C127.987 144.104 127.617 144.156 127.258 144.156C126.612 144.156 126.125 143.961 125.797 143.57C125.469 143.18 125.305 142.625 125.305 141.906V136.664H123.766V135.547H125.305V133.5H126.75ZM134.945 141.758C134.945 141.367 134.797 141.065 134.5 140.852C134.208 140.633 133.695 140.445 132.961 140.289C132.232 140.133 131.651 139.945 131.219 139.727C130.792 139.508 130.474 139.247 130.266 138.945C130.062 138.643 129.961 138.284 129.961 137.867C129.961 137.174 130.253 136.589 130.836 136.109C131.424 135.63 132.174 135.391 133.086 135.391C134.044 135.391 134.82 135.638 135.414 136.133C136.013 136.628 136.312 137.26 136.312 138.031H134.859C134.859 137.635 134.69 137.294 134.352 137.008C134.018 136.721 133.596 136.578 133.086 136.578C132.56 136.578 132.148 136.693 131.852 136.922C131.555 137.151 131.406 137.451 131.406 137.82C131.406 138.169 131.544 138.432 131.82 138.609C132.096 138.786 132.594 138.956 133.312 139.117C134.036 139.279 134.622 139.471 135.07 139.695C135.518 139.919 135.849 140.19 136.062 140.508C136.281 140.82 136.391 141.203 136.391 141.656C136.391 142.411 136.089 143.018 135.484 143.477C134.88 143.93 134.096 144.156 133.133 144.156C132.456 144.156 131.857 144.036 131.336 143.797C130.815 143.557 130.406 143.224 130.109 142.797C129.818 142.365 129.672 141.898 129.672 141.398H131.117C131.143 141.883 131.336 142.268 131.695 142.555C132.06 142.836 132.539 142.977 133.133 142.977C133.68 142.977 134.117 142.867 134.445 142.648C134.779 142.424 134.945 142.128 134.945 141.758ZM147.461 144C147.378 143.833 147.31 143.536 147.258 143.109C146.586 143.807 145.784 144.156 144.852 144.156C144.018 144.156 143.333 143.922 142.797 143.453C142.266 142.979 142 142.38 142 141.656C142 140.776 142.333 140.094 143 139.609C143.672 139.12 144.615 138.875 145.828 138.875H147.234V138.211C147.234 137.706 147.083 137.305 146.781 137.008C146.479 136.706 146.034 136.555 145.445 136.555C144.93 136.555 144.497 136.685 144.148 136.945C143.799 137.206 143.625 137.521 143.625 137.891H142.172C142.172 137.469 142.32 137.062 142.617 136.672C142.919 136.276 143.326 135.964 143.836 135.734C144.352 135.505 144.917 135.391 145.531 135.391C146.505 135.391 147.268 135.635 147.82 136.125C148.372 136.609 148.659 137.279 148.68 138.133V142.023C148.68 142.799 148.779 143.417 148.977 143.875V144H147.461ZM145.062 142.898C145.516 142.898 145.945 142.781 146.352 142.547C146.758 142.312 147.052 142.008 147.234 141.633V139.898H146.102C144.331 139.898 143.445 140.417 143.445 141.453C143.445 141.906 143.596 142.26 143.898 142.516C144.201 142.771 144.589 142.898 145.062 142.898ZM152.312 135.547L152.359 136.609C153.005 135.797 153.849 135.391 154.891 135.391C156.677 135.391 157.578 136.398 157.594 138.414V144H156.148V138.406C156.143 137.797 156.003 137.346 155.727 137.055C155.456 136.763 155.031 136.617 154.453 136.617C153.984 136.617 153.573 136.742 153.219 136.992C152.865 137.242 152.589 137.57 152.391 137.977V144H150.945V135.547H152.312ZM159.422 139.703C159.422 138.406 159.729 137.365 160.344 136.578C160.958 135.786 161.763 135.391 162.758 135.391C163.747 135.391 164.531 135.729 165.109 136.406V132H166.555V144H165.227L165.156 143.094C164.578 143.802 163.773 144.156 162.742 144.156C161.763 144.156 160.964 143.755 160.344 142.953C159.729 142.151 159.422 141.104 159.422 139.812V139.703ZM160.867 139.867C160.867 140.826 161.065 141.576 161.461 142.117C161.857 142.659 162.404 142.93 163.102 142.93C164.018 142.93 164.688 142.518 165.109 141.695V137.812C164.677 137.016 164.013 136.617 163.117 136.617C162.409 136.617 161.857 136.891 161.461 137.438C161.065 137.984 160.867 138.794 160.867 139.867ZM79.9922 165.758C79.9922 165.367 79.8438 165.065 79.5469 164.852C79.2552 164.633 78.7422 164.445 78.0078 164.289C77.2786 164.133 76.6979 163.945 76.2656 163.727C75.8385 163.508 75.5208 163.247 75.3125 162.945C75.1094 162.643 75.0078 162.284 75.0078 161.867C75.0078 161.174 75.2995 160.589 75.8828 160.109C76.4714 159.63 77.2214 159.391 78.1328 159.391C79.0911 159.391 79.8672 159.638 80.4609 160.133C81.0599 160.628 81.3594 161.26 81.3594 162.031H79.9062C79.9062 161.635 79.737 161.294 79.3984 161.008C79.0651 160.721 78.6432 160.578 78.1328 160.578C77.6068 160.578 77.1953 160.693 76.8984 160.922C76.6016 161.151 76.4531 161.451 76.4531 161.82C76.4531 162.169 76.5911 162.432 76.8672 162.609C77.1432 162.786 77.6406 162.956 78.3594 163.117C79.0833 163.279 79.6693 163.471 80.1172 163.695C80.5651 163.919 80.8958 164.19 81.1094 164.508C81.3281 164.82 81.4375 165.203 81.4375 165.656C81.4375 166.411 81.1354 167.018 80.5312 167.477C79.9271 167.93 79.1432 168.156 78.1797 168.156C77.5026 168.156 76.9036 168.036 76.3828 167.797C75.862 167.557 75.4531 167.224 75.1562 166.797C74.8646 166.365 74.7188 165.898 74.7188 165.398H76.1641C76.1901 165.883 76.3828 166.268 76.7422 166.555C77.1068 166.836 77.5859 166.977 78.1797 166.977C78.7266 166.977 79.1641 166.867 79.4922 166.648C79.8255 166.424 79.9922 166.128 79.9922 165.758ZM86.8281 168.156C85.6823 168.156 84.75 167.781 84.0312 167.031C83.3125 166.276 82.9531 165.268 82.9531 164.008V163.742C82.9531 162.904 83.112 162.156 83.4297 161.5C83.7526 160.839 84.2005 160.323 84.7734 159.953C85.3516 159.578 85.9766 159.391 86.6484 159.391C87.7474 159.391 88.6016 159.753 89.2109 160.477C89.8203 161.201 90.125 162.237 90.125 163.586V164.188H84.3984C84.4193 165.021 84.6615 165.695 85.125 166.211C85.5938 166.721 86.1875 166.977 86.9062 166.977C87.4167 166.977 87.849 166.872 88.2031 166.664C88.5573 166.456 88.8672 166.18 89.1328 165.836L90.0156 166.523C89.3073 167.612 88.2448 168.156 86.8281 168.156ZM86.6484 160.578C86.0651 160.578 85.5755 160.792 85.1797 161.219C84.7839 161.641 84.5391 162.234 84.4453 163H88.6797V162.891C88.638 162.156 88.4401 161.589 88.0859 161.188C87.7318 160.781 87.2526 160.578 86.6484 160.578ZM95.8906 160.844C95.6719 160.807 95.4349 160.789 95.1797 160.789C94.2318 160.789 93.5885 161.193 93.25 162V168H91.8047V159.547H93.2109L93.2344 160.523C93.7083 159.768 94.3802 159.391 95.25 159.391C95.5312 159.391 95.7448 159.427 95.8906 159.5V160.844ZM100.156 166.039L102.25 159.547H103.727L100.695 168H99.5938L96.5312 159.547H98.0078L100.156 166.039ZM106.688 168H105.242V159.547H106.688V168ZM105.125 157.305C105.125 157.07 105.195 156.872 105.336 156.711C105.482 156.549 105.695 156.469 105.977 156.469C106.258 156.469 106.471 156.549 106.617 156.711C106.763 156.872 106.836 157.07 106.836 157.305C106.836 157.539 106.763 157.734 106.617 157.891C106.471 158.047 106.258 158.125 105.977 158.125C105.695 158.125 105.482 158.047 105.336 157.891C105.195 157.734 105.125 157.539 105.125 157.305ZM112.398 166.977C112.914 166.977 113.365 166.82 113.75 166.508C114.135 166.195 114.349 165.805 114.391 165.336H115.758C115.732 165.82 115.565 166.281 115.258 166.719C114.951 167.156 114.539 167.505 114.023 167.766C113.513 168.026 112.971 168.156 112.398 168.156C111.247 168.156 110.331 167.773 109.648 167.008C108.971 166.237 108.633 165.185 108.633 163.852V163.609C108.633 162.786 108.784 162.055 109.086 161.414C109.388 160.773 109.82 160.276 110.383 159.922C110.951 159.568 111.62 159.391 112.391 159.391C113.339 159.391 114.125 159.674 114.75 160.242C115.38 160.81 115.716 161.547 115.758 162.453H114.391C114.349 161.906 114.141 161.458 113.766 161.109C113.396 160.755 112.938 160.578 112.391 160.578C111.656 160.578 111.086 160.844 110.68 161.375C110.279 161.901 110.078 162.664 110.078 163.664V163.938C110.078 164.911 110.279 165.661 110.68 166.188C111.081 166.714 111.654 166.977 112.398 166.977ZM120.891 168.156C119.745 168.156 118.812 167.781 118.094 167.031C117.375 166.276 117.016 165.268 117.016 164.008V163.742C117.016 162.904 117.174 162.156 117.492 161.5C117.815 160.839 118.263 160.323 118.836 159.953C119.414 159.578 120.039 159.391 120.711 159.391C121.81 159.391 122.664 159.753 123.273 160.477C123.883 161.201 124.188 162.237 124.188 163.586V164.188H118.461C118.482 165.021 118.724 165.695 119.188 166.211C119.656 166.721 120.25 166.977 120.969 166.977C121.479 166.977 121.911 166.872 122.266 166.664C122.62 166.456 122.93 166.18 123.195 165.836L124.078 166.523C123.37 167.612 122.307 168.156 120.891 168.156ZM120.711 160.578C120.128 160.578 119.638 160.792 119.242 161.219C118.846 161.641 118.602 162.234 118.508 163H122.742V162.891C122.701 162.156 122.503 161.589 122.148 161.188C121.794 160.781 121.315 160.578 120.711 160.578ZM130.789 165.758C130.789 165.367 130.641 165.065 130.344 164.852C130.052 164.633 129.539 164.445 128.805 164.289C128.076 164.133 127.495 163.945 127.062 163.727C126.635 163.508 126.318 163.247 126.109 162.945C125.906 162.643 125.805 162.284 125.805 161.867C125.805 161.174 126.096 160.589 126.68 160.109C127.268 159.63 128.018 159.391 128.93 159.391C129.888 159.391 130.664 159.638 131.258 160.133C131.857 160.628 132.156 161.26 132.156 162.031H130.703C130.703 161.635 130.534 161.294 130.195 161.008C129.862 160.721 129.44 160.578 128.93 160.578C128.404 160.578 127.992 160.693 127.695 160.922C127.398 161.151 127.25 161.451 127.25 161.82C127.25 162.169 127.388 162.432 127.664 162.609C127.94 162.786 128.438 162.956 129.156 163.117C129.88 163.279 130.466 163.471 130.914 163.695C131.362 163.919 131.693 164.19 131.906 164.508C132.125 164.82 132.234 165.203 132.234 165.656C132.234 166.411 131.932 167.018 131.328 167.477C130.724 167.93 129.94 168.156 128.977 168.156C128.299 168.156 127.701 168.036 127.18 167.797C126.659 167.557 126.25 167.224 125.953 166.797C125.661 166.365 125.516 165.898 125.516 165.398H126.961C126.987 165.883 127.18 166.268 127.539 166.555C127.904 166.836 128.383 166.977 128.977 166.977C129.523 166.977 129.961 166.867 130.289 166.648C130.622 166.424 130.789 166.128 130.789 165.758Z" fill="white"/>
</svg>
