<svg width="208" height="208" viewBox="0 0 208 208" fill="none" xmlns="http://www.w3.org/2000/svg">
<circle cx="104" cy="104" r="104" fill="#EEF1F3"/>
<path d="M50.2578 125.016H43.8027L42.3379 129H41.0781L46.459 114.781H47.6016L52.9824 129H51.7324L50.2578 125.016ZM44.1738 123.99H49.877L47.0254 116.246L44.1738 123.99ZM61.1367 126.314C61.1367 125.735 60.9023 125.27 60.4336 124.918C59.9714 124.566 59.2715 124.293 58.334 124.098C57.3965 123.896 56.6673 123.668 56.1465 123.414C55.6322 123.154 55.248 122.838 54.9941 122.467C54.7467 122.096 54.623 121.646 54.623 121.119C54.623 120.286 54.9714 119.599 55.668 119.059C56.3646 118.512 57.2565 118.238 58.3438 118.238C59.5221 118.238 60.4661 118.531 61.1758 119.117C61.8919 119.697 62.25 120.455 62.25 121.393H61.0781C61.0781 120.774 60.8177 120.26 60.2969 119.85C59.7826 119.439 59.1315 119.234 58.3438 119.234C57.5755 119.234 56.957 119.407 56.4883 119.752C56.026 120.09 55.7949 120.533 55.7949 121.08C55.7949 121.607 55.987 122.018 56.3711 122.311C56.7617 122.597 57.4681 122.861 58.4902 123.102C59.5189 123.342 60.2871 123.6 60.7949 123.873C61.3092 124.146 61.6901 124.475 61.9375 124.859C62.1849 125.243 62.3086 125.709 62.3086 126.256C62.3086 127.148 61.9473 127.861 61.2246 128.395C60.5085 128.928 59.571 129.195 58.4121 129.195C57.1816 129.195 56.1823 128.899 55.4141 128.307C54.6523 127.708 54.2715 126.952 54.2715 126.041H55.4434C55.4889 126.725 55.7754 127.258 56.3027 127.643C56.8366 128.02 57.5397 128.209 58.4121 128.209C59.2259 128.209 59.8835 128.03 60.3848 127.672C60.8861 127.314 61.1367 126.861 61.1367 126.314ZM71.2734 126.314C71.2734 125.735 71.0391 125.27 70.5703 124.918C70.1081 124.566 69.4082 124.293 68.4707 124.098C67.5332 123.896 66.804 123.668 66.2832 123.414C65.7689 123.154 65.3848 122.838 65.1309 122.467C64.8835 122.096 64.7598 121.646 64.7598 121.119C64.7598 120.286 65.1081 119.599 65.8047 119.059C66.5013 118.512 67.3932 118.238 68.4805 118.238C69.6589 118.238 70.6029 118.531 71.3125 119.117C72.0286 119.697 72.3867 120.455 72.3867 121.393H71.2148C71.2148 120.774 70.9544 120.26 70.4336 119.85C69.9193 119.439 69.2682 119.234 68.4805 119.234C67.7122 119.234 67.0938 119.407 66.625 119.752C66.1628 120.09 65.9316 120.533 65.9316 121.08C65.9316 121.607 66.1237 122.018 66.5078 122.311C66.8984 122.597 67.6048 122.861 68.627 123.102C69.6556 123.342 70.4238 123.6 70.9316 123.873C71.446 124.146 71.8268 124.475 72.0742 124.859C72.3216 125.243 72.4453 125.709 72.4453 126.256C72.4453 127.148 72.084 127.861 71.3613 128.395C70.6452 128.928 69.7077 129.195 68.5488 129.195C67.3184 129.195 66.319 128.899 65.5508 128.307C64.7891 127.708 64.4082 126.952 64.4082 126.041H65.5801C65.6257 126.725 65.9121 127.258 66.4395 127.643C66.9733 128.02 67.6764 128.209 68.5488 128.209C69.3626 128.209 70.0202 128.03 70.5215 127.672C71.0228 127.314 71.2734 126.861 71.2734 126.314ZM79.1738 129.195C78.2754 129.195 77.4616 128.974 76.7324 128.531C76.0098 128.089 75.4466 127.473 75.043 126.686C74.6393 125.891 74.4375 125.003 74.4375 124.02V123.6C74.4375 122.584 74.6328 121.669 75.0234 120.855C75.4206 120.042 75.9707 119.404 76.6738 118.941C77.377 118.473 78.1387 118.238 78.959 118.238C80.2415 118.238 81.2572 118.678 82.0059 119.557C82.7611 120.429 83.1387 121.624 83.1387 123.141V123.795H75.5996V124.02C75.5996 125.217 75.9414 126.217 76.625 127.018C77.3151 127.812 78.181 128.209 79.2227 128.209C79.8477 128.209 80.3978 128.095 80.873 127.867C81.3548 127.639 81.791 127.275 82.1816 126.773L82.9141 127.33C82.0547 128.574 80.8079 129.195 79.1738 129.195ZM78.959 119.234C78.0801 119.234 77.3379 119.557 76.7324 120.201C76.1335 120.846 75.7689 121.712 75.6387 122.799H81.9766V122.672C81.944 121.656 81.6543 120.829 81.1074 120.191C80.5605 119.553 79.8444 119.234 78.959 119.234ZM87.2305 115.729V118.434H89.418V119.391H87.2305V126.432C87.2305 127.018 87.3346 127.454 87.543 127.74C87.7578 128.027 88.1126 128.17 88.6074 128.17C88.8027 128.17 89.1185 128.137 89.5547 128.072L89.6035 129.029C89.2975 129.14 88.8809 129.195 88.3535 129.195C87.5527 129.195 86.9701 128.964 86.6055 128.502C86.2409 128.033 86.0586 127.346 86.0586 126.441V119.391H84.1152V118.434H86.0586V115.729H87.2305ZM100.609 128.209C101.423 128.209 102.104 127.981 102.65 127.525C103.204 127.063 103.503 126.467 103.549 125.738H104.672C104.639 126.383 104.438 126.972 104.066 127.506C103.695 128.033 103.201 128.447 102.582 128.746C101.97 129.046 101.312 129.195 100.609 129.195C99.2227 129.195 98.1224 128.714 97.3086 127.75C96.5013 126.786 96.0977 125.491 96.0977 123.863V123.512C96.0977 122.47 96.2799 121.549 96.6445 120.748C97.0091 119.947 97.5299 119.329 98.207 118.893C98.8906 118.456 99.6882 118.238 100.6 118.238C101.758 118.238 102.712 118.583 103.461 119.273C104.216 119.964 104.62 120.872 104.672 121.998H103.549C103.497 121.171 103.197 120.504 102.65 119.996C102.11 119.488 101.426 119.234 100.6 119.234C99.5449 119.234 98.7246 119.615 98.1387 120.377C97.5592 121.139 97.2695 122.206 97.2695 123.58V123.922C97.2695 125.27 97.5592 126.321 98.1387 127.076C98.7246 127.831 99.5482 128.209 100.609 128.209ZM111.898 119.43C111.651 119.384 111.387 119.361 111.107 119.361C110.378 119.361 109.76 119.566 109.252 119.977C108.751 120.38 108.393 120.969 108.178 121.744V129H107.016V118.434H108.158L108.178 120.113C108.796 118.863 109.789 118.238 111.156 118.238C111.482 118.238 111.739 118.281 111.928 118.365L111.898 119.43ZM117.65 129.195C116.752 129.195 115.938 128.974 115.209 128.531C114.486 128.089 113.923 127.473 113.52 126.686C113.116 125.891 112.914 125.003 112.914 124.02V123.6C112.914 122.584 113.109 121.669 113.5 120.855C113.897 120.042 114.447 119.404 115.15 118.941C115.854 118.473 116.615 118.238 117.436 118.238C118.718 118.238 119.734 118.678 120.482 119.557C121.238 120.429 121.615 121.624 121.615 123.141V123.795H114.076V124.02C114.076 125.217 114.418 126.217 115.102 127.018C115.792 127.812 116.658 128.209 117.699 128.209C118.324 128.209 118.874 128.095 119.35 127.867C119.831 127.639 120.268 127.275 120.658 126.773L121.391 127.33C120.531 128.574 119.285 129.195 117.65 129.195ZM117.436 119.234C116.557 119.234 115.814 119.557 115.209 120.201C114.61 120.846 114.245 121.712 114.115 122.799H120.453V122.672C120.421 121.656 120.131 120.829 119.584 120.191C119.037 119.553 118.321 119.234 117.436 119.234ZM130.561 129C130.443 128.668 130.368 128.176 130.336 127.525C129.926 128.059 129.402 128.473 128.764 128.766C128.132 129.052 127.462 129.195 126.752 129.195C125.736 129.195 124.913 128.912 124.281 128.346C123.656 127.779 123.344 127.063 123.344 126.197C123.344 125.169 123.77 124.355 124.623 123.756C125.482 123.157 126.677 122.857 128.207 122.857H130.326V121.656C130.326 120.901 130.092 120.309 129.623 119.879C129.161 119.443 128.484 119.225 127.592 119.225C126.778 119.225 126.104 119.433 125.57 119.85C125.036 120.266 124.77 120.768 124.77 121.354L123.598 121.344C123.598 120.504 123.988 119.778 124.77 119.166C125.551 118.548 126.511 118.238 127.65 118.238C128.829 118.238 129.757 118.535 130.434 119.127C131.117 119.713 131.469 120.533 131.488 121.588V126.588C131.488 127.61 131.596 128.375 131.811 128.883V129H130.561ZM126.889 128.16C127.67 128.16 128.367 127.971 128.979 127.594C129.597 127.216 130.046 126.712 130.326 126.08V123.756H128.236C127.071 123.769 126.16 123.984 125.502 124.4C124.844 124.811 124.516 125.377 124.516 126.1C124.516 126.692 124.734 127.184 125.17 127.574C125.613 127.965 126.186 128.16 126.889 128.16ZM136.43 115.729V118.434H138.617V119.391H136.43V126.432C136.43 127.018 136.534 127.454 136.742 127.74C136.957 128.027 137.312 128.17 137.807 128.17C138.002 128.17 138.318 128.137 138.754 128.072L138.803 129.029C138.497 129.14 138.08 129.195 137.553 129.195C136.752 129.195 136.169 128.964 135.805 128.502C135.44 128.033 135.258 127.346 135.258 126.441V119.391H133.314V118.434H135.258V115.729H136.43ZM142.348 129H141.176V118.434H142.348V129ZM140.971 115.377C140.971 115.156 141.042 114.97 141.186 114.82C141.329 114.664 141.524 114.586 141.771 114.586C142.019 114.586 142.214 114.664 142.357 114.82C142.507 114.97 142.582 115.156 142.582 115.377C142.582 115.598 142.507 115.784 142.357 115.934C142.214 116.083 142.019 116.158 141.771 116.158C141.524 116.158 141.329 116.083 141.186 115.934C141.042 115.784 140.971 115.598 140.971 115.377ZM144.887 123.561C144.887 122.545 145.082 121.63 145.473 120.816C145.87 120.003 146.426 119.371 147.143 118.922C147.865 118.466 148.682 118.238 149.594 118.238C151 118.238 152.139 118.733 153.012 119.723C153.884 120.706 154.32 122.011 154.32 123.639V123.883C154.32 124.905 154.122 125.826 153.725 126.646C153.334 127.46 152.781 128.089 152.064 128.531C151.348 128.974 150.531 129.195 149.613 129.195C148.214 129.195 147.074 128.704 146.195 127.721C145.323 126.731 144.887 125.423 144.887 123.795V123.561ZM146.059 123.883C146.059 125.146 146.384 126.184 147.035 126.998C147.693 127.805 148.552 128.209 149.613 128.209C150.668 128.209 151.521 127.805 152.172 126.998C152.829 126.184 153.158 125.113 153.158 123.785V123.561C153.158 122.753 153.008 122.014 152.709 121.344C152.41 120.673 151.99 120.156 151.449 119.791C150.909 119.42 150.29 119.234 149.594 119.234C148.552 119.234 147.702 119.645 147.045 120.465C146.387 121.279 146.059 122.346 146.059 123.668V123.883ZM157.855 118.434L157.895 120.24C158.292 119.589 158.786 119.094 159.379 118.756C159.971 118.411 160.626 118.238 161.342 118.238C162.475 118.238 163.318 118.557 163.871 119.195C164.424 119.833 164.704 120.79 164.711 122.066V129H163.549V122.057C163.542 121.113 163.34 120.41 162.943 119.947C162.553 119.485 161.924 119.254 161.059 119.254C160.336 119.254 159.695 119.482 159.135 119.938C158.581 120.387 158.171 120.995 157.904 121.764V129H156.742V118.434H157.855Z" fill="#546169"/>
<path d="M62.1543 81.1045C62.2812 83.3408 62.7744 85.1572 63.6338 86.5537C64.5029 87.9404 65.8311 88.6338 67.6182 88.6338C68.3213 88.6338 68.9512 88.5117 69.5078 88.2676C70.0742 88.0137 70.5186 87.6328 70.8408 87.125C71.1729 86.6172 71.3389 86.002 71.3389 85.2793C71.3389 84.498 71.1533 83.7998 70.7822 83.1846C70.4209 82.5596 69.9277 81.9932 69.3027 81.4854C68.6875 80.9678 67.8623 80.3721 66.8271 79.6982C65.6162 78.917 64.6543 78.2383 63.9414 77.6621C63.2383 77.0859 62.6523 76.4023 62.1836 75.6113C61.7246 74.8203 61.4951 73.9023 61.4951 72.8574C61.4951 71.6465 61.8027 70.6309 62.418 69.8105C63.0332 68.9805 63.8486 68.3652 64.8643 67.9648C65.8799 67.5645 66.998 67.3643 68.2188 67.3643C68.9414 67.3643 69.5664 67.418 70.0938 67.5254C70.6309 67.6328 71.0752 67.7695 71.4268 67.9355C71.7881 68.0918 72.1787 68.292 72.5986 68.5361C73.0771 68.8193 73.4141 68.9609 73.6094 68.9609C73.7949 68.9609 73.9365 68.8584 74.0342 68.6533C74.1318 68.4385 74.21 68.1016 74.2686 67.6426H74.957C74.8594 68.9805 74.8105 71.2607 74.8105 74.4834H74.1221C74.0537 73.3994 73.8096 72.3691 73.3896 71.3926C72.9795 70.416 72.3984 69.625 71.6465 69.0195C70.9043 68.4043 70.0303 68.0967 69.0244 68.0967C68.3896 68.0967 67.8184 68.2188 67.3105 68.4629C66.8125 68.707 66.4219 69.0635 66.1387 69.5322C65.8652 69.9912 65.7285 70.5283 65.7285 71.1436C65.7285 72.1396 66.0264 72.9551 66.6221 73.5898C67.2178 74.2246 67.9941 74.8691 68.9512 75.5234C69.9082 76.168 70.5527 76.6025 70.8848 76.8271C72.0566 77.6084 72.9844 78.2871 73.668 78.8633C74.3516 79.4395 74.9082 80.1133 75.3379 80.8848C75.7676 81.6562 75.9824 82.5498 75.9824 83.5654C75.9824 84.8447 75.6504 85.9238 74.9863 86.8027C74.3223 87.6816 73.4287 88.3408 72.3057 88.7803C71.1826 89.21 69.9277 89.4248 68.541 89.4248C67.418 89.4248 66.4854 89.3223 65.7432 89.1172C65.0107 88.9219 64.332 88.6533 63.707 88.3115C63.2773 88.0283 62.9404 87.8867 62.6963 87.8867C62.5107 87.8867 62.3691 87.9941 62.2715 88.209C62.1738 88.4141 62.0957 88.7461 62.0371 89.2051H61.3486C61.4268 87.9551 61.4658 85.2549 61.4658 81.1045H62.1543ZM87.584 73.5166V74.1172H84.0391V86.2168C84.0391 86.8125 84.1465 87.2373 84.3613 87.4912C84.5762 87.7354 84.9082 87.8574 85.3574 87.8574C86.207 87.8574 86.8857 87.2568 87.3936 86.0557L87.9062 86.334C87.1543 88.3945 85.7871 89.4248 83.8047 89.4248C82.4863 89.4248 81.4854 89.083 80.8018 88.3994C80.3818 87.9893 80.0938 87.4717 79.9375 86.8467C79.791 86.2119 79.7178 85.3379 79.7178 84.2246V74.1172H77.1982V73.5166H79.7178V69.5322C81.3682 69.5322 82.8086 69.21 84.0391 68.5654V73.5166H87.584ZM93.3555 79.7275C93.3262 80.0205 93.3115 80.4893 93.3115 81.1338C93.3115 82.4619 93.4971 83.5654 93.8682 84.4443C94.2393 85.3135 94.7178 85.9531 95.3037 86.3633C95.8994 86.7637 96.5342 86.9639 97.208 86.9639C98.8584 86.9639 100.182 86.1631 101.178 84.5615L101.705 84.7373C101.451 85.5576 101.056 86.3242 100.519 87.0371C99.9912 87.7402 99.3174 88.3164 98.4971 88.7656C97.6865 89.2051 96.7588 89.4248 95.7139 89.4248C94.3369 89.4248 93.126 89.1318 92.0811 88.5459C91.0459 87.96 90.2354 87.0713 89.6494 85.8799C89.0732 84.6787 88.7852 83.1895 88.7852 81.4121C88.7852 79.5957 89.0977 78.0674 89.7227 76.8271C90.3477 75.5771 91.2119 74.6396 92.3154 74.0146C93.4189 73.3896 94.6934 73.0771 96.1387 73.0771C99.8984 73.0771 101.778 75.2939 101.778 79.7275H93.3555ZM97.999 79.1562C98.0283 77.5938 97.8672 76.2949 97.5156 75.2598C97.1738 74.2246 96.6514 73.707 95.9482 73.707C95.2354 73.707 94.6396 74.1514 94.1611 75.04C93.6924 75.9189 93.4043 77.291 93.2969 79.1562H97.999ZM109.63 75.9482C110.05 75.0107 110.66 74.2979 111.461 73.8096C112.271 73.3213 113.209 73.0771 114.273 73.0771C115.309 73.0771 116.231 73.3604 117.042 73.9268C117.853 74.4834 118.487 75.3232 118.946 76.4463C119.415 77.5596 119.649 78.9219 119.649 80.5332C119.649 82.4473 119.361 84.0732 118.785 85.4111C118.219 86.7393 117.413 87.7402 116.368 88.4141C115.333 89.0879 114.107 89.4248 112.691 89.4248C111.402 89.4248 110.382 89.1074 109.63 88.4727V91.4609C109.63 92.3398 109.85 92.9502 110.289 93.292C110.738 93.6338 111.417 93.8047 112.325 93.8047V94.4346C112.032 94.4248 111.368 94.4004 110.333 94.3613C109.298 94.3223 108.282 94.3027 107.286 94.3027C106.524 94.3027 105.748 94.3223 104.957 94.3613C104.176 94.4004 103.692 94.4248 103.507 94.4346V93.8047C103.956 93.8047 104.308 93.7412 104.562 93.6143C104.815 93.4971 105.001 93.2871 105.118 92.9844C105.245 92.6914 105.309 92.2812 105.309 91.7539V76.7539C105.309 75.8359 105.162 75.167 104.869 74.7471C104.586 74.3271 104.093 74.1172 103.39 74.1172V73.4873C104.024 73.5459 104.645 73.5752 105.25 73.5752C106.998 73.5752 108.458 73.4385 109.63 73.165V75.9482ZM109.63 87.8135C110.079 88.3408 110.709 88.6045 111.52 88.6045C112.799 88.6045 113.717 87.9697 114.273 86.7002C114.84 85.4209 115.123 83.5654 115.123 81.1338C115.123 78.7021 114.898 76.9688 114.449 75.9336C114 74.8887 113.355 74.3662 112.516 74.3662C111.832 74.3662 111.222 74.5957 110.685 75.0547C110.147 75.5137 109.796 76.1484 109.63 76.959V87.8135ZM128.805 76.8271C130.27 74.3271 132.608 73.0771 135.821 73.0771C136.847 73.0771 137.735 73.2285 138.487 73.5312C139.239 73.8242 139.815 74.2588 140.216 74.835C140.626 75.4014 140.831 76.085 140.831 76.8857C140.831 78.0479 140.406 79.0732 139.557 79.9619C138.707 80.8506 137.496 81.8467 135.924 82.9502C134.352 84.0537 133.307 84.8789 132.789 85.4258H139.278C139.825 85.4258 140.23 85.3867 140.494 85.3086C140.758 85.2207 140.943 85.0889 141.051 84.9131C141.158 84.7275 141.236 84.4492 141.285 84.0781H141.915C141.915 86.4414 141.954 88.1309 142.032 89.1465C141.583 89.0488 140.094 89 137.564 89H128.834V88.4287C129.117 88.1357 129.977 87.335 131.412 86.0264C132.848 84.7178 133.99 83.3896 134.84 82.042C135.699 80.6846 136.129 79.293 136.129 77.8672C136.129 75.8262 135.196 74.8057 133.331 74.8057C132.491 74.8057 131.744 75.001 131.09 75.3916C130.445 75.7725 129.854 76.3486 129.317 77.1201L128.805 76.8271Z" fill="#FD583E"/>
</svg>
