<svg width="208" height="208" viewBox="0 0 208 208" fill="none" xmlns="http://www.w3.org/2000/svg">
<circle cx="104" cy="104" r="104" fill="#EEF1F3"/>
<path d="M40.4434 124.566C40.2806 126.064 39.7435 127.21 38.832 128.004C37.9271 128.798 36.7194 129.195 35.209 129.195C34.1543 129.195 33.2201 128.932 32.4062 128.404C31.599 127.877 30.974 127.132 30.5312 126.168C30.0885 125.198 29.8639 124.091 29.8574 122.848V121.002C29.8574 119.739 30.0788 118.619 30.5215 117.643C30.9642 116.666 31.599 115.914 32.4258 115.387C33.2591 114.853 34.2161 114.586 35.2969 114.586C36.8203 114.586 38.0215 114.999 38.9004 115.826C39.7858 116.646 40.3001 117.783 40.4434 119.234H39.2324C38.9329 116.819 37.6211 115.611 35.2969 115.611C34.0078 115.611 32.9792 116.093 32.2109 117.057C31.4492 118.02 31.0684 119.352 31.0684 121.051V122.789C31.0684 124.43 31.4395 125.738 32.1816 126.715C32.9303 127.691 33.9395 128.18 35.209 128.18C36.4655 128.18 37.4128 127.88 38.0508 127.281C38.6888 126.676 39.0827 125.771 39.2324 124.566H40.4434ZM49.8867 127.662C49.1836 128.684 48.0605 129.195 46.5176 129.195C45.3913 129.195 44.5352 128.87 43.9492 128.219C43.3633 127.561 43.0638 126.591 43.0508 125.309V118.434H44.2129V125.162C44.2129 127.174 45.0267 128.18 46.6543 128.18C48.347 128.18 49.418 127.48 49.8672 126.08V118.434H51.0391V129H49.9062L49.8867 127.662ZM60.4141 126.314C60.4141 125.735 60.1797 125.27 59.7109 124.918C59.2487 124.566 58.5488 124.293 57.6113 124.098C56.6738 123.896 55.9447 123.668 55.4238 123.414C54.9095 123.154 54.5254 122.838 54.2715 122.467C54.0241 122.096 53.9004 121.646 53.9004 121.119C53.9004 120.286 54.2487 119.599 54.9453 119.059C55.6419 118.512 56.5339 118.238 57.6211 118.238C58.7995 118.238 59.7435 118.531 60.4531 119.117C61.1693 119.697 61.5273 120.455 61.5273 121.393H60.3555C60.3555 120.774 60.0951 120.26 59.5742 119.85C59.0599 119.439 58.4089 119.234 57.6211 119.234C56.8529 119.234 56.2344 119.407 55.7656 119.752C55.3034 120.09 55.0723 120.533 55.0723 121.08C55.0723 121.607 55.2643 122.018 55.6484 122.311C56.0391 122.597 56.7454 122.861 57.7676 123.102C58.7962 123.342 59.5645 123.6 60.0723 123.873C60.5866 124.146 60.9674 124.475 61.2148 124.859C61.4622 125.243 61.5859 125.709 61.5859 126.256C61.5859 127.148 61.2246 127.861 60.502 128.395C59.7858 128.928 58.8483 129.195 57.6895 129.195C56.459 129.195 55.4596 128.899 54.6914 128.307C53.9297 127.708 53.5488 126.952 53.5488 126.041H54.7207C54.7663 126.725 55.0527 127.258 55.5801 127.643C56.1139 128.02 56.8171 128.209 57.6895 128.209C58.5033 128.209 59.1608 128.03 59.6621 127.672C60.1634 127.314 60.4141 126.861 60.4141 126.314ZM66.0391 115.729V118.434H68.2266V119.391H66.0391V126.432C66.0391 127.018 66.1432 127.454 66.3516 127.74C66.5664 128.027 66.9212 128.17 67.416 128.17C67.6113 128.17 67.9271 128.137 68.3633 128.072L68.4121 129.029C68.1061 129.14 67.6895 129.195 67.1621 129.195C66.3613 129.195 65.7786 128.964 65.4141 128.502C65.0495 128.033 64.8672 127.346 64.8672 126.441V119.391H62.9238V118.434H64.8672V115.729H66.0391ZM69.8086 123.561C69.8086 122.545 70.0039 121.63 70.3945 120.816C70.7917 120.003 71.3483 119.371 72.0645 118.922C72.7871 118.466 73.6042 118.238 74.5156 118.238C75.9219 118.238 77.0612 118.733 77.9336 119.723C78.806 120.706 79.2422 122.011 79.2422 123.639V123.883C79.2422 124.905 79.0436 125.826 78.6465 126.646C78.2559 127.46 77.7025 128.089 76.9863 128.531C76.2702 128.974 75.4531 129.195 74.5352 129.195C73.1354 129.195 71.9961 128.704 71.1172 127.721C70.2448 126.731 69.8086 125.423 69.8086 123.795V123.561ZM70.9805 123.883C70.9805 125.146 71.306 126.184 71.957 126.998C72.6146 127.805 73.474 128.209 74.5352 128.209C75.5898 128.209 76.4427 127.805 77.0938 126.998C77.7513 126.184 78.0801 125.113 78.0801 123.785V123.561C78.0801 122.753 77.9303 122.014 77.6309 121.344C77.3314 120.673 76.9115 120.156 76.3711 119.791C75.8307 119.42 75.2122 119.234 74.5156 119.234C73.474 119.234 72.6243 119.645 71.9668 120.465C71.3092 121.279 70.9805 122.346 70.9805 123.668V123.883ZM82.7285 118.434L82.7676 120.152C83.1582 119.514 83.6465 119.036 84.2324 118.717C84.8184 118.398 85.4694 118.238 86.1855 118.238C87.8522 118.238 88.9102 118.922 89.3594 120.289C89.737 119.632 90.2415 119.127 90.873 118.775C91.5046 118.417 92.2012 118.238 92.9629 118.238C95.2285 118.238 96.3841 119.475 96.4297 121.949V129H95.2578V122.037C95.2513 121.093 95.0462 120.393 94.6426 119.938C94.2454 119.482 93.5944 119.254 92.6895 119.254C91.8496 119.267 91.14 119.54 90.5605 120.074C89.9811 120.602 89.6589 121.246 89.5938 122.008V129H88.4219V121.949C88.4154 121.044 88.2005 120.37 87.7773 119.928C87.3607 119.479 86.7161 119.254 85.8438 119.254C85.1081 119.254 84.4766 119.465 83.9492 119.889C83.4219 120.305 83.0312 120.927 82.7773 121.754V129H81.6055V118.434H82.7285ZM103.49 129.195C102.592 129.195 101.778 128.974 101.049 128.531C100.326 128.089 99.763 127.473 99.3594 126.686C98.9557 125.891 98.7539 125.003 98.7539 124.02V123.6C98.7539 122.584 98.9492 121.669 99.3398 120.855C99.737 120.042 100.287 119.404 100.99 118.941C101.693 118.473 102.455 118.238 103.275 118.238C104.558 118.238 105.574 118.678 106.322 119.557C107.077 120.429 107.455 121.624 107.455 123.141V123.795H99.916V124.02C99.916 125.217 100.258 126.217 100.941 127.018C101.632 127.812 102.497 128.209 103.539 128.209C104.164 128.209 104.714 128.095 105.189 127.867C105.671 127.639 106.107 127.275 106.498 126.773L107.23 127.33C106.371 128.574 105.124 129.195 103.49 129.195ZM103.275 119.234C102.396 119.234 101.654 119.557 101.049 120.201C100.45 120.846 100.085 121.712 99.9551 122.799H106.293V122.672C106.26 121.656 105.971 120.829 105.424 120.191C104.877 119.553 104.161 119.234 103.275 119.234ZM114.613 119.43C114.366 119.384 114.102 119.361 113.822 119.361C113.093 119.361 112.475 119.566 111.967 119.977C111.465 120.38 111.107 120.969 110.893 121.744V129H109.73V118.434H110.873L110.893 120.113C111.511 118.863 112.504 118.238 113.871 118.238C114.197 118.238 114.454 118.281 114.643 118.365L114.613 119.43ZM122.641 129H121.469V118.434H122.641V129ZM121.264 115.377C121.264 115.156 121.335 114.97 121.479 114.82C121.622 114.664 121.817 114.586 122.064 114.586C122.312 114.586 122.507 114.664 122.65 114.82C122.8 114.97 122.875 115.156 122.875 115.377C122.875 115.598 122.8 115.784 122.65 115.934C122.507 116.083 122.312 116.158 122.064 116.158C121.817 116.158 121.622 116.083 121.479 115.934C121.335 115.784 121.264 115.598 121.264 115.377ZM126.938 118.434L126.977 120.24C127.374 119.589 127.868 119.094 128.461 118.756C129.053 118.411 129.708 118.238 130.424 118.238C131.557 118.238 132.4 118.557 132.953 119.195C133.507 119.833 133.786 120.79 133.793 122.066V129H132.631V122.057C132.624 121.113 132.423 120.41 132.025 119.947C131.635 119.485 131.007 119.254 130.141 119.254C129.418 119.254 128.777 119.482 128.217 119.938C127.663 120.387 127.253 120.995 126.986 121.764V129H125.824V118.434H126.938ZM143.148 126.314C143.148 125.735 142.914 125.27 142.445 124.918C141.983 124.566 141.283 124.293 140.346 124.098C139.408 123.896 138.679 123.668 138.158 123.414C137.644 123.154 137.26 122.838 137.006 122.467C136.758 122.096 136.635 121.646 136.635 121.119C136.635 120.286 136.983 119.599 137.68 119.059C138.376 118.512 139.268 118.238 140.355 118.238C141.534 118.238 142.478 118.531 143.188 119.117C143.904 119.697 144.262 120.455 144.262 121.393H143.09C143.09 120.774 142.829 120.26 142.309 119.85C141.794 119.439 141.143 119.234 140.355 119.234C139.587 119.234 138.969 119.407 138.5 119.752C138.038 120.09 137.807 120.533 137.807 121.08C137.807 121.607 137.999 122.018 138.383 122.311C138.773 122.597 139.48 122.861 140.502 123.102C141.531 123.342 142.299 123.6 142.807 123.873C143.321 124.146 143.702 124.475 143.949 124.859C144.197 125.243 144.32 125.709 144.32 126.256C144.32 127.148 143.959 127.861 143.236 128.395C142.52 128.928 141.583 129.195 140.424 129.195C139.193 129.195 138.194 128.899 137.426 128.307C136.664 127.708 136.283 126.952 136.283 126.041H137.455C137.501 126.725 137.787 127.258 138.314 127.643C138.848 128.02 139.551 128.209 140.424 128.209C141.238 128.209 141.895 128.03 142.396 127.672C142.898 127.314 143.148 126.861 143.148 126.314ZM148.266 129H147.094V118.434H148.266V129ZM146.889 115.377C146.889 115.156 146.96 114.97 147.104 114.82C147.247 114.664 147.442 114.586 147.689 114.586C147.937 114.586 148.132 114.664 148.275 114.82C148.425 114.97 148.5 115.156 148.5 115.377C148.5 115.598 148.425 115.784 148.275 115.934C148.132 116.083 147.937 116.158 147.689 116.158C147.442 116.158 147.247 116.083 147.104 115.934C146.96 115.784 146.889 115.598 146.889 115.377ZM150.98 123.619C150.98 121.965 151.345 120.657 152.074 119.693C152.81 118.723 153.806 118.238 155.062 118.238C156.501 118.238 157.595 118.811 158.344 119.957L158.402 118.434H159.496V128.785C159.496 130.146 159.115 131.223 158.354 132.018C157.592 132.812 156.56 133.209 155.258 133.209C154.522 133.209 153.819 133.043 153.148 132.711C152.484 132.385 151.96 131.949 151.576 131.402L152.23 130.699C153.057 131.715 154.04 132.223 155.18 132.223C156.156 132.223 156.918 131.933 157.465 131.354C158.012 130.781 158.295 129.983 158.314 128.961V127.633C157.566 128.674 156.475 129.195 155.043 129.195C153.819 129.195 152.836 128.707 152.094 127.73C151.352 126.754 150.98 125.436 150.98 123.775V123.619ZM152.162 123.824C152.162 125.172 152.432 126.236 152.973 127.018C153.513 127.792 154.275 128.18 155.258 128.18C156.697 128.18 157.715 127.535 158.314 126.246V121.334C158.041 120.657 157.647 120.143 157.133 119.791C156.618 119.433 156 119.254 155.277 119.254C154.294 119.254 153.529 119.641 152.982 120.416C152.436 121.184 152.162 122.32 152.162 123.824ZM163.705 120.221C164.089 119.589 164.581 119.101 165.18 118.756C165.779 118.411 166.433 118.238 167.143 118.238C168.275 118.238 169.118 118.557 169.672 119.195C170.225 119.833 170.505 120.79 170.512 122.066V129H169.35V122.057C169.343 121.113 169.141 120.41 168.744 119.947C168.354 119.485 167.725 119.254 166.859 119.254C166.137 119.254 165.495 119.482 164.936 119.938C164.382 120.387 163.972 120.995 163.705 121.764V129H162.543V114H163.705V120.221ZM175.336 115.729V118.434H177.523V119.391H175.336V126.432C175.336 127.018 175.44 127.454 175.648 127.74C175.863 128.027 176.218 128.17 176.713 128.17C176.908 128.17 177.224 128.137 177.66 128.072L177.709 129.029C177.403 129.14 176.986 129.195 176.459 129.195C175.658 129.195 175.076 128.964 174.711 128.502C174.346 128.033 174.164 127.346 174.164 126.441V119.391H172.221V118.434H174.164V115.729H175.336Z" fill="#546169"/>
<path d="M66.1465 81.1045C66.2734 83.3408 66.7666 85.1572 67.626 86.5537C68.4951 87.9404 69.8232 88.6338 71.6104 88.6338C72.3135 88.6338 72.9434 88.5117 73.5 88.2676C74.0664 88.0137 74.5107 87.6328 74.833 87.125C75.165 86.6172 75.3311 86.002 75.3311 85.2793C75.3311 84.498 75.1455 83.7998 74.7744 83.1846C74.4131 82.5596 73.9199 81.9932 73.2949 81.4854C72.6797 80.9678 71.8545 80.3721 70.8193 79.6982C69.6084 78.917 68.6465 78.2383 67.9336 77.6621C67.2305 77.0859 66.6445 76.4023 66.1758 75.6113C65.7168 74.8203 65.4873 73.9023 65.4873 72.8574C65.4873 71.6465 65.7949 70.6309 66.4102 69.8105C67.0254 68.9805 67.8408 68.3652 68.8564 67.9648C69.8721 67.5645 70.9902 67.3643 72.2109 67.3643C72.9336 67.3643 73.5586 67.418 74.0859 67.5254C74.623 67.6328 75.0674 67.7695 75.4189 67.9355C75.7803 68.0918 76.1709 68.292 76.5908 68.5361C77.0693 68.8193 77.4062 68.9609 77.6016 68.9609C77.7871 68.9609 77.9287 68.8584 78.0264 68.6533C78.124 68.4385 78.2021 68.1016 78.2607 67.6426H78.9492C78.8516 68.9805 78.8027 71.2607 78.8027 74.4834H78.1143C78.0459 73.3994 77.8018 72.3691 77.3818 71.3926C76.9717 70.416 76.3906 69.625 75.6387 69.0195C74.8965 68.4043 74.0225 68.0967 73.0166 68.0967C72.3818 68.0967 71.8105 68.2188 71.3027 68.4629C70.8047 68.707 70.4141 69.0635 70.1309 69.5322C69.8574 69.9912 69.7207 70.5283 69.7207 71.1436C69.7207 72.1396 70.0186 72.9551 70.6143 73.5898C71.21 74.2246 71.9863 74.8691 72.9434 75.5234C73.9004 76.168 74.5449 76.6025 74.877 76.8271C76.0488 77.6084 76.9766 78.2871 77.6602 78.8633C78.3438 79.4395 78.9004 80.1133 79.3301 80.8848C79.7598 81.6562 79.9746 82.5498 79.9746 83.5654C79.9746 84.8447 79.6426 85.9238 78.9785 86.8027C78.3145 87.6816 77.4209 88.3408 76.2979 88.7803C75.1748 89.21 73.9199 89.4248 72.5332 89.4248C71.4102 89.4248 70.4775 89.3223 69.7354 89.1172C69.0029 88.9219 68.3242 88.6533 67.6992 88.3115C67.2695 88.0283 66.9326 87.8867 66.6885 87.8867C66.5029 87.8867 66.3613 87.9941 66.2637 88.209C66.166 88.4141 66.0879 88.7461 66.0293 89.2051H65.3408C65.4189 87.9551 65.458 85.2549 65.458 81.1045H66.1465ZM91.5762 73.5166V74.1172H88.0312V86.2168C88.0312 86.8125 88.1387 87.2373 88.3535 87.4912C88.5684 87.7354 88.9004 87.8574 89.3496 87.8574C90.1992 87.8574 90.8779 87.2568 91.3857 86.0557L91.8984 86.334C91.1465 88.3945 89.7793 89.4248 87.7969 89.4248C86.4785 89.4248 85.4775 89.083 84.7939 88.3994C84.374 87.9893 84.0859 87.4717 83.9297 86.8467C83.7832 86.2119 83.71 85.3379 83.71 84.2246V74.1172H81.1904V73.5166H83.71V69.5322C85.3604 69.5322 86.8008 69.21 88.0312 68.5654V73.5166H91.5762ZM97.3477 79.7275C97.3184 80.0205 97.3037 80.4893 97.3037 81.1338C97.3037 82.4619 97.4893 83.5654 97.8604 84.4443C98.2314 85.3135 98.71 85.9531 99.2959 86.3633C99.8916 86.7637 100.526 86.9639 101.2 86.9639C102.851 86.9639 104.174 86.1631 105.17 84.5615L105.697 84.7373C105.443 85.5576 105.048 86.3242 104.511 87.0371C103.983 87.7402 103.31 88.3164 102.489 88.7656C101.679 89.2051 100.751 89.4248 99.7061 89.4248C98.3291 89.4248 97.1182 89.1318 96.0732 88.5459C95.0381 87.96 94.2275 87.0713 93.6416 85.8799C93.0654 84.6787 92.7773 83.1895 92.7773 81.4121C92.7773 79.5957 93.0898 78.0674 93.7148 76.8271C94.3398 75.5771 95.2041 74.6396 96.3076 74.0146C97.4111 73.3896 98.6855 73.0771 100.131 73.0771C103.891 73.0771 105.771 75.2939 105.771 79.7275H97.3477ZM101.991 79.1562C102.021 77.5938 101.859 76.2949 101.508 75.2598C101.166 74.2246 100.644 73.707 99.9404 73.707C99.2275 73.707 98.6318 74.1514 98.1533 75.04C97.6846 75.9189 97.3965 77.291 97.2891 79.1562H101.991ZM113.622 75.9482C114.042 75.0107 114.652 74.2979 115.453 73.8096C116.264 73.3213 117.201 73.0771 118.266 73.0771C119.301 73.0771 120.224 73.3604 121.034 73.9268C121.845 74.4834 122.479 75.3232 122.938 76.4463C123.407 77.5596 123.642 78.9219 123.642 80.5332C123.642 82.4473 123.354 84.0732 122.777 85.4111C122.211 86.7393 121.405 87.7402 120.36 88.4141C119.325 89.0879 118.1 89.4248 116.684 89.4248C115.395 89.4248 114.374 89.1074 113.622 88.4727V91.4609C113.622 92.3398 113.842 92.9502 114.281 93.292C114.73 93.6338 115.409 93.8047 116.317 93.8047V94.4346C116.024 94.4248 115.36 94.4004 114.325 94.3613C113.29 94.3223 112.274 94.3027 111.278 94.3027C110.517 94.3027 109.74 94.3223 108.949 94.3613C108.168 94.4004 107.685 94.4248 107.499 94.4346V93.8047C107.948 93.8047 108.3 93.7412 108.554 93.6143C108.808 93.4971 108.993 93.2871 109.11 92.9844C109.237 92.6914 109.301 92.2812 109.301 91.7539V76.7539C109.301 75.8359 109.154 75.167 108.861 74.7471C108.578 74.3271 108.085 74.1172 107.382 74.1172V73.4873C108.017 73.5459 108.637 73.5752 109.242 73.5752C110.99 73.5752 112.45 73.4385 113.622 73.165V75.9482ZM113.622 87.8135C114.071 88.3408 114.701 88.6045 115.512 88.6045C116.791 88.6045 117.709 87.9697 118.266 86.7002C118.832 85.4209 119.115 83.5654 119.115 81.1338C119.115 78.7021 118.891 76.9688 118.441 75.9336C117.992 74.8887 117.348 74.3662 116.508 74.3662C115.824 74.3662 115.214 74.5957 114.677 75.0547C114.14 75.5137 113.788 76.1484 113.622 76.959V87.8135ZM140.268 86.085C140.268 86.6807 140.336 87.1445 140.473 87.4766C140.619 87.7988 140.844 88.0283 141.146 88.165C141.459 88.3018 141.884 88.3701 142.421 88.3701V89C140.272 88.9219 138.891 88.8828 138.275 88.8828C137.65 88.8828 135.932 88.9219 133.119 89V88.3701C134.066 88.3701 134.774 88.1943 135.243 87.8428C135.712 87.4814 135.946 86.8369 135.946 85.9092V78.585C135.946 77.6182 135.858 76.9102 135.683 76.4609C135.517 76.0117 135.233 75.7139 134.833 75.5674C134.433 75.4209 133.822 75.3477 133.002 75.3477V74.6885C134.74 74.6592 136.171 74.5322 137.294 74.3076C138.417 74.0732 139.408 73.6924 140.268 73.165V86.085Z" fill="#FD583E"/>
</svg>
