<svg width="192" height="191" viewBox="0 0 192 191" fill="none" xmlns="http://www.w3.org/2000/svg">
<path d="M-1.52588e-05 95.5C-1.52588e-05 134.517 23.3865 168.028 56.8974 182.889C68.6795 188.099 81.7641 191 95.5 191C119.36 191 141.207 182.237 157.904 167.791C158.555 167.258 159.206 166.666 159.798 166.074C165.6 160.805 170.751 154.825 175.073 148.253C185.198 133.155 191.059 115.038 191.059 95.5C191.059 42.7471 148.312 0 95.5592 0C42.8063 0 -1.52588e-05 42.7471 -1.52588e-05 95.5Z" fill="white"/>
<path d="M30.7281 106.986C30.7281 106.986 29 95.5 33.5 82.5C27.5 79 25.5 89 25.5 89C25.5 89 14.8354 86.474 13 90.5C11.3422 94.23 11.5 100 15 101C18.5 102 23.1497 102.486 23.1497 102.486L23.5 109L30.7281 106.986Z" fill="white" stroke="#546169" stroke-width="1.5" stroke-miterlimit="10" stroke-linecap="round" stroke-linejoin="round"/>
<path d="M17.4659 105.506C17.4659 105.506 18.354 137.418 40.3196 150.858C51.2136 157.548 59.0288 163.765 57.1934 179.277C57.075 180.165 57.0158 181.409 56.8974 182.889C68.6795 188.099 81.7641 191 95.5 191C119.36 191 141.207 182.237 157.904 167.791C158.555 167.199 159.147 166.844 159.798 166.074C165.6 160.805 170.751 154.825 175.073 148.253C170.337 139.609 164.476 132.8 157.312 126.583C142.984 112.255 126.82 103.552 101.539 100.947C92.3621 99.9997 83.5995 102.605 77.2052 105.743C66.0152 111.604 62.1076 130.017 54.5291 130.195C38.425 130.55 34.8726 103.73 34.8726 103.73L17.4659 105.506Z" fill="#FF5533"/>
<path d="M130.965 112.788C130.965 112.788 145.766 96.2105 147.898 78.5669C149.733 63.4101 138.602 42.9839 119.301 47.7204C102.131 51.924 103.73 70.6333 109.117 78.5669C114.209 86.0862 118.887 100.355 114.683 105.21C110.479 110.065 127.649 115.216 130.965 112.788Z" fill="white" stroke="#546169" stroke-width="1.5" stroke-miterlimit="10" stroke-linecap="round" stroke-linejoin="round"/>
<path d="M128.004 76.3763C127.057 80.0471 117.347 83.0074 115.453 76.0211L128.004 76.3763Z" fill="white"/>
<path d="M128.004 76.3763C127.057 80.0471 117.347 83.0074 115.453 76.0211" stroke="#546169" stroke-width="1.5" stroke-miterlimit="10" stroke-linecap="round" stroke-linejoin="round"/>
<path d="M57.5487 68.8571V67.0809C57.5487 65.0087 56.6606 63.0549 55.062 61.6931C52.6937 59.6209 51.1544 56.5422 51.1544 53.1674C51.1544 46.9507 56.1277 41.9182 62.3444 41.859C68.5611 41.7998 73.7712 46.9507 73.7712 53.1674C73.7712 56.6014 72.2319 59.6209 69.8636 61.6931C68.3242 63.0549 67.4361 65.0087 67.4361 67.0809V68.8571" fill="white"/>
<path d="M57.5487 68.8571V67.0809C57.5487 65.0087 56.6606 63.0549 55.062 61.6931C52.6937 59.6209 51.1544 56.5422 51.1544 53.1674C51.1544 46.9507 56.1277 41.9182 62.3444 41.859C68.5611 41.7998 73.7712 46.9507 73.7712 53.1674C73.7712 56.6014 72.2319 59.6209 69.8636 61.6931C68.3242 63.0549 67.4361 65.0087 67.4361 67.0809V68.8571" stroke="#546169" stroke-width="1.5" stroke-miterlimit="10" stroke-linecap="round" stroke-linejoin="round"/>
<path d="M67.2585 73.4752H57.6671" stroke="#546169" stroke-width="1.5" stroke-miterlimit="10" stroke-linecap="round" stroke-linejoin="round"/>
<path d="M65.6007 78.567H59.3248" stroke="#546169" stroke-width="1.5" stroke-miterlimit="10" stroke-linecap="round" stroke-linejoin="round"/>
<path d="M84.9613 53.345H79.0406" stroke="#546169" stroke-width="1.5" stroke-miterlimit="10" stroke-linecap="round" stroke-linejoin="round"/>
<path d="M46.0626 53.345H40.0828" stroke="#546169" stroke-width="1.5" stroke-miterlimit="10" stroke-linecap="round" stroke-linejoin="round"/>
<path d="M78.3893 37.5369L74.1857 41.6813" stroke="#546169" stroke-width="1.5" stroke-miterlimit="10" stroke-linecap="round" stroke-linejoin="round"/>
<path d="M50.8583 41.6813L46.6547 37.5369" stroke="#546169" stroke-width="1.5" stroke-miterlimit="10" stroke-linecap="round" stroke-linejoin="round"/>
<path d="M62.522 30.965V36.8856" stroke="#546169" stroke-width="1.5" stroke-miterlimit="10" stroke-linecap="round" stroke-linejoin="round"/>
</svg>
