<svg width="208" height="208" viewBox="0 0 208 208" fill="none" xmlns="http://www.w3.org/2000/svg">
<circle cx="104" cy="104" r="104" fill="#EEF1F3"/>
<path d="M25.7852 114.781L31.0293 127.33L36.293 114.781H37.8945V129H36.6934V122.809L36.791 116.461L31.498 129H30.5703L25.2969 116.51L25.3945 122.77V129H24.1934V114.781H25.7852ZM45.3164 129.195C44.418 129.195 43.6042 128.974 42.875 128.531C42.1523 128.089 41.5892 127.473 41.1855 126.686C40.7819 125.891 40.5801 125.003 40.5801 124.02V123.6C40.5801 122.584 40.7754 121.669 41.166 120.855C41.5632 120.042 42.1133 119.404 42.8164 118.941C43.5195 118.473 44.2812 118.238 45.1016 118.238C46.3841 118.238 47.3997 118.678 48.1484 119.557C48.9036 120.429 49.2812 121.624 49.2812 123.141V123.795H41.7422V124.02C41.7422 125.217 42.084 126.217 42.7676 127.018C43.4577 127.812 44.3236 128.209 45.3652 128.209C45.9902 128.209 46.5404 128.095 47.0156 127.867C47.4974 127.639 47.9336 127.275 48.3242 126.773L49.0566 127.33C48.1973 128.574 46.9505 129.195 45.3164 129.195ZM45.1016 119.234C44.2227 119.234 43.4805 119.557 42.875 120.201C42.276 120.846 41.9115 121.712 41.7812 122.799H48.1191V122.672C48.0866 121.656 47.7969 120.829 47.25 120.191C46.7031 119.553 45.987 119.234 45.1016 119.234ZM58.2266 129C58.1094 128.668 58.0345 128.176 58.002 127.525C57.5918 128.059 57.0677 128.473 56.4297 128.766C55.7982 129.052 55.1276 129.195 54.418 129.195C53.4023 129.195 52.5788 128.912 51.9473 128.346C51.3223 127.779 51.0098 127.063 51.0098 126.197C51.0098 125.169 51.4362 124.355 52.2891 123.756C53.1484 123.157 54.3431 122.857 55.873 122.857H57.9922V121.656C57.9922 120.901 57.7578 120.309 57.2891 119.879C56.8268 119.443 56.1497 119.225 55.2578 119.225C54.444 119.225 53.7702 119.433 53.2363 119.85C52.7025 120.266 52.4355 120.768 52.4355 121.354L51.2637 121.344C51.2637 120.504 51.6543 119.778 52.4355 119.166C53.2168 118.548 54.1771 118.238 55.3164 118.238C56.4948 118.238 57.4225 118.535 58.0996 119.127C58.7832 119.713 59.1348 120.533 59.1543 121.588V126.588C59.1543 127.61 59.2617 128.375 59.4766 128.883V129H58.2266ZM54.5547 128.16C55.3359 128.16 56.0326 127.971 56.6445 127.594C57.263 127.216 57.7122 126.712 57.9922 126.08V123.756H55.9023C54.737 123.769 53.8255 123.984 53.168 124.4C52.5104 124.811 52.1816 125.377 52.1816 126.1C52.1816 126.692 52.3997 127.184 52.8359 127.574C53.2786 127.965 53.8516 128.16 54.5547 128.16ZM68.6074 126.314C68.6074 125.735 68.373 125.27 67.9043 124.918C67.4421 124.566 66.7422 124.293 65.8047 124.098C64.8672 123.896 64.138 123.668 63.6172 123.414C63.1029 123.154 62.7188 122.838 62.4648 122.467C62.2174 122.096 62.0938 121.646 62.0938 121.119C62.0938 120.286 62.4421 119.599 63.1387 119.059C63.8353 118.512 64.7272 118.238 65.8145 118.238C66.9928 118.238 67.9368 118.531 68.6465 119.117C69.3626 119.697 69.7207 120.455 69.7207 121.393H68.5488C68.5488 120.774 68.2884 120.26 67.7676 119.85C67.2533 119.439 66.6022 119.234 65.8145 119.234C65.0462 119.234 64.4277 119.407 63.959 119.752C63.4967 120.09 63.2656 120.533 63.2656 121.08C63.2656 121.607 63.4577 122.018 63.8418 122.311C64.2324 122.597 64.9388 122.861 65.9609 123.102C66.9896 123.342 67.7578 123.6 68.2656 123.873C68.7799 124.146 69.1608 124.475 69.4082 124.859C69.6556 125.243 69.7793 125.709 69.7793 126.256C69.7793 127.148 69.418 127.861 68.6953 128.395C67.9792 128.928 67.0417 129.195 65.8828 129.195C64.6523 129.195 63.653 128.899 62.8848 128.307C62.123 127.708 61.7422 126.952 61.7422 126.041H62.9141C62.9596 126.725 63.2461 127.258 63.7734 127.643C64.3073 128.02 65.0104 128.209 65.8828 128.209C66.6966 128.209 67.3542 128.03 67.8555 127.672C68.3568 127.314 68.6074 126.861 68.6074 126.314ZM79.2129 127.662C78.5098 128.684 77.3867 129.195 75.8438 129.195C74.7174 129.195 73.8613 128.87 73.2754 128.219C72.6895 127.561 72.39 126.591 72.377 125.309V118.434H73.5391V125.162C73.5391 127.174 74.3529 128.18 75.9805 128.18C77.6732 128.18 78.7441 127.48 79.1934 126.08V118.434H80.3652V129H79.2324L79.2129 127.662ZM88.2949 119.43C88.0475 119.384 87.7839 119.361 87.5039 119.361C86.7747 119.361 86.1562 119.566 85.6484 119.977C85.1471 120.38 84.7891 120.969 84.5742 121.744V129H83.4121V118.434H84.5547L84.5742 120.113C85.1927 118.863 86.1855 118.238 87.5527 118.238C87.8783 118.238 88.1354 118.281 88.3242 118.365L88.2949 119.43ZM94.0469 129.195C93.1484 129.195 92.3346 128.974 91.6055 128.531C90.8828 128.089 90.3197 127.473 89.916 126.686C89.5124 125.891 89.3105 125.003 89.3105 124.02V123.6C89.3105 122.584 89.5059 121.669 89.8965 120.855C90.2936 120.042 90.8438 119.404 91.5469 118.941C92.25 118.473 93.0117 118.238 93.832 118.238C95.1146 118.238 96.1302 118.678 96.8789 119.557C97.6341 120.429 98.0117 121.624 98.0117 123.141V123.795H90.4727V124.02C90.4727 125.217 90.8145 126.217 91.498 127.018C92.1882 127.812 93.054 128.209 94.0957 128.209C94.7207 128.209 95.2708 128.095 95.7461 127.867C96.2279 127.639 96.6641 127.275 97.0547 126.773L97.7871 127.33C96.9277 128.574 95.681 129.195 94.0469 129.195ZM93.832 119.234C92.9531 119.234 92.2109 119.557 91.6055 120.201C91.0065 120.846 90.6419 121.712 90.5117 122.799H96.8496V122.672C96.8171 121.656 96.5273 120.829 95.9805 120.191C95.4336 119.553 94.7174 119.234 93.832 119.234ZM111.82 129C111.703 128.668 111.628 128.176 111.596 127.525C111.186 128.059 110.661 128.473 110.023 128.766C109.392 129.052 108.721 129.195 108.012 129.195C106.996 129.195 106.173 128.912 105.541 128.346C104.916 127.779 104.604 127.063 104.604 126.197C104.604 125.169 105.03 124.355 105.883 123.756C106.742 123.157 107.937 122.857 109.467 122.857H111.586V121.656C111.586 120.901 111.352 120.309 110.883 119.879C110.421 119.443 109.743 119.225 108.852 119.225C108.038 119.225 107.364 119.433 106.83 119.85C106.296 120.266 106.029 120.768 106.029 121.354L104.857 121.344C104.857 120.504 105.248 119.778 106.029 119.166C106.811 118.548 107.771 118.238 108.91 118.238C110.089 118.238 111.016 118.535 111.693 119.127C112.377 119.713 112.729 120.533 112.748 121.588V126.588C112.748 127.61 112.855 128.375 113.07 128.883V129H111.82ZM108.148 128.16C108.93 128.16 109.626 127.971 110.238 127.594C110.857 127.216 111.306 126.712 111.586 126.08V123.756H109.496C108.331 123.769 107.419 123.984 106.762 124.4C106.104 124.811 105.775 125.377 105.775 126.1C105.775 126.692 105.993 127.184 106.43 127.574C106.872 127.965 107.445 128.16 108.148 128.16ZM116.986 118.434L117.025 120.24C117.423 119.589 117.917 119.094 118.51 118.756C119.102 118.411 119.757 118.238 120.473 118.238C121.605 118.238 122.449 118.557 123.002 119.195C123.555 119.833 123.835 120.79 123.842 122.066V129H122.68V122.057C122.673 121.113 122.471 120.41 122.074 119.947C121.684 119.485 121.055 119.254 120.189 119.254C119.467 119.254 118.826 119.482 118.266 119.938C117.712 120.387 117.302 120.995 117.035 121.764V129H115.873V118.434H116.986ZM126.4 123.619C126.4 121.979 126.765 120.673 127.494 119.703C128.23 118.727 129.226 118.238 130.482 118.238C131.908 118.238 132.995 118.801 133.744 119.928V114H134.906V129H133.812L133.764 127.594C133.015 128.661 131.915 129.195 130.463 129.195C129.245 129.195 128.262 128.707 127.514 127.73C126.771 126.747 126.4 125.423 126.4 123.756V123.619ZM127.582 123.824C127.582 125.172 127.852 126.236 128.393 127.018C128.933 127.792 129.695 128.18 130.678 128.18C132.117 128.18 133.139 127.545 133.744 126.275V121.314C133.139 119.941 132.123 119.254 130.697 119.254C129.714 119.254 128.949 119.641 128.402 120.416C127.855 121.184 127.582 122.32 127.582 123.824ZM144.154 129H142.982V114H144.154V129ZM151.43 129.195C150.531 129.195 149.717 128.974 148.988 128.531C148.266 128.089 147.702 127.473 147.299 126.686C146.895 125.891 146.693 125.003 146.693 124.02V123.6C146.693 122.584 146.889 121.669 147.279 120.855C147.676 120.042 148.227 119.404 148.93 118.941C149.633 118.473 150.395 118.238 151.215 118.238C152.497 118.238 153.513 118.678 154.262 119.557C155.017 120.429 155.395 121.624 155.395 123.141V123.795H147.855V124.02C147.855 125.217 148.197 126.217 148.881 127.018C149.571 127.812 150.437 128.209 151.479 128.209C152.104 128.209 152.654 128.095 153.129 127.867C153.611 127.639 154.047 127.275 154.438 126.773L155.17 127.33C154.311 128.574 153.064 129.195 151.43 129.195ZM151.215 119.234C150.336 119.234 149.594 119.557 148.988 120.201C148.389 120.846 148.025 121.712 147.895 122.799H154.232V122.672C154.2 121.656 153.91 120.829 153.363 120.191C152.816 119.553 152.1 119.234 151.215 119.234ZM164.34 129C164.223 128.668 164.148 128.176 164.115 127.525C163.705 128.059 163.181 128.473 162.543 128.766C161.911 129.052 161.241 129.195 160.531 129.195C159.516 129.195 158.692 128.912 158.061 128.346C157.436 127.779 157.123 127.063 157.123 126.197C157.123 125.169 157.549 124.355 158.402 123.756C159.262 123.157 160.456 122.857 161.986 122.857H164.105V121.656C164.105 120.901 163.871 120.309 163.402 119.879C162.94 119.443 162.263 119.225 161.371 119.225C160.557 119.225 159.883 119.433 159.35 119.85C158.816 120.266 158.549 120.768 158.549 121.354L157.377 121.344C157.377 120.504 157.768 119.778 158.549 119.166C159.33 118.548 160.29 118.238 161.43 118.238C162.608 118.238 163.536 118.535 164.213 119.127C164.896 119.713 165.248 120.533 165.268 121.588V126.588C165.268 127.61 165.375 128.375 165.59 128.883V129H164.34ZM160.668 128.16C161.449 128.16 162.146 127.971 162.758 127.594C163.376 127.216 163.826 126.712 164.105 126.08V123.756H162.016C160.85 123.769 159.939 123.984 159.281 124.4C158.624 124.811 158.295 125.377 158.295 126.1C158.295 126.692 158.513 127.184 158.949 127.574C159.392 127.965 159.965 128.16 160.668 128.16ZM173.275 119.43C173.028 119.384 172.764 119.361 172.484 119.361C171.755 119.361 171.137 119.566 170.629 119.977C170.128 120.38 169.77 120.969 169.555 121.744V129H168.393V118.434H169.535L169.555 120.113C170.173 118.863 171.166 118.238 172.533 118.238C172.859 118.238 173.116 118.281 173.305 118.365L173.275 119.43ZM176.244 118.434L176.283 120.24C176.68 119.589 177.175 119.094 177.768 118.756C178.36 118.411 179.014 118.238 179.73 118.238C180.863 118.238 181.706 118.557 182.26 119.195C182.813 119.833 183.093 120.79 183.1 122.066V129H181.938V122.057C181.931 121.113 181.729 120.41 181.332 119.947C180.941 119.485 180.313 119.254 179.447 119.254C178.725 119.254 178.083 119.482 177.523 119.938C176.97 120.387 176.56 120.995 176.293 121.764V129H175.131V118.434H176.244Z" fill="#546169"/>
<path d="M62.6816 81.1045C62.8086 83.3408 63.3018 85.1572 64.1611 86.5537C65.0303 87.9404 66.3584 88.6338 68.1455 88.6338C68.8486 88.6338 69.4785 88.5117 70.0352 88.2676C70.6016 88.0137 71.0459 87.6328 71.3682 87.125C71.7002 86.6172 71.8662 86.002 71.8662 85.2793C71.8662 84.498 71.6807 83.7998 71.3096 83.1846C70.9482 82.5596 70.4551 81.9932 69.8301 81.4854C69.2148 80.9678 68.3896 80.3721 67.3545 79.6982C66.1436 78.917 65.1816 78.2383 64.4688 77.6621C63.7656 77.0859 63.1797 76.4023 62.7109 75.6113C62.252 74.8203 62.0225 73.9023 62.0225 72.8574C62.0225 71.6465 62.3301 70.6309 62.9453 69.8105C63.5605 68.9805 64.376 68.3652 65.3916 67.9648C66.4072 67.5645 67.5254 67.3643 68.7461 67.3643C69.4688 67.3643 70.0938 67.418 70.6211 67.5254C71.1582 67.6328 71.6025 67.7695 71.9541 67.9355C72.3154 68.0918 72.7061 68.292 73.126 68.5361C73.6045 68.8193 73.9414 68.9609 74.1367 68.9609C74.3223 68.9609 74.4639 68.8584 74.5615 68.6533C74.6592 68.4385 74.7373 68.1016 74.7959 67.6426H75.4844C75.3867 68.9805 75.3379 71.2607 75.3379 74.4834H74.6494C74.5811 73.3994 74.3369 72.3691 73.917 71.3926C73.5068 70.416 72.9258 69.625 72.1738 69.0195C71.4316 68.4043 70.5576 68.0967 69.5518 68.0967C68.917 68.0967 68.3457 68.2188 67.8379 68.4629C67.3398 68.707 66.9492 69.0635 66.666 69.5322C66.3926 69.9912 66.2559 70.5283 66.2559 71.1436C66.2559 72.1396 66.5537 72.9551 67.1494 73.5898C67.7451 74.2246 68.5215 74.8691 69.4785 75.5234C70.4355 76.168 71.0801 76.6025 71.4121 76.8271C72.584 77.6084 73.5117 78.2871 74.1953 78.8633C74.8789 79.4395 75.4355 80.1133 75.8652 80.8848C76.2949 81.6562 76.5098 82.5498 76.5098 83.5654C76.5098 84.8447 76.1777 85.9238 75.5137 86.8027C74.8496 87.6816 73.9561 88.3408 72.833 88.7803C71.71 89.21 70.4551 89.4248 69.0684 89.4248C67.9453 89.4248 67.0127 89.3223 66.2705 89.1172C65.5381 88.9219 64.8594 88.6533 64.2344 88.3115C63.8047 88.0283 63.4678 87.8867 63.2236 87.8867C63.0381 87.8867 62.8965 87.9941 62.7988 88.209C62.7012 88.4141 62.623 88.7461 62.5645 89.2051H61.876C61.9541 87.9551 61.9932 85.2549 61.9932 81.1045H62.6816ZM88.1113 73.5166V74.1172H84.5664V86.2168C84.5664 86.8125 84.6738 87.2373 84.8887 87.4912C85.1035 87.7354 85.4355 87.8574 85.8848 87.8574C86.7344 87.8574 87.4131 87.2568 87.9209 86.0557L88.4336 86.334C87.6816 88.3945 86.3145 89.4248 84.332 89.4248C83.0137 89.4248 82.0127 89.083 81.3291 88.3994C80.9092 87.9893 80.6211 87.4717 80.4648 86.8467C80.3184 86.2119 80.2451 85.3379 80.2451 84.2246V74.1172H77.7256V73.5166H80.2451V69.5322C81.8955 69.5322 83.3359 69.21 84.5664 68.5654V73.5166H88.1113ZM93.8828 79.7275C93.8535 80.0205 93.8389 80.4893 93.8389 81.1338C93.8389 82.4619 94.0244 83.5654 94.3955 84.4443C94.7666 85.3135 95.2451 85.9531 95.8311 86.3633C96.4268 86.7637 97.0615 86.9639 97.7354 86.9639C99.3857 86.9639 100.709 86.1631 101.705 84.5615L102.232 84.7373C101.979 85.5576 101.583 86.3242 101.046 87.0371C100.519 87.7402 99.8447 88.3164 99.0244 88.7656C98.2139 89.2051 97.2861 89.4248 96.2412 89.4248C94.8643 89.4248 93.6533 89.1318 92.6084 88.5459C91.5732 87.96 90.7627 87.0713 90.1768 85.8799C89.6006 84.6787 89.3125 83.1895 89.3125 81.4121C89.3125 79.5957 89.625 78.0674 90.25 76.8271C90.875 75.5771 91.7393 74.6396 92.8428 74.0146C93.9463 73.3896 95.2207 73.0771 96.666 73.0771C100.426 73.0771 102.306 75.2939 102.306 79.7275H93.8828ZM98.5264 79.1562C98.5557 77.5938 98.3945 76.2949 98.043 75.2598C97.7012 74.2246 97.1787 73.707 96.4756 73.707C95.7627 73.707 95.167 74.1514 94.6885 75.04C94.2197 75.9189 93.9316 77.291 93.8242 79.1562H98.5264ZM110.157 75.9482C110.577 75.0107 111.188 74.2979 111.988 73.8096C112.799 73.3213 113.736 73.0771 114.801 73.0771C115.836 73.0771 116.759 73.3604 117.569 73.9268C118.38 74.4834 119.015 75.3232 119.474 76.4463C119.942 77.5596 120.177 78.9219 120.177 80.5332C120.177 82.4473 119.889 84.0732 119.312 85.4111C118.746 86.7393 117.94 87.7402 116.896 88.4141C115.86 89.0879 114.635 89.4248 113.219 89.4248C111.93 89.4248 110.909 89.1074 110.157 88.4727V91.4609C110.157 92.3398 110.377 92.9502 110.816 93.292C111.266 93.6338 111.944 93.8047 112.853 93.8047V94.4346C112.56 94.4248 111.896 94.4004 110.86 94.3613C109.825 94.3223 108.81 94.3027 107.813 94.3027C107.052 94.3027 106.275 94.3223 105.484 94.3613C104.703 94.4004 104.22 94.4248 104.034 94.4346V93.8047C104.483 93.8047 104.835 93.7412 105.089 93.6143C105.343 93.4971 105.528 93.2871 105.646 92.9844C105.772 92.6914 105.836 92.2812 105.836 91.7539V76.7539C105.836 75.8359 105.689 75.167 105.396 74.7471C105.113 74.3271 104.62 74.1172 103.917 74.1172V73.4873C104.552 73.5459 105.172 73.5752 105.777 73.5752C107.525 73.5752 108.985 73.4385 110.157 73.165V75.9482ZM110.157 87.8135C110.606 88.3408 111.236 88.6045 112.047 88.6045C113.326 88.6045 114.244 87.9697 114.801 86.7002C115.367 85.4209 115.65 83.5654 115.65 81.1338C115.65 78.7021 115.426 76.9688 114.977 75.9336C114.527 74.8887 113.883 74.3662 113.043 74.3662C112.359 74.3662 111.749 74.5957 111.212 75.0547C110.675 75.5137 110.323 76.1484 110.157 76.959V87.8135ZM129.186 76.8271C129.801 75.6846 130.602 74.7764 131.588 74.1025C132.584 73.4189 133.883 73.0771 135.484 73.0771C136.471 73.0771 137.35 73.2188 138.121 73.502C138.902 73.7754 139.513 74.1709 139.952 74.6885C140.392 75.2061 140.611 75.8164 140.611 76.5195C140.611 77.2715 140.362 77.9795 139.864 78.6436C139.376 79.3076 138.668 79.8887 137.74 80.3867C136.822 80.875 135.748 81.2363 134.518 81.4707L135.03 81.4561C136.319 81.4561 137.467 81.6367 138.473 81.998C139.479 82.3496 140.265 82.8672 140.831 83.5508C141.407 84.2344 141.695 85.0596 141.695 86.0264C141.695 87.501 141.065 88.8047 139.806 89.9375C138.546 91.0801 136.93 91.9639 134.957 92.5889C132.994 93.2139 130.997 93.5264 128.966 93.5264V92.9258C130.284 92.8867 131.578 92.5938 132.848 92.0469C134.117 91.5 135.162 90.7139 135.982 89.6885C136.812 88.6631 137.228 87.4521 137.228 86.0557C137.228 85.2842 137.101 84.5908 136.847 83.9756C136.593 83.3604 136.227 82.8721 135.748 82.5107C135.279 82.1494 134.723 81.9443 134.078 81.8955C133.365 82.208 132.853 82.3643 132.54 82.3643C132.159 82.3643 131.969 82.2275 131.969 81.9541C131.969 81.7393 132.062 81.5781 132.247 81.4707C132.433 81.3535 132.662 81.2949 132.936 81.2949C133.053 81.2949 133.214 81.3145 133.419 81.3535C133.634 81.3828 133.819 81.4023 133.976 81.4121C135.519 80.3281 136.29 78.9854 136.29 77.3838C136.29 76.4951 136.056 75.8359 135.587 75.4062C135.128 74.9668 134.474 74.7471 133.624 74.7471C132.823 74.7471 132.086 74.9473 131.412 75.3477C130.738 75.7383 130.177 76.3193 129.728 77.0908L129.186 76.8271Z" fill="#FD583E"/>
</svg>
