<svg width="208" height="208" viewBox="0 0 208 208" fill="none" xmlns="http://www.w3.org/2000/svg">
<circle cx="104" cy="104" r="104" fill="#EEF1F3"/>
<path d="M48.0312 127.311C47.6146 127.903 46.9603 128.365 46.0684 128.697C45.1829 129.029 44.1901 129.195 43.0898 129.195C41.9766 129.195 40.987 128.928 40.1211 128.395C39.2552 127.861 38.5846 127.105 38.1094 126.129C37.6341 125.152 37.3932 124.033 37.3867 122.77V120.973C37.3867 119 37.8848 117.444 38.8809 116.305C39.877 115.159 41.2148 114.586 42.8945 114.586C44.3594 114.586 45.5378 114.96 46.4297 115.709C47.3216 116.451 47.8522 117.477 48.0215 118.785H46.8203C46.6445 117.743 46.2181 116.956 45.541 116.422C44.8704 115.882 43.9915 115.611 42.9043 115.611C41.5762 115.611 40.5247 116.083 39.75 117.027C38.9753 117.971 38.5879 119.303 38.5879 121.021V122.701C38.5879 123.782 38.7702 124.739 39.1348 125.572C39.5059 126.399 40.0332 127.04 40.7168 127.496C41.4069 127.952 42.1979 128.18 43.0898 128.18C44.125 128.18 45.0137 128.017 45.7559 127.691C46.2376 127.477 46.5957 127.226 46.8301 126.939V123.268H43.0117V122.252H48.0312V127.311ZM56.0488 119.43C55.8014 119.384 55.5378 119.361 55.2578 119.361C54.5286 119.361 53.9102 119.566 53.4023 119.977C52.901 120.38 52.543 120.969 52.3281 121.744V129H51.166V118.434H52.3086L52.3281 120.113C52.9466 118.863 53.9395 118.238 55.3066 118.238C55.6322 118.238 55.8893 118.281 56.0781 118.365L56.0488 119.43ZM57.0645 123.561C57.0645 122.545 57.2598 121.63 57.6504 120.816C58.0475 120.003 58.6042 119.371 59.3203 118.922C60.043 118.466 60.86 118.238 61.7715 118.238C63.1777 118.238 64.3171 118.733 65.1895 119.723C66.0618 120.706 66.498 122.011 66.498 123.639V123.883C66.498 124.905 66.2995 125.826 65.9023 126.646C65.5117 127.46 64.9583 128.089 64.2422 128.531C63.526 128.974 62.709 129.195 61.791 129.195C60.3913 129.195 59.252 128.704 58.373 127.721C57.5007 126.731 57.0645 125.423 57.0645 123.795V123.561ZM58.2363 123.883C58.2363 125.146 58.5618 126.184 59.2129 126.998C59.8704 127.805 60.7298 128.209 61.791 128.209C62.8457 128.209 63.6986 127.805 64.3496 126.998C65.0072 126.184 65.3359 125.113 65.3359 123.785V123.561C65.3359 122.753 65.1862 122.014 64.8867 121.344C64.5872 120.673 64.1673 120.156 63.627 119.791C63.0866 119.42 62.4681 119.234 61.7715 119.234C60.7298 119.234 59.8802 119.645 59.2227 120.465C58.5651 121.279 58.2363 122.346 58.2363 123.668V123.883ZM71.4492 126.568L71.625 127.477L71.8594 126.52L74.3984 118.434H75.3945L77.9043 126.451L78.1777 127.564L78.4023 126.539L80.5703 118.434H81.7812L78.7051 129H77.709L74.9941 120.621L74.8672 120.045L74.7402 120.631L72.0742 129H71.0781L68.0117 118.434H69.2129L71.4492 126.568ZM95.5312 129C95.4141 128.668 95.3392 128.176 95.3066 127.525C94.8965 128.059 94.3724 128.473 93.7344 128.766C93.1029 129.052 92.4323 129.195 91.7227 129.195C90.707 129.195 89.8835 128.912 89.252 128.346C88.627 127.779 88.3145 127.063 88.3145 126.197C88.3145 125.169 88.7409 124.355 89.5938 123.756C90.4531 123.157 91.6478 122.857 93.1777 122.857H95.2969V121.656C95.2969 120.901 95.0625 120.309 94.5938 119.879C94.1315 119.443 93.4544 119.225 92.5625 119.225C91.7487 119.225 91.0749 119.433 90.541 119.85C90.0072 120.266 89.7402 120.768 89.7402 121.354L88.5684 121.344C88.5684 120.504 88.959 119.778 89.7402 119.166C90.5215 118.548 91.4818 118.238 92.6211 118.238C93.7995 118.238 94.7272 118.535 95.4043 119.127C96.0879 119.713 96.4395 120.533 96.459 121.588V126.588C96.459 127.61 96.5664 128.375 96.7812 128.883V129H95.5312ZM91.8594 128.16C92.6406 128.16 93.3372 127.971 93.9492 127.594C94.5677 127.216 95.0169 126.712 95.2969 126.08V123.756H93.207C92.0417 123.769 91.1302 123.984 90.4727 124.4C89.8151 124.811 89.4863 125.377 89.4863 126.1C89.4863 126.692 89.7044 127.184 90.1406 127.574C90.5833 127.965 91.1562 128.16 91.8594 128.16ZM100.697 118.434L100.736 120.24C101.133 119.589 101.628 119.094 102.221 118.756C102.813 118.411 103.467 118.238 104.184 118.238C105.316 118.238 106.16 118.557 106.713 119.195C107.266 119.833 107.546 120.79 107.553 122.066V129H106.391V122.057C106.384 121.113 106.182 120.41 105.785 119.947C105.395 119.485 104.766 119.254 103.9 119.254C103.178 119.254 102.536 119.482 101.977 119.938C101.423 120.387 101.013 120.995 100.746 121.764V129H99.584V118.434H100.697ZM110.111 123.619C110.111 121.979 110.476 120.673 111.205 119.703C111.941 118.727 112.937 118.238 114.193 118.238C115.619 118.238 116.706 118.801 117.455 119.928V114H118.617V129H117.523L117.475 127.594C116.726 128.661 115.626 129.195 114.174 129.195C112.956 129.195 111.973 128.707 111.225 127.73C110.482 126.747 110.111 125.423 110.111 123.756V123.619ZM111.293 123.824C111.293 125.172 111.563 126.236 112.104 127.018C112.644 127.792 113.406 128.18 114.389 128.18C115.827 128.18 116.85 127.545 117.455 126.275V121.314C116.85 119.941 115.834 119.254 114.408 119.254C113.425 119.254 112.66 119.641 112.113 120.416C111.566 121.184 111.293 122.32 111.293 123.824ZM132.885 126.314C132.885 125.735 132.65 125.27 132.182 124.918C131.719 124.566 131.02 124.293 130.082 124.098C129.145 123.896 128.415 123.668 127.895 123.414C127.38 123.154 126.996 122.838 126.742 122.467C126.495 122.096 126.371 121.646 126.371 121.119C126.371 120.286 126.719 119.599 127.416 119.059C128.113 118.512 129.005 118.238 130.092 118.238C131.27 118.238 132.214 118.531 132.924 119.117C133.64 119.697 133.998 120.455 133.998 121.393H132.826C132.826 120.774 132.566 120.26 132.045 119.85C131.531 119.439 130.88 119.234 130.092 119.234C129.324 119.234 128.705 119.407 128.236 119.752C127.774 120.09 127.543 120.533 127.543 121.08C127.543 121.607 127.735 122.018 128.119 122.311C128.51 122.597 129.216 122.861 130.238 123.102C131.267 123.342 132.035 123.6 132.543 123.873C133.057 124.146 133.438 124.475 133.686 124.859C133.933 125.243 134.057 125.709 134.057 126.256C134.057 127.148 133.695 127.861 132.973 128.395C132.257 128.928 131.319 129.195 130.16 129.195C128.93 129.195 127.93 128.899 127.162 128.307C126.4 127.708 126.02 126.952 126.02 126.041H127.191C127.237 126.725 127.523 127.258 128.051 127.643C128.585 128.02 129.288 128.209 130.16 128.209C130.974 128.209 131.632 128.03 132.133 127.672C132.634 127.314 132.885 126.861 132.885 126.314ZM140.6 128.209C141.413 128.209 142.094 127.981 142.641 127.525C143.194 127.063 143.493 126.467 143.539 125.738H144.662C144.63 126.383 144.428 126.972 144.057 127.506C143.686 128.033 143.191 128.447 142.572 128.746C141.96 129.046 141.303 129.195 140.6 129.195C139.213 129.195 138.113 128.714 137.299 127.75C136.492 126.786 136.088 125.491 136.088 123.863V123.512C136.088 122.47 136.27 121.549 136.635 120.748C136.999 119.947 137.52 119.329 138.197 118.893C138.881 118.456 139.678 118.238 140.59 118.238C141.749 118.238 142.702 118.583 143.451 119.273C144.206 119.964 144.61 120.872 144.662 121.998H143.539C143.487 121.171 143.188 120.504 142.641 119.996C142.1 119.488 141.417 119.234 140.59 119.234C139.535 119.234 138.715 119.615 138.129 120.377C137.549 121.139 137.26 122.206 137.26 123.58V123.922C137.26 125.27 137.549 126.321 138.129 127.076C138.715 127.831 139.538 128.209 140.6 128.209ZM153.676 129C153.559 128.668 153.484 128.176 153.451 127.525C153.041 128.059 152.517 128.473 151.879 128.766C151.247 129.052 150.577 129.195 149.867 129.195C148.852 129.195 148.028 128.912 147.396 128.346C146.771 127.779 146.459 127.063 146.459 126.197C146.459 125.169 146.885 124.355 147.738 123.756C148.598 123.157 149.792 122.857 151.322 122.857H153.441V121.656C153.441 120.901 153.207 120.309 152.738 119.879C152.276 119.443 151.599 119.225 150.707 119.225C149.893 119.225 149.219 119.433 148.686 119.85C148.152 120.266 147.885 120.768 147.885 121.354L146.713 121.344C146.713 120.504 147.104 119.778 147.885 119.166C148.666 118.548 149.626 118.238 150.766 118.238C151.944 118.238 152.872 118.535 153.549 119.127C154.232 119.713 154.584 120.533 154.604 121.588V126.588C154.604 127.61 154.711 128.375 154.926 128.883V129H153.676ZM150.004 128.16C150.785 128.16 151.482 127.971 152.094 127.594C152.712 127.216 153.161 126.712 153.441 126.08V123.756H151.352C150.186 123.769 149.275 123.984 148.617 124.4C147.96 124.811 147.631 125.377 147.631 126.1C147.631 126.692 147.849 127.184 148.285 127.574C148.728 127.965 149.301 128.16 150.004 128.16ZM159.037 129H157.865V114H159.037V129ZM166.312 129.195C165.414 129.195 164.6 128.974 163.871 128.531C163.148 128.089 162.585 127.473 162.182 126.686C161.778 125.891 161.576 125.003 161.576 124.02V123.6C161.576 122.584 161.771 121.669 162.162 120.855C162.559 120.042 163.109 119.404 163.812 118.941C164.516 118.473 165.277 118.238 166.098 118.238C167.38 118.238 168.396 118.678 169.145 119.557C169.9 120.429 170.277 121.624 170.277 123.141V123.795H162.738V124.02C162.738 125.217 163.08 126.217 163.764 127.018C164.454 127.812 165.32 128.209 166.361 128.209C166.986 128.209 167.536 128.095 168.012 127.867C168.493 127.639 168.93 127.275 169.32 126.773L170.053 127.33C169.193 128.574 167.947 129.195 166.312 129.195ZM166.098 119.234C165.219 119.234 164.477 119.557 163.871 120.201C163.272 120.846 162.908 121.712 162.777 122.799H169.115V122.672C169.083 121.656 168.793 120.829 168.246 120.191C167.699 119.553 166.983 119.234 166.098 119.234Z" fill="#546169"/>
<path d="M62.3154 81.1045C62.4424 83.3408 62.9355 85.1572 63.7949 86.5537C64.6641 87.9404 65.9922 88.6338 67.7793 88.6338C68.4824 88.6338 69.1123 88.5117 69.6689 88.2676C70.2354 88.0137 70.6797 87.6328 71.002 87.125C71.334 86.6172 71.5 86.002 71.5 85.2793C71.5 84.498 71.3145 83.7998 70.9434 83.1846C70.582 82.5596 70.0889 81.9932 69.4639 81.4854C68.8486 80.9678 68.0234 80.3721 66.9883 79.6982C65.7773 78.917 64.8154 78.2383 64.1025 77.6621C63.3994 77.0859 62.8135 76.4023 62.3447 75.6113C61.8857 74.8203 61.6562 73.9023 61.6562 72.8574C61.6562 71.6465 61.9639 70.6309 62.5791 69.8105C63.1943 68.9805 64.0098 68.3652 65.0254 67.9648C66.041 67.5645 67.1592 67.3643 68.3799 67.3643C69.1025 67.3643 69.7275 67.418 70.2549 67.5254C70.792 67.6328 71.2363 67.7695 71.5879 67.9355C71.9492 68.0918 72.3398 68.292 72.7598 68.5361C73.2383 68.8193 73.5752 68.9609 73.7705 68.9609C73.9561 68.9609 74.0977 68.8584 74.1953 68.6533C74.293 68.4385 74.3711 68.1016 74.4297 67.6426H75.1182C75.0205 68.9805 74.9717 71.2607 74.9717 74.4834H74.2832C74.2148 73.3994 73.9707 72.3691 73.5508 71.3926C73.1406 70.416 72.5596 69.625 71.8076 69.0195C71.0654 68.4043 70.1914 68.0967 69.1855 68.0967C68.5508 68.0967 67.9795 68.2188 67.4717 68.4629C66.9736 68.707 66.583 69.0635 66.2998 69.5322C66.0264 69.9912 65.8896 70.5283 65.8896 71.1436C65.8896 72.1396 66.1875 72.9551 66.7832 73.5898C67.3789 74.2246 68.1553 74.8691 69.1123 75.5234C70.0693 76.168 70.7139 76.6025 71.0459 76.8271C72.2178 77.6084 73.1455 78.2871 73.8291 78.8633C74.5127 79.4395 75.0693 80.1133 75.499 80.8848C75.9287 81.6562 76.1436 82.5498 76.1436 83.5654C76.1436 84.8447 75.8115 85.9238 75.1475 86.8027C74.4834 87.6816 73.5898 88.3408 72.4668 88.7803C71.3438 89.21 70.0889 89.4248 68.7021 89.4248C67.5791 89.4248 66.6465 89.3223 65.9043 89.1172C65.1719 88.9219 64.4932 88.6533 63.8682 88.3115C63.4385 88.0283 63.1016 87.8867 62.8574 87.8867C62.6719 87.8867 62.5303 87.9941 62.4326 88.209C62.335 88.4141 62.2568 88.7461 62.1982 89.2051H61.5098C61.5879 87.9551 61.627 85.2549 61.627 81.1045H62.3154ZM87.7451 73.5166V74.1172H84.2002V86.2168C84.2002 86.8125 84.3076 87.2373 84.5225 87.4912C84.7373 87.7354 85.0693 87.8574 85.5186 87.8574C86.3682 87.8574 87.0469 87.2568 87.5547 86.0557L88.0674 86.334C87.3154 88.3945 85.9482 89.4248 83.9658 89.4248C82.6475 89.4248 81.6465 89.083 80.9629 88.3994C80.543 87.9893 80.2549 87.4717 80.0986 86.8467C79.9521 86.2119 79.8789 85.3379 79.8789 84.2246V74.1172H77.3594V73.5166H79.8789V69.5322C81.5293 69.5322 82.9697 69.21 84.2002 68.5654V73.5166H87.7451ZM93.5166 79.7275C93.4873 80.0205 93.4727 80.4893 93.4727 81.1338C93.4727 82.4619 93.6582 83.5654 94.0293 84.4443C94.4004 85.3135 94.8789 85.9531 95.4648 86.3633C96.0605 86.7637 96.6953 86.9639 97.3691 86.9639C99.0195 86.9639 100.343 86.1631 101.339 84.5615L101.866 84.7373C101.612 85.5576 101.217 86.3242 100.68 87.0371C100.152 87.7402 99.4785 88.3164 98.6582 88.7656C97.8477 89.2051 96.9199 89.4248 95.875 89.4248C94.498 89.4248 93.2871 89.1318 92.2422 88.5459C91.207 87.96 90.3965 87.0713 89.8105 85.8799C89.2344 84.6787 88.9463 83.1895 88.9463 81.4121C88.9463 79.5957 89.2588 78.0674 89.8838 76.8271C90.5088 75.5771 91.373 74.6396 92.4766 74.0146C93.5801 73.3896 94.8545 73.0771 96.2998 73.0771C100.06 73.0771 101.939 75.2939 101.939 79.7275H93.5166ZM98.1602 79.1562C98.1895 77.5938 98.0283 76.2949 97.6768 75.2598C97.335 74.2246 96.8125 73.707 96.1094 73.707C95.3965 73.707 94.8008 74.1514 94.3223 75.04C93.8535 75.9189 93.5654 77.291 93.458 79.1562H98.1602ZM109.791 75.9482C110.211 75.0107 110.821 74.2979 111.622 73.8096C112.433 73.3213 113.37 73.0771 114.435 73.0771C115.47 73.0771 116.393 73.3604 117.203 73.9268C118.014 74.4834 118.648 75.3232 119.107 76.4463C119.576 77.5596 119.811 78.9219 119.811 80.5332C119.811 82.4473 119.522 84.0732 118.946 85.4111C118.38 86.7393 117.574 87.7402 116.529 88.4141C115.494 89.0879 114.269 89.4248 112.853 89.4248C111.563 89.4248 110.543 89.1074 109.791 88.4727V91.4609C109.791 92.3398 110.011 92.9502 110.45 93.292C110.899 93.6338 111.578 93.8047 112.486 93.8047V94.4346C112.193 94.4248 111.529 94.4004 110.494 94.3613C109.459 94.3223 108.443 94.3027 107.447 94.3027C106.686 94.3027 105.909 94.3223 105.118 94.3613C104.337 94.4004 103.854 94.4248 103.668 94.4346V93.8047C104.117 93.8047 104.469 93.7412 104.723 93.6143C104.977 93.4971 105.162 93.2871 105.279 92.9844C105.406 92.6914 105.47 92.2812 105.47 91.7539V76.7539C105.47 75.8359 105.323 75.167 105.03 74.7471C104.747 74.3271 104.254 74.1172 103.551 74.1172V73.4873C104.186 73.5459 104.806 73.5752 105.411 73.5752C107.159 73.5752 108.619 73.4385 109.791 73.165V75.9482ZM109.791 87.8135C110.24 88.3408 110.87 88.6045 111.681 88.6045C112.96 88.6045 113.878 87.9697 114.435 86.7002C115.001 85.4209 115.284 83.5654 115.284 81.1338C115.284 78.7021 115.06 76.9688 114.61 75.9336C114.161 74.8887 113.517 74.3662 112.677 74.3662C111.993 74.3662 111.383 74.5957 110.846 75.0547C110.309 75.5137 109.957 76.1484 109.791 76.959V87.8135ZM142.062 83.4775C142.062 85.6064 142.101 87.1396 142.179 88.0771C141.876 88.0088 140.875 87.96 139.176 87.9307V93.2334H135.689V87.916H127.501V87.2861L138.692 73.0771H139.176V84.8252H139.41C139.957 84.8252 140.362 84.7861 140.626 84.708C140.899 84.6201 141.085 84.4883 141.183 84.3125C141.29 84.1367 141.373 83.8584 141.432 83.4775H142.062ZM135.689 77.8525L130.27 84.8252H135.689V77.8525Z" fill="#FD583E"/>
</svg>
