<svg height='100px' width='100px'  fill="#ffffff" xmlns="http://www.w3.org/2000/svg" xmlns:cc="http://creativecommons.org/ns#" xmlns:dc="http://purl.org/dc/elements/1.1/" xmlns:rdf="http://www.w3.org/1999/02/22-rdf-syntax-ns#" clip-rule="evenodd" fill-rule="evenodd" stroke-linecap="round" stroke-linejoin="round" stroke-miterlimit="5" version="1.1" viewBox="0 0 32 32" xml:space="preserve" x="0px" y="0px"><rect width="32" height="32" fill="none"></rect><path d="m5.4902 4.4902a1.0001 1.0001 0 0 0 -0.69727 1.7168l9.793 9.793-9.793 9.793a1.0001 1.0001 0 1 0 1.4141 1.4141l9.793-9.793 9.793 9.793a1.0001 1.0001 0 1 0 1.4141 -1.4141l-9.793-9.793 9.793-9.793a1.0001 1.0001 0 0 0 -0.72656 -1.7168 1.0001 1.0001 0 0 0 -0.6875 0.30273l-9.793 9.793-9.793-9.793a1.0001 1.0001 0 0 0 -0.7168 -0.30273z" clip-rule="nonzero" color="#000000" color-rendering="auto" dominant-baseline="auto" fill-rule="nonzero" image-rendering="auto" shape-rendering="auto" solid-color="#000000" style="font-feature-settings:normal;font-variant-alternates:normal;font-variant-caps:normal;font-variant-ligatures:normal;font-variant-numeric:normal;font-variant-position:normal;isolation:auto;mix-blend-mode:normal;shape-padding:0;text-decoration-color:#000000;text-decoration-line:none;text-decoration-style:solid;text-indent:0;text-orientation:mixed;text-transform:none;white-space:normal;"></path></svg>