<svg width="198" height="85" viewBox="0 0 198 85" fill="none" xmlns="http://www.w3.org/2000/svg">
<path d="M54.1092 12.9039C54.1092 12.9039 51.6501 9.42708 51.0793 7.07058C50.5084 4.59819 53.0992 1.31454 56.3048 2.12579C59.4664 2.97568 59.4664 5.33218 58.2369 6.52974C57.0074 7.68868 56.3926 10.8564 57.183 11.6291C57.9734 12.4403 54.724 13.2902 54.1092 12.9039Z" fill="white" stroke="#546169" stroke-miterlimit="10" stroke-linecap="round" stroke-linejoin="round"/>
<path d="M57 51.4532C57 51.8158 59.0465 81.9547 59.0465 81.9547L62.5814 82L65 51" stroke="#546169" stroke-miterlimit="10" stroke-linecap="round" stroke-linejoin="round"/>
<path d="M59.4608 82C59.0974 82 59.2791 83.8491 59.0066 83.8491C58.7341 83.8491 67 84 67 84L66.7275 83.0189C66.5458 82.7547 66.2279 82.566 65.8646 82.5283L62.9125 82.0377L59.4608 82Z" stroke="#546169" stroke-miterlimit="10" stroke-linecap="round" stroke-linejoin="round"/>
<path d="M48 51C48 51.361 50.0465 81.9549 50.0465 81.9549L53.5814 82L56 51.1354" stroke="#546169" stroke-miterlimit="10" stroke-linecap="round" stroke-linejoin="round"/>
<path d="M50.4032 82C50.0852 82 50.2442 83.8491 50.0058 83.8491C49.7673 83.8491 57 84 57 84L56.7616 83.0189C56.6026 82.7547 56.3244 82.566 56.0065 82.5283L53.4234 82.0377L50.4032 82Z" stroke="#546169" stroke-miterlimit="10" stroke-linecap="round" stroke-linejoin="round"/>
<path fill-rule="evenodd" clip-rule="evenodd" d="M66.8294 38.5085C67.1672 42.7999 67.5045 47.0834 68 52L47.1346 51.5315C45.2499 42.2477 46.282 31.09 46.282 31.09C46.282 31.09 46.282 12.8204 57.141 12.0112C59.8972 11.8189 62.1042 14.1284 63.4313 16.3974L78.8462 29.9995L77.3664 32.9372L65.8472 26.9273C66.2438 31.071 66.5368 34.7927 66.8294 38.5085Z" fill="#EEF1F3"/>
<path d="M68 52L67.9888 52.4999C68.132 52.5031 68.2698 52.4447 68.3671 52.3395C68.4644 52.2343 68.5118 52.0924 68.4975 51.9499L68 52ZM66.8294 38.5085L66.3309 38.5477L66.8294 38.5085ZM47.1346 51.5315L46.6446 51.631C46.691 51.8599 46.8898 52.0262 47.1233 52.0314L47.1346 51.5315ZM46.282 31.09L46.7799 31.1361C46.7813 31.1207 46.782 31.1054 46.782 31.09L46.282 31.09ZM57.141 12.0112L57.1062 11.5124L57.1038 11.5126L57.141 12.0112ZM63.4313 16.3974L62.9997 16.6498C63.0266 16.6957 63.0606 16.7371 63.1005 16.7723L63.4313 16.3974ZM78.8462 29.9995L79.2927 30.2245C79.395 30.0215 79.3474 29.775 79.177 29.6246L78.8462 29.9995ZM77.3664 32.9372L77.1351 33.3804C77.2538 33.4424 77.3923 33.4541 77.5197 33.4131C77.6471 33.372 77.7527 33.2816 77.8129 33.1621L77.3664 32.9372ZM65.8472 26.9273L66.0785 26.484C65.9159 26.3992 65.72 26.4101 65.5679 26.5126C65.4158 26.615 65.332 26.7924 65.3495 26.9749L65.8472 26.9273ZM68.4975 51.9499C68.0026 47.0394 67.6657 42.7609 67.3278 38.4692L66.3309 38.5477C66.6688 42.8388 67.0064 47.1274 67.5025 52.0501L68.4975 51.9499ZM47.1233 52.0314L67.9888 52.4999L68.0112 51.5001L47.1458 51.0317L47.1233 52.0314ZM46.282 31.09C45.7841 31.044 45.7841 31.0441 45.7841 31.0442C45.7841 31.0443 45.7841 31.0445 45.7841 31.0447C45.784 31.0451 45.784 31.0457 45.7839 31.0465C45.7838 31.048 45.7836 31.0502 45.7833 31.053C45.7828 31.0588 45.782 31.0672 45.7811 31.0782C45.7791 31.1002 45.7763 31.1328 45.7726 31.1755C45.7654 31.2608 45.7552 31.3866 45.7428 31.5497C45.718 31.8759 45.6848 32.3512 45.651 32.9502C45.5833 34.1481 45.5128 35.8416 45.5016 37.8265C45.479 41.7912 45.6924 46.9406 46.6446 51.631L47.6246 51.4321C46.6921 46.8387 46.4792 41.7672 46.5015 37.8322C46.5127 35.8672 46.5825 34.191 46.6494 33.0067C46.6829 32.4146 46.7156 31.9457 46.7399 31.6254C46.7521 31.4653 46.7621 31.3423 46.7691 31.2597C46.7726 31.2184 46.7753 31.1872 46.7772 31.1664C46.7781 31.156 46.7788 31.1483 46.7792 31.1432C46.7795 31.1407 46.7796 31.1388 46.7797 31.1376C46.7798 31.137 46.7798 31.1366 46.7799 31.1363C46.7799 31.1362 46.7799 31.1361 46.7799 31.1361C46.7799 31.136 46.7799 31.1361 46.282 31.09ZM57.1038 11.5126C51.3325 11.9427 48.5253 17.0162 47.1593 21.7145C46.4692 24.0879 46.1256 26.4295 45.9541 28.1738C45.8682 29.0471 45.8252 29.7732 45.8037 30.2823C45.7929 30.5368 45.7875 30.7372 45.7848 30.8747C45.7834 30.9435 45.7827 30.9965 45.7824 31.0328C45.7822 31.0509 45.7821 31.0648 45.7821 31.0744C45.782 31.0792 45.782 31.0829 45.782 31.0855C45.782 31.0868 45.782 31.0878 45.782 31.0886C45.782 31.089 45.782 31.0893 45.782 31.0895C45.782 31.0898 45.782 31.09 46.282 31.09C46.782 31.09 46.782 31.0901 46.782 31.0901C46.782 31.09 46.782 31.0899 46.782 31.0898C46.782 31.0894 46.782 31.0888 46.782 31.0878C46.782 31.086 46.782 31.0831 46.782 31.0791C46.7821 31.0711 46.7822 31.0588 46.7823 31.0424C46.7826 31.0094 46.7833 30.9598 46.7846 30.8945C46.7871 30.764 46.7923 30.5711 46.8028 30.3245C46.8236 29.8313 46.8655 29.1238 46.9493 28.2717C47.1171 26.5651 47.4522 24.2887 48.1195 21.9936C49.4682 17.3548 52.0905 12.889 57.1781 12.5099L57.1038 11.5126ZM63.8629 16.1449C63.1787 14.9752 62.2574 13.7757 61.1315 12.8886C60.0027 11.9991 58.6426 11.4052 57.1062 11.5125L57.1758 12.51C58.3956 12.4249 59.5171 12.8896 60.5126 13.674C61.5111 14.4608 62.3568 15.5506 62.9997 16.6498L63.8629 16.1449ZM79.177 29.6246L63.7621 16.0225L63.1005 16.7723L78.5154 30.3744L79.177 29.6246ZM77.8129 33.1621L79.2927 30.2245L78.3996 29.7746L76.9198 32.7122L77.8129 33.1621ZM65.6159 27.3706L77.1351 33.3804L77.5977 32.4939L66.0785 26.484L65.6159 27.3706ZM67.3278 38.4692C67.0353 34.7538 66.742 31.0281 66.3449 26.8796L65.3495 26.9749C65.7456 31.1138 66.0383 34.8315 66.3309 38.5477L67.3278 38.4692Z" fill="#546169"/>
<path d="M76.2663 35.82L56.5 20L60.2773 33.6174L75.2071 38.9341L76.2663 35.82Z" fill="#EEF1F3"/>
<path d="M56 19.4991L76.2661 35.8198L75.2069 38.9338L53.4999 30.4991" stroke="#546169" stroke-miterlimit="10" stroke-linecap="round" stroke-linejoin="round"/>
<path d="M40.7 9.1C40.7 10.5359 39.5359 11.7 38.1 11.7C36.6641 11.7 35.5 10.5359 35.5 9.1C35.5 7.66406 36.6641 6.5 38.1 6.5C39.5359 6.5 40.7 7.66406 40.7 9.1Z" stroke="#546169"/>
<path d="M196.7 66.1C196.7 67.5359 195.536 68.7 194.1 68.7C192.664 68.7 191.5 67.5359 191.5 66.1C191.5 64.6641 192.664 63.5 194.1 63.5C195.536 63.5 196.7 64.6641 196.7 66.1Z" stroke="#546169"/>
<path d="M177.1 18.2C178.812 18.2 180.2 16.8121 180.2 15.1C180.2 13.3879 178.812 12 177.1 12C175.388 12 174 13.3879 174 15.1C174 16.8121 175.388 18.2 177.1 18.2Z" fill="#FD583E"/>
<path d="M3.1 66.2C4.81209 66.2 6.2 64.8121 6.2 63.1C6.2 61.3879 4.81209 60 3.1 60C1.38792 60 0 61.3879 0 63.1C0 64.8121 1.38792 66.2 3.1 66.2Z" fill="#FF5533"/>
<g clip-path="url(#clip0)">
<path d="M144.857 15.377C144.857 15.377 147.012 11.5972 147.42 9.13445C147.844 6.51966 145.32 3.10649 142.371 4.1386C139.46 5.11322 139.566 7.66287 140.763 8.83934C141.913 10.026 142.677 13.3242 141.969 14.1698C141.26 15.0155 144.303 15.7934 144.857 15.377Z" fill="#EEF1F3" stroke="#546169" stroke-miterlimit="10" stroke-linecap="round" stroke-linejoin="round"/>
<path d="M151.989 60.8677C152.013 61.2054 151.105 80.6614 151.105 80.6614L148.013 80.8799L146.561 60.3301" stroke="#546169" stroke-miterlimit="10" stroke-linecap="round" stroke-linejoin="round"/>
<path d="M142.306 58.9025C142.336 59.3366 140.492 80.6526 140.492 80.6526L137.095 80.6987L136.139 58.2232" stroke="#546169" stroke-miterlimit="10" stroke-linecap="round" stroke-linejoin="round"/>
<path d="M151.223 80.8725C151.562 80.8713 151.38 84.0637 151.622 84.0628C151.865 84.0619 144.453 84.1857 144.453 84.1857L144.74 83.1207C144.933 82.8299 145.174 82.6355 145.513 82.5859L148.171 80.8837L151.223 80.8725Z" stroke="#546169" stroke-miterlimit="10" stroke-linecap="round" stroke-linejoin="round"/>
<path d="M140.339 80.6628C140.678 80.6588 140.521 83.8043 140.764 83.8014C141.006 83.7986 133.596 83.9821 133.596 83.9821L133.874 82.9149C134.064 82.6225 134.304 82.4262 134.643 82.3739L137.288 80.6986L140.339 80.6628Z" stroke="#546169" stroke-miterlimit="10" stroke-linecap="round" stroke-linejoin="round"/>
<path d="M140.326 8.19084L139.845 11.4609L141.831 11.4775" fill="#EEF1F3"/>
<path d="M140.326 8.19084L139.845 11.4609L141.831 11.4775" stroke="#546169" stroke-miterlimit="10" stroke-linecap="round" stroke-linejoin="round"/>
<path d="M141.492 4.427C141.492 4.427 145.343 1.61679 149.318 6.00332C153.12 10.2787 150.675 12.4886 150.675 12.4886L146.404 12.2229C146.404 12.2229 147.154 6.76718 141.492 4.427Z" fill="#EEF1F3" stroke="#546169" stroke-miterlimit="10" stroke-linecap="round" stroke-linejoin="round"/>
<path d="M131 62C132.122 50.2461 132.53 41.5074 133.652 29.7024C133.957 26.4317 134.314 23.11 135.742 20.1459C137.17 17.1819 139.872 13.758 143.34 14.0135C155.68 14.9845 155.68 36.908 155.68 36.908C155.68 36.908 156.852 50.2972 154.711 61.4379L131 62Z" fill="#1ADCD0"/>
<path d="M122.02 30.9995L141.137 14.1309L137.551 26.6064L123.5 33.9372L122.02 30.9995Z" fill="#27DAD0"/>
<path d="M124.634 37.5967L146.866 25.1172L140.741 36.5619L125.464 40.7795L124.634 37.5967Z" fill="#27DAD0"/>
</g>
<path d="M41 84H168" stroke="#546169" stroke-miterlimit="10" stroke-linecap="round" stroke-linejoin="round"/>
<path d="M77.608 31.94L77.6372 31.88C77.7542 31.67 77.8711 31.49 77.9588 31.34L77.9881 31.31C78.105 31.13 78.222 30.95 78.3389 30.8C78.3974 30.74 78.4266 30.68 78.4851 30.62L78.5728 30.5C78.602 30.44 78.6605 30.38 78.6897 30.35C78.7775 30.23 78.8652 30.14 78.9529 30.02L79.0698 29.9C79.1868 29.78 79.2745 29.66 79.3914 29.54L79.4207 29.51C79.8592 29.06 80.327 28.64 80.7948 28.31C80.8532 28.28 80.8825 28.25 80.9409 28.22L80.9702 28.22C82.929 26.81 85.2387 26.06 87.6653 26.06C89.3902 26.06 91.3198 26.69 93.6002 28.04L93.6295 28.04C93.8049 28.13 93.9803 28.25 94.2142 28.4L94.3896 28.52C94.565 28.64 94.7405 28.76 94.9159 28.85L95.1498 29C95.2667 29.09 95.3837 29.18 95.5298 29.24C95.6468 29.33 95.7637 29.39 95.8807 29.48C96.0269 29.57 96.1438 29.69 96.29 29.78L96.4946 29.9C96.67 30.05 96.8747 30.17 97.0501 30.32L97.2255 30.47C97.4302 30.65 97.6348 30.8 97.8687 30.98L97.9857 31.07C98.1319 31.19 98.2488 31.28 98.395 31.4C98.5412 31.52 98.7166 31.67 98.8628 31.79L98.892 31.79C99.4183 32.24 99.9737 32.72 100.558 33.26L100.588 33.29L100.617 33.26C101.933 32 104.535 30.08 106.464 28.67C106.64 28.55 106.874 28.52 107.078 28.58L110.674 29.78C110.85 29.84 110.996 29.96 111.084 30.14C111.171 30.32 111.171 30.5 111.142 30.68L110.06 34.13C110.002 34.28 109.914 34.43 109.768 34.52C109.095 34.97 107.371 36.35 105.529 38.15L105.499 38.18L105.529 38.21C107.049 39.62 108.335 40.7 109.505 41.48C109.622 41.54 109.709 41.63 109.826 41.69L109.885 41.75C110.236 41.96 110.557 42.17 110.85 42.32C110.879 42.32 110.908 42.35 110.908 42.35C111.814 42.83 112.633 43.04 113.276 43.04C114.036 43.04 114.738 42.86 115.44 42.53C115.498 42.5 115.557 42.44 115.586 42.41C116.989 41.63 117.925 40.28 118.129 38.69L118.129 38.66L118.129 38.63C118.129 38.54 118.159 38.48 118.159 38.39C118.159 38.3 118.188 38.18 118.188 38.06L118.188 38C118.188 36.47 117.516 35.03 116.346 34.07C116.258 34.01 116.2 33.92 116.112 33.86C115.469 33.38 114.709 33.08 113.919 32.99C113.539 32.93 113.276 32.57 113.305 32.18C113.364 31.79 113.715 31.52 114.095 31.55C115.118 31.7 116.112 32.09 116.96 32.72C116.989 32.75 117.018 32.78 117.048 32.81C117.106 32.87 117.165 32.93 117.223 32.96C118.714 34.19 119.591 36.02 119.591 38L119.591 38.09C119.591 38.21 119.591 38.33 119.562 38.51C119.562 38.63 119.533 38.72 119.533 38.81C119.533 38.84 119.533 38.87 119.533 38.9C119.24 40.91 118.071 42.62 116.346 43.64C116.288 43.7 116.229 43.73 116.2 43.76C115.294 44.24 114.329 44.48 113.305 44.48C112.399 44.48 111.405 44.21 110.265 43.61C110.265 43.61 110.236 43.61 110.236 43.58C109.885 43.4 109.534 43.19 109.154 42.95L109.066 42.89C108.949 42.83 108.832 42.74 108.715 42.65C107.312 41.69 105.763 40.37 103.833 38.48C103.804 38.45 103.804 38.45 103.774 38.42L99.7106 34.46C99.6814 34.43 99.6521 34.4 99.6229 34.37C99.0382 33.83 98.4827 33.35 97.9272 32.87C97.781 32.75 97.6348 32.6 97.4594 32.48C97.3425 32.36 97.1963 32.27 97.0501 32.15L96.9332 32.06C96.7285 31.91 96.5239 31.73 96.3192 31.58L96.1438 31.46C95.9684 31.31 95.793 31.19 95.6175 31.04L95.3837 30.86C95.2667 30.77 95.1205 30.68 95.0036 30.59C94.8866 30.5 94.7989 30.44 94.682 30.35C94.565 30.26 94.4481 30.2 94.3311 30.11L94.0973 29.96C93.9218 29.84 93.7757 29.75 93.6002 29.63L93.4248 29.51C93.2202 29.39 93.0448 29.27 92.8986 29.18L92.8693 29.18C90.852 27.98 89.0979 27.38 87.6068 27.38C85.4726 27.38 83.4553 28.04 81.7011 29.3L81.6134 29.36C81.5841 29.36 81.5841 29.39 81.5549 29.39C81.1456 29.69 80.7363 30.05 80.327 30.47L80.2977 30.5C80.21 30.59 80.1223 30.71 80.0054 30.8L79.9177 30.89C79.83 30.98 79.7422 31.07 79.6838 31.19C79.6545 31.22 79.6253 31.28 79.5961 31.31L79.4791 31.46C79.4499 31.52 79.3914 31.55 79.3622 31.61C79.2452 31.76 79.1575 31.91 79.0406 32.06C79.0406 32.06 79.0406 32.09 79.0113 32.09C78.9236 32.24 78.8067 32.39 78.719 32.57L78.6897 32.6C78.602 32.78 78.5143 32.93 78.4266 33.11C77.9588 34.01 77.6372 35 77.4618 35.99L77.4618 36.05C77.4326 36.23 77.4033 36.41 77.3741 36.56L77.3741 36.68C77.3449 36.83 77.3449 36.98 77.3449 37.16L77.3449 37.28C77.3449 37.49 77.3156 37.7 77.3156 37.85L77.3156 37.88C77.3156 37.91 77.3156 37.91 77.3156 37.91C77.3156 38.09 77.3156 38.3 77.3449 38.51L77.3449 38.63C77.3449 38.78 77.3741 38.96 77.3741 39.11L77.4033 39.23C77.4326 39.38 77.4618 39.56 77.4911 39.74L77.4911 39.8C77.6665 40.82 77.9881 41.78 78.4559 42.68C78.5436 42.86 78.6313 43.04 78.719 43.19C78.719 43.19 78.719 43.19 78.719 43.22L78.719 43.25C78.8359 43.43 78.9236 43.58 79.0113 43.73L79.0406 43.76C79.1575 43.91 79.2452 44.09 79.3622 44.21C79.3914 44.27 79.4499 44.3 79.4791 44.36L79.5961 44.51C79.6253 44.54 79.6545 44.6 79.6838 44.63C79.7715 44.72 79.8592 44.84 79.9177 44.93L80.0054 45.05C80.0931 45.17 80.21 45.26 80.2977 45.38L80.327 45.41C80.707 45.8 81.1163 46.16 81.5549 46.49C81.5841 46.49 81.5841 46.52 81.6134 46.52L81.6718 46.55C81.6718 46.55 81.7011 46.55 81.7011 46.58C83.4553 47.84 85.5018 48.5 87.6068 48.5C92.957 48.47 97.3717 44.06 99.2428 42.2C99.3306 42.11 99.4183 42.02 99.506 41.96L99.5352 41.93L99.506 41.9L96.6408 39.08L96.6116 39.11C94.0388 41.57 90.4135 44.51 87.6945 44.51C86.3496 44.51 85.0925 44.09 83.9815 43.28C83.9523 43.25 83.923 43.25 83.8938 43.22C83.8353 43.16 83.7769 43.13 83.7476 43.07C82.8121 42.32 82.1104 41.3 81.7303 40.16C81.5841 39.71 81.4672 39.23 81.4087 38.75C81.4087 38.72 81.4087 38.69 81.4087 38.66C81.3795 38.42 81.3795 38.24 81.3795 38.06C81.3795 37.88 81.3795 37.7 81.4087 37.46C81.4087 37.43 81.4087 37.4 81.4087 37.34C81.4379 37.1 81.4672 36.86 81.5257 36.62C81.5841 36.38 81.6426 36.14 81.7303 35.93C82.1104 34.79 82.8121 33.77 83.7476 33.02C83.8061 32.99 83.8646 32.93 83.8938 32.87C83.923 32.84 83.9523 32.81 83.9815 32.81C85.0632 32 86.3496 31.58 87.6945 31.58C90.1796 31.58 93.0155 34.04 94.5358 35.33C94.7405 35.51 94.9159 35.66 95.0913 35.81C95.7345 36.35 96.4069 36.92 97.0501 37.52C97.1086 37.55 97.1378 37.61 97.1671 37.67L100.88 41.27C100.909 41.3 100.909 41.3 100.939 41.33C101.055 41.39 101.172 41.48 101.231 41.6L101.231 41.63L101.231 41.66L102.196 42.5C102.371 42.68 102.547 42.83 102.722 42.98L102.81 43.1C104.885 44.99 106.727 46.37 108.452 47.24C108.511 47.27 108.569 47.3 108.628 47.33C108.657 47.33 108.657 47.36 108.686 47.36C110.323 48.17 111.873 48.59 113.305 48.59C118.977 48.59 123.597 43.85 123.597 38.06L123.597 38C123.597 32.18 118.977 27.44 113.305 27.44C113.072 27.44 112.838 27.44 112.604 27.47C112.224 27.5 111.873 27.2 111.844 26.81C111.814 26.63 111.873 26.45 111.99 26.3C112.107 26.15 112.282 26.06 112.458 26.03C112.721 26 113.013 26 113.276 26C119.767 26 125 31.37 125 37.97L125 38C125 44.63 119.767 50 113.335 50C111.697 50 109.943 49.55 108.131 48.65C108.043 48.62 107.926 48.56 107.838 48.53C105.996 47.57 104.067 46.13 101.903 44.15L101.786 44.06C101.611 43.88 101.406 43.73 101.231 43.55L100.617 42.95L100.588 42.98C100.5 43.07 100.412 43.16 100.325 43.25L100.295 43.28C98.278 45.29 93.571 49.97 87.6945 50C85.2971 50 82.9875 49.25 80.9994 47.84L80.9702 47.84C80.9117 47.81 80.8825 47.78 80.824 47.75C80.3562 47.39 79.8884 47 79.4499 46.52L79.4207 46.49C79.3037 46.37 79.216 46.28 79.099 46.13L78.9821 46.01C78.8652 45.89 78.7774 45.77 78.719 45.68C78.6897 45.62 78.6313 45.59 78.602 45.53L78.4851 45.41C78.4266 45.35 78.3974 45.29 78.3389 45.23C78.222 45.05 78.105 44.9 77.9881 44.72L77.9588 44.69C77.8419 44.51 77.7542 44.33 77.6372 44.15L77.608 44.09C77.4911 43.91 77.4033 43.73 77.2864 43.52C76.7601 42.5 76.4093 41.39 76.2047 40.22L76.2047 40.16C76.1754 39.95 76.1462 39.77 76.117 39.59L76.0877 39.47C76.0585 39.29 76.0585 39.11 76.0292 38.93L76.0292 38.78C76.0292 38.54 76 38.33 76 38.09L76 38.06C76 37.85 76 37.61 76.0292 37.37L76.0292 37.22C76.0292 37.01 76.0585 36.83 76.0877 36.68L76.117 36.56C76.1462 36.35 76.1754 36.17 76.2047 35.96L76.2047 35.9C76.4093 34.76 76.7601 33.65 77.2864 32.63C77.3741 32.33 77.4911 32.15 77.608 31.94ZM101.582 34.31L104.505 37.16L104.535 37.13C106.143 35.54 107.838 34.13 108.803 33.44L109.592 30.92L109.563 30.92L106.99 30.11L106.961 30.11C104.447 31.91 102.605 33.38 101.582 34.31ZM95.6175 38.09L95.5883 38.06C95.1205 37.64 94.6527 37.22 94.185 36.86C94.0388 36.74 93.8341 36.56 93.6295 36.38C92.2554 35.18 89.6533 32.96 87.6945 32.96C86.6712 32.96 85.7064 33.29 84.8586 33.89C84.7709 33.95 84.7124 34.04 84.6247 34.1C83.8938 34.7 83.3675 35.48 83.0459 36.38C82.9875 36.56 82.929 36.74 82.8998 36.92C82.8705 37.1 82.8413 37.28 82.8121 37.46C82.8121 37.49 82.8121 37.52 82.8121 37.55C82.7828 37.73 82.7828 37.88 82.7828 38.03C82.7828 38.18 82.7828 38.33 82.8121 38.51C82.8121 38.54 82.8121 38.57 82.8121 38.6C82.8413 38.99 82.929 39.35 83.0459 39.71C83.3383 40.61 83.8938 41.39 84.6247 41.99C84.7124 42.05 84.7709 42.11 84.8586 42.2C85.7064 42.83 86.6712 43.13 87.6945 43.13C89.4195 43.13 92.3138 41.33 95.6175 38.18L95.6175 38.09Z" fill="#FD583E"/>
<defs>
<clipPath id="clip0">
<rect width="56" height="84" fill="white" transform="matrix(-1 0 0 1 160 0)"/>
</clipPath>
</defs>
</svg>
