<svg width="199" height="183" viewBox="0 0 199 183" fill="none" xmlns="http://www.w3.org/2000/svg">
<g clip-path="url(#clip0)">
<path d="M113.851 169.04C160.877 169.04 199 131.199 199 84.5198C199 37.8408 160.877 0 113.851 0C66.824 0 28.7014 37.8408 28.7014 84.5198C28.7014 131.199 66.824 169.04 113.851 169.04Z" fill="white"/>
<path d="M163.935 79.7195L149.68 35.1855" stroke="#546169" stroke-width="1.5" stroke-miterlimit="10" stroke-linecap="round" stroke-linejoin="round"/>
<path d="M142.361 68.0961L186.718 54.1357" stroke="#546169" stroke-width="1.5" stroke-miterlimit="10" stroke-linecap="round" stroke-linejoin="round"/>
<path d="M184.745 76.4979L145.352 56.2207" stroke="#546169" stroke-width="1.5" stroke-miterlimit="10" stroke-linecap="round" stroke-linejoin="round"/>
<path d="M150.761 78.0773L172.208 37.0176" stroke="#546169" stroke-width="1.5" stroke-miterlimit="10" stroke-linecap="round" stroke-linejoin="round"/>
<path d="M158.335 83.573C169.722 83.573 178.954 74.4098 178.954 63.1063C178.954 51.8029 169.722 42.6396 158.335 42.6396C146.947 42.6396 137.715 51.8029 137.715 63.1063C137.715 74.4098 146.947 83.573 158.335 83.573Z" fill="white"/>
<path d="M28.765 79.4037L33.7289 77.8877" stroke="#546169" stroke-width="1.5" stroke-miterlimit="10" stroke-linecap="round" stroke-linejoin="round"/>
<path d="M32.2651 83.3195L28.8286 82.5615" stroke="#546169" stroke-width="1.5" stroke-miterlimit="10" stroke-linecap="round" stroke-linejoin="round"/>
<path d="M26.9194 76.3712L29.8468 73.7812" stroke="#546169" stroke-width="1.5" stroke-miterlimit="10" stroke-linecap="round" stroke-linejoin="round"/>
<path d="M20.3645 94.3106C20.3645 94.3106 16.5462 90.0783 15.337 87.0462C14.0643 83.8246 16.3553 78.771 20.4282 79.2764C24.5011 79.7817 25.0102 83.0034 23.8011 84.8353C22.6556 86.6671 22.5919 91.089 23.7374 91.9733C24.8829 92.9209 21.1919 94.7528 20.3645 94.3106Z" fill="white" stroke="#546169" stroke-width="1.5" stroke-miterlimit="10" stroke-linecap="round" stroke-linejoin="round"/>
<path d="M45.502 102.648C48.0476 100.122 68.9213 90.8359 68.9213 90.8359L66.6939 88.3091L66.1212 87.6143C66.1212 87.6143 50.8477 93.7416 44.5474 94.5628C40.9836 95.005 37.8653 93.6785 35.3834 92.3519C33.6015 91.4676 28.8285 91.1517 26.283 91.4044C19.219 92.0992 15.0825 93.3626 11.0732 97.3423C5.72749 102.459 2.16369 108.334 0.636348 115.851C-0.890994 123.368 11.6459 130.822 11.6459 130.822L10.8186 125.389C10.8186 125.389 5.47293 119.957 6.17296 116.546C6.873 113.261 10.5004 108.839 10.5004 108.839C10.5004 108.839 9.86404 122.168 10.8186 125.389C12.6642 131.517 15.8461 148.319 15.8461 148.319L38.9472 144.34C38.9472 144.34 42.511 127.032 41.1746 111.429V110.292C41.1746 110.418 42.9565 105.112 45.502 102.648Z" fill="white" stroke="#546169" stroke-width="1.5" stroke-miterlimit="10" stroke-linecap="round" stroke-linejoin="round"/>
<path d="M17.4371 148.13C17.4371 148.572 20.4282 179.714 20.4282 179.714H24.5011V146.93" stroke="#546169" stroke-width="1.5" stroke-miterlimit="10" stroke-linecap="round" stroke-linejoin="round"/>
<path d="M30.2922 146.046C30.2922 146.614 34.4288 179.967 34.4288 179.967L38.8835 179.715L38.3108 144.593" stroke="#546169" stroke-width="1.5" stroke-miterlimit="10" stroke-linecap="round" stroke-linejoin="round"/>
<path d="M20.4282 179.651C19.9827 179.651 20.2373 182.241 19.9191 182.241C19.6009 182.241 29.3377 182.368 29.3377 182.368L28.9558 180.978C28.7013 180.599 28.3831 180.346 27.9376 180.283L24.4375 179.651H20.4282Z" stroke="#546169" stroke-width="1.5" stroke-miterlimit="10" stroke-linecap="round" stroke-linejoin="round"/>
<path d="M34.747 179.651C34.3016 179.651 34.5561 182.241 34.2379 182.241C33.9197 182.241 43.6565 182.368 43.6565 182.368L43.2747 180.978C43.0201 180.599 42.7019 180.346 42.2565 180.283L38.7563 179.651H34.747Z" stroke="#546169" stroke-width="1.5" stroke-miterlimit="10" stroke-linecap="round" stroke-linejoin="round"/>
<path d="M11.9005 182.558H58.1663" stroke="#546169" stroke-width="1.5" stroke-miterlimit="10" stroke-linecap="round" stroke-linejoin="round"/>
<path d="M66.8848 87.5519C66.8848 87.5519 71.7214 82.7511 72.676 83.0038C73.6306 83.2565 71.5941 86.1622 71.5941 86.1622C71.5941 86.1622 73.3124 88.6258 73.0579 89.3207C72.8033 90.0155 67.4576 89.6997 67.4576 89.6997L66.8848 87.5519Z" stroke="#546169" stroke-width="1.5" stroke-miterlimit="10" stroke-linecap="round" stroke-linejoin="round"/>
<path d="M161.262 126.338H58.6754C56.7026 126.338 55.1116 124.759 55.1116 122.8V57.2943C55.1116 55.3361 56.7026 53.7568 58.6754 53.7568H161.262C163.235 53.7568 164.826 55.3361 164.826 57.2943V122.8C164.826 124.759 163.235 126.338 161.262 126.338Z" stroke="#546169" stroke-width="1.5" stroke-miterlimit="10" stroke-linecap="round" stroke-linejoin="round"/>
<path d="M104.496 126.906V176.62H83.4948V181.8H139.179V176.62H118.178V126.906" stroke="#546169" stroke-width="1.5" stroke-miterlimit="10" stroke-linecap="round" stroke-linejoin="round"/>
<path d="M97.6226 104.165C97.6226 108.65 93.9315 112.314 89.4131 112.314C84.8948 112.314 81.2037 108.65 81.2037 104.165C81.2037 99.68 89.4131 89.3203 89.4131 89.3203C89.4131 89.3203 97.6226 99.6168 97.6226 104.165Z" fill="#1ADCD0"/>
<path d="M128.806 87.9313C134.289 87.9313 138.734 83.5194 138.734 78.077C138.734 72.6346 134.289 68.2227 128.806 68.2227C123.323 68.2227 118.878 72.6346 118.878 78.077C118.878 83.5194 123.323 87.9313 128.806 87.9313Z" fill="#FF5533"/>
<path d="M88.3949 109.851C85.8493 109.851 83.8129 107.829 83.8129 105.303" stroke="white" stroke-miterlimit="10" stroke-linecap="round" stroke-linejoin="round"/>
<path d="M110.605 63.2949L113.214 66.8324C100.041 64.4951 87.4403 73.1493 85.022 86.2252" stroke="#546169" stroke-width="1.5" stroke-miterlimit="10" stroke-linecap="round" stroke-linejoin="round"/>
<path d="M110.096 69.6756L113.214 66.833" stroke="#546169" stroke-width="1.5" stroke-miterlimit="10" stroke-linecap="round" stroke-linejoin="round"/>
<path d="M107.805 110.671L104.623 114.146C117.796 116.483 130.397 107.829 132.815 94.7529" stroke="#546169" stroke-width="1.5" stroke-miterlimit="10" stroke-linecap="round" stroke-linejoin="round"/>
<path d="M107.678 117.558L104.559 114.146" stroke="#546169" stroke-width="1.5" stroke-miterlimit="10" stroke-linecap="round" stroke-linejoin="round"/>
<path d="M41.4928 129.307C34.6197 117.999 30.5468 104.86 29.6559 90.9631C32.0742 91.0263 34.8107 91.3422 36.0835 91.9738C38.5654 93.3004 41.1746 94.5006 44.7384 94.0584C51.0387 93.2372 67.0121 86.6045 67.0121 86.6045L69.8759 91.3422C69.8759 91.3422 48.684 100.375 46.1385 102.902C43.5929 105.366 41.9383 123.811 41.4928 129.307Z" fill="#FF5533"/>
<path d="M10.3096 112.694C11.2005 96.9646 16.0371 93.2376 16.8644 93.4903" stroke="#546169" stroke-width="1.5" stroke-miterlimit="10" stroke-linecap="round"/>
</g>
<defs>
<clipPath id="clip0">
<rect width="199" height="183" fill="white"/>
</clipPath>
</defs>
</svg>
