<svg width="352" height="234" viewBox="0 0 352 234" fill="none" xmlns="http://www.w3.org/2000/svg">
<g clip-path="url(#clip0)">
<path d="M208.318 18.0195L199.774 21.1234" stroke="#546169" stroke-width="1.5" stroke-miterlimit="10" stroke-linecap="round" stroke-linejoin="round"/>
<path d="M139.54 18.0195L147.997 21.1234" stroke="#546169" stroke-width="1.5" stroke-miterlimit="10" stroke-linecap="round" stroke-linejoin="round"/>
<path d="M191.749 3.18945L187.866 11.2941" stroke="#546169" stroke-width="1.5" stroke-miterlimit="10" stroke-linecap="round" stroke-linejoin="round"/>
<path d="M155.332 3.18945L159.215 11.2941" stroke="#546169" stroke-width="1.5" stroke-miterlimit="10" stroke-linecap="round" stroke-linejoin="round"/>
<path d="M173.713 10.6047L173.8 0.689453" stroke="#546169" stroke-width="1.5" stroke-miterlimit="10" stroke-linecap="round" stroke-linejoin="round"/>
<path d="M312.39 211.842C295.131 225.293 273.385 233.397 249.826 233.397C230.841 233.397 221.521 232.449 206.333 223.396L212.978 210.463C212.978 210.463 201.414 207.618 201.241 207.014C195.719 190.374 216.775 151.92 233.516 139.849C255.176 124.329 307.126 133.21 315.583 147.091C323.005 159.248 316.187 195.029 312.39 211.842Z" fill="#1ADCD0"/>
<path d="M203.14 131.83C203.14 173.302 178.287 208.91 142.647 224.689C130.048 230.293 116.24 233.311 101.57 233.311C76.1991 233.311 52.9855 223.999 35.2086 208.652C34.5183 208.048 33.8279 207.445 33.1375 206.841C27.0105 201.237 21.4876 194.857 16.9139 187.873C6.21329 171.836 0 152.609 0 131.83C0 75.7873 45.4778 30.3496 101.57 30.3496C157.662 30.3496 203.14 75.7873 203.14 131.83Z" fill="#EEF1F3"/>
<path d="M170.52 144.072C170.52 144.072 173.368 115.275 175.094 114.758C180.099 115.448 178.114 124.759 178.114 124.759C178.114 124.759 187.866 123.466 189.764 127.777C191.576 131.743 192.267 138.554 188.47 139.158C184.673 139.761 178.546 139.417 178.546 139.417L179.84 146.314L170.52 144.072Z" fill="white" stroke="#546169" stroke-width="1.5" stroke-miterlimit="10" stroke-linecap="round" stroke-linejoin="round"/>
<path d="M351.396 131.83C351.396 164.335 336.122 193.218 312.39 211.755C295.131 225.206 273.385 233.31 249.826 233.31C230.841 233.31 213.064 228.137 197.876 219.084C168.19 201.409 148.256 168.99 148.256 131.916C148.256 75.8733 193.734 30.4355 249.826 30.4355C305.918 30.4355 351.396 75.7871 351.396 131.83Z" stroke="#546169" stroke-width="1.5" stroke-miterlimit="10" stroke-linejoin="round"/>
<path d="M184.673 142.522C184.673 142.522 183.723 176.492 160.337 190.718C148.687 197.789 140.489 204.427 142.388 220.895C142.474 221.844 142.56 223.137 142.733 224.689C130.134 230.293 116.327 233.311 101.656 233.311C76.2854 233.311 53.0718 223.999 35.2949 208.652C34.6046 208.049 33.9142 207.618 33.2238 206.842C27.0968 201.237 21.5739 194.857 17.0002 187.873C22.0917 178.734 28.305 171.492 35.899 164.853C51.1733 149.592 68.3462 140.366 95.1841 137.607C104.936 136.573 114.255 139.332 121.073 142.694C132.982 148.902 137.124 168.474 145.149 168.646C162.236 168.991 166.033 140.539 166.033 140.539L184.673 142.522Z" fill="#FF5533"/>
<path d="M266.999 214.169C266.999 214.169 277.095 212.358 283.999 212.358C284.603 211.065 285.121 208.995 285.121 208.995C285.121 208.995 290.816 175.801 290.816 174.594" stroke="white" stroke-width="1.5" stroke-miterlimit="10" stroke-linecap="round" stroke-linejoin="round"/>
<path d="M230.409 166.922L223.247 192.788L264.065 209.342L260.613 223.568L212.978 210.635" stroke="white" stroke-width="1.5" stroke-miterlimit="10" stroke-linecap="round" stroke-linejoin="round"/>
<path d="M263.72 210.376C263.72 210.376 270.192 206.755 281.065 212.186C272.781 213.307 267.344 217.532 266.912 217.791C266.481 218.049 261.821 220.119 261.821 220.119L264.324 209.772" fill="#EEF1F3"/>
<path d="M233.182 195.922C233.182 195.922 228.175 185.247 222.142 186.17C216.109 187.094 214.508 191.377 214.508 191.377L225.644 193.533L233.182 195.922Z" fill="#EEF1F3"/>
<path d="M182.429 16.0367C176.216 17.1575 174.576 22.2445 174.231 24.0551C173.886 22.2445 172.246 17.1575 166.033 16.0367C158.439 14.7434 152.053 22.7618 158.007 30.1767C163.444 36.9018 172.505 43.3683 174.058 45.0065H174.317C175.957 43.3683 185.018 36.9018 190.368 30.1767C196.409 22.7618 190.023 14.7434 182.429 16.0367Z" fill="#FF5533"/>
<path d="M49.8432 107.217C50.2456 120.327 58.2087 134.995 64.6764 148.201C68.6556 155.283 83.0028 152.285 85.0054 144.412C83.8648 140.943 82.1379 138.028 83.029 135.528C91.2769 130.787 90.5927 127.46 89.8363 123.024C89.2714 119.711 87.9677 116.416 87.3698 114.665C88.1892 113.947 89.9847 112.959 91.2769 112.131C87.9497 104.008 82.9291 89.1553 72.2824 86.3307C58.7853 82.7499 49.3998 92.7691 49.8432 107.217Z" fill="white" stroke="#546169" stroke-width="1.5" stroke-linejoin="round"/>
<path d="M78.1288 127.226C79.8409 128.989 86.2775 127.624 85.1423 123L78.1288 127.226Z" fill="white"/>
<path d="M78.1288 127.226C79.8409 128.989 86.2775 127.624 85.1423 123" stroke="#546169" stroke-width="1.5" stroke-miterlimit="10" stroke-linecap="round" stroke-linejoin="round"/>
<path d="M304.731 99.3158C304.335 112.228 296.492 126.673 290.122 139.68C286.203 146.655 272.073 143.702 270.101 135.949C271.224 132.532 272.925 129.661 272.047 127.198C263.924 122.529 264.598 119.253 265.343 114.884C265.899 111.621 267.183 108.376 267.772 106.652C266.965 105.944 265.197 104.971 263.924 104.156C267.201 96.1554 272.146 81.5274 282.631 78.7455C295.924 75.2189 305.168 85.0866 304.731 99.3158Z" fill="#EEF1F3"/>
<path d="M278.732 119.606C276.667 121.731 268.905 120.085 270.274 114.509" stroke="#546169" stroke-width="1.5" stroke-miterlimit="10" stroke-linecap="round" stroke-linejoin="round"/>
</g>
<defs>
<clipPath id="clip0">
<rect width="352" height="234" fill="white"/>
</clipPath>
</defs>
</svg>
