<svg width="246" height="94" viewBox="0 0 246 94" fill="none" xmlns="http://www.w3.org/2000/svg">
<path d="M137.336 7.93312C137.336 7.93312 137.683 3.37737 137.137 3.05257C136.591 2.72778 136.431 3.86786 136.431 3.86786C136.431 3.86786 130.67 -0.160843 133.5 5.5C134 6.5 135.987 8.69351 135.987 8.69351L137.336 7.93312Z" stroke="#546169" stroke-miterlimit="10" stroke-linecap="round" stroke-linejoin="round"/>
<path d="M172.333 7.93312C172.333 7.93312 171.987 3.37737 172.533 3.05257C173.079 2.72778 173.239 3.86786 173.239 3.86786C173.239 3.86786 179 -0.160843 176.169 5.5C175.669 6.5 173.683 8.69351 173.683 8.69351L172.333 7.93312Z" stroke="#546169" stroke-miterlimit="10" stroke-linecap="round" stroke-linejoin="round"/>
<path d="M147.146 23.5814C140.85 23.1794 138.402 12.3596 137.965 7C137.236 7.16749 135.429 7.50247 134.03 7.50247C133.593 10.5173 137.965 29.611 144.523 33.1283C149.769 35.9421 158.95 34.9707 162.884 34.1332C169.18 30.1135 174.688 17.5518 176 8.5074C175.563 8.33991 173.989 7.80395 171.191 7C170.142 20.2651 162.593 24.5863 158.95 25.0888C157.638 24.7538 153.441 23.9834 147.146 23.5814Z" fill="#27DAD0"/>
<path d="M42.7 21.1C42.7 22.5359 41.5359 23.7 40.1 23.7C38.6641 23.7 37.5 22.5359 37.5 21.1C37.5 19.6641 38.6641 18.5 40.1 18.5C41.5359 18.5 42.7 19.6641 42.7 21.1Z" stroke="#546169"/>
<path d="M244.7 78.1C244.7 79.5359 243.536 80.7 242.1 80.7C240.664 80.7 239.5 79.5359 239.5 78.1C239.5 76.6641 240.664 75.5 242.1 75.5C243.536 75.5 244.7 76.6641 244.7 78.1Z" stroke="#546169"/>
<path d="M225.1 30.2C226.812 30.2 228.2 28.8121 228.2 27.1C228.2 25.3879 226.812 24 225.1 24C223.388 24 222 25.3879 222 27.1C222 28.8121 223.388 30.2 225.1 30.2Z" fill="#FD583E"/>
<path d="M3.1 78.2C4.81209 78.2 6.2 76.8121 6.2 75.1C6.2 73.3879 4.81209 72 3.1 72C1.38792 72 0 73.3879 0 75.1C0 76.8121 1.38792 78.2 3.1 78.2Z" fill="#FF5533"/>
<path d="M103.053 59C103.053 59.3434 99.786 91 99.786 91H97.0526V60.273" stroke="#546169" stroke-miterlimit="10" stroke-linecap="round" stroke-linejoin="round"/>
<path d="M104.053 59.8219C104.053 60.2495 109.088 91 109.088 91L112.053 90.81L111 57" stroke="#546169" stroke-miterlimit="10" stroke-linecap="round" stroke-linejoin="round"/>
<path d="M99.7237 91C100.007 91 99.8452 92.907 100.048 92.907C100.25 92.907 94.0526 93 94.0526 93L94.2957 91.9767C94.4577 91.6977 94.6602 91.5116 94.9438 91.4651L97.1717 91H99.7237Z" stroke="#546169" stroke-miterlimit="10" stroke-linecap="round" stroke-linejoin="round"/>
<path d="M109.436 91C109.106 91 109.295 92.907 109.058 92.907C108.822 92.907 116.053 93 116.053 93L115.769 91.9767C115.58 91.6977 115.344 91.5116 115.013 91.4651L112.414 91H109.436Z" stroke="#546169" stroke-miterlimit="10" stroke-linecap="round" stroke-linejoin="round"/>
<path d="M73 93L206 93" stroke="#546169" stroke-miterlimit="10" stroke-linecap="round" stroke-linejoin="round"/>
<path d="M107.5 27.4999L107.929 27.7571L108.226 27.261L107.692 27.0384L107.5 27.4999ZM60.5 46.5L60.5 46C60.2926 46 60.1068 46.128 60.0329 46.3217C59.9589 46.5154 60.0122 46.7347 60.1668 46.8728L60.5 46.5ZM91 55L91.1611 55.4733L91.3345 55.4143L91.4287 55.2572L91 55ZM107.692 27.0384C103.651 25.3537 97.1925 23.557 90.9324 23.6499C84.6734 23.7429 78.4937 25.7341 75.2372 31.7622L76.117 32.2375C79.1271 26.6657 84.8607 24.7402 90.9473 24.6498C97.0328 24.5595 103.353 26.3128 107.308 27.9614L107.692 27.0384ZM75.2372 31.7622C72.1291 37.5154 68.9867 41.0846 66.3432 43.2103C63.685 45.3477 61.5658 46 60.5 46L60.5 47C61.8822 47 64.2181 46.2022 66.9698 43.9896C69.7362 41.7652 72.9584 38.0844 76.117 32.2375L75.2372 31.7622ZM60.1668 46.8728C62.1021 48.6022 63.5167 50.0146 65.5019 51.3522C67.4973 52.6966 70.0607 53.9634 74.3336 55.4715L74.6664 54.5285C70.4393 53.0366 67.9611 51.8034 66.0606 50.5228C64.1499 49.2354 62.8145 47.8978 60.8332 46.1272L60.1668 46.8728ZM74.3336 55.4715C82.998 58.5295 88.6863 56.3158 91.1611 55.4733L90.8389 54.5267C88.4179 55.3508 83.002 57.4705 74.6664 54.5285L74.3336 55.4715ZM91.4287 55.2572L107.929 27.7571L107.071 27.2426L90.5713 54.7428L91.4287 55.2572Z" fill="#546169"/>
<path d="M98.855 34.8575C98.882 34.8853 98.9043 34.9192 98.9313 34.9471C98.9385 34.9567 98.9457 34.9662 98.9528 34.9758C98.9799 35.0036 99.0013 35.0323 99.0284 35.0602C99.0412 35.0689 99.0491 35.0837 99.0618 35.0924C99.0818 35.1107 99.1025 35.1342 99.1224 35.1525C99.1359 35.1664 99.1494 35.1803 99.163 35.1943C99.1893 35.2169 99.2163 35.2448 99.237 35.2683C99.2498 35.277 99.2577 35.2918 99.2705 35.3005C99.3031 35.3275 99.331 35.3606 99.3637 35.3876C99.3708 35.3972 99.3772 35.4015 99.39 35.4103C99.429 35.4417 99.4632 35.4791 99.5023 35.5105C99.5023 35.5105 99.5031 35.5157 99.5087 35.5148C99.5095 35.52 99.5151 35.5192 99.5151 35.5192C99.7127 35.6917 99.908 35.8487 100.069 35.9682L100.89 36.5529C101.172 36.7554 101.488 36.9953 101.738 37.2452C101.751 37.2591 101.764 37.2678 101.772 37.2826C101.792 37.3009 101.806 37.32 101.82 37.3339C101.826 37.3383 101.827 37.3435 101.832 37.3427C101.881 37.3992 101.929 37.4506 101.972 37.5079C101.972 37.5131 101.978 37.5123 101.979 37.5175C102.093 37.6705 102.173 37.8233 102.196 37.9741C102.228 38.1924 102.179 38.4016 102.075 38.5871C102.065 38.5992 102.056 38.6165 102.046 38.6285C101.912 38.845 101.701 39.004 101.449 39.0839C101.444 39.0847 101.438 39.0856 101.427 39.0924C101.406 39.101 101.378 39.1051 101.356 39.1137C101.334 39.117 101.306 39.1264 101.284 39.1297C101.278 39.1305 101.278 39.1305 101.273 39.1314C101.267 39.1322 101.267 39.1322 101.262 39.133C101.234 39.1372 101.211 39.1405 101.188 39.1387C101.165 39.142 101.137 39.141 101.113 39.1391C101.108 39.1399 101.097 39.1416 101.09 39.1372C100.832 39.1331 100.583 39.0425 100.386 38.8752C100.373 38.8613 100.36 38.8525 100.347 38.8438C100.194 38.7018 100.086 38.5108 100.053 38.2924C100.032 38.1469 100.063 37.9722 100.128 37.7925C100.127 37.7873 100.133 37.7865 100.132 37.7813C100.156 37.7139 100.187 37.6509 100.217 37.5827C100.216 37.5775 100.222 37.5766 100.221 37.5714C100.235 37.5481 100.243 37.5257 100.257 37.5024C100.266 37.4851 100.27 37.4739 100.279 37.4566L100.284 37.4506C100.4 37.2314 100.55 37.0072 100.707 36.7925L99.8932 36.2122C99.8883 36.2182 99.8835 36.2242 99.8794 36.2355C99.8553 36.2656 99.8319 36.301 99.8077 36.3311C99.8028 36.3372 99.7988 36.3484 99.7939 36.3544C99.543 36.7105 99.3024 37.0969 99.1601 37.49C99.1569 37.5064 99.148 37.5237 99.1447 37.5401C99.0406 37.8425 98.9885 38.1478 99.0325 38.4441C99.1916 39.515 100.257 40.2439 101.413 40.0723C101.413 40.0723 101.413 40.0723 101.418 40.0714C101.424 40.0706 101.418 40.0714 101.424 40.0706C102.574 39.8998 103.381 38.8925 103.222 37.8216C103.178 37.5253 103.039 37.2483 102.852 36.9893C102.844 36.9745 102.836 36.9598 102.822 36.9458C102.572 36.6111 102.223 36.307 101.88 36.0444C101.874 36.0401 101.868 36.0357 101.867 36.0305C101.828 35.9991 101.783 35.9686 101.744 35.9372C101.731 35.9284 101.725 35.9241 101.712 35.9153C101.693 35.9023 101.68 35.8935 101.661 35.8804C101.642 35.8673 101.628 35.8534 101.609 35.8403C101.596 35.8316 101.583 35.8176 101.57 35.8089C101.545 35.7915 101.525 35.7732 101.5 35.7609L100.686 35.1805C100.576 35.0959 100.446 34.993 100.315 34.8849C100.098 34.6993 99.8976 34.506 99.7337 34.3284C99.713 34.3049 99.6923 34.2815 99.6716 34.258C99.6708 34.2528 99.6652 34.2536 99.6652 34.2536C99.5061 34.07 99.4005 33.8997 99.382 33.775C99.3496 33.5567 99.3987 33.3474 99.503 33.1619C99.5127 33.1499 99.5216 33.1326 99.5312 33.1205C99.6653 32.904 99.8767 32.7451 100.129 32.6652C100.134 32.6643 100.145 32.6627 100.15 32.6566C100.172 32.6481 100.2 32.6439 100.222 32.6354C100.244 32.6321 100.271 32.6227 100.294 32.6194C100.299 32.6185 100.299 32.6185 100.305 32.6177C100.311 32.6169 100.311 32.6169 100.316 32.616C100.344 32.6119 100.367 32.6085 100.39 32.6104C100.412 32.6071 100.441 32.6081 100.464 32.61C100.47 32.6091 100.475 32.6083 100.487 32.6118C100.746 32.6159 100.995 32.7065 101.191 32.8739C101.205 32.8878 101.218 32.8965 101.23 32.9053C101.383 33.0472 101.492 33.2383 101.524 33.4566C101.545 33.5918 101.463 33.8536 101.295 34.192C101.168 34.4501 101.005 34.708 100.855 34.9322L101.675 35.5117C101.727 35.435 101.783 35.3522 101.839 35.2642C101.844 35.2582 101.844 35.2582 101.849 35.2522C101.868 35.228 101.881 35.1995 101.9 35.1754C101.905 35.1694 101.904 35.1642 101.91 35.1634L101.915 35.1573C101.937 35.1168 101.966 35.0754 101.988 35.0348C101.992 35.0236 102.002 35.0115 102.006 35.0003C102.029 34.9649 102.047 34.9304 102.071 34.8951C102.08 34.8778 102.088 34.8605 102.098 34.8485C102.111 34.82 102.13 34.7959 102.143 34.7674C102.157 34.7441 102.165 34.7216 102.18 34.7035C102.193 34.6802 102.202 34.6578 102.216 34.6397C102.225 34.6224 102.234 34.6051 102.244 34.5931C102.261 34.5586 102.274 34.5301 102.292 34.4955C102.296 34.4843 102.306 34.4722 102.309 34.4558C102.327 34.4213 102.339 34.3876 102.356 34.3479C102.535 33.9334 102.599 33.5892 102.557 33.3085C102.398 32.2376 101.332 31.5087 100.177 31.6803C100.177 31.6803 100.177 31.6803 100.171 31.6812C100.166 31.682 100.171 31.6812 100.166 31.682C99.0105 31.8537 98.2029 32.861 98.362 33.9319C98.4022 34.2022 98.5686 34.5122 98.855 34.8575Z" fill="white"/>
<path d="M98.4761 24.77C98.4761 24.77 96.0716 21.3405 95.4097 18.9655C94.7148 16.4426 96.6041 12.7153 99.4048 13.3188C102.205 13.9224 102.37 16.4043 101.422 17.7351C100.518 19.0694 100.214 22.435 100.958 23.1702C101.698 23.9536 99.025 25.1513 98.4761 24.77Z" fill="white" stroke="#546169" stroke-miterlimit="10" stroke-linecap="round" stroke-linejoin="round"/>
<path fill-rule="evenodd" clip-rule="evenodd" d="M89.724 26.9371C93.0507 24.8131 99.5897 22.9891 103.535 23.0845C105.396 23.0469 109.765 23.2318 112.362 24.2727C114.217 24.5518 119.325 26.7295 119.857 32.047C120.274 36.2219 114.774 45.4125 111.851 47.5V57.5L96.5 59.5C94.6467 55.7934 94.0814 53.8042 93.2128 50.7474L93.2128 50.7473L93.2127 50.7471C93.144 50.5052 93.0733 50.2566 93 50C93 50 83.3534 42.7236 83.0234 36.7976C82.7418 31.7393 85.0147 30.1764 89.0222 27.4206C89.2505 27.2636 89.4845 27.1027 89.724 26.9371ZM109.764 28.166C110.206 30.0757 110.992 40.2572 111 40.5C111.379 40.4877 114.5 37 114.035 31.0655C113.869 28.9466 110.776 28.1332 109.764 28.166ZM89.9999 32.5L92 44.5C89.5 44.5 87 38 87 36.5C87 35 88 33 89.9999 32.5Z" fill="#FD583E"/>
<path d="M153.857 24.1036C153.857 24.1036 156.012 20.3238 156.42 17.861C156.844 15.2462 154.32 11.8331 151.371 12.8652C148.46 13.8398 148.566 16.3894 149.763 17.5659C150.913 18.7526 151.677 22.0508 150.969 22.8964C150.26 23.742 153.303 24.52 153.857 24.1036Z" fill="#EEF1F3" stroke="#546169" stroke-miterlimit="10" stroke-linecap="round" stroke-linejoin="round"/>
<path d="M160.989 69.5943C161.013 69.9319 160.105 89.388 160.105 89.388L157.013 89.6065L155.561 69.0567" stroke="#546169" stroke-miterlimit="10" stroke-linecap="round" stroke-linejoin="round"/>
<path d="M151.306 67.629C151.336 68.0632 149.492 89.3792 149.492 89.3792L146.095 89.4252L145.139 66.9497" stroke="#546169" stroke-miterlimit="10" stroke-linecap="round" stroke-linejoin="round"/>
<path d="M160.223 89.5991C160.562 89.5979 160.38 92.7903 160.622 92.7894C160.865 92.7885 153.453 92.9122 153.453 92.9122L153.74 91.8473C153.933 91.5564 154.174 91.3621 154.513 91.3125L157.171 89.6102L160.223 89.5991Z" stroke="#546169" stroke-miterlimit="10" stroke-linecap="round" stroke-linejoin="round"/>
<path d="M149.339 89.3894C149.678 89.3854 149.521 92.5308 149.764 92.528C150.006 92.5251 142.596 92.7087 142.596 92.7087L142.874 91.6415C143.064 91.3491 143.304 91.1528 143.643 91.1005L146.288 89.4251L149.339 89.3894Z" stroke="#546169" stroke-miterlimit="10" stroke-linecap="round" stroke-linejoin="round"/>
<path d="M149.326 16.9174L148.845 20.1875L150.831 20.2041" fill="#EEF1F3"/>
<path d="M149.326 16.9174L148.845 20.1875L150.831 20.2041" stroke="#546169" stroke-miterlimit="10" stroke-linecap="round" stroke-linejoin="round"/>
<path d="M150.492 13.1536C150.492 13.1536 154.343 10.3433 158.318 14.7299C162.12 19.0053 159.675 21.2151 159.675 21.2151L155.404 20.9494C155.404 20.9494 156.154 15.4937 150.492 13.1536Z" fill="#EEF1F3" stroke="#546169" stroke-miterlimit="10" stroke-linecap="round" stroke-linejoin="round"/>
<path d="M140 70.7266C141.122 58.9727 141.53 50.2339 142.652 38.4289C142.957 35.1583 143.314 31.8365 144.742 28.8725C146.17 25.9085 148.872 22.4845 152.34 22.74C164.68 23.711 164.68 45.6346 164.68 45.6346C164.68 45.6346 165.852 59.0238 163.711 70.1644L140 70.7266Z" fill="#1ADCD0"/>
<path d="M97.4118 59.6667L96 55.9333L112 55V57.3333L105.412 61.5333L103.529 62L97.4118 59.6667Z" fill="white" stroke="#546169" stroke-linejoin="round"/>
<path d="M98.781 34.4883C98.8081 34.5162 98.8303 34.5501 98.8574 34.578C98.8645 34.5875 98.8717 34.5971 98.8788 34.6066C98.9059 34.6345 98.9274 34.6632 98.9544 34.691C98.9672 34.6998 98.9751 34.7145 98.9879 34.7233C99.0078 34.7416 99.0285 34.7651 99.0484 34.7834C99.0619 34.7973 99.0755 34.8112 99.089 34.8251C99.1153 34.8478 99.1424 34.8757 99.163 34.8991C99.1758 34.9079 99.1837 34.9226 99.1965 34.9314C99.2292 34.9584 99.257 34.9914 99.2897 35.0185C99.2968 35.028 99.3032 35.0324 99.316 35.0411C99.355 35.0725 99.3893 35.1099 99.4283 35.1413C99.4283 35.1413 99.4291 35.1465 99.4347 35.1457C99.4355 35.1509 99.4411 35.1501 99.4411 35.1501C99.6387 35.3226 99.834 35.4795 99.995 35.5991L100.816 36.1838C101.098 36.3863 101.414 36.6261 101.664 36.876C101.677 36.8899 101.69 36.8987 101.698 36.9134C101.718 36.9317 101.732 36.9509 101.746 36.9648C101.752 36.9691 101.753 36.9743 101.758 36.9735C101.807 37.0301 101.855 37.0814 101.898 37.1388C101.898 37.144 101.904 37.1432 101.905 37.1484C102.019 37.3014 102.099 37.4542 102.122 37.6049C102.154 37.8233 102.105 38.0325 102.001 38.218C101.991 38.2301 101.982 38.2473 101.972 38.2594C101.838 38.4759 101.627 38.6348 101.375 38.7148C101.37 38.7156 101.364 38.7164 101.354 38.7233C101.332 38.7318 101.304 38.736 101.282 38.7445C101.26 38.7478 101.232 38.7572 101.21 38.7605C101.204 38.7614 101.204 38.7614 101.199 38.7622C101.193 38.763 101.193 38.763 101.188 38.7639C101.16 38.768 101.137 38.7714 101.114 38.7695C101.091 38.7728 101.063 38.7718 101.039 38.77C101.034 38.7708 101.023 38.7725 101.016 38.7681C100.758 38.764 100.509 38.6734 100.312 38.5061C100.299 38.4921 100.286 38.4834 100.273 38.4747C100.12 38.3327 100.012 38.1416 99.9793 37.9233C99.9576 37.7777 99.989 37.603 100.054 37.4234C100.053 37.4182 100.059 37.4173 100.058 37.4121C100.082 37.3447 100.113 37.2817 100.143 37.2135C100.142 37.2083 100.148 37.2075 100.147 37.2023C100.161 37.179 100.169 37.1565 100.183 37.1332C100.192 37.116 100.196 37.1047 100.205 37.0875L100.21 37.0815C100.326 36.8622 100.476 36.638 100.633 36.4234L99.8192 35.843C99.8144 35.8491 99.8095 35.8551 99.8055 35.8663C99.7813 35.8965 99.7579 35.9318 99.7337 35.962C99.7289 35.968 99.7248 35.9793 99.72 35.9853C99.4691 36.3414 99.2284 36.7278 99.0862 37.1209C99.0829 37.1373 99.074 37.1546 99.0707 37.171C98.9666 37.4734 98.9145 37.7786 98.9585 38.075C99.1176 39.1458 100.183 39.8748 101.339 39.7031C101.339 39.7031 101.339 39.7031 101.344 39.7023C101.35 39.7015 101.344 39.7023 101.35 39.7015C102.5 39.5306 103.307 38.5233 103.148 37.4524C103.104 37.1561 102.965 36.8792 102.778 36.6201C102.77 36.6054 102.762 36.5906 102.749 36.5767C102.498 36.242 102.149 35.9378 101.806 35.6753C101.8 35.6709 101.794 35.6666 101.793 35.6614C101.754 35.63 101.709 35.5994 101.67 35.568C101.657 35.5593 101.651 35.5549 101.638 35.5462C101.619 35.5331 101.606 35.5244 101.587 35.5113C101.568 35.4982 101.554 35.4843 101.535 35.4712C101.522 35.4624 101.509 35.4485 101.496 35.4398C101.471 35.4223 101.451 35.404 101.426 35.3918L100.612 34.8114C100.502 34.7268 100.372 34.6239 100.241 34.5158C100.024 34.3302 99.8236 34.1368 99.6597 33.9593C99.639 33.9358 99.6183 33.9123 99.5976 33.8888C99.5968 33.8836 99.5912 33.8845 99.5912 33.8845C99.4321 33.7009 99.3266 33.5306 99.308 33.4058C99.2756 33.1875 99.3248 32.9783 99.429 32.7928C99.4387 32.7807 99.4476 32.7635 99.4573 32.7514C99.5913 32.5349 99.8028 32.376 100.055 32.296C100.06 32.2952 100.071 32.2935 100.076 32.2875C100.098 32.279 100.126 32.2748 100.148 32.2663C100.17 32.2629 100.197 32.2536 100.22 32.2502C100.225 32.2494 100.225 32.2494 100.231 32.2486C100.237 32.2477 100.237 32.2477 100.242 32.2469C100.27 32.2427 100.293 32.2394 100.316 32.2413C100.338 32.2379 100.367 32.239 100.39 32.2408C100.396 32.24 100.402 32.2392 100.414 32.2427C100.672 32.2468 100.921 32.3374 101.117 32.5047C101.131 32.5187 101.144 32.5274 101.156 32.5361C101.309 32.6781 101.418 32.8692 101.45 33.0875C101.471 33.2227 101.389 33.4845 101.222 33.8229C101.094 34.081 100.931 34.3389 100.781 34.5631L101.601 35.1426C101.653 35.0658 101.709 34.9831 101.765 34.8951C101.77 34.8891 101.77 34.8891 101.775 34.883C101.794 34.8589 101.807 34.8304 101.826 34.8063C101.831 34.8002 101.83 34.7951 101.836 34.7942L101.841 34.7882C101.863 34.7476 101.892 34.7062 101.914 34.6657C101.918 34.6545 101.928 34.6424 101.932 34.6312C101.955 34.5958 101.973 34.5613 101.997 34.5259C102.006 34.5087 102.014 34.4914 102.024 34.4793C102.037 34.4508 102.056 34.4267 102.069 34.3982C102.083 34.3749 102.091 34.3525 102.106 34.3344C102.12 34.3111 102.128 34.2886 102.142 34.2705C102.151 34.2533 102.16 34.236 102.17 34.2239C102.187 34.1894 102.2 34.1609 102.218 34.1264C102.222 34.1152 102.232 34.1031 102.235 34.0867C102.253 34.0522 102.265 34.0185 102.282 33.9787C102.461 33.5643 102.525 33.2201 102.483 32.9394C102.324 31.8685 101.258 31.1395 100.103 31.3112C100.103 31.3112 100.103 31.3112 100.098 31.312C100.092 31.3129 100.098 31.312 100.092 31.3129C98.9366 31.4845 98.1289 32.4918 98.2881 33.5627C98.3282 33.833 98.4947 34.143 98.781 34.4883Z" fill="white"/>
</svg>
