<svg width="270" height="99" viewBox="0 0 270 99" fill="none" xmlns="http://www.w3.org/2000/svg">
<path d="M267.205 39.4863C266.751 49.1587 245.412 66.0001 245.412 66.0001C245.412 66.0001 165.842 66.0001 151.54 66.0001C150.291 63.9518 149.383 45.9725 149.383 45.9725C149.383 45.9725 238.147 44.3794 267.205 39.4863Z" stroke="#546169" stroke-miterlimit="10"/>
<path d="M220.894 43.3548V22.8721H245.071C245.071 22.8721 252.563 33.91 254.265 36.641C254.946 37.779 255.4 39.4859 255.627 40.8514" stroke="#546169" stroke-miterlimit="10"/>
<path d="M228.839 15.9307H224.64V22.9858H228.839V15.9307Z" stroke="#546169" stroke-miterlimit="10"/>
<path d="M232.585 28.2207H225.661V38.4621H232.585V28.2207Z" stroke="#546169" stroke-miterlimit="10"/>
<path d="M243.936 28.2207H237.012V34.1379H243.936V28.2207Z" stroke="#546169" stroke-miterlimit="10"/>
<path d="M149.496 45.9721C149.496 45.9721 151.994 35.3893 152.788 32.8858C153.583 30.3824 155.399 27.0824 158.237 27.5376C161.074 27.9927 161.982 33.4548 160.62 38.1203C159.145 42.7858 157.896 45.7445 157.896 45.7445L149.496 45.9721Z" stroke="#546169" stroke-miterlimit="10" stroke-linejoin="round"/>
<path d="M157.669 28.1061C157.669 28.1061 158.123 27.1957 157.556 26.3992C156.988 25.6026 156.761 22.7578 158.918 22.7578C161.074 22.7578 160.961 25.3751 160.62 26.1716C160.28 26.9682 159.258 28.6751 159.258 28.6751C159.258 28.6751 158.237 28.7888 157.669 28.1061Z" fill="#EEF1F3" stroke="#546169" stroke-miterlimit="10" stroke-linejoin="round"/>
<path d="M153.469 34.3649C153.469 34.3649 159.485 0.909735 148.134 0.568356C136.783 0.226976 135.421 44.8339 135.421 44.8339" stroke="#546169" stroke-miterlimit="10" stroke-linejoin="round"/>
<path d="M160.053 31.2928C158.237 31.4066 154.604 38.348 154.604 38.348L154.264 34.3652L152.334 33.7963C152.334 33.7963 151.313 40.5101 153.356 41.3066C155.399 42.1032 159.826 37.4377 160.62 36.1859C161.301 34.9342 162.096 31.0652 160.053 31.2928Z" fill="#EEF1F3" stroke="#546169" stroke-miterlimit="10" stroke-linejoin="round"/>
<path d="M135.308 44.607C135.081 44.3794 131.675 48.3622 132.356 51.3208C133.038 54.2794 134.854 54.9622 133.832 57.0104C132.811 59.0587 132.356 60.8794 132.356 60.8794C132.356 60.8794 135.308 59.5139 135.762 58.2622C136.556 60.0829 138.486 61.107 138.486 61.107C138.486 61.107 137.237 57.3518 137.464 55.7587C137.691 54.1656 140.189 49.3863 135.308 44.607Z" fill="#FD583E"/>
<path d="M0 66H270" stroke="#546169" stroke-miterlimit="10" stroke-linejoin="round"/>
<path d="M175.377 45.1755C175.377 45.1755 173.787 30.2686 179.463 28.1066C185.138 25.9445 184.117 35.5031 184.117 38.2342C184.117 40.9652 184.457 45.2893 184.457 45.2893" stroke="#546169" stroke-miterlimit="10" stroke-linejoin="round"/>
<path d="M179.009 28.4476C179.009 28.4476 177.079 24.5786 179.009 22.8717C180.938 21.2786 181.96 22.6442 181.733 24.0097C181.619 25.2614 180.257 25.8304 180.598 26.5131C180.938 27.1959 181.052 28.22 181.052 28.22L179.009 28.4476Z" fill="#EEF1F3" stroke="#546169" stroke-miterlimit="10" stroke-linejoin="round"/>
<path d="M264.368 47.6791C245.412 52.5722 149.042 50.9791 149.042 50.9791L148.702 45.4032C148.702 45.4032 254.606 42.4446 268 38.6895C268.113 41.9895 264.368 47.6791 264.368 47.6791Z" fill="#27DAD0"/>
<path d="M139.621 98.4307H147.68" stroke="#546169" stroke-miterlimit="10" stroke-linejoin="round"/>
<path d="M202.619 91.6035H219.759" stroke="#546169" stroke-miterlimit="10" stroke-linejoin="round"/>
<path d="M225.321 84.3203H256.195" stroke="#546169" stroke-miterlimit="10" stroke-linejoin="round"/>
<path d="M182.073 44.3787C182.073 44.3787 182.301 25.2615 193.197 17.0684C193.197 17.0684 200.008 85.7994 211.586 91.489" stroke="#546169" stroke-miterlimit="10" stroke-linejoin="round"/>
<path d="M192.743 43.924C192.743 43.924 192.97 25.1482 203.867 16.9551C203.867 16.9551 212.267 77.3792 230.996 84.2068" stroke="#546169" stroke-miterlimit="10" stroke-linejoin="round"/>
<path d="M171.404 44.7196C171.404 44.7196 171.404 25.3747 165.161 17.1816C165.161 17.1816 164.934 89.0989 143.821 98.2023" stroke="#546169" stroke-miterlimit="10" stroke-linejoin="round"/>
</svg>
