<svg width="364" height="552" viewBox="0 0 364 552" fill="none" xmlns="http://www.w3.org/2000/svg">
<mask id="mask0" mask-type="alpha" maskUnits="userSpaceOnUse" x="0" y="0" width="364" height="552">
<rect width="364" height="552" fill="#C4C4C4"/>
</mask>
<g mask="url(#mask0)">
<path d="M299.097 284.134L300.936 272.047" stroke="#546169" stroke-width="1.5" stroke-miterlimit="10" stroke-linecap="round"/>
<path d="M301.009 272.242C301.009 272.242 314.203 275.785 316.119 260.342C301.336 258.067 301.009 272.242 301.009 272.242Z" stroke="#546169" stroke-width="1.5" stroke-miterlimit="10" stroke-linecap="round"/>
<path d="M300.294 275.473C300.294 275.473 286.873 274.573 289.158 259.316C303.767 261.962 300.294 275.473 300.294 275.473Z" stroke="#546169" stroke-width="1.5" stroke-miterlimit="10" stroke-linecap="round"/>
<path d="M210.8 400.89L189.068 384.645L198.675 379.681L229.954 398.714L210.8 400.89Z" fill="white" stroke="#546169" stroke-width="1.5" stroke-miterlimit="10" stroke-linecap="round" stroke-linejoin="round"/>
<path d="M99.7104 304.476L103.434 279.116" stroke="#546169" stroke-width="1.5" stroke-miterlimit="10" stroke-linecap="round" stroke-linejoin="round"/>
<path d="M124.228 297.237L113.592 310.865" stroke="#546169" stroke-width="1.5" stroke-miterlimit="10" stroke-linecap="round" stroke-linejoin="round"/>
<path d="M82.2482 305.788L77.2298 287.4" stroke="#546169" stroke-width="1.5" stroke-miterlimit="10" stroke-linecap="round" stroke-linejoin="round"/>
<path d="M222.154 387.314C222.154 387.314 294.351 448.286 261 474.499C244.461 487.541 202 462.999 228.806 524.999C258.5 586.499 264.032 707.835 264.032 707.835L130.92 747.419C130.92 747.419 120.354 647.122 105.208 612.245C97.0646 593.632 71.5781 517.602 71.5781 517.602C71.5781 517.602 65.4188 535.047 63.5584 554.848C61.7267 575.695 105.445 614.242 105.445 614.242L108.554 640.43C108.554 640.43 25.4515 596.62 29.2005 550.808C32.9494 504.997 36.3887 474.312 57.4499 450.991C83.1514 426.451 108.074 413.655 149 404.499C162.537 400.895 197.45 402.168 228.806 436.093C236.695 429.999 204.843 401.116 204.843 401.116L222.154 387.314Z" fill="white" stroke="#546169" stroke-width="1.5" stroke-miterlimit="10" stroke-linecap="round" stroke-linejoin="round"/>
<path d="M161.812 357.391L189.511 394.657L204.468 387.334L183.062 358.005" fill="white"/>
<path d="M161.812 357.391L189.511 394.657L204.468 387.334L183.062 358.005" stroke="#546169" stroke-width="1.5" stroke-miterlimit="10" stroke-linecap="round" stroke-linejoin="round"/>
<path d="M190.803 363.753L179.331 369.527C177.49 370.53 176.679 372.783 177.596 374.733C178.599 376.575 180.853 377.386 182.803 376.468L194.274 370.694C196.116 369.691 196.927 367.438 196.009 365.488C194.995 363.55 192.753 362.835 190.803 363.753Z" fill="white" stroke="#546169" stroke-width="1.5" stroke-miterlimit="10" stroke-linecap="round" stroke-linejoin="round"/>
<path d="M193.899 370.838L183.542 376.087C181.7 377.09 180.889 379.344 181.807 381.294C182.81 383.135 185.063 383.946 187.013 383.029L197.37 377.779C199.212 376.776 200.023 374.523 199.105 372.573C198.091 370.635 195.752 369.932 193.899 370.838Z" fill="white" stroke="#546169" stroke-width="1.5" stroke-miterlimit="10" stroke-linecap="round" stroke-linejoin="round"/>
<path d="M198.132 377.589L190.742 381.407C189.167 382.183 188.527 384.22 189.302 385.794C190.077 387.369 192.114 388.009 193.689 387.234L201.079 383.416C202.654 382.641 203.294 380.604 202.519 379.029C201.744 377.454 199.707 376.814 198.132 377.589Z" fill="white" stroke="#546169" stroke-width="1.5" stroke-miterlimit="10" stroke-linecap="round" stroke-linejoin="round"/>
<path d="M177.067 368.619L172.439 370.933C170.865 371.708 170.224 373.745 170.999 375.32C171.774 376.894 173.811 377.535 175.386 376.76L180.013 374.446C181.588 373.67 182.229 371.634 181.453 370.059C180.678 368.484 178.641 367.844 177.067 368.619Z" fill="white" stroke="#546169" stroke-width="1.5" stroke-miterlimit="10" stroke-linecap="round" stroke-linejoin="round"/>
<path d="M141.947 343.671C143.538 342.207 182.383 286.222 182.383 286.222L227.737 345.349L160.901 367.892L141.947 343.671Z" fill="white" stroke="#546169" stroke-width="1.5" stroke-miterlimit="10" stroke-linecap="round" stroke-linejoin="round"/>
<path d="M233.507 347.703C231.347 349.332 228.258 348.914 226.629 346.755L180.079 285.809C178.45 283.649 178.868 280.56 181.028 278.931C183.187 277.302 186.276 277.72 187.905 279.879L234.455 340.826C236.072 342.889 235.655 345.977 233.507 347.703Z" fill="#1ADCD0"/>
<path d="M161.715 373.09C159.555 374.719 156.466 374.301 154.837 372.141L136.605 348.227C134.977 346.067 135.394 342.978 137.554 341.349C139.713 339.72 142.802 340.138 144.431 342.297L162.663 366.212C164.28 368.275 163.874 371.461 161.715 373.09Z" fill="#1ADCD0"/>
<path d="M252.652 105.764C257.466 110.852 257.369 118.855 252.394 123.651C247.419 128.447 239.495 128.244 234.681 123.156C229.867 118.068 227.688 97.7886 227.688 97.7886C227.688 97.7886 247.838 100.676 252.652 105.764Z" stroke="#546169" stroke-width="1.5" stroke-miterlimit="10"/>
<path d="M248.588 120.51C245.78 123.234 241.362 123.124 238.57 120.221" stroke="#546169" stroke-width="1.5" stroke-miterlimit="10" stroke-linecap="round"/>
<path d="M232.204 215.513C232.316 216.428 231.673 217.24 230.782 217.34C229.892 217.439 229.071 216.789 228.959 215.874C228.848 214.959 229.491 214.147 230.381 214.047C231.272 213.948 232.093 214.598 232.204 215.513Z" fill="#546169" stroke="#546169"/>
<path d="M248.032 220.579C249.318 216.012 242.415 210.013 232.613 207.18C222.812 204.348 213.824 205.753 212.538 210.32C211.252 214.888 218.155 220.886 227.956 223.719C237.758 226.552 246.746 225.146 248.032 220.579Z" stroke="#546169" stroke-width="1.5" stroke-miterlimit="10"/>
<path d="M238.7 217.879C241.452 208.134 239.916 199.146 235.268 197.804C230.621 196.462 224.622 203.275 221.869 213.02C219.117 222.766 220.653 231.754 225.301 233.096C229.949 234.437 235.948 227.625 238.7 217.879Z" stroke="#546169" stroke-width="1.5" stroke-miterlimit="10"/>
<path d="M322.263 65.4688L325.822 68.2314" stroke="#546169" stroke-width="1.5" stroke-miterlimit="10" stroke-linecap="round"/>
<path d="M298.252 46.5586L301.28 48.9851" stroke="#546169" stroke-width="1.5" stroke-miterlimit="10" stroke-linecap="round"/>
<path d="M313.526 70.3555L314.054 74.8032" stroke="#546169" stroke-width="1.5" stroke-miterlimit="10" stroke-linecap="round"/>
<path d="M309.934 40.0938L310.381 43.8644" stroke="#546169" stroke-width="1.5" stroke-miterlimit="10" stroke-linecap="round"/>
<path d="M303.98 67.6636L301.18 71.1343" stroke="#546169" stroke-width="1.5" stroke-miterlimit="10" stroke-linecap="round"/>
<path d="M322.894 43.653L320.531 46.6798" stroke="#546169" stroke-width="1.5" stroke-miterlimit="10" stroke-linecap="round"/>
<path d="M299.034 58.9387L294.682 59.4551" stroke="#546169" stroke-width="1.5" stroke-miterlimit="10" stroke-linecap="round"/>
<path d="M329.391 55.3338L325.62 55.7812" stroke="#546169" stroke-width="1.5" stroke-miterlimit="10" stroke-linecap="round"/>
<path d="M313.211 67.4402C318.847 66.8127 322.853 61.6794 322.158 55.9747C321.463 50.27 316.331 46.1541 310.694 46.7817C305.058 47.4092 301.052 52.5425 301.747 58.2473C302.442 63.952 307.575 68.0678 313.211 67.4402Z" stroke="#546169" stroke-width="1.5" stroke-miterlimit="10" stroke-linecap="round"/>
<path d="M337.222 185.463C334.806 183.161 333.145 180.083 332.67 176.576C331.602 168.686 336.953 161.567 344.589 160.72C345.343 160.636 346.204 160.64 346.972 160.653" stroke="#546169" stroke-width="1.5" stroke-linecap="round" stroke-linejoin="round"/>
<path d="M347.008 160.58L342.04 156.072L342.304 155.747L348.035 160.922L342.889 166.28L342.579 165.949L347.043 161.293L347.392 160.929L347.008 160.58Z" fill="#6F6F6E" stroke="#546169"/>
<path d="M356.04 164.451C358.456 166.753 360.116 169.831 360.591 173.337C361.658 181.226 356.308 188.345 348.674 189.192C347.92 189.276 347.153 189.262 346.48 189.238" stroke="#546169" stroke-width="1.5" stroke-linecap="round" stroke-linejoin="round"/>
<path d="M346.349 189.323L351.318 193.831L351.053 194.156L345.319 188.979L350.396 183.618L350.762 183.972L346.314 188.611L345.965 188.975L346.349 189.323Z" fill="#6F6F6E" stroke="#546169"/>
<path d="M348.431 285.922C350.086 285.725 351.268 284.224 351.072 282.569C350.875 280.913 349.374 279.731 347.719 279.927C346.064 280.124 344.881 281.625 345.078 283.28C345.274 284.935 346.775 286.118 348.431 285.922Z" fill="#EDF1F4"/>
<path d="M186.737 164.33C188.392 164.133 189.575 162.632 189.378 160.977C189.182 159.322 187.681 158.139 186.026 158.336C184.37 158.532 183.188 160.033 183.384 161.688C183.581 163.344 185.082 164.526 186.737 164.33Z" fill="#EDF1F4"/>
<path d="M282.398 184.738C284.053 184.541 285.235 183.04 285.039 181.385C284.842 179.73 283.341 178.547 281.686 178.744C280.031 178.94 278.848 180.441 279.045 182.097C279.241 183.752 280.742 184.934 282.398 184.738Z" fill="#FF5533"/>
<path d="M52.6885 363.973C59.3622 387.201 81.0001 413.999 95.5001 436.999C108.919 441.128 131.452 434.515 133 417.999C130 410.499 124.353 404.322 124.809 399.453C138.567 392.743 135.427 385.671 131.814 375.864L113.793 380.872L127.729 365.904L123.083 360.227C124.22 358.572 126.978 355.992 128.909 353.927C119.278 340.933 103.566 316.691 83.2707 316.483C57.5423 316.22 45.3337 338.375 52.6885 363.973Z" fill="white" stroke="#546169" stroke-width="1.5" stroke-linejoin="round"/>
<path d="M264.813 321.535C266.468 321.338 267.65 319.837 267.454 318.182C267.258 316.527 265.756 315.344 264.101 315.541C262.446 315.737 261.263 317.238 261.46 318.894C261.656 320.549 263.157 321.731 264.813 321.535Z" fill="#FF5533"/>
<path d="M182.932 67.0329C184.587 66.8364 185.77 65.3353 185.573 63.68C185.377 62.0248 183.876 60.8423 182.22 61.0388C180.565 61.2352 179.383 62.7364 179.579 64.3916C179.776 66.0468 181.277 67.2294 182.932 67.0329Z" fill="#FF5533"/>
<path d="M102.377 354.897C103.785 357.671 103.646 360.629 101.942 362.792C100.054 365.189 96.4283 365.897 93.1854 365.008" fill="white"/>
<path d="M102.377 354.897C103.785 357.671 103.646 360.629 101.942 362.792C100.054 365.189 96.4283 365.897 93.1854 365.008" stroke="#546169" stroke-width="1.5" stroke-miterlimit="10" stroke-linecap="round" stroke-linejoin="round"/>
<path d="M65.4007 344.181C63.435 341.708 61.3239 339.018 61.3192 335.959C61.3282 333.017 63.3946 330.301 66.1525 329.385C68.9104 328.469 72.2557 329.484 73.9583 331.753C73.1215 329.734 73.8923 327.172 75.4937 325.57C77.1089 324.084 80.2002 321.952 85.6305 323.426C89.447 324.384 93.461 330.026 90.5611 335.782C89.7979 337.402 87.8783 338.336 85.98 338.444C88.1552 338.656 89.9342 340.563 90.1821 342.651C90.4301 344.739 89.2646 346.995 87.6218 348.249C85.8613 349.517 83.651 350.015 81.4759 349.802C83.3528 350.521 84.8687 352.223 85.2206 354.182C85.5725 356.14 84.4835 358.034 83.1039 359.492C80.5801 362.38 72.3844 362.765 69.3952 357.707C68.6548 356.501 68.2402 355.021 69.1901 353.967C68.8705 355.299 67.6575 356.149 66.417 356.767C64.3934 357.831 59.6194 358.868 56.6089 354.637C55.1556 352.456 55.8851 349.546 57.0644 347.406C58.5005 344.412 65.4007 344.181 65.4007 344.181Z" fill="#FF5533"/>
</g>
</svg>
