<svg width="238" height="80" viewBox="0 0 238 80" fill="none" xmlns="http://www.w3.org/2000/svg">
<path d="M42.7 11.1C42.7 12.5359 41.5359 13.7 40.1 13.7C38.6641 13.7 37.5 12.5359 37.5 11.1C37.5 9.66406 38.6641 8.5 40.1 8.5C41.5359 8.5 42.7 9.66406 42.7 11.1Z" stroke="#546169"/>
<path d="M236.7 68.1C236.7 69.5359 235.536 70.7 234.1 70.7C232.664 70.7 231.5 69.5359 231.5 68.1C231.5 66.6641 232.664 65.5 234.1 65.5C235.536 65.5 236.7 66.6641 236.7 68.1Z" stroke="#546169"/>
<path d="M217.1 20.2C218.812 20.2 220.2 18.8121 220.2 17.1C220.2 15.3879 218.812 14 217.1 14C215.388 14 214 15.3879 214 17.1C214 18.8121 215.388 20.2 217.1 20.2Z" fill="#FD583E"/>
<path d="M3.1 68.2C4.81209 68.2 6.2 66.8121 6.2 65.1C6.2 63.3879 4.81209 62 3.1 62C1.38792 62 0 63.3879 0 65.1C0 66.8121 1.38792 68.2 3.1 68.2Z" fill="#FF5533"/>
<path d="M75.1719 12.4476C75.1719 12.4476 72.7313 8.97646 72.0576 6.57122C71.3501 4.01628 73.2591 0.237584 76.0973 0.84527C78.9354 1.45296 79.1052 3.9671 78.1465 5.31664C77.2327 6.66959 76.9289 10.0796 77.6836 10.8235C78.4347 11.6162 75.7285 12.8331 75.1719 12.4476Z" fill="white" stroke="#546169" stroke-miterlimit="10" stroke-linecap="round" stroke-linejoin="round"/>
<path fill-rule="evenodd" clip-rule="evenodd" d="M84.8204 49.9842L84.8173 50.1186L69.2304 51.8551C68.6141 47.6318 67.3862 39.1246 67.4047 38.8818C67.4047 38.8818 59.4776 32.8129 60.9095 27.4077C62.3415 22.0025 65.0371 17.8979 68.8762 14.4361C71.5913 11.8969 73.8174 11.3013 78.013 11.1144C79.3669 10.9618 80.9697 11.1488 84.4099 12.3515C84.4871 12.3977 84.5636 12.4441 84.6394 12.4907C85.0791 12.6715 85.441 12.8468 85.6782 13.0002L85.6743 13.1674C90.0802 16.2352 91.8592 20.0452 93.6715 24.8412C95.6481 30.0719 88.3824 36.9188 88.3824 36.9188C88.4255 37.1584 88.073 45.7465 87.8913 50.0107L84.8204 49.9842ZM88.1467 32.2143L87.4534 23.7351C88.1703 23.6061 89.883 25.5505 89.8405 27.7463C89.7867 30.5314 89.1575 31.6623 88.1467 32.2143ZM67.1582 34.1755L66.9817 25.6699C66.2554 25.6148 64.7503 27.724 65.0168 29.9039C65.3549 32.669 66.0963 33.7297 67.1582 34.1755Z" fill="#EEF1F3"/>
<path d="M84.8173 50.1186L84.8727 50.6155C85.1214 50.5878 85.3114 50.3804 85.3172 50.1302L84.8173 50.1186ZM84.8204 49.9842L84.8248 49.4842C84.5515 49.4818 84.3269 49.6994 84.3206 49.9726L84.8204 49.9842ZM69.2304 51.8551L68.7356 51.9273C68.7746 52.194 69.0179 52.3818 69.2858 52.352L69.2304 51.8551ZM67.4047 38.8818L67.9032 38.9197C67.916 38.7511 67.8428 38.5876 67.7086 38.4848L67.4047 38.8818ZM60.9095 27.4077L60.4262 27.2797L60.9095 27.4077ZM68.8762 14.4361L69.2111 14.8075L69.2177 14.8013L68.8762 14.4361ZM78.013 11.1144L78.0353 11.6139C78.0466 11.6134 78.0578 11.6125 78.069 11.6113L78.013 11.1144ZM84.4099 12.3515L84.6667 11.9225C84.6377 11.9051 84.6069 11.8907 84.575 11.8795L84.4099 12.3515ZM84.6394 12.4907L84.3776 12.9167C84.4005 12.9307 84.4244 12.9429 84.4492 12.9531L84.6394 12.4907ZM85.6782 13.0002L86.178 13.0118C86.1821 12.838 86.0956 12.6747 85.9497 12.5803L85.6782 13.0002ZM85.6743 13.1674L85.1744 13.1558C85.1706 13.3234 85.251 13.4819 85.3886 13.5777L85.6743 13.1674ZM93.6715 24.8412L94.1392 24.6645L94.1392 24.6645L93.6715 24.8412ZM88.3824 36.9188L88.0395 36.5549C87.9165 36.6708 87.8603 36.841 87.8903 37.0074L88.3824 36.9188ZM87.8913 50.0107L87.887 50.5106C88.1565 50.513 88.3794 50.3012 88.3909 50.0319L87.8913 50.0107ZM87.4534 23.7351L87.3649 23.243C87.1115 23.2886 86.9341 23.5193 86.9551 23.7759L87.4534 23.7351ZM88.1467 32.2143L87.6483 32.255C87.6621 32.4237 87.7603 32.574 87.9093 32.6543C88.0582 32.7347 88.2377 32.7342 88.3863 32.6531L88.1467 32.2143ZM89.8405 27.7463L90.3404 27.756L90.3404 27.756L89.8405 27.7463ZM66.9817 25.6699L67.4816 25.6596C67.4763 25.4021 67.2763 25.1909 67.0196 25.1714L66.9817 25.6699ZM67.1582 34.1755L66.9647 34.6366C67.1207 34.7021 67.2993 34.6842 67.4393 34.589C67.5793 34.4939 67.6616 34.3344 67.6581 34.1652L67.1582 34.1755ZM65.0168 29.9039L64.5205 29.9646L64.5205 29.9646L65.0168 29.9039ZM85.3172 50.1302L85.3203 49.9958L84.3206 49.9726L84.3175 50.107L85.3172 50.1302ZM69.2858 52.352L84.8727 50.6155L84.762 49.6217L69.175 51.3581L69.2858 52.352ZM66.9061 38.844C66.9021 38.8966 66.9068 38.9514 66.908 38.9669C66.9103 38.9971 66.9139 39.0335 66.9181 39.0739C66.9268 39.1552 66.9398 39.2647 66.9564 39.3978C66.9898 39.6646 67.0389 40.0355 67.1001 40.4848C67.2224 41.384 67.3936 42.6033 67.5845 43.9461C67.9663 46.632 68.4275 49.8153 68.7356 51.9273L69.7252 51.7829C69.4171 49.6716 68.9561 46.4896 68.5745 43.8054C68.3837 42.4631 68.2129 41.2462 68.0909 40.35C68.0299 39.9017 67.9814 39.5351 67.9487 39.2737C67.9323 39.1427 67.9202 39.0404 67.9126 38.9684C67.9087 38.9321 67.9063 38.9064 67.905 38.8899C67.9026 38.8587 67.9061 38.8823 67.9032 38.9197L66.9061 38.844ZM60.4262 27.2797C60.0318 28.7686 60.2894 30.2765 60.8573 31.6696C61.4248 33.0618 62.3144 34.3708 63.2339 35.4892C64.1552 36.61 65.1199 37.5553 65.8526 38.2196C66.2195 38.5521 66.5295 38.8154 66.7487 38.9962C66.8583 39.0866 66.9452 39.1565 67.0053 39.2041C67.0353 39.2279 67.0586 39.2462 67.0747 39.2587C67.0828 39.265 67.089 39.2698 67.0933 39.2732C67.0955 39.2749 67.0972 39.2762 67.0985 39.2771C67.0991 39.2776 67.0996 39.278 67.0999 39.2783C67.1001 39.2784 67.1003 39.2786 67.1004 39.2786C67.1006 39.2787 67.1007 39.2788 67.4047 38.8818C67.7086 38.4848 67.7087 38.4849 67.7087 38.4849C67.7087 38.4849 67.7087 38.4849 67.7086 38.4849C67.7085 38.4848 67.7083 38.4846 67.708 38.4843C67.7073 38.4838 67.7061 38.4829 67.7045 38.4817C67.7012 38.4791 67.6961 38.4752 67.6892 38.4698C67.6754 38.459 67.6544 38.4426 67.6267 38.4206C67.5713 38.3767 67.4894 38.3109 67.385 38.2248C67.1762 38.0526 66.8781 37.7995 66.5242 37.4787C65.8154 36.8361 64.8878 35.9263 64.0064 34.8542C63.123 33.7797 62.2993 32.558 61.7833 31.2921C61.2676 30.0271 61.0713 28.7494 61.3929 27.5358L60.4262 27.2797ZM68.5414 14.0648C64.6356 17.5868 61.8848 21.774 60.4262 27.2797L61.3929 27.5358C62.7982 22.2311 65.4387 18.2091 69.211 14.8074L68.5414 14.0648ZM77.9908 10.6149C75.8795 10.709 74.2161 10.9069 72.7265 11.4205C71.2257 11.9378 69.9315 12.7646 68.5347 14.0709L69.2177 14.8013C70.536 13.5684 71.7124 12.8278 73.0524 12.3659C74.4034 11.9001 75.9509 11.7068 78.0353 11.6139L77.9908 10.6149ZM78.069 11.6113C79.3109 11.4713 80.8284 11.629 84.2449 12.8235L84.575 11.8795C81.111 10.6685 79.4229 10.4524 77.957 10.6176L78.069 11.6113ZM84.1531 12.7805C84.2287 12.8257 84.3035 12.8711 84.3776 12.9167L84.9011 12.0646C84.8237 12.0171 84.7456 11.9697 84.6667 11.9225L84.1531 12.7805ZM85.9497 12.5803C85.6737 12.4018 85.2782 12.2127 84.8296 12.0282L84.4492 12.9531C84.8801 13.1303 85.2084 13.2918 85.4067 13.42L85.9497 12.5803ZM86.1742 13.1789L86.178 13.0118L85.1783 12.9886L85.1744 13.1558L86.1742 13.1789ZM85.3886 13.5777C89.6642 16.5547 91.399 20.2417 93.2038 25.018L94.1392 24.6645C92.3194 19.8486 90.4962 15.9156 85.96 12.757L85.3886 13.5777ZM93.2038 25.018C93.6476 26.1925 93.5829 27.4835 93.1991 28.7946C92.815 30.1066 92.1205 31.406 91.3515 32.5651C90.5842 33.7217 89.7543 34.7214 89.1149 35.433C88.7956 35.7883 88.5249 36.0705 88.3348 36.2632C88.2398 36.3595 88.165 36.4333 88.1144 36.4827C88.0891 36.5073 88.0699 36.5258 88.0572 36.538C88.0509 36.544 88.0462 36.5485 88.0432 36.5513C88.0417 36.5527 88.0407 36.5538 88.04 36.5544C88.0397 36.5547 88.0395 36.5548 88.0394 36.5549C88.0394 36.555 88.0394 36.555 88.0394 36.555C88.0394 36.555 88.0395 36.5549 88.3824 36.9188C88.7253 37.2827 88.7254 37.2826 88.7256 37.2824C88.7256 37.2823 88.7258 37.2822 88.726 37.282C88.7263 37.2817 88.7268 37.2813 88.7273 37.2807C88.7285 37.2797 88.73 37.2782 88.732 37.2763C88.736 37.2725 88.7417 37.2671 88.7491 37.26C88.7638 37.2459 88.7851 37.2254 88.8126 37.1986C88.8675 37.1451 88.9468 37.0667 89.0466 36.9656C89.2462 36.7633 89.5277 36.4698 89.8587 36.1014C90.5197 35.3658 91.3827 34.3269 92.1848 33.1179C92.9852 31.9115 93.7364 30.5184 94.1588 29.0755C94.5814 27.6317 94.6837 26.1053 94.1392 24.6645L93.2038 25.018ZM87.8903 37.0074C87.8836 36.9704 87.8846 36.9467 87.8854 36.978C87.8859 36.9945 87.8861 37.0202 87.886 37.0568C87.8857 37.1292 87.8841 37.2322 87.8812 37.3642C87.8754 37.6275 87.8645 37.9972 87.8497 38.4494C87.8199 39.3533 87.7742 40.5813 87.7215 41.9361C87.6161 44.6453 87.4826 47.8577 87.3918 49.9894L88.3909 50.0319C88.4817 47.8995 88.6153 44.6858 88.7208 41.975C88.7735 40.6197 88.8192 39.3893 88.8491 38.4823C88.864 38.029 88.8751 37.6551 88.881 37.3862C88.8839 37.2521 88.8857 37.1419 88.886 37.0601C88.8861 37.0196 88.8859 36.983 88.8851 36.9527C88.8847 36.9372 88.8838 36.8821 88.8745 36.8302L87.8903 37.0074ZM87.8956 49.5107L84.8248 49.4842L84.8161 50.4842L87.887 50.5106L87.8956 49.5107ZM86.9551 23.7759L87.6483 32.255L88.645 32.1735L87.9518 23.6944L86.9551 23.7759ZM90.3404 27.756C90.3642 26.5303 89.9007 25.3947 89.3436 24.5854C89.0644 24.1798 88.7494 23.8381 88.4377 23.6008C88.2819 23.4823 88.1159 23.3813 87.9457 23.3147C87.7792 23.2496 87.5763 23.205 87.3649 23.243L87.542 24.2272C87.5098 24.233 87.5173 24.221 87.5815 24.2461C87.642 24.2697 87.7271 24.3166 87.832 24.3965C88.0417 24.5561 88.2867 24.8136 88.5199 25.1524C88.9878 25.8321 89.3594 26.7665 89.3406 27.7366L90.3404 27.756ZM88.3863 32.6531C89.6436 31.9666 90.2856 30.5886 90.3404 27.756L89.3406 27.7366C89.2877 30.4743 88.6715 31.358 87.9071 31.7754L88.3863 32.6531ZM66.4818 25.6803L66.6583 34.1859L67.6581 34.1652L67.4816 25.6596L66.4818 25.6803ZM65.5131 29.8433C65.3954 28.8801 65.6696 27.9127 66.0656 27.1888C66.263 26.8279 66.4804 26.5467 66.6727 26.3665C66.7689 26.2764 66.8488 26.221 66.9065 26.1913C66.9678 26.1597 66.9765 26.171 66.9439 26.1685L67.0196 25.1714C66.8053 25.1551 66.6081 25.2202 66.4491 25.302C66.2866 25.3856 66.1318 25.503 65.9889 25.6369C65.703 25.9048 65.4246 26.2768 65.1883 26.7088C64.7168 27.5707 64.3718 28.7478 64.5205 29.9646L65.5131 29.8433ZM67.3518 33.7145C66.5487 33.3774 65.8455 32.5612 65.5131 29.8433L64.5205 29.9646C64.8644 32.7769 65.6439 34.0821 66.9647 34.6366L67.3518 33.7145Z" fill="#546169"/>
<path d="M71.9543 52.3335C71.9543 52.6758 74.0664 76.7853 74.0664 76.7853H76.9423V51.4043" stroke="#546169" stroke-miterlimit="10" stroke-linecap="round" stroke-linejoin="round"/>
<path d="M81.0316 50.7185C81.0316 51.1587 83.9525 76.9798 83.9525 76.9798L87.0981 76.7842L86.6937 49.5938" stroke="#546169" stroke-miterlimit="10" stroke-linecap="round" stroke-linejoin="round"/>
<path d="M74.0664 76.7363C73.7519 76.7363 73.9316 78.7414 73.7069 78.7414C73.4822 78.7414 80.3576 78.8392 80.3576 78.8392L80.088 77.7633C79.9082 77.4699 79.6835 77.2743 79.369 77.2254L76.8974 76.7363H74.0664Z" stroke="#546169" stroke-miterlimit="10" stroke-linecap="round" stroke-linejoin="round"/>
<path d="M84.1771 76.7363C83.8626 76.7363 84.0423 78.7414 83.8176 78.7414C83.593 78.7414 90.4683 78.8392 90.4683 78.8392L90.1987 77.7633C90.0189 77.4699 89.7942 77.2743 89.4797 77.2254L87.0082 76.7363H84.1771Z" stroke="#546169" stroke-miterlimit="10" stroke-linecap="round" stroke-linejoin="round"/>
<path d="M49 79L205 79" stroke="#546169" stroke-miterlimit="10" stroke-linecap="round" stroke-linejoin="round"/>
<rect x="110.5" y="68.5" width="10" height="10" rx="1.5" fill="white" stroke="#546169" stroke-linejoin="round"/>
<rect x="120.5" y="68.5" width="11" height="10" rx="1.5" fill="white" stroke="#546169" stroke-linejoin="round"/>
<rect x="120.5" y="57.5" width="11" height="11" rx="1.5" fill="white" stroke="#546169" stroke-linejoin="round"/>
<rect x="131.75" y="46.75" width="9.5" height="9.5" rx="1.25" fill="#FD583E" stroke="#FD583E" stroke-width="1.5" stroke-linejoin="round"/>
<rect x="131.5" y="68.5" width="10" height="10" rx="1.5" fill="white" stroke="#546169" stroke-linejoin="round"/>
<rect x="131.5" y="57.5" width="10" height="11" rx="1.5" fill="white" stroke="#546169" stroke-linejoin="round"/>
<path d="M191.41 57.3086C191.427 57.6145 190.291 75.2017 190.291 75.2017L187.471 75.3525L186.476 56.7401" stroke="#546169" stroke-miterlimit="10" stroke-linecap="round" stroke-linejoin="round"/>
<path d="M182.608 56.2881C182.629 56.6813 180.611 75.9369 180.611 75.9369L177.517 75.9271L177.003 55.5801" stroke="#546169" stroke-miterlimit="10" stroke-linecap="round" stroke-linejoin="round"/>
<path d="M190.291 75.2008C190.599 75.1843 190.577 78.0773 190.798 78.0655C191.018 78.0538 184.282 78.5017 184.282 78.5017L184.495 77.5263C184.657 77.2547 184.868 77.0682 185.174 77.008L187.516 75.3492L190.291 75.2008Z" stroke="#546169" stroke-miterlimit="10" stroke-linecap="round" stroke-linejoin="round"/>
<path d="M180.381 75.773C180.689 75.7565 180.665 78.6059 180.885 78.5941C181.106 78.5823 174.37 79.0303 174.37 79.0303L174.583 78.0549C174.745 77.7833 174.956 77.5968 175.262 77.5366L177.606 75.9215L180.381 75.773Z" stroke="#546169" stroke-miterlimit="10" stroke-linecap="round" stroke-linejoin="round"/>
<path d="M185.722 17.2097C185.722 17.2097 187.389 13.6289 187.572 11.3751C187.758 8.98279 185.21 6.10504 182.615 7.27063C180.048 8.38142 180.339 10.6727 181.513 11.6386C182.646 12.6175 183.589 15.5316 183.011 16.3508C182.432 17.1699 185.251 17.6294 185.722 17.2097Z" fill="#EEF1F3" stroke="#546169" stroke-miterlimit="10" stroke-linecap="round" stroke-linejoin="round"/>
<path d="M161 35.5L180 18.5L176.5 31L162.5 38.4274L161 35.5Z" fill="#27DAD0"/>
<path d="M172.753 59.8685C173.906 49.1065 174.372 41.1007 175.526 30.2918C175.841 27.297 176.204 24.256 177.548 21.554C178.892 18.8519 181.414 15.7416 184.601 16.0118C195.943 17.0299 195.716 37.1252 195.716 37.1252C195.716 37.1252 196.656 49.41 194.571 59.5994L172.753 59.8685Z" fill="#1ADCD0"/>
<path d="M181.067 11.0906L180.879 14.0784L182.682 13.9353" fill="#EEF1F3"/>
<path d="M181.067 11.0906L180.879 14.0784L182.682 13.9353" stroke="#546169" stroke-miterlimit="10" stroke-linecap="round" stroke-linejoin="round"/>
<path d="M181.839 7.60164C181.839 7.60164 185.118 4.76033 189.055 8.40064C192.827 11.9545 190.778 14.1423 190.778 14.1423L186.885 14.2425C186.885 14.2425 187.151 9.26185 181.839 7.60164Z" fill="#EEF1F3" stroke="#546169" stroke-miterlimit="10" stroke-linecap="round" stroke-linejoin="round"/>
<path d="M161.194 35.7106C161.194 35.7106 156.464 37.7047 156.42 38.4171C156.376 39.1295 159.023 38.5248 159.023 38.5248C159.023 38.5248 160.433 40.3406 161.009 40.3531C161.586 40.3656 162.647 36.6683 162.647 36.6683L161.194 35.7106Z" stroke="#546169" stroke-miterlimit="10" stroke-linecap="round" stroke-linejoin="round"/>
</svg>
