<?xml version="1.0" encoding="UTF-8" standalone="no"?>
<svg
   xmlns:dc="http://purl.org/dc/elements/1.1/"
   xmlns:cc="http://creativecommons.org/ns#"
   xmlns:rdf="http://www.w3.org/1999/02/22-rdf-syntax-ns#"
   xmlns:svg="http://www.w3.org/2000/svg"
   xmlns="http://www.w3.org/2000/svg"
   version="1.1"
   viewBox="0 0 518.049 167.582"
   data-name="Layer 1"
   id="Layer_1">
  <metadata
     id="metadata63">
    <rdf:RDF>
      <cc:Work
         rdf:about="">
        <dc:format>image/svg+xml</dc:format>
        <dc:type
           rdf:resource="http://purl.org/dc/dcmitype/StillImage" />
        <dc:title>SRL_logo_orange</dc:title>
      </cc:Work>
    </rdf:RDF>
  </metadata>
  <defs
     id="defs4">
    <style
       id="style2">
      .cls-1 {
        fill: #ea573c;
      }

      .cls-2 {
        fill: #556269;
      }
    </style>
  </defs>
  <title
     id="title6">SRL_logo_orange</title>
  <g
     id="g58">
    <path
       id="path8"
       transform="translate(-5.841 -5.573)"
       d="M66.02,167.707l.18-.1c.661-.394,1.253-.765,1.794-1.125.023-.016.118-.076.138-.089.592-.4,1.176-.814,1.733-1.232.206-.155.408-.315.609-.475l.437-.347c.184-.146.367-.292.541-.437.38-.315.747-.637,1.087-.94l.4-.36c.406-.372.793-.74,1.181-1.126l.1-.107a39.818,39.818,0,0,0,4.05-4.727c.122-.169.231-.339.33-.5l.045-.069a39.677,39.677,0,0,0,7.217-22.866c0-5.916-2.144-12.542-6.555-20.255-.016-.031-.031-.058-.046-.084-.343-.6-.723-1.236-1.163-1.956l-.371-.6c-.376-.608-.759-1.212-1.139-1.8l-.535-.812c-.277-.419-.559-.837-.841-1.252-.264-.387-.533-.778-.806-1.168q-.487-.7-.981-1.387l-.589-.817q-.692-.951-1.4-1.883l-.458-.608c-.55-.722-1.1-1.436-1.689-2.182L69,98.033c-.374-.472-.748-.942-1.122-1.4l-.064-.08q-.666-.825-1.325-1.619l-.044-.053c-1.479-1.788-3.142-3.72-4.942-5.741l-.076-.084.078-.084c4.241-4.534,10.647-13.4,15.274-20.044a2.359,2.359,0,0,0,.32-2.062L73.28,54.543a2.359,2.359,0,0,0-1.169-1.4,2.4,2.4,0,0,0-1.819-.159L58.765,56.645a2.382,2.382,0,0,0-1.275.973A118.3,118.3,0,0,1,45.41,72.093l-.091.094-.09-.1A108.724,108.724,0,0,1,34.214,58.568c-.241-.365-.48-.728-.717-1.106l-.152-.24c-.72-1.159-1.352-2.275-1.879-3.32-.04-.08-.083-.156-.134-.242a18.911,18.911,0,0,1-2.345-8.14A16.546,16.546,0,0,1,30.7,38.163a3.54,3.54,0,0,0,.365-.533A16.814,16.814,0,0,1,43.489,28.9l.112-.018.082-.013c.273-.036.545-.06.794-.081.342-.026.711-.051,1.1-.056l.247-.01a16.741,16.741,0,0,1,13.083,6.3,10.6,10.6,0,0,0,.729.823,16.806,16.806,0,0,1,2.936,7.512,2.375,2.375,0,1,0,4.711-.609,21.545,21.545,0,0,0-3.893-9.822,2.268,2.268,0,0,0-.253-.295,6.829,6.829,0,0,1-.521-.575,21.5,21.5,0,0,0-16.806-8.087l-.31.01c-.413.006-.847.028-1.409.071-.351.031-.691.062-.988.1-.095.012-.188.026-.315.047A21.521,21.521,0,0,0,27.025,35.122a2.612,2.612,0,0,0-.384.548,21.255,21.255,0,0,0-2.4,9.85,23.353,23.353,0,0,0,2.9,10.375c.013.025.039.069.06.1l.019.031c.6,1.184,1.3,2.422,2.085,3.689l.181.285c.248.393.506.787.77,1.188A123.794,123.794,0,0,0,44.137,77.855a2.206,2.206,0,0,0,.165.156L57.509,91.868a2.253,2.253,0,0,0,.31.272c1.756,1.964,3.426,3.905,4.982,5.786l.035.041c.43.521.857,1.039,1.284,1.569l.028.035.038.046q.544.674,1.086,1.36l.329.418c.539.685,1.078,1.381,1.6,2.067l.446.592c.452.6.9,1.2,1.352,1.824l.568.787c.318.443.632.887.946,1.337q.393.561.773,1.12c.272.4.541.8.806,1.2l.511.775c.371.571.732,1.143,1.088,1.715l.354.576c.425.7.764,1.268,1.067,1.793l.04.072c3.955,6.9,5.96,12.945,5.96,17.954a34.92,34.92,0,0,1-6.387,20.181l-.173.269c-.041.066-.082.131-.128.2a34.985,34.985,0,0,1-3.565,4.159l-.095.1c-.312.308-.654.634-1.046,1l-.347.313c-.315.279-.629.556-.958.828-.132.112-.267.218-.4.325l-.5.4c-.161.13-.323.258-.494.387-.489.368-.995.726-1.547,1.1-.024.015-.081.05-.1.063-.5.331-1.021.66-1.607,1.006l-.142.081c-.554.323-1.119.633-1.677.92l-.043.022a34.923,34.923,0,0,1-9.643,3.273l-.207.037c-.594.1-1.158.188-1.723.259l-.376.049c-.512.058-1.047.107-1.591.144l-.448.034c-.7.039-1.36.061-1.917.063-.024,0-.064,0-.1,0s-.095,0-.119,0c-.607,0-1.26-.02-1.987-.061l-.446-.034c-.549-.038-1.08-.086-1.574-.143l-.4-.051c-.549-.069-1.114-.153-1.681-.251l-.231-.042a34.914,34.914,0,0,1-9.646-3.271l-.029-.016c-.6-.309-1.162-.616-1.71-.938h0l-.064-.036-.062-.035c-.595-.353-1.119-.681-1.605-1l-.115-.074c-.536-.361-1.052-.727-1.536-1.09-.174-.132-.343-.267-.513-.4l-.465-.368c-.14-.11-.28-.222-.425-.343-.333-.275-.653-.558-.95-.824l-.351-.316c-.365-.335-.713-.667-1.063-1.015-.01-.011-.067-.068-.077-.08a35.085,35.085,0,0,1-3.563-4.156c-.045-.061-.085-.126-.125-.19l-.113-.179c-.02-.033-.041-.064-.063-.1a34.746,34.746,0,0,1-6.388-20.174c.054-18.264,14.763-33.39,21.044-39.849.313-.321.586-.6.843-.87l.09-.093.09.094,9.616,10.089-.08.086C34,111.446,24.237,123.865,24.237,133.208a21.373,21.373,0,0,0,4.138,12.652,2.46,2.46,0,0,0,.233.273,6.752,6.752,0,0,1,.479.536,21.456,21.456,0,0,0,14.4,7.953c.11.011.221.018.342.021.777.075,1.421.11,2.037.112.6,0,1.239-.037,2.023-.11.119-.006.231-.012.359-.025a21.435,21.435,0,0,0,2.366-.4,21.416,21.416,0,0,0,12.006-7.545c.147-.182.309-.363.48-.537a2.358,2.358,0,0,0,.233-.273,21.367,21.367,0,0,0,4.14-12.654c0-8.519-8.162-18.2-12.546-23.4-.626-.742-1.137-1.35-1.552-1.864-1.8-2.215-3.733-4.482-5.748-6.737a2.384,2.384,0,0,0-.492-.419L34.977,88.045c-.063-.08-.122-.149-.185-.215l-.024-.034a2.384,2.384,0,0,0-.862-1,.736.736,0,0,0-.088-.046c-.025-.012-.051-.024-.076-.038l-.031-.024-2.893-3.067q-.827-.9-1.647-1.813l-.309-.347c-6.332-7.1-10.851-13.4-13.815-19.259-.106-.21-.2-.428-.288-.647-.024-.065-.051-.127-.081-.19A36.563,36.563,0,0,1,10.592,45.52a35.2,35.2,0,0,1,35.115-35.2c.042,0,.157.006.2,0a35.238,35.238,0,0,1,35.21,35.2c0,.788-.035,1.6-.105,2.4a2.377,2.377,0,0,0,2.161,2.57,2.294,2.294,0,0,0,1.714-.525,2.375,2.375,0,0,0,.857-1.635c.082-.947.123-1.894.123-2.814A39.992,39.992,0,0,0,45.917,5.573h-.1A40,40,0,0,0,5.842,45.52a41.16,41.16,0,0,0,4.519,17.826q.2.509.446.995C13.959,70.57,18.7,77.2,25.315,84.617l.314.351c.564.629,1.129,1.252,1.689,1.86l1.991,2.113-.082.086c-.3.307-.608.629-.911.941l-.085.087C21.55,96.926,5.9,113.015,5.842,133.2a39.461,39.461,0,0,0,7.214,22.867l.039.061c.1.154.211.337.338.513a40.254,40.254,0,0,0,4.064,4.742l.095.095c.358.358.744.725,1.177,1.124l.406.366c.42.375.76.669,1.069.926.171.144.346.282.521.422l.442.35c.208.165.416.331.628.491.559.419,1.146.836,1.744,1.239l.124.079c.561.374,1.159.748,1.828,1.144l.155.088c.61.358,1.242.7,1.932,1.06l.039.019a39.632,39.632,0,0,0,10.955,3.71l.224.041c.66.116,1.311.213,1.934.291l.444.057c.56.064,1.151.118,1.807.163l.505.038c.8.046,1.541.069,2.262.069h.119c.746,0,1.479-.023,2.271-.069l.507-.038c.655-.045,1.252-.1,1.825-.165l.418-.054c.655-.082,1.3-.178,1.958-.3l.215-.039a39.617,39.617,0,0,0,10.929-3.7l.106.086h0l-.057-.111C64.727,168.439,65.38,168.081,66.02,167.707ZM58.127,85.632l-9.53-10,.084-.086A131.1,131.1,0,0,0,60.969,60.956l.024-.035.041-.013,8.417-2.674.038.12,2.73,8.805-.036.05c-6.065,8.664-10.894,15-13.965,18.325ZM45.551,106.039l.091.105c1.409,1.615,2.766,3.225,4.035,4.788h0c.434.539.988,1.2,1.614,1.937,3.993,4.738,11.427,13.554,11.427,20.338a16.653,16.653,0,0,1-3.127,9.716c-.246.259-.472.515-.68.775a16.794,16.794,0,0,1-7.562,5.371,16.432,16.432,0,0,1-1.8.516,16.238,16.238,0,0,1-1.831.31c-.11.005-.211.011-.31.019a15.084,15.084,0,0,1-1.555.092,15.548,15.548,0,0,1-1.583-.094c-.087-.006-.177-.011-.262-.012a16.7,16.7,0,0,1-11.218-6.2c-.211-.263-.436-.52-.67-.762a16.659,16.659,0,0,1-3.137-9.729c0-5.946,6-15.812,16.469-27.067Z"
       class="cls-1" />
    <path
       id="path10"
       transform="translate(-5.841 -5.573)"
       d="M151.462,50.679c-2.49-2.157-5.328-3.229-10.848-4.1l-6.634-1.014c-3.867-.583-5.951-1.436-8.258-3.381-1.94-1.639-2.924-4.11-2.924-7.346,0-7.062,5.035-11.449,13.14-11.449a18.57,18.57,0,0,1,12,3.657,5.516,5.516,0,0,0,2.747,1.12,2.067,2.067,0,0,0,1.746-.8,2.3,2.3,0,0,0,.627-1.656c0-1.044-.778-2.046-2.313-2.977-5.228-3.2-8.629-4.172-14.557-4.172-11.48,0-18.9,6.506-18.9,16.574,0,4.671,1.479,8.243,4.522,10.919,2.828,2.519,5.742,3.743,10.755,4.518h0l7.059,1.1c4.5.7,6.077,1.289,8.05,3,1.993,1.777,3.045,4.49,3.045,7.849,0,7.2-5.465,11.491-14.619,11.491-5.979,0-9.878-1.281-14.387-4.726a5.248,5.248,0,0,0-2.773-1.276,2.347,2.347,0,0,0-1.721.694,2.682,2.682,0,0,0-.778,1.932c0,1.408,1.014,2.364,2.536,3.365,5.576,3.746,9.843,5.009,16.912,5.009,12.431,0,20.463-6.555,20.463-16.7C156.359,57.477,154.62,53.345,151.462,50.679Z"
       class="cls-2" />
    <path
       id="path12"
       transform="translate(-5.841 -5.573)"
       d="M198.415,75.077V41.094a4.433,4.433,0,0,0-.5-2.641,2.738,2.738,0,0,0-4.43,0,4.444,4.444,0,0,0-.493,2.636V62.819c0,7.276-3.926,11.449-10.773,11.449-6.81,0-10.561-4.066-10.561-11.449V41.094a4.433,4.433,0,0,0-.5-2.641,2.569,2.569,0,0,0-2.213-1.126,2.606,2.606,0,0,0-2.216,1.131,4.434,4.434,0,0,0-.494,2.636V63.876c0,4.828,1.413,8.648,4.2,11.355,2.516,2.474,6.152,3.781,10.516,3.781a14.877,14.877,0,0,0,11.387-4.946l.654-.728v1.739a4.3,4.3,0,0,0,.494,2.636,2.738,2.738,0,0,0,4.432,0A4.306,4.306,0,0,0,198.415,75.077Z"
       class="cls-2" />
    <path
       id="path14"
       transform="translate(-5.841 -5.573)"
       d="M229.653,55.8l-6.679-.634c-5.291-.493-7.651-2.459-7.651-6.375,0-4.591,3.526-7.223,9.674-7.223a19.949,19.949,0,0,1,9.471,2.283,4.514,4.514,0,0,0,2.152.76,2.171,2.171,0,0,0,1.67-.767,2.574,2.574,0,0,0,.575-1.393,2.06,2.06,0,0,0-.4-1.351,5.3,5.3,0,0,0-1.931-1.4,24.769,24.769,0,0,0-11.455-2.58c-8.928,0-14.926,4.758-14.926,11.84,0,6.533,3.953,10.06,12.085,10.784l6.849.634c4.961.443,7.272,2.483,7.272,6.419,0,3.506-1.986,7.686-11.449,7.686-4.644,0-8.088-.986-11.166-3.2a4.722,4.722,0,0,0-2.571-1.112,2.243,2.243,0,0,0-1.523.536,2.594,2.594,0,0,0-.85,1.836c0,.874.61,1.712,1.865,2.563,3.882,2.7,8.3,3.908,14.33,3.908,10.222,0,16.573-4.715,16.573-12.3C241.57,59.923,237.9,56.558,229.653,55.8Z"
       class="cls-2" />
    <path
       id="path16"
       transform="translate(-5.841 -5.573)"
       d="M267.4,76.217a2.065,2.065,0,0,0-.97-1.84,5,5,0,0,0-2.544-.447c-3.84,0-5.87-2.219-5.87-6.42V41.649h6.5a3.47,3.47,0,0,0,2.032-.36,2,2,0,0,0,.019-3.253,3.473,3.473,0,0,0-2.051-.371h-6.5V28.372a4.311,4.311,0,0,0-.493-2.637,2.737,2.737,0,0,0-4.433,0,4.306,4.306,0,0,0-.495,2.637v9.293H249.3a3.484,3.484,0,0,0-2.032.359,2,2,0,0,0-.018,3.254,3.471,3.471,0,0,0,2.05.371h3.291V67.722c0,5.213,2.678,10.783,10.193,10.783h1.1a5,5,0,0,0,2.551-.451A2.061,2.061,0,0,0,267.4,76.217Z"
       class="cls-2" />
    <path
       id="path18"
       transform="translate(-5.841 -5.573)"
       d="M306.073,75.077V50.688c0-8.851-5.512-13.53-15.941-13.53-4.427,0-7.566.791-10.492,2.647-2.554,1.674-3.8,3.092-3.8,4.332a2.343,2.343,0,0,0,.672,1.7,2.16,2.16,0,0,0,1.574.628,3.519,3.519,0,0,0,2.327-1,12.68,12.68,0,0,1,9.676-3.775c7.235,0,10.6,3.168,10.6,9.97v3.756H287.723c-8.633,0-14,4.472-14,11.671a11.922,11.922,0,0,0,3.066,8.236c2.576,2.619,5.927,3.688,11.564,3.688,4.806,0,7.648-.875,10.484-3.229.386-.321.781-.677,1.173-1.06l.637-.62v.889a4.454,4.454,0,0,0,.5,2.721,2.737,2.737,0,0,0,4.431,0A4.306,4.306,0,0,0,306.073,75.077Zm-5.379-10.948c0,3.613-.721,5.995-2.27,7.5-2.8,2.711-6.2,2.938-9.432,2.938-6.615,0-9.97-2.53-9.97-7.519,0-5.056,3.243-7.729,9.378-7.729h12.294Z"
       class="cls-2" />
    <g
       id="g24">
      <path
         id="path20"
         transform="translate(-5.841 -5.573)"
         d="M325.22,75.077V41.094a4.3,4.3,0,0,0-.494-2.636,2.735,2.735,0,0,0-4.431,0,4.294,4.294,0,0,0-.5,2.636V75.077a4.3,4.3,0,0,0,.5,2.636,2.737,2.737,0,0,0,4.431,0A4.3,4.3,0,0,0,325.22,75.077Z"
         class="cls-2" />
      <path
         id="path22"
         transform="translate(-5.841 -5.573)"
         d="M322.51,25.5a3.81,3.81,0,1,0-3.809-3.81A3.814,3.814,0,0,0,322.51,25.5Z"
         class="cls-2" />
    </g>
    <path
       id="path26"
       transform="translate(-5.841 -5.573)"
       d="M371.546,75.077V52.3c0-4.829-1.413-8.649-4.2-11.354-2.515-2.476-6.151-3.783-10.515-3.783a14.872,14.872,0,0,0-11.387,4.948l-.654.728v-1.74a4.3,4.3,0,0,0-.5-2.636,2.735,2.735,0,0,0-4.431,0,4.3,4.3,0,0,0-.5,2.636V75.077a4.443,4.443,0,0,0,.5,2.642,2.738,2.738,0,0,0,4.428-.006,4.437,4.437,0,0,0,.5-2.636V53.351c0-7.276,3.926-11.449,10.772-11.449,6.811,0,10.562,4.066,10.562,11.449V75.077a4.443,4.443,0,0,0,.5,2.642,2.568,2.568,0,0,0,2.212,1.124,2.6,2.6,0,0,0,2.215-1.13A4.427,4.427,0,0,0,371.546,75.077Z"
       class="cls-2" />
    <path
       id="path28"
       transform="translate(-5.841 -5.573)"
       d="M413.9,75.077V50.688c0-8.851-5.512-13.53-15.94-13.53-4.428,0-7.567.791-10.493,2.647-2.554,1.674-3.8,3.092-3.8,4.332a2.339,2.339,0,0,0,.672,1.7,2.156,2.156,0,0,0,1.573.628,3.519,3.519,0,0,0,2.327-1,12.682,12.682,0,0,1,9.677-3.775c7.234,0,10.6,3.168,10.6,9.97v3.756h-12.97c-8.633,0-14,4.472-14,11.671a11.926,11.926,0,0,0,3.066,8.236c2.576,2.619,5.928,3.688,11.564,3.688,5.36,0,8.41-1.122,11.657-4.289l.637-.621v.89a4.454,4.454,0,0,0,.5,2.721,2.737,2.737,0,0,0,4.431,0A4.306,4.306,0,0,0,413.9,75.077Zm-5.379-10.948c0,3.613-.72,5.995-2.269,7.5-2.8,2.711-6.2,2.938-9.433,2.938-6.615,0-9.97-2.53-9.97-7.519,0-5.056,3.243-7.729,9.378-7.729h12.294Z"
       class="cls-2" />
    <path
       id="path30"
       transform="translate(-5.841 -5.573)"
       d="M453.824,40.683c-2.239-2.241-5.841-3.525-9.879-3.525-4.375,0-8,.882-11.458,5.185l-.667.83V22.5a4.306,4.306,0,0,0-.5-2.637,2.735,2.735,0,0,0-4.431,0,4.3,4.3,0,0,0-.5,2.637v52.58a4.3,4.3,0,0,0,.5,2.636,2.737,2.737,0,0,0,4.431,0,4.306,4.306,0,0,0,.5-2.636V72.812l.67.849c3.5,4.441,7.111,5.351,11.455,5.351,4.038,0,7.64-1.284,9.879-3.525,4.523-4.523,5.047-12.1,5.047-17.4S458.347,45.206,453.824,40.683Zm-11.19,33.585c-9.529,0-10.814-8.181-10.814-16.182S433.105,41.9,442.634,41.9s10.816,8.181,10.816,16.184S452.165,74.268,442.634,74.268Z"
       class="cls-2" />
    <path
       id="path32"
       transform="translate(-5.841 -5.573)"
       d="M485.162,76.217a2.061,2.061,0,0,0-.971-1.84,4.994,4.994,0,0,0-2.543-.447c-3.84,0-5.869-2.219-5.869-6.42V22.5a4.306,4.306,0,0,0-.5-2.637,2.736,2.736,0,0,0-4.432,0,4.306,4.306,0,0,0-.495,2.637V67.722c0,5.213,2.678,10.783,10.192,10.783h1.1a5,5,0,0,0,2.551-.451A2.059,2.059,0,0,0,485.162,76.217Z"
       class="cls-2" />
    <path
       id="path34"
       transform="translate(-5.841 -5.573)"
       d="M507.009,37.158c-10.51,0-16.786,7.823-16.786,20.928,0,13.69,6.17,20.926,17.843,20.926a20.343,20.343,0,0,0,10.164-2.357c3.41-2.1,4.127-3.556,4.127-4.41a2.421,2.421,0,0,0-2.245-2.288c-.773,0-1.315.286-2.633,1.391a13.923,13.923,0,0,1-9.16,3.089c-8.082,0-12.717-5.39-12.717-14.788v-.375h24.933a3.064,3.064,0,0,0,2.44-.693,3.41,3.41,0,0,0,.735-2.525C523.625,44.4,517.226,37.158,507.009,37.158ZM495.586,55.375l.016-.392A17.778,17.778,0,0,1,496.94,48.1a11.087,11.087,0,0,1,20.137,0,17.768,17.768,0,0,1,1.339,6.889l.016.392Z"
       class="cls-2" />
    <path
       id="path36"
       transform="translate(-5.841 -5.573)"
       d="M158.059,157.267a5.16,5.16,0,0,0-.924-2.733l-12.723-22.211.5-.106c8.045-1.706,12.847-7.6,12.847-15.779,0-9.94-6.887-16.363-17.546-16.363H120.985a2.942,2.942,0,0,0-3.555,3.555v52.2c0,1.681.085,2.132.534,2.843a2.924,2.924,0,0,0,4.691,0c.449-.711.534-1.162.534-2.843V132.8H138.11l14.056,24.577c.779,1.353,1.541,2.474,2.971,2.474a3.132,3.132,0,0,0,1.46-.414A2.515,2.515,0,0,0,158.059,157.267Zm-34.87-29.381V105.073h16.436c7.752,0,12.379,4.28,12.379,11.449,0,7.116-4.627,11.364-12.379,11.364Z"
       class="cls-2" />
    <path
       id="path38"
       transform="translate(-5.841 -5.573)"
       d="M181.725,118.165c-10.51,0-16.785,7.823-16.785,20.927,0,13.691,6.17,20.928,17.842,20.928a20.345,20.345,0,0,0,10.164-2.357c3.411-2.1,4.127-3.557,4.127-4.411a2.421,2.421,0,0,0-2.245-2.288c-.774,0-1.315.286-2.633,1.392a13.923,13.923,0,0,1-9.159,3.088c-8.082,0-12.718-5.39-12.718-14.788v-.375h24.933a3.062,3.062,0,0,0,2.44-.693,3.408,3.408,0,0,0,.735-2.524C198.341,125.408,191.942,118.165,181.725,118.165ZM170.3,136.382l.017-.391a17.742,17.742,0,0,1,1.338-6.888,11.086,11.086,0,0,1,20.137,0,17.744,17.744,0,0,1,1.337,6.889l.018.391Z"
       class="cls-2" />
    <path
       id="path40"
       transform="translate(-5.841 -5.573)"
       d="M227.172,136.8l-6.68-.634c-5.291-.493-7.652-2.459-7.652-6.375,0-4.59,3.526-7.223,9.674-7.223a19.954,19.954,0,0,1,9.473,2.283,4.525,4.525,0,0,0,2.151.761,2.164,2.164,0,0,0,1.669-.768,2.552,2.552,0,0,0,.576-1.393,2.056,2.056,0,0,0-.4-1.351,5.3,5.3,0,0,0-1.93-1.4,24.754,24.754,0,0,0-11.456-2.581c-8.927,0-14.926,4.758-14.926,11.84,0,6.534,3.953,10.061,12.085,10.785l6.849.634c4.961.443,7.272,2.482,7.272,6.417,0,3.507-1.987,7.687-11.449,7.687-4.643,0-8.087-.986-11.166-3.2a4.722,4.722,0,0,0-2.571-1.114,2.247,2.247,0,0,0-1.523.537,2.592,2.592,0,0,0-.849,1.836c0,.873.61,1.712,1.864,2.564,3.882,2.7,8.3,3.908,14.329,3.908,10.223,0,16.575-4.715,16.575-12.305C239.089,140.931,235.413,137.566,227.172,136.8Z"
       class="cls-2" />
    <path
       id="path42"
       transform="translate(-5.841 -5.573)"
       d="M281.4,156.084V122.1a4.441,4.441,0,0,0-.5-2.642,2.738,2.738,0,0,0-4.429,0,4.443,4.443,0,0,0-.5,2.637v21.725c0,7.277-3.926,11.449-10.772,11.449-6.81,0-10.561-4.065-10.561-11.449V122.1a4.436,4.436,0,0,0-.5-2.642,2.57,2.57,0,0,0-2.212-1.125,2.607,2.607,0,0,0-2.217,1.13,4.45,4.45,0,0,0-.494,2.637v22.782c0,4.829,1.412,8.649,4.2,11.354,2.516,2.475,6.152,3.783,10.516,3.783a14.871,14.871,0,0,0,11.386-4.948l.654-.728v1.74a4.3,4.3,0,0,0,.5,2.636,2.736,2.736,0,0,0,4.432,0A4.308,4.308,0,0,0,281.4,156.084Z"
       class="cls-2" />
    <path
       id="path44"
       transform="translate(-5.841 -5.573)"
       d="M309.928,157.225a2.063,2.063,0,0,0-.97-1.841,4.994,4.994,0,0,0-2.543-.447c-3.84,0-5.869-2.22-5.869-6.419V103.5a4.3,4.3,0,0,0-.5-2.637,2.737,2.737,0,0,0-4.431,0,4.3,4.3,0,0,0-.494,2.637v45.225c0,5.213,2.677,10.784,10.191,10.784h1.1a4.971,4.971,0,0,0,2.549-.452A2.057,2.057,0,0,0,309.928,157.225Z"
       class="cls-2" />
    <path
       id="path46"
       transform="translate(-5.841 -5.573)"
       d="M333.9,157.225a2.062,2.062,0,0,0-.971-1.841,4.994,4.994,0,0,0-2.543-.447c-3.839,0-5.87-2.22-5.87-6.419V122.656h6.5a3.484,3.484,0,0,0,2.033-.36,2,2,0,0,0,.017-3.253,3.475,3.475,0,0,0-2.05-.371h-6.5v-9.293a4.3,4.3,0,0,0-.494-2.637,2.737,2.737,0,0,0-4.431,0,4.3,4.3,0,0,0-.5,2.637v9.293H315.8a3.48,3.48,0,0,0-2.032.36,2,2,0,0,0-.017,3.253,3.471,3.471,0,0,0,2.049.371h3.291v26.073c0,5.213,2.678,10.784,10.193,10.784h1.1a4.978,4.978,0,0,0,2.55-.452A2.057,2.057,0,0,0,333.9,157.225Z"
       class="cls-2" />
    <path
       id="path48"
       transform="translate(-5.841 -5.573)"
       d="M360.993,136.8l-6.68-.634c-5.291-.493-7.651-2.459-7.651-6.375,0-4.59,3.526-7.223,9.674-7.223a19.946,19.946,0,0,1,9.471,2.283,4.528,4.528,0,0,0,2.152.761,2.169,2.169,0,0,0,1.67-.768,2.568,2.568,0,0,0,.575-1.393,2.056,2.056,0,0,0-.4-1.351,5.294,5.294,0,0,0-1.93-1.4,24.747,24.747,0,0,0-11.455-2.581c-8.928,0-14.926,4.758-14.926,11.84,0,6.534,3.953,10.061,12.085,10.785l6.848.634c4.961.443,7.273,2.482,7.273,6.417,0,3.507-1.986,7.687-11.449,7.687-4.643,0-8.087-.986-11.166-3.2a4.72,4.72,0,0,0-2.571-1.114,2.247,2.247,0,0,0-1.523.537,2.594,2.594,0,0,0-.85,1.836c0,.873.611,1.712,1.865,2.564,3.881,2.7,8.3,3.908,14.33,3.908,10.222,0,16.573-4.715,16.573-12.305C372.909,140.931,369.234,137.566,360.993,136.8Z"
       class="cls-2" />
    <path
       id="path50"
       transform="translate(-5.841 -5.573)"
       d="M440.241,157.014a2.413,2.413,0,0,0-1.059-2.055,4.391,4.391,0,0,0-2.581-.445H409.259V103.757c0-1.681-.085-2.132-.534-2.842a2.923,2.923,0,0,0-4.69,0c-.449.711-.534,1.163-.534,2.842v52.2a2.942,2.942,0,0,0,3.555,3.556H436.6a4.388,4.388,0,0,0,2.6-.454A2.409,2.409,0,0,0,440.241,157.014Z"
       class="cls-2" />
    <path
       id="path52"
       transform="translate(-5.841 -5.573)"
       d="M478.579,156.084V131.7c0-8.852-5.512-13.531-15.941-13.531-4.427,0-7.566.792-10.492,2.647-2.555,1.673-3.8,3.092-3.8,4.333a2.342,2.342,0,0,0,.672,1.7,2.162,2.162,0,0,0,1.573.629,3.524,3.524,0,0,0,2.328-1A12.681,12.681,0,0,1,462.6,122.7c7.235,0,10.6,3.168,10.6,9.97v3.756H460.229c-8.633,0-14,4.473-14,11.671a11.926,11.926,0,0,0,3.065,8.236c2.578,2.619,5.929,3.689,11.565,3.689,5.359,0,8.409-1.122,11.657-4.289l.637-.622V156a4.45,4.45,0,0,0,.5,2.721,2.735,2.735,0,0,0,4.431,0A4.3,4.3,0,0,0,478.579,156.084ZM473.2,145.137c0,3.612-.721,5.994-2.27,7.5-2.8,2.711-6.2,2.938-9.432,2.938-6.616,0-9.97-2.529-9.97-7.518,0-5.056,3.243-7.729,9.378-7.729H473.2Z"
       class="cls-2" />
    <path
       id="path54"
       transform="translate(-5.841 -5.573)"
       d="M518.843,121.69c-2.24-2.24-5.84-3.525-9.879-3.525-4.375,0-8,.882-11.458,5.186l-.667.83V103.5a4.3,4.3,0,0,0-.5-2.637,2.736,2.736,0,0,0-4.43,0,4.294,4.294,0,0,0-.5,2.637v52.58a4.3,4.3,0,0,0,.494,2.636,2.735,2.735,0,0,0,4.431,0,4.3,4.3,0,0,0,.5-2.636v-2.265l.67.849c3.5,4.442,7.113,5.352,11.455,5.352,4.039,0,7.639-1.285,9.879-3.525,4.524-4.524,5.047-12.1,5.047-17.4S523.367,126.213,518.843,121.69Zm-11.189,33.585c-9.529,0-10.815-8.18-10.815-16.183s1.286-16.182,10.815-16.182,10.815,8.18,10.815,16.182S517.184,155.275,507.654,155.275Z"
       class="cls-2" />
    <rect
       id="rect56"
       height="2.202"
       width="4.792"
       y="27.85"
       x="111.767"
       class="cls-2" />
  </g>
</svg>
