<svg width="69" height="133" viewBox="0 0 69 133" fill="none" xmlns="http://www.w3.org/2000/svg">
<path d="M60.7024 9.17747C60.7024 9.17747 60.8653 1.27992 61.8591 0.811994C62.8528 0.344067 63.4928 4.4731 63.4928 4.4731C63.4928 4.4731 66.8909 5.45648 67.2366 6.27401C67.5823 7.09155 62.8979 10.7109 62.8979 10.7109L60.7024 9.17747Z" stroke="#546169" stroke-width="1.5" stroke-miterlimit="10" stroke-linecap="round" stroke-linejoin="round"/>
<path d="M21.9434 24.3943C21.9434 24.3943 17.7239 19.2666 16.3877 15.593C14.9812 11.6898 17.5129 5.56708 22.0138 6.17935C26.5146 6.79161 27.0772 10.6948 25.741 12.9143C24.4752 15.1338 24.4048 20.4911 25.6707 21.5626C26.9365 22.7106 22.8577 24.9301 21.9434 24.3943Z" fill="white" stroke="#546169" stroke-width="1.5" stroke-miterlimit="10" stroke-linecap="round" stroke-linejoin="round"/>
<path fill-rule="evenodd" clip-rule="evenodd" d="M66.0627 9.75656L59.2755 7.49414C59.2755 7.49414 55.6293 23.706 48.6671 24.7009C44.7289 25.2367 41.2829 23.6294 38.5402 22.0222C36.5711 20.9508 31.2967 20.5681 28.4837 20.8742C20.6776 21.7161 16.1064 23.2468 11.6759 28.0684C5.76861 34.2676 1.83039 41.3852 0.14258 50.4927C-1.54523 59.6002 12.3089 68.6311 12.3089 68.6311C12.3089 69.0344 15.4032 82.9323 16.9503 89.8309L42.4785 85.0093C42.4785 85.0093 46.4167 64.0391 44.9398 45.1353V43.7578C44.9398 43.7806 44.9838 43.6564 45.0681 43.4186C45.5474 42.0657 47.3295 37.0358 49.722 34.4972C53.9623 31.9818 63.1668 23.5121 66.0627 9.75656ZM9.95466 46.8605L11.3121 60.8875C9.50217 60.2842 8.14471 58.6251 7.23975 54.1003C6.5263 50.533 8.74803 46.8605 9.95466 46.8605Z" fill="#27DAD0"/>
<path d="M18.7084 89.6006C18.7084 90.1363 22.0137 127.867 22.0137 127.867H26.5146V88.1465" stroke="#546169" stroke-width="1.5" stroke-miterlimit="10" stroke-linecap="round" stroke-linejoin="round"/>
<path d="M32.9142 87.0747C32.9142 87.7635 37.4854 128.173 37.4854 128.173L42.4082 127.867L41.7752 85.3145" stroke="#546169" stroke-width="1.5" stroke-miterlimit="10" stroke-linecap="round" stroke-linejoin="round"/>
<path d="M22.0138 127.791C21.5215 127.791 21.8028 130.929 21.4512 130.929C21.0996 130.929 31.8593 131.082 31.8593 131.082L31.4374 129.398C31.1561 128.939 30.8045 128.633 30.3122 128.556L26.4443 127.791H22.0138Z" stroke="#546169" stroke-width="1.5" stroke-miterlimit="10" stroke-linecap="round" stroke-linejoin="round"/>
<path d="M37.837 127.791C37.3447 127.791 37.626 130.929 37.2744 130.929C36.9227 130.929 47.6825 131.082 47.6825 131.082L47.2606 129.398C46.9793 128.939 46.6276 128.633 46.1354 128.556L42.2675 127.791H37.837Z" stroke="#546169" stroke-width="1.5" stroke-miterlimit="10" stroke-linecap="round" stroke-linejoin="round"/>
<path d="M12.5901 131.312H63.7167" stroke="#546169" stroke-width="1.5" stroke-miterlimit="10" stroke-linecap="round" stroke-linejoin="round"/>
</svg>
