<svg width="763" height="573" viewBox="0 0 763 573" fill="none" xmlns="http://www.w3.org/2000/svg">
<path d="M149.716 101L36 101" stroke="#546169" stroke-width="1.5" stroke-miterlimit="10" stroke-linecap="round" stroke-linejoin="round"/>
<path d="M116.455 19.0136C116.455 19.0136 117.808 14.5612 117.583 11.8549C117.357 9.01759 113.747 6.13666 110.859 7.88268C107.971 9.6287 108.738 12.2477 110.318 13.1644C111.897 14.1247 113.522 17.3548 112.98 18.4461C112.484 19.5374 115.958 19.6247 116.455 19.0136Z" fill="white" stroke="#546169" stroke-width="1.5" stroke-miterlimit="10" stroke-linecap="round" stroke-linejoin="round"/>
<path d="M104.899 66.857C104.899 67.251 107.029 98.2757 107.029 98.2757L110.795 98.3249L111.588 66.2168" stroke="#546169" stroke-width="1.5" stroke-miterlimit="10" stroke-linecap="round" stroke-linejoin="round"/>
<path d="M116.27 66.0424C116.27 66.5379 120.083 98.9928 120.083 98.9928L124.297 98.7946L124.197 65.5469" stroke="#546169" stroke-width="1.5" stroke-miterlimit="10" stroke-linecap="round" stroke-linejoin="round"/>
<path d="M107.406 98.3242C107.011 98.3242 107.209 100.798 106.913 100.798C106.616 100.798 115.601 101 115.601 101L115.305 99.6873C115.108 99.3339 114.762 99.0815 114.367 99.031L111.158 98.3747L107.406 98.3242Z" stroke="#546169" stroke-width="1.5" stroke-miterlimit="10" stroke-linecap="round" stroke-linejoin="round"/>
<path d="M120.116 98.3242C119.721 98.3242 119.918 100.798 119.622 100.798C119.326 100.798 128.311 101 128.311 101L128.015 99.6873C127.817 99.3339 127.472 99.0815 127.077 99.031L123.868 98.3747L120.116 98.3242Z" stroke="#546169" stroke-width="1.5" stroke-miterlimit="10" stroke-linecap="round" stroke-linejoin="round"/>
<path d="M103.561 66.8848C103.908 55.6511 104.256 44.3688 104.653 33.1351C104.752 30.0227 104.851 26.8617 106.042 23.8953C107.233 20.9774 109.714 18.3028 113.039 17.5733C117.058 16.6979 121.276 18.9836 123.609 22.0959C125.891 25.2569 126.636 29.0988 127.182 32.8433C128.67 43.5421 128.67 54.4353 127.281 65.1341L103.561 66.8848Z" fill="#FF5533"/>
<path d="M45.3649 66.857C45.3649 67.251 47.2824 98.2757 47.2824 98.2757L50.6716 98.3249L51.3851 66.2168" stroke="#546169" stroke-width="1.5" stroke-miterlimit="10" stroke-linecap="round" stroke-linejoin="round"/>
<path d="M53.3919 66.0424C53.3919 66.5379 57.2047 98.9928 57.2047 98.9928L61.4189 98.7946L61.3186 65.5469" stroke="#546169" stroke-width="1.5" stroke-miterlimit="10" stroke-linecap="round" stroke-linejoin="round"/>
<path d="M47.2035 98.3242C46.8086 98.3242 47.0061 100.798 46.7099 100.798C46.4137 100.798 55.3986 101 55.3986 101L55.1024 99.6873C54.905 99.3339 54.5594 99.0815 54.1644 99.031L50.9555 98.3747L47.2035 98.3242Z" stroke="#546169" stroke-width="1.5" stroke-miterlimit="10" stroke-linecap="round" stroke-linejoin="round"/>
<path d="M57.9063 98.3242C57.5113 98.3242 57.7088 100.798 57.4126 100.798C57.1164 100.798 66.1014 101 66.1014 101L65.8052 99.6873C65.6077 99.3339 65.2621 99.0815 64.8672 99.031L61.6582 98.3747L57.9063 98.3242Z" stroke="#546169" stroke-width="1.5" stroke-miterlimit="10" stroke-linecap="round" stroke-linejoin="round"/>
<path d="M84.1972 22.6258C84.1972 22.6258 81.5243 18.6086 80.9038 15.8859C80.2832 13.0293 83.0994 9.23536 86.5838 10.1727C90.0205 11.1546 90.0205 13.8774 88.684 15.261C87.3475 16.6001 86.6793 20.2601 87.5384 21.1528C88.3976 22.0901 84.8655 23.0721 84.1972 22.6258Z" fill="white" stroke="#546169" stroke-width="1.5" stroke-miterlimit="10" stroke-linecap="round" stroke-linejoin="round"/>
<path d="M87.5067 65.3679C87.5067 65.7591 89.7313 98.276 89.7313 98.276L93.5737 98.3249L96.2027 64.8789" stroke="#546169" stroke-width="1.5" stroke-miterlimit="10" stroke-linecap="round" stroke-linejoin="round"/>
<path d="M90.0144 98.3242C89.6194 98.3242 89.8169 100.798 89.5207 100.798C89.2245 100.798 98.2095 101 98.2095 101L97.9133 99.6873C97.7158 99.3339 97.3702 99.0815 96.9753 99.031L93.7663 98.3747L90.0144 98.3242Z" stroke="#546169" stroke-width="1.5" stroke-miterlimit="10" stroke-linecap="round" stroke-linejoin="round"/>
<path d="M76.804 64.8789C76.804 65.2684 79.0286 98.2762 79.0286 98.2762L82.871 98.3249L85.5 65.025" stroke="#546169" stroke-width="1.5" stroke-miterlimit="10" stroke-linecap="round" stroke-linejoin="round"/>
<path d="M79.3117 98.3242C78.9167 98.3242 79.1142 100.798 78.818 100.798C78.5218 100.798 87.5068 101 87.5068 101L87.2106 99.6873C87.0131 99.3339 86.6675 99.0815 86.2726 99.031L83.0636 98.3747L79.3117 98.3242Z" stroke="#546169" stroke-width="1.5" stroke-miterlimit="10" stroke-linecap="round" stroke-linejoin="round"/>
<path d="M98.8784 65.548C97.7978 54.2458 97.4049 45.8429 96.3243 34.4915C96.0296 31.3466 95.6858 28.1525 94.3105 25.3023C92.9353 22.4522 90.3321 19.1598 86.9922 19.4055C75.106 20.3392 75.106 41.4203 75.106 41.4203C75.106 41.4203 73.9763 54.2949 76.0392 65.0074L98.8784 65.548Z" fill="#1ADCD0"/>
<path d="M73.6016 8.68919C73.6016 8.68919 70.2646 5.00061 70.8535 4.5088C71.4423 4.01699 73.0127 5.59078 73.0127 5.59078C73.0127 5.59078 72.0803 2.34483 72.7673 2.29565C73.4544 2.24647 74.0432 5.14815 74.0432 5.14815C74.0432 5.14815 74.2886 1.95138 74.9756 2.00056C75.6627 2.04974 75.0738 5.29569 75.0738 5.29569C75.0738 5.29569 75.908 3.13173 76.5951 3.32845C77.2821 3.52517 76.0553 6.27931 76.0553 6.27931L75.908 8.59083L73.6016 8.68919Z" fill="white" stroke="#546169" stroke-miterlimit="10" stroke-linecap="round" stroke-linejoin="round"/>
<path d="M48.2831 19.342C48.2831 19.342 45.2513 16.0076 44.3119 13.5709C43.2871 11.0059 45.1232 7.03026 48.2831 7.37225C51.443 7.75699 51.87 10.3219 50.9733 11.7754C50.0339 13.2289 50.0339 16.7343 50.9306 17.4611C51.8273 18.1878 48.9663 19.684 48.2831 19.342Z" fill="white" stroke="#546169" stroke-width="1.5" stroke-miterlimit="10" stroke-linecap="round" stroke-linejoin="round"/>
<path d="M77.3792 8.01953L72.8936 8.16704C72.8936 8.16704 76.1603 18.8368 70.5045 19.6235C67.2866 20.066 64.4587 18.8368 62.2647 17.6075C60.6557 16.8208 56.3651 16.5258 54.0736 16.7717C51.0019 17.0667 48.5641 17.5092 46.4676 18.2959C43.6885 19.2793 41.6407 21.6394 40.9581 24.5404C37.4964 39.0945 44.6636 68.8912 44.6636 68.8912L65.4826 65.2526C65.4826 65.2526 67.3841 38.8487 67.4816 35.2102C67.5791 31.5716 68.5055 28.474 71.3821 27.0481C84.9364 20.3119 77.3792 8.01953 77.3792 8.01953Z" fill="#FF5533"/>
<g clip-path="url(#clip0)">
<path d="M553 73C553 113.319 585.595 146 625.809 146C652.255 146 675.382 131.869 688.116 110.7C692.687 103.171 695.897 94.7145 697.476 85.7668C694.864 86.5306 692.088 86.9126 689.204 86.9126C672.39 86.9126 658.731 73.2182 658.731 56.3595C658.731 41.9559 668.635 29.8984 682.021 26.6794C668.744 10.3662 648.501 0 625.809 0C585.595 0 553 32.6809 553 73Z" fill="white"/>
<path d="M714.726 24.2793V129.851" stroke="#546169" stroke-width="1.5" stroke-miterlimit="10" stroke-linecap="round" stroke-linejoin="round"/>
<path d="M661.996 24.2793V129.851" stroke="#546169" stroke-width="1.5" stroke-miterlimit="10" stroke-linecap="round" stroke-linejoin="round"/>
<path d="M759.565 34.8633L756.463 37.0456L753.361 34.8633L750.205 37.0456L747.103 34.8633L743.947 37.0456L740.845 34.8633L737.689 37.0456L734.588 34.8633L731.431 37.0456L728.33 34.8633L725.173 37.0456" stroke="#546169" stroke-width="1.5" stroke-miterlimit="10" stroke-linecap="round" stroke-linejoin="round"/>
<path d="M759.565 56.1953L756.463 58.3777L753.361 56.1953L750.205 58.3777L747.103 56.1953L743.947 58.3777L740.845 56.1953L737.689 58.3777L734.588 56.1953L731.431 58.3777L728.33 56.1953L725.173 58.3777" stroke="#546169" stroke-width="1.5" stroke-miterlimit="10" stroke-linecap="round" stroke-linejoin="round"/>
<path d="M759.565 77.5293L756.463 79.7662L753.361 77.5293L750.205 79.7662L747.103 77.5293L743.947 79.7662L740.845 77.5293L737.689 79.7662L734.588 77.5293L731.431 79.7662L728.33 77.5293L725.173 79.7662" stroke="#546169" stroke-width="1.5" stroke-miterlimit="10" stroke-linecap="round" stroke-linejoin="round"/>
<path d="M716.576 53.5215L711.461 61.1052L706.291 53.5215L701.176 61.1052L696.061 53.5215L690.891 61.1052L685.776 53.5215L680.661 61.1052L675.491 53.5215L670.376 61.1052L665.261 53.5215L660.091 61.1052" stroke="#546169" stroke-width="1.5" stroke-miterlimit="10" stroke-linecap="round" stroke-linejoin="round"/>
<path d="M759.565 98.8613L756.463 101.098L753.361 98.8613L750.205 101.098L747.103 98.8613L743.947 101.098L740.845 98.8613L737.689 101.098L734.588 98.8613L731.431 101.098L728.33 98.8613L725.173 101.098" stroke="#546169" stroke-width="1.5" stroke-miterlimit="10" stroke-linecap="round" stroke-linejoin="round"/>
<path d="M759.565 119.594L756.463 121.776L753.361 119.594L750.205 121.776L747.103 119.594L743.947 121.776L740.845 119.594L737.689 121.776L734.588 119.594L731.431 121.776L728.33 119.594L725.173 121.776" stroke="#546169" stroke-width="1.5" stroke-miterlimit="10" stroke-linecap="round" stroke-linejoin="round"/>
<path d="M652.255 34.8633L649.154 37.0456L645.998 34.8633L642.896 37.0456L639.794 34.8633L636.638 37.0456L633.536 34.8633L630.38 37.0456L627.278 34.8633L624.122 37.0456L621.02 34.8633L617.864 37.0456" stroke="#546169" stroke-width="1.5" stroke-miterlimit="10" stroke-linecap="round" stroke-linejoin="round"/>
<path d="M652.255 56.1953L649.154 58.3777L645.998 56.1953L642.896 58.3777L639.794 56.1953L636.638 58.3777L633.536 56.1953L630.38 58.3777L627.278 56.1953L624.122 58.3777L621.02 56.1953L617.864 58.3777" stroke="#546169" stroke-width="1.5" stroke-miterlimit="10" stroke-linecap="round" stroke-linejoin="round"/>
<path d="M652.255 77.5293L649.154 79.7662L645.998 77.5293L642.896 79.7662L639.794 77.5293L636.638 79.7662L633.536 77.5293L630.38 79.7662L627.278 77.5293L624.122 79.7662L621.02 77.5293L617.864 79.7662" stroke="#546169" stroke-width="1.5" stroke-miterlimit="10" stroke-linecap="round" stroke-linejoin="round"/>
<path d="M652.255 98.8613L649.154 101.098L645.998 98.8613L642.896 101.098L639.794 98.8613L636.638 101.098L633.536 98.8613L630.38 101.098L627.278 98.8613L624.122 101.098L621.02 98.8613L617.864 101.098" stroke="#546169" stroke-width="1.5" stroke-miterlimit="10" stroke-linecap="round" stroke-linejoin="round"/>
<path d="M652.255 119.594L649.154 121.776L645.998 119.594L642.896 121.776L639.794 119.594L636.638 121.776L633.536 119.594L630.38 121.776L627.278 119.594L624.122 121.776L621.02 119.594L617.864 121.776" stroke="#546169" stroke-width="1.5" stroke-miterlimit="10" stroke-linecap="round" stroke-linejoin="round"/>
<path d="M705.91 98.8613L702.808 101.098L699.707 98.8613L696.55 101.098L693.449 98.8613L690.293 101.098L687.191 98.8613L684.035 101.098L680.933 98.8613L677.777 101.098L674.675 98.8613L671.519 101.098" stroke="#546169" stroke-width="1.5" stroke-miterlimit="10" stroke-linecap="round" stroke-linejoin="round"/>
<path d="M705.91 119.594L702.808 121.776L699.707 119.594L696.55 121.776L693.449 119.594L690.293 121.776L687.191 119.594L684.035 121.776L680.933 119.594L677.777 121.776L674.675 119.594L671.519 121.776" stroke="#546169" stroke-width="1.5" stroke-miterlimit="10" stroke-linecap="round" stroke-linejoin="round"/>
<path d="M716.948 69.1546L720.011 70.9277L716.501 77.0227L713.438 75.2496L716.948 69.1546Z" fill="white" stroke="#546169" stroke-width="1.5" stroke-miterlimit="10" stroke-linecap="round" stroke-linejoin="round"/>
<path d="M720.842 68.7747L750.436 85.9062L744.858 95.5921L715.264 78.4606L720.842 68.7747Z" fill="white" stroke="#546169" stroke-width="1.5" stroke-miterlimit="10" stroke-linecap="round" stroke-linejoin="round"/>
<path fill-rule="evenodd" clip-rule="evenodd" d="M688.598 87.0758C705.602 87.0758 719.386 73.299 719.386 56.3045C719.386 39.31 705.602 25.5332 688.598 25.5332C671.594 25.5332 657.81 39.31 657.81 56.3045C657.81 73.299 671.594 87.0758 688.598 87.0758ZM688.598 79.8743C701.622 79.8743 712.18 69.3219 712.18 56.3048C712.18 43.2877 701.622 32.7353 688.598 32.7353C675.574 32.7353 665.016 43.2877 665.016 56.3048C665.016 69.3219 675.574 79.8743 688.598 79.8743Z" fill="#27DAD0"/>
</g>
<path d="M85.5344 168.498L89.0055 155.543L98.4887 165.026L85.5344 168.498Z" fill="#546169"/>
<path d="M100.007 395.38L86.7115 393.621L94.8829 382.986L100.007 395.38Z" fill="#546169"/>
<path d="M265.406 383.727L258.196 395.035L252.008 383.137L265.406 383.727Z" fill="#546169"/>
<path d="M543.256 155.994L536.046 167.303L529.857 155.405L543.256 155.994Z" fill="#546169"/>
<path d="M709.541 166.81L696.224 165.224L704.256 154.484L709.541 166.81Z" fill="#546169"/>
<path d="M713.462 389.913L700.052 389.799L706.855 378.242L713.462 389.913Z" fill="#546169"/>
<path d="M544.413 388.16L539.283 400.551L531.117 389.913L544.413 388.16Z" fill="#546169"/>
<path d="M269.093 161.954L261.682 173.131L255.708 161.124L269.093 161.954Z" fill="#546169"/>
<path d="M213.085 288.092C214.472 288.092 215.597 287.249 215.597 286.208C215.597 285.168 214.472 284.324 213.085 284.324C211.697 284.324 210.573 285.168 210.573 286.208C210.573 287.249 211.697 288.092 213.085 288.092Z" fill="#FD583E"/>
<path d="M572.278 236.598C573.666 236.598 574.79 235.473 574.79 234.086C574.79 232.699 573.666 231.574 572.278 231.574C570.891 231.574 569.766 232.699 569.766 234.086C569.766 235.473 570.891 236.598 572.278 236.598Z" fill="#FF5533"/>
<circle cx="176.605" cy="133.647" r="76.6474" fill="#EEF1F3"/>
<path d="M126.056 146.586C125.925 147.784 125.496 148.701 124.767 149.336C124.043 149.971 123.076 150.289 121.868 150.289C121.024 150.289 120.277 150.078 119.626 149.656C118.98 149.234 118.48 148.638 118.126 147.867C117.772 147.091 117.592 146.206 117.587 145.211V143.734C117.587 142.724 117.764 141.828 118.118 141.047C118.472 140.266 118.98 139.664 119.642 139.242C120.308 138.815 121.074 138.602 121.938 138.602C123.157 138.602 124.118 138.932 124.821 139.594C125.53 140.25 125.941 141.159 126.056 142.32H125.087C124.847 140.388 123.798 139.422 121.938 139.422C120.907 139.422 120.084 139.807 119.47 140.578C118.86 141.349 118.556 142.414 118.556 143.773V145.164C118.556 146.477 118.853 147.523 119.446 148.305C120.045 149.086 120.853 149.477 121.868 149.477C122.873 149.477 123.631 149.237 124.142 148.758C124.652 148.273 124.967 147.549 125.087 146.586H126.056ZM133.61 149.062C133.048 149.88 132.149 150.289 130.915 150.289C130.014 150.289 129.329 150.029 128.86 149.508C128.392 148.982 128.152 148.206 128.142 147.18V141.68H129.071V147.062C129.071 148.672 129.722 149.477 131.024 149.477C132.379 149.477 133.235 148.917 133.595 147.797V141.68H134.532V150.133H133.626L133.61 149.062ZM142.032 147.984C142.032 147.521 141.845 147.148 141.47 146.867C141.1 146.586 140.54 146.367 139.79 146.211C139.04 146.049 138.457 145.867 138.04 145.664C137.629 145.456 137.321 145.203 137.118 144.906C136.92 144.609 136.821 144.25 136.821 143.828C136.821 143.161 137.1 142.612 137.657 142.18C138.215 141.742 138.928 141.523 139.798 141.523C140.741 141.523 141.496 141.758 142.063 142.227C142.636 142.69 142.923 143.297 142.923 144.047H141.985C141.985 143.552 141.777 143.141 141.36 142.812C140.949 142.484 140.428 142.32 139.798 142.32C139.183 142.32 138.688 142.458 138.313 142.734C137.944 143.005 137.759 143.359 137.759 143.797C137.759 144.219 137.912 144.547 138.22 144.781C138.532 145.01 139.097 145.221 139.915 145.414C140.738 145.607 141.353 145.812 141.759 146.031C142.17 146.25 142.475 146.513 142.673 146.82C142.871 147.128 142.97 147.5 142.97 147.938C142.97 148.651 142.681 149.221 142.103 149.648C141.53 150.076 140.78 150.289 139.853 150.289C138.868 150.289 138.069 150.052 137.454 149.578C136.845 149.099 136.54 148.495 136.54 147.766H137.478C137.514 148.312 137.743 148.74 138.165 149.047C138.592 149.349 139.155 149.5 139.853 149.5C140.504 149.5 141.03 149.357 141.431 149.07C141.832 148.784 142.032 148.422 142.032 147.984ZM146.532 139.516V141.68H148.282V142.445H146.532V148.078C146.532 148.547 146.616 148.896 146.782 149.125C146.954 149.354 147.238 149.469 147.634 149.469C147.79 149.469 148.043 149.443 148.392 149.391L148.431 150.156C148.186 150.245 147.853 150.289 147.431 150.289C146.79 150.289 146.324 150.104 146.032 149.734C145.741 149.359 145.595 148.81 145.595 148.086V142.445H144.04V141.68H145.595V139.516H146.532ZM149.548 145.781C149.548 144.969 149.704 144.237 150.017 143.586C150.334 142.935 150.78 142.43 151.353 142.07C151.931 141.706 152.584 141.523 153.313 141.523C154.438 141.523 155.35 141.919 156.048 142.711C156.746 143.497 157.095 144.542 157.095 145.844V146.039C157.095 146.857 156.936 147.594 156.618 148.25C156.306 148.901 155.863 149.404 155.29 149.758C154.717 150.112 154.063 150.289 153.329 150.289C152.209 150.289 151.298 149.896 150.595 149.109C149.897 148.318 149.548 147.271 149.548 145.969V145.781ZM150.485 146.039C150.485 147.049 150.746 147.88 151.267 148.531C151.793 149.177 152.48 149.5 153.329 149.5C154.173 149.5 154.855 149.177 155.376 148.531C155.902 147.88 156.165 147.023 156.165 145.961V145.781C156.165 145.135 156.045 144.544 155.806 144.008C155.566 143.471 155.23 143.057 154.798 142.766C154.366 142.469 153.871 142.32 153.313 142.32C152.48 142.32 151.8 142.648 151.274 143.305C150.748 143.956 150.485 144.81 150.485 145.867V146.039ZM159.884 141.68L159.915 143.055C160.228 142.544 160.618 142.161 161.087 141.906C161.556 141.651 162.076 141.523 162.649 141.523C163.983 141.523 164.829 142.07 165.188 143.164C165.491 142.638 165.894 142.234 166.399 141.953C166.905 141.667 167.462 141.523 168.071 141.523C169.884 141.523 170.808 142.513 170.845 144.492V150.133H169.907V144.562C169.902 143.807 169.738 143.247 169.415 142.883C169.097 142.518 168.576 142.336 167.853 142.336C167.181 142.346 166.613 142.565 166.149 142.992C165.686 143.414 165.428 143.93 165.376 144.539V150.133H164.438V144.492C164.433 143.768 164.261 143.229 163.923 142.875C163.59 142.516 163.074 142.336 162.376 142.336C161.787 142.336 161.282 142.505 160.86 142.844C160.438 143.177 160.126 143.674 159.923 144.336V150.133H158.985V141.68H159.884ZM176.493 150.289C175.774 150.289 175.123 150.112 174.54 149.758C173.962 149.404 173.511 148.911 173.188 148.281C172.866 147.646 172.704 146.935 172.704 146.148V145.812C172.704 145 172.86 144.268 173.173 143.617C173.491 142.966 173.931 142.456 174.493 142.086C175.056 141.711 175.665 141.523 176.321 141.523C177.347 141.523 178.16 141.875 178.759 142.578C179.363 143.276 179.665 144.232 179.665 145.445V145.969H173.634V146.148C173.634 147.107 173.907 147.906 174.454 148.547C175.006 149.182 175.699 149.5 176.532 149.5C177.032 149.5 177.472 149.409 177.853 149.227C178.238 149.044 178.587 148.753 178.899 148.352L179.485 148.797C178.798 149.792 177.8 150.289 176.493 150.289ZM176.321 142.32C175.618 142.32 175.024 142.578 174.54 143.094C174.061 143.609 173.769 144.302 173.665 145.172H178.735V145.07C178.709 144.258 178.478 143.596 178.04 143.086C177.603 142.576 177.03 142.32 176.321 142.32ZM185.392 142.477C185.194 142.44 184.983 142.422 184.759 142.422C184.175 142.422 183.681 142.586 183.274 142.914C182.873 143.237 182.587 143.708 182.415 144.328V150.133H181.485V141.68H182.399L182.415 143.023C182.91 142.023 183.704 141.523 184.798 141.523C185.058 141.523 185.264 141.557 185.415 141.625L185.392 142.477ZM191.813 150.133H190.876V141.68H191.813V150.133ZM190.712 139.234C190.712 139.057 190.769 138.909 190.884 138.789C190.998 138.664 191.155 138.602 191.353 138.602C191.55 138.602 191.707 138.664 191.821 138.789C191.941 138.909 192.001 139.057 192.001 139.234C192.001 139.411 191.941 139.56 191.821 139.68C191.707 139.799 191.55 139.859 191.353 139.859C191.155 139.859 190.998 139.799 190.884 139.68C190.769 139.56 190.712 139.411 190.712 139.234ZM195.251 141.68L195.282 143.125C195.6 142.604 195.996 142.208 196.47 141.938C196.944 141.661 197.467 141.523 198.04 141.523C198.946 141.523 199.621 141.779 200.063 142.289C200.506 142.799 200.73 143.565 200.735 144.586V150.133H199.806V144.578C199.8 143.823 199.639 143.26 199.321 142.891C199.009 142.521 198.506 142.336 197.813 142.336C197.235 142.336 196.722 142.518 196.274 142.883C195.832 143.242 195.504 143.729 195.29 144.344V150.133H194.36V141.68H195.251ZM208.22 147.984C208.22 147.521 208.032 147.148 207.657 146.867C207.287 146.586 206.728 146.367 205.978 146.211C205.228 146.049 204.644 145.867 204.228 145.664C203.816 145.456 203.509 145.203 203.306 144.906C203.108 144.609 203.009 144.25 203.009 143.828C203.009 143.161 203.287 142.612 203.845 142.18C204.402 141.742 205.116 141.523 205.985 141.523C206.928 141.523 207.683 141.758 208.251 142.227C208.824 142.69 209.11 143.297 209.11 144.047H208.173C208.173 143.552 207.965 143.141 207.548 142.812C207.136 142.484 206.616 142.32 205.985 142.32C205.371 142.32 204.876 142.458 204.501 142.734C204.131 143.005 203.946 143.359 203.946 143.797C203.946 144.219 204.1 144.547 204.407 144.781C204.72 145.01 205.285 145.221 206.103 145.414C206.925 145.607 207.54 145.812 207.946 146.031C208.358 146.25 208.662 146.513 208.86 146.82C209.058 147.128 209.157 147.5 209.157 147.938C209.157 148.651 208.868 149.221 208.29 149.648C207.717 150.076 206.967 150.289 206.04 150.289C205.056 150.289 204.256 150.052 203.642 149.578C203.032 149.099 202.728 148.495 202.728 147.766H203.665C203.701 148.312 203.931 148.74 204.353 149.047C204.78 149.349 205.342 149.5 206.04 149.5C206.691 149.5 207.217 149.357 207.618 149.07C208.019 148.784 208.22 148.422 208.22 147.984ZM212.313 150.133H211.376V141.68H212.313V150.133ZM211.212 139.234C211.212 139.057 211.269 138.909 211.384 138.789C211.498 138.664 211.655 138.602 211.853 138.602C212.05 138.602 212.207 138.664 212.321 138.789C212.441 138.909 212.501 139.057 212.501 139.234C212.501 139.411 212.441 139.56 212.321 139.68C212.207 139.799 212.05 139.859 211.853 139.859C211.655 139.859 211.498 139.799 211.384 139.68C211.269 139.56 211.212 139.411 211.212 139.234ZM214.485 145.828C214.485 144.505 214.777 143.458 215.36 142.688C215.949 141.911 216.746 141.523 217.751 141.523C218.902 141.523 219.777 141.982 220.376 142.898L220.423 141.68H221.298V149.961C221.298 151.049 220.993 151.911 220.384 152.547C219.774 153.182 218.949 153.5 217.907 153.5C217.319 153.5 216.756 153.367 216.22 153.102C215.688 152.841 215.269 152.492 214.962 152.055L215.485 151.492C216.147 152.305 216.933 152.711 217.845 152.711C218.626 152.711 219.235 152.479 219.673 152.016C220.11 151.557 220.337 150.919 220.353 150.102V149.039C219.754 149.872 218.881 150.289 217.735 150.289C216.756 150.289 215.97 149.898 215.376 149.117C214.782 148.336 214.485 147.281 214.485 145.953V145.828ZM215.431 145.992C215.431 147.07 215.647 147.922 216.079 148.547C216.511 149.167 217.121 149.477 217.907 149.477C219.058 149.477 219.873 148.961 220.353 147.93V144C220.134 143.458 219.819 143.047 219.407 142.766C218.996 142.479 218.501 142.336 217.923 142.336C217.136 142.336 216.524 142.646 216.087 143.266C215.649 143.88 215.431 144.789 215.431 145.992ZM224.665 143.109C224.972 142.604 225.366 142.214 225.845 141.938C226.324 141.661 226.847 141.523 227.415 141.523C228.321 141.523 228.996 141.779 229.438 142.289C229.881 142.799 230.105 143.565 230.11 144.586V150.133H229.181V144.578C229.175 143.823 229.014 143.26 228.696 142.891C228.384 142.521 227.881 142.336 227.188 142.336C226.61 142.336 226.097 142.518 225.649 142.883C225.207 143.242 224.879 143.729 224.665 144.344V150.133H223.735V138.133H224.665V143.109ZM233.97 139.516V141.68H235.72V142.445H233.97V148.078C233.97 148.547 234.053 148.896 234.22 149.125C234.392 149.354 234.675 149.469 235.071 149.469C235.228 149.469 235.48 149.443 235.829 149.391L235.868 150.156C235.623 150.245 235.29 150.289 234.868 150.289C234.228 150.289 233.761 150.104 233.47 149.734C233.178 149.359 233.032 148.81 233.032 148.086V142.445H231.478V141.68H233.032V139.516H233.97Z" fill="#546169"/>
<path d="M147.07 104.812C148.041 104.812 148.815 104.905 149.394 105.092C149.973 105.279 150.561 105.549 151.158 105.904C151.363 106.016 151.541 106.109 151.69 106.184C151.858 106.259 151.998 106.296 152.11 106.296C152.278 106.296 152.409 106.203 152.502 106.016C152.595 105.811 152.67 105.493 152.726 105.064H153.37C153.277 106.315 153.23 108.443 153.23 111.448H152.586C152.511 110.44 152.278 109.479 151.886 108.564C151.513 107.649 150.971 106.912 150.262 106.352C149.571 105.773 148.759 105.484 147.826 105.484C146.911 105.484 146.165 105.745 145.586 106.268C145.026 106.772 144.746 107.463 144.746 108.34C144.746 108.993 144.886 109.563 145.166 110.048C145.446 110.533 145.838 110.981 146.342 111.392C146.846 111.784 147.621 112.325 148.666 113.016L149.562 113.632C150.663 114.36 151.531 114.995 152.166 115.536C152.801 116.077 153.314 116.712 153.706 117.44C154.117 118.149 154.322 118.98 154.322 119.932C154.322 121.127 154.014 122.135 153.398 122.956C152.782 123.759 151.942 124.365 150.878 124.776C149.833 125.187 148.666 125.392 147.378 125.392C146.333 125.392 145.465 125.299 144.774 125.112C144.083 124.925 143.449 124.673 142.87 124.356C142.459 124.095 142.142 123.964 141.918 123.964C141.75 123.964 141.619 124.067 141.526 124.272C141.433 124.459 141.358 124.767 141.302 125.196H140.658C140.733 124.02 140.77 121.5 140.77 117.636H141.414C141.545 119.727 142.011 121.425 142.814 122.732C143.617 124.02 144.849 124.664 146.51 124.664C147.518 124.664 148.349 124.393 149.002 123.852C149.655 123.311 149.982 122.536 149.982 121.528C149.982 120.483 149.646 119.587 148.974 118.84C148.302 118.093 147.238 117.253 145.782 116.32C144.662 115.592 143.766 114.957 143.094 114.416C142.422 113.875 141.871 113.24 141.442 112.512C141.013 111.765 140.798 110.907 140.798 109.936C140.798 108.816 141.078 107.873 141.638 107.108C142.217 106.324 142.982 105.745 143.934 105.372C144.886 104.999 145.931 104.812 147.07 104.812ZM161.826 110.524H165.13V111.084H161.826V122.396C161.826 122.956 161.919 123.357 162.106 123.6C162.311 123.824 162.628 123.936 163.058 123.936C163.86 123.936 164.495 123.376 164.962 122.256L165.438 122.508C164.728 124.431 163.45 125.392 161.602 125.392C160.37 125.392 159.436 125.075 158.802 124.44C158.41 124.048 158.139 123.563 157.99 122.984C157.859 122.387 157.794 121.575 157.794 120.548V111.084H155.442V110.524H157.794V106.828C159.343 106.828 160.687 106.529 161.826 105.932V110.524ZM174.108 123.096C175.639 123.096 176.871 122.349 177.804 120.856L178.308 121.024C177.935 122.237 177.263 123.273 176.292 124.132C175.34 124.972 174.145 125.392 172.708 125.392C170.729 125.392 169.152 124.767 167.976 123.516C166.819 122.247 166.24 120.38 166.24 117.916C166.24 115.396 166.865 113.473 168.116 112.148C169.367 110.804 171.028 110.132 173.1 110.132C176.609 110.132 178.364 112.204 178.364 116.348H170.496C170.477 116.628 170.468 117.067 170.468 117.664C170.468 118.896 170.636 119.923 170.972 120.744C171.327 121.565 171.775 122.163 172.316 122.536C172.876 122.909 173.473 123.096 174.108 123.096ZM172.932 110.72C172.26 110.72 171.7 111.14 171.252 111.98C170.823 112.801 170.552 114.08 170.44 115.816H174.836C174.873 114.341 174.724 113.128 174.388 112.176C174.071 111.205 173.585 110.72 172.932 110.72ZM190.037 110.132C191.008 110.132 191.867 110.393 192.613 110.916C193.379 111.439 193.976 112.223 194.405 113.268C194.835 114.313 195.049 115.592 195.049 117.104C195.049 119.773 194.461 121.827 193.285 123.264C192.128 124.683 190.551 125.392 188.553 125.392C187.993 125.392 187.461 125.317 186.957 125.168C186.472 125.019 186.052 124.795 185.697 124.496V127.296C185.697 128.117 185.903 128.687 186.313 129.004C186.724 129.321 187.359 129.48 188.217 129.48V130.068L187.461 130.04C185.389 129.984 184.073 129.956 183.513 129.956C182.953 129.956 181.777 129.993 179.985 130.068V129.48C180.601 129.48 181.031 129.34 181.273 129.06C181.535 128.799 181.665 128.304 181.665 127.576V113.576C181.665 112.717 181.525 112.092 181.245 111.7C180.984 111.308 180.527 111.112 179.873 111.112V110.524C180.471 110.58 181.049 110.608 181.609 110.608C183.233 110.608 184.596 110.477 185.697 110.216V112.792C186.089 111.933 186.659 111.28 187.405 110.832C188.152 110.365 189.029 110.132 190.037 110.132ZM187.461 124.636C188.656 124.636 189.515 124.048 190.037 122.872C190.56 121.677 190.821 119.941 190.821 117.664C190.821 115.387 190.607 113.763 190.177 112.792C189.767 111.821 189.169 111.336 188.385 111.336C187.751 111.336 187.181 111.551 186.677 111.98C186.192 112.409 185.865 113.007 185.697 113.772V123.88C186.145 124.384 186.733 124.636 187.461 124.636ZM210.534 122.284C210.534 123.087 210.683 123.647 210.982 123.964C211.28 124.263 211.803 124.412 212.55 124.412V125C210.534 124.925 209.246 124.888 208.686 124.888C208.07 124.888 206.726 124.916 204.654 124.972L203.87 125V124.412C204.747 124.412 205.4 124.244 205.83 123.908C206.278 123.572 206.502 122.975 206.502 122.116V115.284C206.502 114.388 206.418 113.735 206.25 113.324C206.1 112.895 205.839 112.615 205.466 112.484C205.092 112.335 204.523 112.26 203.758 112.26V111.644C205.382 111.607 206.716 111.485 207.762 111.28C208.807 111.056 209.731 110.701 210.534 110.216V122.284Z" fill="#FD583E"/>
<circle cx="620.647" cy="133.647" r="76.6474" fill="#EEF1F3"/>
<g clip-path="url(#clip1)">
<path d="M177.937 548.097V469.36C177.937 467.948 176.781 466.797 175.363 466.797H55.044C53.6261 466.797 52.4707 467.948 52.4707 469.36V548.097" stroke="#546169" stroke-width="1.5" stroke-miterlimit="10" stroke-linecap="round" stroke-linejoin="round"/>
<path d="M46.1159 557.568H188.335C192.169 557.568 195.215 554.481 195.215 550.714V548.465H39.1835V550.714C39.1835 554.481 42.2821 557.568 46.1159 557.568Z" stroke="#546169" stroke-width="1.5" stroke-miterlimit="10" stroke-linejoin="round"/>
<path d="M54.6763 489.817L66.4404 452.934" stroke="#546169" stroke-width="1.5" stroke-miterlimit="10" stroke-linecap="round" stroke-linejoin="round"/>
<path d="M72.48 480.244L35.8749 468.682" stroke="#546169" stroke-width="1.5" stroke-miterlimit="10" stroke-linecap="round" stroke-linejoin="round"/>
<path d="M37.5029 487.15L70.0116 470.408" stroke="#546169" stroke-width="1.5" stroke-miterlimit="10" stroke-linecap="round" stroke-linejoin="round"/>
<path d="M65.5476 488.51L47.849 454.504" stroke="#546169" stroke-width="1.5" stroke-miterlimit="10" stroke-linecap="round" stroke-linejoin="round"/>
<path d="M59.2979 493.009C49.9003 493.009 42.282 485.42 42.282 476.058C42.282 466.696 49.9003 459.107 59.2979 459.107C68.6956 459.107 76.3138 466.696 76.3138 476.058C76.3138 485.42 68.6956 493.009 59.2979 493.009Z" fill="white"/>
<path d="M59.0354 474.697H171.109V541.924H59.0354V474.697Z" stroke="#546169" stroke-width="1.5" stroke-miterlimit="10" stroke-linecap="round" stroke-linejoin="round"/>
<path d="M164.702 498.973H111.081V533.083H164.702V498.973Z" fill="#27DAD0"/>
<path d="M66.1253 481.969V492.798H164.511C164.511 489.063 164.511 486.213 164.511 481.969H66.1253Z" fill="#FF5533"/>
<path d="M110.923 498.973V533.083H134.557C138.758 524.137 141.069 514.145 141.069 503.629C141.069 502.059 141.016 500.542 140.911 498.973H110.923Z" fill="#1ADCD0"/>
<path d="M66.2829 498.973H101.313V533.083H66.2829V498.973Z" fill="#1ADCD0"/>
<path d="M157.524 505.852H118.143" stroke="white" stroke-width="1.5" stroke-miterlimit="10" stroke-linecap="round" stroke-linejoin="round"/>
<path d="M157.524 510.918H118.143" stroke="white" stroke-width="1.5" stroke-miterlimit="10" stroke-linecap="round" stroke-linejoin="round"/>
<path d="M157.524 515.354H118.143" stroke="white" stroke-width="1.5" stroke-miterlimit="10" stroke-linecap="round" stroke-linejoin="round"/>
<path d="M157.524 520.42H118.143" stroke="white" stroke-width="1.5" stroke-miterlimit="10" stroke-linecap="round" stroke-linejoin="round"/>
<path d="M157.524 524.855H118.143" stroke="white" stroke-width="1.5" stroke-miterlimit="10" stroke-linecap="round" stroke-linejoin="round"/>
<path d="M95.5831 506.139H69.9017" stroke="white" stroke-width="1.5" stroke-miterlimit="10" stroke-linecap="round" stroke-linejoin="round"/>
<path d="M95.5831 510.9H69.9017" stroke="white" stroke-width="1.5" stroke-miterlimit="10" stroke-linecap="round" stroke-linejoin="round"/>
<path d="M95.5831 515.66H69.9017" stroke="white" stroke-width="1.5" stroke-miterlimit="10" stroke-linecap="round" stroke-linejoin="round"/>
<path d="M95.5831 520.369H69.9017" stroke="white" stroke-width="1.5" stroke-miterlimit="10" stroke-linecap="round" stroke-linejoin="round"/>
<path d="M95.5831 525.131H69.9017" stroke="white" stroke-width="1.5" stroke-miterlimit="10" stroke-linecap="round" stroke-linejoin="round"/>
</g>
<path d="M577.586 138.625L581.781 148.664L585.992 138.625H587.273V150H586.312V145.047L586.391 139.969L582.156 150H581.414L577.195 140.008L577.273 145.016V150H576.312V138.625H577.586ZM593.211 150.156C592.492 150.156 591.841 149.979 591.258 149.625C590.68 149.271 590.229 148.779 589.906 148.148C589.583 147.513 589.422 146.802 589.422 146.016V145.68C589.422 144.867 589.578 144.135 589.891 143.484C590.208 142.833 590.648 142.323 591.211 141.953C591.773 141.578 592.383 141.391 593.039 141.391C594.065 141.391 594.878 141.742 595.477 142.445C596.081 143.143 596.383 144.099 596.383 145.312V145.836H590.352V146.016C590.352 146.974 590.625 147.773 591.172 148.414C591.724 149.049 592.417 149.367 593.25 149.367C593.75 149.367 594.19 149.276 594.57 149.094C594.956 148.911 595.305 148.62 595.617 148.219L596.203 148.664C595.516 149.659 594.518 150.156 593.211 150.156ZM593.039 142.188C592.336 142.188 591.742 142.445 591.258 142.961C590.779 143.477 590.487 144.169 590.383 145.039H595.453V144.938C595.427 144.125 595.195 143.464 594.758 142.953C594.32 142.443 593.747 142.188 593.039 142.188ZM603.539 150C603.445 149.734 603.385 149.341 603.359 148.82C603.031 149.247 602.612 149.578 602.102 149.812C601.596 150.042 601.06 150.156 600.492 150.156C599.68 150.156 599.021 149.93 598.516 149.477C598.016 149.023 597.766 148.451 597.766 147.758C597.766 146.935 598.107 146.284 598.789 145.805C599.477 145.326 600.432 145.086 601.656 145.086H603.352V144.125C603.352 143.521 603.164 143.047 602.789 142.703C602.419 142.354 601.878 142.18 601.164 142.18C600.513 142.18 599.974 142.346 599.547 142.68C599.12 143.013 598.906 143.414 598.906 143.883L597.969 143.875C597.969 143.203 598.281 142.622 598.906 142.133C599.531 141.638 600.299 141.391 601.211 141.391C602.154 141.391 602.896 141.628 603.438 142.102C603.984 142.57 604.266 143.227 604.281 144.07V148.07C604.281 148.888 604.367 149.5 604.539 149.906V150H603.539ZM600.602 149.328C601.227 149.328 601.784 149.177 602.273 148.875C602.768 148.573 603.128 148.169 603.352 147.664V145.805H601.68C600.747 145.815 600.018 145.987 599.492 146.32C598.966 146.648 598.703 147.102 598.703 147.68C598.703 148.154 598.878 148.547 599.227 148.859C599.581 149.172 600.039 149.328 600.602 149.328ZM611.844 147.852C611.844 147.388 611.656 147.016 611.281 146.734C610.911 146.453 610.352 146.234 609.602 146.078C608.852 145.917 608.268 145.734 607.852 145.531C607.44 145.323 607.133 145.07 606.93 144.773C606.732 144.477 606.633 144.117 606.633 143.695C606.633 143.029 606.911 142.479 607.469 142.047C608.026 141.609 608.74 141.391 609.609 141.391C610.552 141.391 611.307 141.625 611.875 142.094C612.448 142.557 612.734 143.164 612.734 143.914H611.797C611.797 143.419 611.589 143.008 611.172 142.68C610.76 142.352 610.24 142.188 609.609 142.188C608.995 142.188 608.5 142.326 608.125 142.602C607.755 142.872 607.57 143.227 607.57 143.664C607.57 144.086 607.724 144.414 608.031 144.648C608.344 144.878 608.909 145.089 609.727 145.281C610.549 145.474 611.164 145.68 611.57 145.898C611.982 146.117 612.286 146.38 612.484 146.688C612.682 146.995 612.781 147.367 612.781 147.805C612.781 148.518 612.492 149.089 611.914 149.516C611.341 149.943 610.591 150.156 609.664 150.156C608.68 150.156 607.88 149.919 607.266 149.445C606.656 148.966 606.352 148.362 606.352 147.633H607.289C607.326 148.18 607.555 148.607 607.977 148.914C608.404 149.216 608.966 149.367 609.664 149.367C610.315 149.367 610.841 149.224 611.242 148.938C611.643 148.651 611.844 148.289 611.844 147.852ZM620.328 148.93C619.766 149.747 618.867 150.156 617.633 150.156C616.732 150.156 616.047 149.896 615.578 149.375C615.109 148.849 614.87 148.073 614.859 147.047V141.547H615.789V146.93C615.789 148.539 616.44 149.344 617.742 149.344C619.096 149.344 619.953 148.784 620.312 147.664V141.547H621.25V150H620.344L620.328 148.93ZM627.594 142.344C627.396 142.307 627.185 142.289 626.961 142.289C626.378 142.289 625.883 142.453 625.477 142.781C625.076 143.104 624.789 143.576 624.617 144.195V150H623.688V141.547H624.602L624.617 142.891C625.112 141.891 625.906 141.391 627 141.391C627.26 141.391 627.466 141.424 627.617 141.492L627.594 142.344ZM632.195 150.156C631.477 150.156 630.826 149.979 630.242 149.625C629.664 149.271 629.214 148.779 628.891 148.148C628.568 147.513 628.406 146.802 628.406 146.016V145.68C628.406 144.867 628.562 144.135 628.875 143.484C629.193 142.833 629.633 142.323 630.195 141.953C630.758 141.578 631.367 141.391 632.023 141.391C633.049 141.391 633.862 141.742 634.461 142.445C635.065 143.143 635.367 144.099 635.367 145.312V145.836H629.336V146.016C629.336 146.974 629.609 147.773 630.156 148.414C630.708 149.049 631.401 149.367 632.234 149.367C632.734 149.367 633.174 149.276 633.555 149.094C633.94 148.911 634.289 148.62 634.602 148.219L635.188 148.664C634.5 149.659 633.503 150.156 632.195 150.156ZM632.023 142.188C631.32 142.188 630.727 142.445 630.242 142.961C629.763 143.477 629.471 144.169 629.367 145.039H634.438V144.938C634.411 144.125 634.18 143.464 633.742 142.953C633.305 142.443 632.732 142.188 632.023 142.188ZM646.414 150C646.32 149.734 646.26 149.341 646.234 148.82C645.906 149.247 645.487 149.578 644.977 149.812C644.471 150.042 643.935 150.156 643.367 150.156C642.555 150.156 641.896 149.93 641.391 149.477C640.891 149.023 640.641 148.451 640.641 147.758C640.641 146.935 640.982 146.284 641.664 145.805C642.352 145.326 643.307 145.086 644.531 145.086H646.227V144.125C646.227 143.521 646.039 143.047 645.664 142.703C645.294 142.354 644.753 142.18 644.039 142.18C643.388 142.18 642.849 142.346 642.422 142.68C641.995 143.013 641.781 143.414 641.781 143.883L640.844 143.875C640.844 143.203 641.156 142.622 641.781 142.133C642.406 141.638 643.174 141.391 644.086 141.391C645.029 141.391 645.771 141.628 646.312 142.102C646.859 142.57 647.141 143.227 647.156 144.07V148.07C647.156 148.888 647.242 149.5 647.414 149.906V150H646.414ZM643.477 149.328C644.102 149.328 644.659 149.177 645.148 148.875C645.643 148.573 646.003 148.169 646.227 147.664V145.805H644.555C643.622 145.815 642.893 145.987 642.367 146.32C641.841 146.648 641.578 147.102 641.578 147.68C641.578 148.154 641.753 148.547 642.102 148.859C642.456 149.172 642.914 149.328 643.477 149.328ZM650.547 141.547L650.578 142.992C650.896 142.471 651.292 142.076 651.766 141.805C652.24 141.529 652.763 141.391 653.336 141.391C654.242 141.391 654.917 141.646 655.359 142.156C655.802 142.667 656.026 143.432 656.031 144.453V150H655.102V144.445C655.096 143.69 654.935 143.128 654.617 142.758C654.305 142.388 653.802 142.203 653.109 142.203C652.531 142.203 652.018 142.385 651.57 142.75C651.128 143.109 650.799 143.596 650.586 144.211V150H649.656V141.547H650.547ZM658.078 145.695C658.078 144.383 658.37 143.339 658.953 142.562C659.542 141.781 660.339 141.391 661.344 141.391C662.484 141.391 663.354 141.841 663.953 142.742V138H664.883V150H664.008L663.969 148.875C663.37 149.729 662.49 150.156 661.328 150.156C660.354 150.156 659.568 149.766 658.969 148.984C658.375 148.198 658.078 147.138 658.078 145.805V145.695ZM659.023 145.859C659.023 146.938 659.24 147.789 659.672 148.414C660.104 149.034 660.714 149.344 661.5 149.344C662.651 149.344 663.469 148.836 663.953 147.82V143.852C663.469 142.753 662.656 142.203 661.516 142.203C660.729 142.203 660.117 142.513 659.68 143.133C659.242 143.747 659.023 144.656 659.023 145.859ZM605.453 174H604.516V162H605.453V174ZM611.273 174.156C610.555 174.156 609.904 173.979 609.32 173.625C608.742 173.271 608.292 172.779 607.969 172.148C607.646 171.513 607.484 170.802 607.484 170.016V169.68C607.484 168.867 607.641 168.135 607.953 167.484C608.271 166.833 608.711 166.323 609.273 165.953C609.836 165.578 610.445 165.391 611.102 165.391C612.128 165.391 612.94 165.742 613.539 166.445C614.143 167.143 614.445 168.099 614.445 169.312V169.836H608.414V170.016C608.414 170.974 608.688 171.773 609.234 172.414C609.786 173.049 610.479 173.367 611.312 173.367C611.812 173.367 612.253 173.276 612.633 173.094C613.018 172.911 613.367 172.62 613.68 172.219L614.266 172.664C613.578 173.659 612.581 174.156 611.273 174.156ZM611.102 166.188C610.398 166.188 609.805 166.445 609.32 166.961C608.841 167.477 608.549 168.169 608.445 169.039H613.516V168.938C613.49 168.125 613.258 167.464 612.82 166.953C612.383 166.443 611.81 166.188 611.102 166.188ZM621.602 174C621.508 173.734 621.448 173.341 621.422 172.82C621.094 173.247 620.674 173.578 620.164 173.812C619.659 174.042 619.122 174.156 618.555 174.156C617.742 174.156 617.083 173.93 616.578 173.477C616.078 173.023 615.828 172.451 615.828 171.758C615.828 170.935 616.169 170.284 616.852 169.805C617.539 169.326 618.495 169.086 619.719 169.086H621.414V168.125C621.414 167.521 621.227 167.047 620.852 166.703C620.482 166.354 619.94 166.18 619.227 166.18C618.576 166.18 618.036 166.346 617.609 166.68C617.182 167.013 616.969 167.414 616.969 167.883L616.031 167.875C616.031 167.203 616.344 166.622 616.969 166.133C617.594 165.638 618.362 165.391 619.273 165.391C620.216 165.391 620.958 165.628 621.5 166.102C622.047 166.57 622.328 167.227 622.344 168.07V172.07C622.344 172.888 622.43 173.5 622.602 173.906V174H621.602ZM618.664 173.328C619.289 173.328 619.846 173.177 620.336 172.875C620.831 172.573 621.19 172.169 621.414 171.664V169.805H619.742C618.81 169.815 618.081 169.987 617.555 170.32C617.029 170.648 616.766 171.102 616.766 171.68C616.766 172.154 616.94 172.547 617.289 172.859C617.643 173.172 618.102 173.328 618.664 173.328ZM628.75 166.344C628.552 166.307 628.341 166.289 628.117 166.289C627.534 166.289 627.039 166.453 626.633 166.781C626.232 167.104 625.945 167.576 625.773 168.195V174H624.844V165.547H625.758L625.773 166.891C626.268 165.891 627.062 165.391 628.156 165.391C628.417 165.391 628.622 165.424 628.773 165.492L628.75 166.344ZM631.125 165.547L631.156 166.992C631.474 166.471 631.87 166.076 632.344 165.805C632.818 165.529 633.341 165.391 633.914 165.391C634.82 165.391 635.495 165.646 635.938 166.156C636.38 166.667 636.604 167.432 636.609 168.453V174H635.68V168.445C635.674 167.69 635.513 167.128 635.195 166.758C634.883 166.388 634.38 166.203 633.688 166.203C633.109 166.203 632.596 166.385 632.148 166.75C631.706 167.109 631.378 167.596 631.164 168.211V174H630.234V165.547H631.125Z" fill="#546169"/>
<g clip-path="url(#clip2)">
<path d="M681.188 552.015C647.395 552.015 620 522.238 620 485.507C620 448.776 647.395 419 681.188 419C714.981 419 742.375 448.776 742.375 485.507C742.375 522.238 714.981 552.015 681.188 552.015Z" fill="white"/>
<path d="M742.33 481.48L738.763 480.287" stroke="#546169" stroke-width="1.5" stroke-miterlimit="10" stroke-linecap="round" stroke-linejoin="round"/>
<path d="M739.814 484.561L742.284 483.965" stroke="#546169" stroke-width="1.5" stroke-miterlimit="10" stroke-linecap="round" stroke-linejoin="round"/>
<path d="M743.656 479.095L741.552 477.057" stroke="#546169" stroke-width="1.5" stroke-miterlimit="10" stroke-linecap="round" stroke-linejoin="round"/>
<path d="M647.118 518.414L720.836 518.414C722.254 518.414 723.397 517.171 723.397 515.63L723.397 464.084C723.397 462.543 722.254 461.301 720.836 461.301L647.118 461.301C645.701 461.301 644.557 462.543 644.557 464.084L644.557 515.63C644.557 517.171 645.701 518.414 647.118 518.414Z" stroke="#546169" stroke-width="1.5" stroke-miterlimit="10" stroke-linecap="round" stroke-linejoin="round"/>
<path d="M687.91 518.859L687.91 557.978L703.001 557.978L703.001 562.054L662.987 562.054L662.987 557.978L678.078 557.978L678.078 518.859" stroke="#546169" stroke-width="1.5" stroke-miterlimit="10" stroke-linecap="round" stroke-linejoin="round"/>
<path d="M755.592 507.677C754.951 495.3 751.476 492.367 750.881 492.566" stroke="#546169" stroke-width="1.5" stroke-miterlimit="10" stroke-linecap="round"/>
<path d="M748.366 493.211C748.366 493.211 751.11 489.881 751.979 487.495C752.894 484.96 751.247 480.984 748.32 481.381C745.394 481.779 745.028 484.314 745.897 485.755C746.72 487.197 746.766 490.676 745.942 491.372C745.119 492.118 747.772 493.559 748.366 493.211Z" fill="white" stroke="#546169" stroke-width="1.5" stroke-miterlimit="10" stroke-linecap="round" stroke-linejoin="round"/>
<path d="M730.303 499.772C728.473 497.783 713.474 490.476 713.474 490.476L715.074 488.488L715.486 487.941C715.486 487.941 726.461 492.763 730.989 493.409C733.549 493.757 735.79 492.713 737.574 491.669C738.854 490.974 742.284 490.725 744.113 490.924C749.189 491.471 752.162 492.465 755.043 495.596C758.884 499.622 761.445 504.245 762.543 510.16C763.64 516.075 754.631 521.941 754.631 521.941L755.226 517.666C755.226 517.666 759.067 513.391 758.564 510.707C758.061 508.122 755.454 504.643 755.454 504.643C755.454 504.643 755.912 515.131 755.226 517.666C753.9 522.487 751.613 535.709 751.613 535.709L735.013 532.578C735.013 532.578 732.452 518.958 733.412 506.681L733.412 505.786C733.412 505.885 732.132 501.71 730.303 499.772Z" fill="white" stroke="#546169" stroke-width="1.5" stroke-miterlimit="10" stroke-linecap="round" stroke-linejoin="round"/>
<path d="M750.47 535.562C750.47 535.91 748.321 560.415 748.321 560.415L745.394 560.415L745.394 534.617" stroke="#546169" stroke-width="1.5" stroke-miterlimit="10" stroke-linecap="round" stroke-linejoin="round"/>
<path d="M741.232 533.921C741.232 534.368 738.26 560.613 738.26 560.613L735.059 560.414L735.47 532.777" stroke="#546169" stroke-width="1.5" stroke-miterlimit="10" stroke-linecap="round" stroke-linejoin="round"/>
<path d="M748.32 560.365C748.641 560.365 748.458 562.403 748.686 562.403C748.915 562.403 741.918 562.503 741.918 562.503L742.193 561.409C742.375 561.111 742.604 560.912 742.924 560.862L745.439 560.365L748.32 560.365Z" stroke="#546169" stroke-width="1.5" stroke-miterlimit="10" stroke-linecap="round" stroke-linejoin="round"/>
<path d="M738.031 560.365C738.351 560.365 738.168 562.403 738.397 562.403C738.626 562.403 731.629 562.503 731.629 562.503L731.903 561.409C732.086 561.111 732.315 560.912 732.635 560.862L735.15 560.365L738.031 560.365Z" stroke="#546169" stroke-width="1.5" stroke-miterlimit="10" stroke-linecap="round" stroke-linejoin="round"/>
<path d="M754.448 562.65L721.202 562.65" stroke="#546169" stroke-width="1.5" stroke-miterlimit="10" stroke-linecap="round" stroke-linejoin="round"/>
<path d="M714.937 487.893C714.937 487.893 711.462 484.115 710.776 484.314C710.09 484.513 711.553 486.8 711.553 486.8C711.553 486.8 710.318 488.738 710.501 489.285C710.684 489.832 714.525 489.583 714.525 489.583L714.937 487.893Z" stroke="#546169" stroke-width="1.5" stroke-miterlimit="10" stroke-linecap="round" stroke-linejoin="round"/>
<path d="M673.694 487.799L674.26 478.154L682.537 480.146L679.42 482.853L688.81 496.615L693.464 493.863C694.172 493.438 695.042 493.639 695.568 494.31L702.732 503.843L700.142 506.237L693.869 497.868L689.154 500.665C688.425 501.091 687.515 500.867 687.009 500.151L676.79 485.158L673.694 487.799Z" fill="#FF5533"/>
</g>
<path d="M584.049 117.631C584.167 119.718 584.628 121.413 585.43 122.717C586.241 124.011 587.48 124.658 589.148 124.658C589.805 124.658 590.393 124.544 590.912 124.316C591.441 124.079 591.855 123.724 592.156 123.25C592.466 122.776 592.621 122.202 592.621 121.527C592.621 120.798 592.448 120.146 592.102 119.572C591.764 118.989 591.304 118.46 590.721 117.986C590.146 117.503 589.376 116.947 588.41 116.318C587.28 115.589 586.382 114.956 585.717 114.418C585.061 113.88 584.514 113.242 584.076 112.504C583.648 111.766 583.434 110.909 583.434 109.934C583.434 108.803 583.721 107.855 584.295 107.09C584.869 106.315 585.63 105.741 586.578 105.367C587.526 104.993 588.57 104.807 589.709 104.807C590.383 104.807 590.967 104.857 591.459 104.957C591.96 105.057 592.375 105.185 592.703 105.34C593.04 105.486 593.405 105.673 593.797 105.9C594.243 106.165 594.558 106.297 594.74 106.297C594.913 106.297 595.046 106.201 595.137 106.01C595.228 105.809 595.301 105.495 595.355 105.066H595.998C595.907 106.315 595.861 108.443 595.861 111.451H595.219C595.155 110.439 594.927 109.478 594.535 108.566C594.152 107.655 593.61 106.917 592.908 106.352C592.215 105.777 591.4 105.49 590.461 105.49C589.868 105.49 589.335 105.604 588.861 105.832C588.396 106.06 588.032 106.393 587.768 106.83C587.512 107.258 587.385 107.76 587.385 108.334C587.385 109.264 587.663 110.025 588.219 110.617C588.775 111.21 589.499 111.811 590.393 112.422C591.286 113.023 591.887 113.429 592.197 113.639C593.291 114.368 594.157 115.001 594.795 115.539C595.433 116.077 595.952 116.706 596.353 117.426C596.755 118.146 596.955 118.98 596.955 119.928C596.955 121.122 596.645 122.129 596.025 122.949C595.406 123.77 594.572 124.385 593.523 124.795C592.475 125.196 591.304 125.396 590.01 125.396C588.962 125.396 588.091 125.301 587.398 125.109C586.715 124.927 586.081 124.676 585.498 124.357C585.097 124.093 584.783 123.961 584.555 123.961C584.381 123.961 584.249 124.061 584.158 124.262C584.067 124.453 583.994 124.763 583.939 125.191H583.297C583.37 124.025 583.406 121.505 583.406 117.631H584.049ZM607.783 110.549V111.109H604.475V122.402C604.475 122.958 604.575 123.355 604.775 123.592C604.976 123.82 605.286 123.934 605.705 123.934C606.498 123.934 607.131 123.373 607.605 122.252L608.084 122.512C607.382 124.435 606.106 125.396 604.256 125.396C603.025 125.396 602.091 125.077 601.453 124.439C601.061 124.057 600.792 123.574 600.646 122.99C600.51 122.398 600.441 121.582 600.441 120.543V111.109H598.09V110.549H600.441V106.83C601.982 106.83 603.326 106.529 604.475 105.928V110.549H607.783ZM613.17 116.346C613.143 116.619 613.129 117.057 613.129 117.658C613.129 118.898 613.302 119.928 613.648 120.748C613.995 121.559 614.441 122.156 614.988 122.539C615.544 122.913 616.137 123.1 616.766 123.1C618.306 123.1 619.541 122.352 620.471 120.857L620.963 121.021C620.726 121.787 620.357 122.503 619.855 123.168C619.363 123.824 618.734 124.362 617.969 124.781C617.212 125.191 616.346 125.396 615.371 125.396C614.086 125.396 612.956 125.123 611.98 124.576C611.014 124.029 610.258 123.2 609.711 122.088C609.173 120.967 608.904 119.577 608.904 117.918C608.904 116.223 609.196 114.796 609.779 113.639C610.363 112.472 611.169 111.597 612.199 111.014C613.229 110.43 614.419 110.139 615.768 110.139C619.277 110.139 621.031 112.208 621.031 116.346H613.17ZM617.504 115.812C617.531 114.354 617.381 113.142 617.053 112.176C616.734 111.21 616.246 110.727 615.59 110.727C614.924 110.727 614.368 111.141 613.922 111.971C613.484 112.791 613.215 114.072 613.115 115.812H617.504ZM628.359 112.818C628.751 111.943 629.321 111.278 630.068 110.822C630.825 110.367 631.7 110.139 632.693 110.139C633.659 110.139 634.521 110.403 635.277 110.932C636.034 111.451 636.626 112.235 637.055 113.283C637.492 114.322 637.711 115.594 637.711 117.098C637.711 118.884 637.442 120.402 636.904 121.65C636.376 122.89 635.624 123.824 634.648 124.453C633.682 125.082 632.538 125.396 631.217 125.396C630.014 125.396 629.061 125.1 628.359 124.508V127.297C628.359 128.117 628.564 128.687 628.975 129.006C629.394 129.325 630.027 129.484 630.875 129.484V130.072C630.602 130.063 629.982 130.04 629.016 130.004C628.049 129.967 627.102 129.949 626.172 129.949C625.461 129.949 624.736 129.967 623.998 130.004C623.269 130.04 622.818 130.063 622.645 130.072V129.484C623.064 129.484 623.392 129.425 623.629 129.307C623.866 129.197 624.039 129.001 624.148 128.719C624.267 128.445 624.326 128.062 624.326 127.57V113.57C624.326 112.714 624.189 112.089 623.916 111.697C623.652 111.305 623.191 111.109 622.535 111.109V110.521C623.128 110.576 623.706 110.604 624.271 110.604C625.903 110.604 627.266 110.476 628.359 110.221V112.818ZM628.359 123.893C628.779 124.385 629.367 124.631 630.123 124.631C631.317 124.631 632.174 124.038 632.693 122.854C633.222 121.66 633.486 119.928 633.486 117.658C633.486 115.389 633.277 113.771 632.857 112.805C632.438 111.829 631.837 111.342 631.053 111.342C630.415 111.342 629.845 111.556 629.344 111.984C628.842 112.413 628.514 113.005 628.359 113.762V123.893ZM646.119 113.639C646.693 112.572 647.441 111.725 648.361 111.096C649.291 110.458 650.503 110.139 651.998 110.139C652.919 110.139 653.739 110.271 654.459 110.535C655.188 110.79 655.758 111.16 656.168 111.643C656.578 112.126 656.783 112.695 656.783 113.352C656.783 114.053 656.551 114.714 656.086 115.334C655.63 115.954 654.969 116.496 654.103 116.961C653.247 117.417 652.244 117.754 651.096 117.973L651.574 117.959C652.777 117.959 653.848 118.128 654.787 118.465C655.726 118.793 656.46 119.276 656.988 119.914C657.526 120.552 657.795 121.322 657.795 122.225C657.795 123.601 657.207 124.818 656.031 125.875C654.855 126.941 653.347 127.766 651.506 128.35C649.674 128.933 647.81 129.225 645.914 129.225V128.664C647.145 128.628 648.352 128.354 649.537 127.844C650.722 127.333 651.697 126.6 652.463 125.643C653.238 124.686 653.625 123.555 653.625 122.252C653.625 121.532 653.506 120.885 653.27 120.311C653.033 119.736 652.691 119.281 652.244 118.943C651.807 118.606 651.287 118.415 650.686 118.369C650.02 118.661 649.542 118.807 649.25 118.807C648.895 118.807 648.717 118.679 648.717 118.424C648.717 118.223 648.803 118.073 648.977 117.973C649.15 117.863 649.364 117.809 649.619 117.809C649.728 117.809 649.879 117.827 650.07 117.863C650.271 117.891 650.444 117.909 650.59 117.918C652.03 116.906 652.75 115.653 652.75 114.158C652.75 113.329 652.531 112.714 652.094 112.312C651.665 111.902 651.055 111.697 650.262 111.697C649.514 111.697 648.826 111.884 648.197 112.258C647.568 112.622 647.044 113.165 646.625 113.885L646.119 113.639Z" fill="#FD583E"/>
<circle cx="176.605" cy="416.653" r="76.6474" fill="#EEF1F3"/>
<path d="M133.644 434.291H128.479L127.308 437.479H126.3L130.604 426.104H131.519L135.823 437.479H134.823L133.644 434.291ZM128.776 433.471H133.339L131.058 427.275L128.776 433.471ZM142.347 435.33C142.347 434.867 142.159 434.494 141.784 434.213C141.414 433.932 140.854 433.713 140.104 433.557C139.354 433.395 138.771 433.213 138.354 433.01C137.943 432.801 137.636 432.549 137.433 432.252C137.235 431.955 137.136 431.596 137.136 431.174C137.136 430.507 137.414 429.958 137.972 429.525C138.529 429.088 139.242 428.869 140.112 428.869C141.055 428.869 141.81 429.104 142.378 429.572C142.951 430.036 143.237 430.643 143.237 431.393H142.3C142.3 430.898 142.091 430.486 141.675 430.158C141.263 429.83 140.742 429.666 140.112 429.666C139.498 429.666 139.003 429.804 138.628 430.08C138.258 430.351 138.073 430.705 138.073 431.143C138.073 431.564 138.227 431.893 138.534 432.127C138.847 432.356 139.412 432.567 140.229 432.76C141.052 432.952 141.667 433.158 142.073 433.377C142.485 433.596 142.789 433.859 142.987 434.166C143.185 434.473 143.284 434.846 143.284 435.283C143.284 435.997 142.995 436.567 142.417 436.994C141.844 437.421 141.094 437.635 140.167 437.635C139.183 437.635 138.383 437.398 137.769 436.924C137.159 436.445 136.854 435.84 136.854 435.111H137.792C137.828 435.658 138.058 436.085 138.479 436.393C138.907 436.695 139.469 436.846 140.167 436.846C140.818 436.846 141.344 436.702 141.745 436.416C142.146 436.13 142.347 435.768 142.347 435.33ZM150.456 435.33C150.456 434.867 150.269 434.494 149.894 434.213C149.524 433.932 148.964 433.713 148.214 433.557C147.464 433.395 146.881 433.213 146.464 433.01C146.052 432.801 145.745 432.549 145.542 432.252C145.344 431.955 145.245 431.596 145.245 431.174C145.245 430.507 145.524 429.958 146.081 429.525C146.638 429.088 147.352 428.869 148.222 428.869C149.164 428.869 149.92 429.104 150.487 429.572C151.06 430.036 151.347 430.643 151.347 431.393H150.409C150.409 430.898 150.201 430.486 149.784 430.158C149.373 429.83 148.852 429.666 148.222 429.666C147.607 429.666 147.112 429.804 146.737 430.08C146.367 430.351 146.183 430.705 146.183 431.143C146.183 431.564 146.336 431.893 146.644 432.127C146.956 432.356 147.521 432.567 148.339 432.76C149.162 432.952 149.776 433.158 150.183 433.377C150.594 433.596 150.899 433.859 151.097 434.166C151.295 434.473 151.394 434.846 151.394 435.283C151.394 435.997 151.104 436.567 150.526 436.994C149.953 437.421 149.203 437.635 148.276 437.635C147.292 437.635 146.492 437.398 145.878 436.924C145.269 436.445 144.964 435.84 144.964 435.111H145.901C145.938 435.658 146.167 436.085 146.589 436.393C147.016 436.695 147.578 436.846 148.276 436.846C148.927 436.846 149.453 436.702 149.854 436.416C150.256 436.13 150.456 435.768 150.456 435.33ZM156.776 437.635C156.058 437.635 155.407 437.458 154.823 437.104C154.245 436.749 153.795 436.257 153.472 435.627C153.149 434.992 152.987 434.281 152.987 433.494V433.158C152.987 432.346 153.144 431.614 153.456 430.963C153.774 430.312 154.214 429.801 154.776 429.432C155.339 429.057 155.948 428.869 156.604 428.869C157.631 428.869 158.443 429.221 159.042 429.924C159.646 430.622 159.948 431.577 159.948 432.791V433.314H153.917V433.494C153.917 434.452 154.19 435.252 154.737 435.893C155.289 436.528 155.982 436.846 156.815 436.846C157.315 436.846 157.756 436.755 158.136 436.572C158.521 436.39 158.87 436.098 159.183 435.697L159.769 436.143C159.081 437.137 158.084 437.635 156.776 437.635ZM156.604 429.666C155.901 429.666 155.308 429.924 154.823 430.439C154.344 430.955 154.052 431.648 153.948 432.518H159.019V432.416C158.992 431.604 158.761 430.942 158.323 430.432C157.886 429.921 157.313 429.666 156.604 429.666ZM163.222 426.861V429.025H164.972V429.791H163.222V435.424C163.222 435.893 163.305 436.242 163.472 436.471C163.644 436.7 163.927 436.814 164.323 436.814C164.479 436.814 164.732 436.788 165.081 436.736L165.12 437.502C164.875 437.59 164.542 437.635 164.12 437.635C163.479 437.635 163.013 437.45 162.722 437.08C162.43 436.705 162.284 436.156 162.284 435.432V429.791H160.729V429.025H162.284V426.861H163.222ZM173.925 436.846C174.576 436.846 175.12 436.663 175.558 436.299C176 435.929 176.24 435.452 176.276 434.869H177.175C177.149 435.385 176.987 435.856 176.69 436.283C176.394 436.705 175.998 437.036 175.503 437.275C175.013 437.515 174.487 437.635 173.925 437.635C172.815 437.635 171.935 437.249 171.284 436.479C170.638 435.708 170.315 434.671 170.315 433.369V433.088C170.315 432.255 170.461 431.518 170.753 430.877C171.045 430.236 171.461 429.742 172.003 429.393C172.55 429.044 173.188 428.869 173.917 428.869C174.844 428.869 175.607 429.145 176.206 429.697C176.81 430.249 177.133 430.976 177.175 431.877H176.276C176.235 431.215 175.995 430.682 175.558 430.275C175.125 429.869 174.578 429.666 173.917 429.666C173.073 429.666 172.417 429.971 171.948 430.58C171.485 431.189 171.253 432.044 171.253 433.143V433.416C171.253 434.494 171.485 435.335 171.948 435.939C172.417 436.544 173.076 436.846 173.925 436.846ZM182.956 429.822C182.758 429.786 182.547 429.768 182.323 429.768C181.74 429.768 181.245 429.932 180.839 430.26C180.438 430.583 180.151 431.054 179.979 431.674V437.479H179.05V429.025H179.964L179.979 430.369C180.474 429.369 181.269 428.869 182.362 428.869C182.623 428.869 182.828 428.903 182.979 428.971L182.956 429.822ZM187.558 437.635C186.839 437.635 186.188 437.458 185.604 437.104C185.026 436.749 184.576 436.257 184.253 435.627C183.93 434.992 183.769 434.281 183.769 433.494V433.158C183.769 432.346 183.925 431.614 184.237 430.963C184.555 430.312 184.995 429.801 185.558 429.432C186.12 429.057 186.729 428.869 187.386 428.869C188.412 428.869 189.224 429.221 189.823 429.924C190.427 430.622 190.729 431.577 190.729 432.791V433.314H184.698V433.494C184.698 434.452 184.972 435.252 185.519 435.893C186.071 436.528 186.763 436.846 187.597 436.846C188.097 436.846 188.537 436.755 188.917 436.572C189.302 436.39 189.651 436.098 189.964 435.697L190.55 436.143C189.862 437.137 188.865 437.635 187.558 437.635ZM187.386 429.666C186.683 429.666 186.089 429.924 185.604 430.439C185.125 430.955 184.834 431.648 184.729 432.518H189.8V432.416C189.774 431.604 189.542 430.942 189.104 430.432C188.667 429.921 188.094 429.666 187.386 429.666ZM197.886 437.479C197.792 437.213 197.732 436.82 197.706 436.299C197.378 436.726 196.959 437.057 196.448 437.291C195.943 437.52 195.407 437.635 194.839 437.635C194.026 437.635 193.367 437.408 192.862 436.955C192.362 436.502 192.112 435.929 192.112 435.236C192.112 434.413 192.453 433.762 193.136 433.283C193.823 432.804 194.779 432.564 196.003 432.564H197.698V431.604C197.698 430.999 197.511 430.525 197.136 430.182C196.766 429.833 196.224 429.658 195.511 429.658C194.86 429.658 194.321 429.825 193.894 430.158C193.466 430.492 193.253 430.893 193.253 431.361L192.315 431.354C192.315 430.682 192.628 430.101 193.253 429.611C193.878 429.117 194.646 428.869 195.558 428.869C196.5 428.869 197.242 429.106 197.784 429.58C198.331 430.049 198.612 430.705 198.628 431.549V435.549C198.628 436.367 198.714 436.979 198.886 437.385V437.479H197.886ZM194.948 436.807C195.573 436.807 196.131 436.656 196.62 436.354C197.115 436.051 197.474 435.648 197.698 435.143V433.283H196.026C195.094 433.294 194.365 433.465 193.839 433.799C193.313 434.127 193.05 434.58 193.05 435.158C193.05 435.632 193.224 436.025 193.573 436.338C193.927 436.65 194.386 436.807 194.948 436.807ZM202.581 426.861V429.025H204.331V429.791H202.581V435.424C202.581 435.893 202.664 436.242 202.831 436.471C203.003 436.7 203.287 436.814 203.683 436.814C203.839 436.814 204.091 436.788 204.44 436.736L204.479 437.502C204.235 437.59 203.901 437.635 203.479 437.635C202.839 437.635 202.373 437.45 202.081 437.08C201.789 436.705 201.644 436.156 201.644 435.432V429.791H200.089V429.025H201.644V426.861H202.581ZM207.315 437.479H206.378V429.025H207.315V437.479ZM206.214 426.58C206.214 426.403 206.271 426.255 206.386 426.135C206.5 426.01 206.657 425.947 206.854 425.947C207.052 425.947 207.209 426.01 207.323 426.135C207.443 426.255 207.503 426.403 207.503 426.58C207.503 426.757 207.443 426.906 207.323 427.025C207.209 427.145 207.052 427.205 206.854 427.205C206.657 427.205 206.5 427.145 206.386 427.025C206.271 426.906 206.214 426.757 206.214 426.58ZM209.347 433.127C209.347 432.314 209.503 431.583 209.815 430.932C210.133 430.281 210.578 429.775 211.151 429.416C211.729 429.051 212.383 428.869 213.112 428.869C214.237 428.869 215.149 429.265 215.847 430.057C216.545 430.843 216.894 431.887 216.894 433.189V433.385C216.894 434.202 216.735 434.939 216.417 435.596C216.104 436.247 215.662 436.749 215.089 437.104C214.516 437.458 213.862 437.635 213.128 437.635C212.008 437.635 211.097 437.242 210.394 436.455C209.696 435.663 209.347 434.617 209.347 433.314V433.127ZM210.284 433.385C210.284 434.395 210.545 435.226 211.065 435.877C211.591 436.523 212.279 436.846 213.128 436.846C213.972 436.846 214.654 436.523 215.175 435.877C215.701 435.226 215.964 434.369 215.964 433.307V433.127C215.964 432.481 215.844 431.89 215.604 431.354C215.365 430.817 215.029 430.403 214.597 430.111C214.164 429.814 213.67 429.666 213.112 429.666C212.279 429.666 211.599 429.994 211.073 430.65C210.547 431.301 210.284 432.156 210.284 433.213V433.385ZM219.722 429.025L219.753 430.471C220.071 429.95 220.466 429.554 220.94 429.283C221.414 429.007 221.938 428.869 222.511 428.869C223.417 428.869 224.091 429.124 224.534 429.635C224.977 430.145 225.201 430.911 225.206 431.932V437.479H224.276V431.924C224.271 431.169 224.11 430.606 223.792 430.236C223.479 429.867 222.977 429.682 222.284 429.682C221.706 429.682 221.193 429.864 220.745 430.229C220.302 430.588 219.974 431.075 219.761 431.689V437.479H218.831V429.025H219.722Z" fill="#546169"/>
<path d="M143.737 392.812C144.708 392.812 145.482 392.905 146.061 393.092C146.64 393.279 147.228 393.549 147.825 393.904C148.03 394.016 148.208 394.109 148.357 394.184C148.525 394.259 148.665 394.296 148.777 394.296C148.945 394.296 149.076 394.203 149.169 394.016C149.262 393.811 149.337 393.493 149.393 393.064H150.037C149.944 394.315 149.897 396.443 149.897 399.448H149.253C149.178 398.44 148.945 397.479 148.553 396.564C148.18 395.649 147.638 394.912 146.929 394.352C146.238 393.773 145.426 393.484 144.493 393.484C143.578 393.484 142.832 393.745 142.253 394.268C141.693 394.772 141.413 395.463 141.413 396.34C141.413 396.993 141.553 397.563 141.833 398.048C142.113 398.533 142.505 398.981 143.009 399.392C143.513 399.784 144.288 400.325 145.333 401.016L146.229 401.632C147.33 402.36 148.198 402.995 148.833 403.536C149.468 404.077 149.981 404.712 150.373 405.44C150.784 406.149 150.989 406.98 150.989 407.932C150.989 409.127 150.681 410.135 150.065 410.956C149.449 411.759 148.609 412.365 147.545 412.776C146.5 413.187 145.333 413.392 144.045 413.392C143 413.392 142.132 413.299 141.441 413.112C140.75 412.925 140.116 412.673 139.537 412.356C139.126 412.095 138.809 411.964 138.585 411.964C138.417 411.964 138.286 412.067 138.193 412.272C138.1 412.459 138.025 412.767 137.969 413.196H137.325C137.4 412.02 137.437 409.5 137.437 405.636H138.081C138.212 407.727 138.678 409.425 139.481 410.732C140.284 412.02 141.516 412.664 143.177 412.664C144.185 412.664 145.016 412.393 145.669 411.852C146.322 411.311 146.649 410.536 146.649 409.528C146.649 408.483 146.313 407.587 145.641 406.84C144.969 406.093 143.905 405.253 142.449 404.32C141.329 403.592 140.433 402.957 139.761 402.416C139.089 401.875 138.538 401.24 138.109 400.512C137.68 399.765 137.465 398.907 137.465 397.936C137.465 396.816 137.745 395.873 138.305 395.108C138.884 394.324 139.649 393.745 140.601 393.372C141.553 392.999 142.598 392.812 143.737 392.812ZM158.493 398.524H161.797V399.084H158.493V410.396C158.493 410.956 158.586 411.357 158.773 411.6C158.978 411.824 159.295 411.936 159.725 411.936C160.527 411.936 161.162 411.376 161.629 410.256L162.105 410.508C161.395 412.431 160.117 413.392 158.269 413.392C157.037 413.392 156.103 413.075 155.469 412.44C155.077 412.048 154.806 411.563 154.657 410.984C154.526 410.387 154.461 409.575 154.461 408.548V399.084H152.109V398.524H154.461V394.828C156.01 394.828 157.354 394.529 158.493 393.932V398.524ZM170.775 411.096C172.306 411.096 173.538 410.349 174.471 408.856L174.975 409.024C174.602 410.237 173.93 411.273 172.959 412.132C172.007 412.972 170.812 413.392 169.375 413.392C167.396 413.392 165.819 412.767 164.643 411.516C163.486 410.247 162.907 408.38 162.907 405.916C162.907 403.396 163.532 401.473 164.783 400.148C166.034 398.804 167.695 398.132 169.767 398.132C173.276 398.132 175.031 400.204 175.031 404.348H167.163C167.144 404.628 167.135 405.067 167.135 405.664C167.135 406.896 167.303 407.923 167.639 408.744C167.994 409.565 168.442 410.163 168.983 410.536C169.543 410.909 170.14 411.096 170.775 411.096ZM169.599 398.72C168.927 398.72 168.367 399.14 167.919 399.98C167.49 400.801 167.219 402.08 167.107 403.816H171.503C171.54 402.341 171.391 401.128 171.055 400.176C170.738 399.205 170.252 398.72 169.599 398.72ZM186.704 398.132C187.675 398.132 188.534 398.393 189.28 398.916C190.046 399.439 190.643 400.223 191.072 401.268C191.502 402.313 191.716 403.592 191.716 405.104C191.716 407.773 191.128 409.827 189.952 411.264C188.795 412.683 187.218 413.392 185.22 413.392C184.66 413.392 184.128 413.317 183.624 413.168C183.139 413.019 182.719 412.795 182.364 412.496V415.296C182.364 416.117 182.57 416.687 182.98 417.004C183.391 417.321 184.026 417.48 184.884 417.48V418.068L184.128 418.04C182.056 417.984 180.74 417.956 180.18 417.956C179.62 417.956 178.444 417.993 176.652 418.068V417.48C177.268 417.48 177.698 417.34 177.94 417.06C178.202 416.799 178.332 416.304 178.332 415.576V401.576C178.332 400.717 178.192 400.092 177.912 399.7C177.651 399.308 177.194 399.112 176.54 399.112V398.524C177.138 398.58 177.716 398.608 178.276 398.608C179.9 398.608 181.263 398.477 182.364 398.216V400.792C182.756 399.933 183.326 399.28 184.072 398.832C184.819 398.365 185.696 398.132 186.704 398.132ZM184.128 412.636C185.323 412.636 186.182 412.048 186.704 410.872C187.227 409.677 187.488 407.941 187.488 405.664C187.488 403.387 187.274 401.763 186.844 400.792C186.434 399.821 185.836 399.336 185.052 399.336C184.418 399.336 183.848 399.551 183.344 399.98C182.859 400.409 182.532 401.007 182.364 401.772V411.88C182.812 412.384 183.4 412.636 184.128 412.636ZM206.786 398.132C208.223 398.132 209.362 398.449 210.202 399.084C211.042 399.7 211.462 400.568 211.462 401.688C211.462 402.453 211.238 403.163 210.79 403.816C210.361 404.469 209.847 405.048 209.25 405.552C208.653 406.056 207.831 406.681 206.786 407.428C205.442 408.361 204.499 409.108 203.958 409.668H210.006C210.51 409.668 210.883 409.631 211.126 409.556C211.387 409.481 211.565 409.36 211.658 409.192C211.751 409.024 211.826 408.763 211.882 408.408H212.47C212.47 410.611 212.507 412.188 212.582 413.14C212.171 413.047 210.781 413 208.41 413H200.262V412.468C200.505 412.207 200.981 411.759 201.69 411.124C202.773 410.135 203.669 409.257 204.378 408.492C205.106 407.708 205.731 406.812 206.254 405.804C206.795 404.777 207.066 403.713 207.066 402.612C207.066 401.623 206.842 400.904 206.394 400.456C205.965 399.989 205.321 399.756 204.462 399.756C203.678 399.756 202.978 399.943 202.362 400.316C201.765 400.671 201.214 401.203 200.71 401.912L200.234 401.632C201.615 399.299 203.799 398.132 206.786 398.132Z" fill="#FD583E"/>
<circle cx="621.013" cy="416.653" r="76.6474" fill="#EEF1F3"/>
<path d="M576.272 436.127C575.939 436.601 575.415 436.971 574.702 437.236C573.993 437.502 573.199 437.635 572.319 437.635C571.428 437.635 570.637 437.421 569.944 436.994C569.251 436.567 568.715 435.963 568.334 435.182C567.954 434.4 567.762 433.505 567.756 432.494V431.057C567.756 429.479 568.155 428.234 568.952 427.322C569.749 426.406 570.819 425.947 572.163 425.947C573.334 425.947 574.277 426.247 574.991 426.846C575.704 427.439 576.129 428.26 576.264 429.307H575.303C575.163 428.473 574.821 427.843 574.28 427.416C573.743 426.984 573.04 426.768 572.17 426.768C571.108 426.768 570.267 427.145 569.647 427.9C569.027 428.656 568.717 429.721 568.717 431.096V432.439C568.717 433.304 568.863 434.07 569.155 434.736C569.452 435.398 569.874 435.911 570.42 436.275C570.972 436.64 571.605 436.822 572.319 436.822C573.147 436.822 573.858 436.692 574.452 436.432C574.837 436.26 575.124 436.059 575.311 435.83V432.893H572.256V432.08H576.272V436.127ZM582.686 429.822C582.488 429.786 582.277 429.768 582.053 429.768C581.47 429.768 580.975 429.932 580.569 430.26C580.168 430.583 579.881 431.054 579.709 431.674V437.479H578.78V429.025H579.694L579.709 430.369C580.204 429.369 580.999 428.869 582.092 428.869C582.353 428.869 582.558 428.903 582.709 428.971L582.686 429.822ZM583.499 433.127C583.499 432.314 583.655 431.583 583.967 430.932C584.285 430.281 584.73 429.775 585.303 429.416C585.881 429.051 586.535 428.869 587.264 428.869C588.389 428.869 589.301 429.265 589.999 430.057C590.696 430.843 591.045 431.887 591.045 433.189V433.385C591.045 434.202 590.887 434.939 590.569 435.596C590.256 436.247 589.814 436.749 589.241 437.104C588.668 437.458 588.014 437.635 587.28 437.635C586.16 437.635 585.249 437.242 584.545 436.455C583.847 435.663 583.499 434.617 583.499 433.314V433.127ZM584.436 433.385C584.436 434.395 584.696 435.226 585.217 435.877C585.743 436.523 586.431 436.846 587.28 436.846C588.124 436.846 588.806 436.523 589.327 435.877C589.853 435.226 590.116 434.369 590.116 433.307V433.127C590.116 432.481 589.996 431.89 589.756 431.354C589.517 430.817 589.181 430.403 588.749 430.111C588.316 429.814 587.821 429.666 587.264 429.666C586.431 429.666 585.751 429.994 585.225 430.65C584.699 431.301 584.436 432.156 584.436 433.213V433.385ZM595.006 435.533L595.147 436.26L595.334 435.494L597.366 429.025H598.163L600.17 435.439L600.389 436.33L600.569 435.51L602.303 429.025H603.272L600.811 437.479H600.014L597.842 430.775L597.741 430.314L597.639 430.783L595.506 437.479H594.709L592.256 429.025H593.217L595.006 435.533ZM614.272 437.479C614.178 437.213 614.118 436.82 614.092 436.299C613.764 436.726 613.345 437.057 612.834 437.291C612.329 437.52 611.793 437.635 611.225 437.635C610.413 437.635 609.754 437.408 609.249 436.955C608.749 436.502 608.499 435.929 608.499 435.236C608.499 434.413 608.84 433.762 609.522 433.283C610.209 432.804 611.165 432.564 612.389 432.564H614.084V431.604C614.084 430.999 613.897 430.525 613.522 430.182C613.152 429.833 612.61 429.658 611.897 429.658C611.246 429.658 610.707 429.825 610.28 430.158C609.853 430.492 609.639 430.893 609.639 431.361L608.702 431.354C608.702 430.682 609.014 430.101 609.639 429.611C610.264 429.117 611.032 428.869 611.944 428.869C612.887 428.869 613.629 429.106 614.17 429.58C614.717 430.049 614.999 430.705 615.014 431.549V435.549C615.014 436.367 615.1 436.979 615.272 437.385V437.479H614.272ZM611.334 436.807C611.959 436.807 612.517 436.656 613.006 436.354C613.501 436.051 613.86 435.648 614.084 435.143V433.283H612.413C611.48 433.294 610.751 433.465 610.225 433.799C609.699 434.127 609.436 434.58 609.436 435.158C609.436 435.632 609.61 436.025 609.959 436.338C610.314 436.65 610.772 436.807 611.334 436.807ZM618.405 429.025L618.436 430.471C618.754 429.95 619.15 429.554 619.624 429.283C620.097 429.007 620.621 428.869 621.194 428.869C622.1 428.869 622.775 429.124 623.217 429.635C623.66 430.145 623.884 430.911 623.889 431.932V437.479H622.959V431.924C622.954 431.169 622.793 430.606 622.475 430.236C622.163 429.867 621.66 429.682 620.967 429.682C620.389 429.682 619.876 429.864 619.428 430.229C618.985 430.588 618.657 431.075 618.444 431.689V437.479H617.514V429.025H618.405ZM625.936 433.174C625.936 431.861 626.228 430.817 626.811 430.041C627.4 429.26 628.196 428.869 629.202 428.869C630.342 428.869 631.212 429.32 631.811 430.221V425.479H632.741V437.479H631.866L631.827 436.354C631.228 437.208 630.347 437.635 629.186 437.635C628.212 437.635 627.426 437.244 626.827 436.463C626.233 435.676 625.936 434.617 625.936 433.283V433.174ZM626.881 433.338C626.881 434.416 627.097 435.268 627.53 435.893C627.962 436.512 628.571 436.822 629.358 436.822C630.509 436.822 631.327 436.314 631.811 435.299V431.33C631.327 430.231 630.514 429.682 629.374 429.682C628.587 429.682 627.975 429.992 627.538 430.611C627.1 431.226 626.881 432.135 626.881 433.338ZM644.155 435.33C644.155 434.867 643.967 434.494 643.592 434.213C643.222 433.932 642.663 433.713 641.913 433.557C641.163 433.395 640.579 433.213 640.163 433.01C639.751 432.801 639.444 432.549 639.241 432.252C639.043 431.955 638.944 431.596 638.944 431.174C638.944 430.507 639.222 429.958 639.78 429.525C640.337 429.088 641.051 428.869 641.92 428.869C642.863 428.869 643.618 429.104 644.186 429.572C644.759 430.036 645.045 430.643 645.045 431.393H644.108C644.108 430.898 643.9 430.486 643.483 430.158C643.071 429.83 642.551 429.666 641.92 429.666C641.306 429.666 640.811 429.804 640.436 430.08C640.066 430.351 639.881 430.705 639.881 431.143C639.881 431.564 640.035 431.893 640.342 432.127C640.655 432.356 641.22 432.567 642.038 432.76C642.86 432.952 643.475 433.158 643.881 433.377C644.293 433.596 644.597 433.859 644.795 434.166C644.993 434.473 645.092 434.846 645.092 435.283C645.092 435.997 644.803 436.567 644.225 436.994C643.652 437.421 642.902 437.635 641.975 437.635C640.991 437.635 640.191 437.398 639.577 436.924C638.967 436.445 638.663 435.84 638.663 435.111H639.6C639.637 435.658 639.866 436.085 640.288 436.393C640.715 436.695 641.277 436.846 641.975 436.846C642.626 436.846 643.152 436.702 643.553 436.416C643.954 436.13 644.155 435.768 644.155 435.33ZM650.327 436.846C650.978 436.846 651.522 436.663 651.959 436.299C652.402 435.929 652.642 435.452 652.678 434.869H653.577C653.551 435.385 653.389 435.856 653.092 436.283C652.795 436.705 652.4 437.036 651.905 437.275C651.415 437.515 650.889 437.635 650.327 437.635C649.217 437.635 648.337 437.249 647.686 436.479C647.04 435.708 646.717 434.671 646.717 433.369V433.088C646.717 432.255 646.863 431.518 647.155 430.877C647.446 430.236 647.863 429.742 648.405 429.393C648.952 429.044 649.59 428.869 650.319 428.869C651.246 428.869 652.009 429.145 652.608 429.697C653.212 430.249 653.535 430.976 653.577 431.877H652.678C652.637 431.215 652.397 430.682 651.959 430.275C651.527 429.869 650.98 429.666 650.319 429.666C649.475 429.666 648.819 429.971 648.35 430.58C647.887 431.189 647.655 432.044 647.655 433.143V433.416C647.655 434.494 647.887 435.335 648.35 435.939C648.819 436.544 649.478 436.846 650.327 436.846ZM660.788 437.479C660.694 437.213 660.634 436.82 660.608 436.299C660.28 436.726 659.86 437.057 659.35 437.291C658.845 437.52 658.308 437.635 657.741 437.635C656.928 437.635 656.269 437.408 655.764 436.955C655.264 436.502 655.014 435.929 655.014 435.236C655.014 434.413 655.355 433.762 656.038 433.283C656.725 432.804 657.681 432.564 658.905 432.564H660.6V431.604C660.6 430.999 660.413 430.525 660.038 430.182C659.668 429.833 659.126 429.658 658.413 429.658C657.762 429.658 657.222 429.825 656.795 430.158C656.368 430.492 656.155 430.893 656.155 431.361L655.217 431.354C655.217 430.682 655.53 430.101 656.155 429.611C656.78 429.117 657.548 428.869 658.459 428.869C659.402 428.869 660.144 429.106 660.686 429.58C661.233 430.049 661.514 430.705 661.53 431.549V435.549C661.53 436.367 661.616 436.979 661.788 437.385V437.479H660.788ZM657.85 436.807C658.475 436.807 659.032 436.656 659.522 436.354C660.017 436.051 660.376 435.648 660.6 435.143V433.283H658.928C657.996 433.294 657.267 433.465 656.741 433.799C656.215 434.127 655.952 434.58 655.952 435.158C655.952 435.632 656.126 436.025 656.475 436.338C656.829 436.65 657.288 436.807 657.85 436.807ZM665.077 437.479H664.139V425.479H665.077V437.479ZM670.897 437.635C670.178 437.635 669.527 437.458 668.944 437.104C668.366 436.749 667.915 436.257 667.592 435.627C667.269 434.992 667.108 434.281 667.108 433.494V433.158C667.108 432.346 667.264 431.614 667.577 430.963C667.894 430.312 668.334 429.801 668.897 429.432C669.459 429.057 670.069 428.869 670.725 428.869C671.751 428.869 672.564 429.221 673.163 429.924C673.767 430.622 674.069 431.577 674.069 432.791V433.314H668.038V433.494C668.038 434.452 668.311 435.252 668.858 435.893C669.41 436.528 670.103 436.846 670.936 436.846C671.436 436.846 671.876 436.755 672.256 436.572C672.642 436.39 672.991 436.098 673.303 435.697L673.889 436.143C673.202 437.137 672.204 437.635 670.897 437.635ZM670.725 429.666C670.022 429.666 669.428 429.924 668.944 430.439C668.465 430.955 668.173 431.648 668.069 432.518H673.139V432.416C673.113 431.604 672.881 430.942 672.444 430.432C672.006 429.921 671.433 429.666 670.725 429.666Z" fill="#546169"/>
<path d="M588.296 392.812C589.267 392.812 590.042 392.905 590.62 393.092C591.199 393.279 591.787 393.549 592.384 393.904C592.59 394.016 592.767 394.109 592.916 394.184C593.084 394.259 593.224 394.296 593.336 394.296C593.504 394.296 593.635 394.203 593.728 394.016C593.822 393.811 593.896 393.493 593.952 393.064H594.596C594.503 394.315 594.456 396.443 594.456 399.448H593.812C593.738 398.44 593.504 397.479 593.112 396.564C592.739 395.649 592.198 394.912 591.488 394.352C590.798 393.773 589.986 393.484 589.052 393.484C588.138 393.484 587.391 393.745 586.812 394.268C586.252 394.772 585.972 395.463 585.972 396.34C585.972 396.993 586.112 397.563 586.392 398.048C586.672 398.533 587.064 398.981 587.568 399.392C588.072 399.784 588.847 400.325 589.892 401.016L590.788 401.632C591.89 402.36 592.758 402.995 593.392 403.536C594.027 404.077 594.54 404.712 594.932 405.44C595.343 406.149 595.548 406.98 595.548 407.932C595.548 409.127 595.24 410.135 594.624 410.956C594.008 411.759 593.168 412.365 592.104 412.776C591.059 413.187 589.892 413.392 588.604 413.392C587.559 413.392 586.691 413.299 586 413.112C585.31 412.925 584.675 412.673 584.096 412.356C583.686 412.095 583.368 411.964 583.144 411.964C582.976 411.964 582.846 412.067 582.752 412.272C582.659 412.459 582.584 412.767 582.528 413.196H581.884C581.959 412.02 581.996 409.5 581.996 405.636H582.64C582.771 407.727 583.238 409.425 584.04 410.732C584.843 412.02 586.075 412.664 587.736 412.664C588.744 412.664 589.575 412.393 590.228 411.852C590.882 411.311 591.208 410.536 591.208 409.528C591.208 408.483 590.872 407.587 590.2 406.84C589.528 406.093 588.464 405.253 587.008 404.32C585.888 403.592 584.992 402.957 584.32 402.416C583.648 401.875 583.098 401.24 582.668 400.512C582.239 399.765 582.024 398.907 582.024 397.936C582.024 396.816 582.304 395.873 582.864 395.108C583.443 394.324 584.208 393.745 585.16 393.372C586.112 392.999 587.158 392.812 588.296 392.812ZM603.052 398.524H606.356V399.084H603.052V410.396C603.052 410.956 603.145 411.357 603.332 411.6C603.537 411.824 603.854 411.936 604.284 411.936C605.086 411.936 605.721 411.376 606.188 410.256L606.664 410.508C605.954 412.431 604.676 413.392 602.828 413.392C601.596 413.392 600.662 413.075 600.028 412.44C599.636 412.048 599.365 411.563 599.216 410.984C599.085 410.387 599.02 409.575 599.02 408.548V399.084H596.668V398.524H599.02V394.828C600.569 394.828 601.913 394.529 603.052 393.932V398.524ZM615.334 411.096C616.865 411.096 618.097 410.349 619.03 408.856L619.534 409.024C619.161 410.237 618.489 411.273 617.518 412.132C616.566 412.972 615.371 413.392 613.934 413.392C611.955 413.392 610.378 412.767 609.202 411.516C608.045 410.247 607.466 408.38 607.466 405.916C607.466 403.396 608.091 401.473 609.342 400.148C610.593 398.804 612.254 398.132 614.326 398.132C617.835 398.132 619.59 400.204 619.59 404.348H611.722C611.703 404.628 611.694 405.067 611.694 405.664C611.694 406.896 611.862 407.923 612.198 408.744C612.553 409.565 613.001 410.163 613.542 410.536C614.102 410.909 614.699 411.096 615.334 411.096ZM614.158 398.72C613.486 398.72 612.926 399.14 612.478 399.98C612.049 400.801 611.778 402.08 611.666 403.816H616.062C616.099 402.341 615.95 401.128 615.614 400.176C615.297 399.205 614.811 398.72 614.158 398.72ZM631.264 398.132C632.234 398.132 633.093 398.393 633.84 398.916C634.605 399.439 635.202 400.223 635.632 401.268C636.061 402.313 636.276 403.592 636.276 405.104C636.276 407.773 635.688 409.827 634.512 411.264C633.354 412.683 631.777 413.392 629.78 413.392C629.22 413.392 628.688 413.317 628.184 413.168C627.698 413.019 627.278 412.795 626.924 412.496V415.296C626.924 416.117 627.129 416.687 627.54 417.004C627.95 417.321 628.585 417.48 629.444 417.48V418.068L628.688 418.04C626.616 417.984 625.3 417.956 624.74 417.956C624.18 417.956 623.004 417.993 621.212 418.068V417.48C621.828 417.48 622.257 417.34 622.5 417.06C622.761 416.799 622.892 416.304 622.892 415.576V401.576C622.892 400.717 622.752 400.092 622.472 399.7C622.21 399.308 621.753 399.112 621.1 399.112V398.524C621.697 398.58 622.276 398.608 622.836 398.608C624.46 398.608 625.822 398.477 626.924 398.216V400.792C627.316 399.933 627.885 399.28 628.632 398.832C629.378 398.365 630.256 398.132 631.264 398.132ZM628.688 412.636C629.882 412.636 630.741 412.048 631.264 410.872C631.786 409.677 632.048 407.941 632.048 405.664C632.048 403.387 631.833 401.763 631.404 400.792C630.993 399.821 630.396 399.336 629.612 399.336C628.977 399.336 628.408 399.551 627.904 399.98C627.418 400.409 627.092 401.007 626.924 401.772V411.88C627.372 412.384 627.96 412.636 628.688 412.636ZM657.123 412.132C656.899 412.076 655.966 412.029 654.323 411.992V416.948H651.075V411.992H643.431V411.404L653.875 398.132H654.323V409.108H654.547C655.051 409.108 655.425 409.071 655.667 408.996C655.929 408.921 656.106 408.8 656.199 408.632C656.293 408.464 656.367 408.203 656.423 407.848H657.011C657.011 409.827 657.049 411.255 657.123 412.132ZM651.075 409.108V402.584L646.007 409.108H651.075Z" fill="#FD583E"/>
<path d="M527.064 387.307C478.268 356.843 431.881 310.152 397.19 275.862C397.19 275.862 333.803 212.134 268.345 170.033" stroke="#546169" stroke-width="1.5" stroke-miterlimit="10" stroke-linecap="round" stroke-dasharray="4 10"/>
<path d="M89.3176 166.023C56.7346 191.845 36 231.721 36 276.174C35.9999 323.599 59.4105 365.483 95.4068 391.075M706.091 385.672C738.674 359.85 759.409 319.974 759.409 275.521C759.409 234.75 742.018 198.075 714.253 172.326M527.531 165.01C478.591 195.316 432.234 241.962 397.375 276.174C397.375 276.174 334.487 339.362 269.301 381.198" stroke="#546169" stroke-width="1.5" stroke-miterlimit="10" stroke-linecap="round" stroke-dasharray="4 10"/>
<path d="M445.1 51.2C446.812 51.2 448.2 49.8121 448.2 48.1C448.2 46.3879 446.812 45 445.1 45C443.388 45 442 46.3879 442 48.1C442 49.8121 443.388 51.2 445.1 51.2Z" fill="#FD583E"/>
<path d="M304.1 527.2C305.812 527.2 307.2 525.812 307.2 524.1C307.2 522.388 305.812 521 304.1 521C302.388 521 301 522.388 301 524.1C301 525.812 302.388 527.2 304.1 527.2Z" fill="#FD583E"/>
<defs>
<clipPath id="clip0">
<rect width="207" height="146" fill="white" transform="matrix(-1 0 0 1 760 0)"/>
</clipPath>
<clipPath id="clip1">
<rect width="195" height="140" fill="white" transform="matrix(-1 0 0 1 195 433)"/>
</clipPath>
<clipPath id="clip2">
<rect width="143" height="144" fill="white" transform="matrix(-1 -8.74228e-08 -8.74228e-08 1 763 419)"/>
</clipPath>
</defs>
</svg>
