<svg width="1236" height="592" viewBox="0 0 1236 592" fill="none" xmlns="http://www.w3.org/2000/svg">
<path d="M798 447.777C731.894 406.44 669.051 343.083 622.052 296.552C622.052 296.552 536.179 210.077 447.5 152.949" stroke="#546169" stroke-width="1.5" stroke-miterlimit="10" stroke-linecap="round" stroke-dasharray="4 10"/>
<path d="M203.157 146.885C158.85 182.18 130.655 236.686 130.655 297.447C130.655 362.27 162.489 419.519 211.437 454.5M1041.84 447.115C1086.15 411.82 1114.34 357.314 1114.34 296.553C1114.34 240.826 1090.7 190.696 1052.94 155.5M799.039 145.5C732.49 186.925 669.454 250.683 622.053 297.447C622.053 297.447 536.537 383.815 447.898 441" stroke="#546169" stroke-width="1.5" stroke-miterlimit="10" stroke-linecap="round" stroke-dasharray="4 10"/>
<circle cx="925" cy="104" r="104" fill="#2BCBC2"/>
<text fill="white" xml:space="preserve" style="white-space: pre" font-family="Roboto" font-size="16" letter-spacing="0px"><tspan x="883.469" y="62.8438">Constantly &#x2028;</tspan><tspan x="847.828" y="86.8438">improve with insights </tspan><tspan x="850.586" y="110.844">and data. Use this to </tspan><tspan x="842.312" y="134.844">enhance your products </tspan><tspan x="878.711" y="158.844">and services</tspan></text>
<circle cx="322" cy="104" r="104" fill="#2BCBC2"/>
<text fill="white" xml:space="preserve" style="white-space: pre" font-family="Roboto" font-size="16" letter-spacing="0px"><tspan x="256.891" y="86.8438">Use research and &#x2028;</tspan><tspan x="253.273" y="110.844">data to understand </tspan><tspan x="257.453" y="134.844">customers&#x2019; needs</tspan></text>
<circle cx="322" cy="488" r="104" fill="#2BCBC2"/>
<text fill="white" xml:space="preserve" style="white-space: pre" font-family="Roboto" font-size="16" letter-spacing="0px"><tspan x="245.836" y="470.844">Build lead generation </tspan><tspan x="257.195" y="494.844">tools that support </tspan><tspan x="252.766" y="518.844">sustainable growth </tspan></text>
<circle cx="925" cy="488" r="104" fill="#2BCBC2"/>
<text fill="white" xml:space="preserve" style="white-space: pre" font-family="Roboto" font-size="16" letter-spacing="0px"><tspan x="883.727" y="430.844">Accelerate &#x2028;</tspan><tspan x="869.258" y="454.844">growth through </tspan><tspan x="845.43" y="478.844">building re-usable and </tspan><tspan x="852.312" y="502.844">scalable assets that </tspan><tspan x="846.781" y="526.844">are cost effective and </tspan><tspan x="863.508" y="550.844">free up your time</tspan></text>
<path d="M198.429 151.286L203.139 133.709L216.006 146.576L198.429 151.286Z" fill="#546169"/>
<path d="M218.063 459.134L200.023 456.746L211.111 442.317L218.063 459.134Z" fill="#546169"/>
<path d="M442.489 443.321L432.706 458.665L424.31 442.52L442.489 443.321Z" fill="#546169"/>
<path d="M819.489 134.321L809.706 149.665L801.31 133.52L819.489 134.321Z" fill="#546169"/>
<path d="M1045.12 148.997L1027.05 146.845L1037.95 132.273L1045.12 148.997Z" fill="#546169"/>
<path d="M1050.44 451.714L1032.24 451.56L1041.47 435.878L1050.44 451.714Z" fill="#546169"/>
<path d="M821.065 449.334L814.105 466.147L803.024 451.713L821.065 449.334Z" fill="#546169"/>
<path d="M447.492 142.406L437.436 157.572L429.33 141.28L447.492 142.406Z" fill="#546169"/>
<path d="M1201.97 157.401L1205.27 145.301" stroke="#546169" stroke-width="1.5" stroke-miterlimit="10" stroke-linecap="round"/>
<path d="M1205.17 145.499C1205.17 145.499 1218.27 150.499 1222.27 135.199C1207.47 131.299 1205.17 145.499 1205.17 145.499Z" stroke="#546169" stroke-width="1.5" stroke-miterlimit="10" stroke-linecap="round"/>
<path d="M1204.27 148.6C1204.27 148.6 1190.47 146.2 1194.87 131C1209.57 135.3 1204.27 148.6 1204.27 148.6Z" stroke="#546169" stroke-width="1.5" stroke-miterlimit="10" stroke-linecap="round"/>
<path d="M1225.5 449.162C1226.06 456.295 1220.78 462.751 1213.67 463.567C1206.61 464.296 1200.45 459.26 1199.75 452.162C1199.19 445.029 1210.61 427.162 1210.61 427.162C1210.61 427.162 1224.93 442.029 1225.5 449.162Z" stroke="#546169" stroke-width="1.5" stroke-miterlimit="10"/>
<path d="M1211.83 459.638C1207.84 460.095 1204.37 457.205 1203.97 453.053" stroke="#546169" stroke-width="1.5" stroke-miterlimit="10" stroke-linecap="round"/>
<path d="M21.0849 143.431C22.2999 143.431 23.2849 142.446 23.2849 141.231C23.2849 140.016 22.2999 139.031 21.0849 139.031C19.8699 139.031 18.8849 140.016 18.8849 141.231C18.8849 142.446 19.8699 143.431 21.0849 143.431Z" fill="#6F6F6E"/>
<path d="M38.2988 148.184C40.2006 143.651 33.9396 136.703 24.3146 132.665C14.6895 128.626 5.34519 129.027 3.44343 133.559C1.54168 138.091 7.80264 145.039 17.4277 149.078C27.0528 153.116 36.3971 152.716 38.2988 148.184Z" stroke="#546169" stroke-width="1.5" stroke-miterlimit="10"/>
<path d="M29.0778 144.315C33.1164 134.69 32.716 125.345 28.1836 123.443C23.6511 121.542 16.703 127.803 12.6645 137.428C8.62593 147.053 9.02631 156.397 13.5587 158.299C18.0912 160.201 25.0393 153.94 29.0778 144.315Z" stroke="#546169" stroke-width="1.5" stroke-miterlimit="10"/>
<path d="M569.4 67.4004L572.7 70.6004" stroke="#546169" stroke-width="1.5" stroke-miterlimit="10" stroke-linecap="round"/>
<path d="M547.2 45.1992L550 47.9992" stroke="#546169" stroke-width="1.5" stroke-miterlimit="10" stroke-linecap="round"/>
<path d="M560 71.3008V75.9008" stroke="#546169" stroke-width="1.5" stroke-miterlimit="10" stroke-linecap="round"/>
<path d="M560 40V43.9" stroke="#546169" stroke-width="1.5" stroke-miterlimit="10" stroke-linecap="round"/>
<path d="M550.5 67.4004L547.2 70.6004" stroke="#546169" stroke-width="1.5" stroke-miterlimit="10" stroke-linecap="round"/>
<path d="M572.7 45.1992L569.9 47.9992" stroke="#546169" stroke-width="1.5" stroke-miterlimit="10" stroke-linecap="round"/>
<path d="M546.5 57.9004H542" stroke="#546169" stroke-width="1.5" stroke-miterlimit="10" stroke-linecap="round"/>
<path d="M577.9 57.9004H574" stroke="#546169" stroke-width="1.5" stroke-miterlimit="10" stroke-linecap="round"/>
<path d="M559.9 68.2C565.754 68.2 570.5 63.4542 570.5 57.6C570.5 51.7458 565.754 47 559.9 47C554.046 47 549.3 51.7458 549.3 57.6C549.3 63.4542 554.046 68.2 559.9 68.2Z" stroke="#546169" stroke-width="1.5" stroke-miterlimit="10" stroke-linecap="round"/>
<path d="M640.5 543.3C638.3 540.7 637 537.4 637 533.8C637 525.7 643.6 519.1 651.7 519.1C652.5 519.1 653.4 519.2 654.2 519.3" stroke="#546169" stroke-width="1.5" stroke-linecap="round" stroke-linejoin="round"/>
<path d="M648.5 525.2L647.6 524L653.5 519.5L648.5 514L649.6 513L655.7 519.7L648.5 525.2Z" fill="#546169"/>
<path d="M662.8 524.301C665 526.901 666.3 530.201 666.3 533.801C666.3 541.901 659.7 548.501 651.6 548.501C650.8 548.501 650 548.401 649.3 548.301" stroke="#546169" stroke-width="1.5" stroke-linecap="round" stroke-linejoin="round"/>
<path d="M654.8 542.4L655.7 543.6L649.9 548.1L654.9 553.6L653.7 554.6L647.7 547.9L654.8 542.4Z" fill="#546169"/>
<path d="M1225.1 296.2C1226.81 296.2 1228.2 294.812 1228.2 293.1C1228.2 291.388 1226.81 290 1225.1 290C1223.39 290 1222 291.388 1222 293.1C1222 294.812 1223.39 296.2 1225.1 296.2Z" fill="#EDF1F4"/>
<path d="M371.1 315.2C372.812 315.2 374.2 313.812 374.2 312.1C374.2 310.388 372.812 309 371.1 309C369.388 309 368 310.388 368 312.1C368 313.812 369.388 315.2 371.1 315.2Z" fill="#FD583E"/>
<path d="M858.1 244.2C859.812 244.2 861.2 242.812 861.2 241.1C861.2 239.388 859.812 238 858.1 238C856.388 238 855 239.388 855 241.1C855 242.812 856.388 244.2 858.1 244.2Z" fill="#FF5533"/>
<path d="M20.1 461.2C21.8121 461.2 23.2 459.812 23.2 458.1C23.2 456.388 21.8121 455 20.1 455C18.3879 455 17 456.388 17 458.1C17 459.812 18.3879 461.2 20.1 461.2Z" fill="#FF5533"/>
<path d="M1155.1 64.2C1156.81 64.2 1158.2 62.8121 1158.2 61.1C1158.2 59.3879 1156.81 58 1155.1 58C1153.39 58 1152 59.3879 1152 61.1C1152 62.8121 1153.39 64.2 1155.1 64.2Z" fill="#FF5533"/>
</svg>
