<svg width="295" height="176" viewBox="0 0 295 176" fill="none" xmlns="http://www.w3.org/2000/svg">
<path d="M199.399 133.124C179.746 120.835 161.063 101.999 147.09 88.1654C147.09 88.1654 121.56 62.4566 95.1962 45.4727" stroke="#546169" stroke-width="1.5" stroke-miterlimit="10" stroke-linecap="round" stroke-dasharray="4 10"/>
<path d="M22.5544 43.6675C9.38223 54.1606 0.999956 70.3651 0.999955 88.4292C0.999954 107.701 10.464 124.721 25.016 135.121M271.894 132.925C285.066 122.432 293.448 106.228 293.448 88.1635C293.448 71.5959 286.417 56.6925 275.193 46.2288M199.708 43.2559C179.924 55.5713 161.183 74.5266 147.091 88.4292C147.091 88.4292 121.667 114.106 95.3153 131.107" stroke="#546169" stroke-width="1.5" stroke-miterlimit="10" stroke-linecap="round" stroke-dasharray="4 10"/>
<circle cx="57.8857" cy="30.9189" r="30.9189" fill="#EEF1F3"/>
<path d="M38.0781 31.7891C38.1458 32.9818 38.4089 33.9505 38.8672 34.6953C39.3307 35.4349 40.0391 35.8047 40.9922 35.8047C41.3672 35.8047 41.7031 35.7396 42 35.6094C42.3021 35.474 42.5391 35.2708 42.7109 35C42.888 34.7292 42.9766 34.401 42.9766 34.0156C42.9766 33.599 42.8776 33.2266 42.6797 32.8984C42.487 32.5651 42.224 32.263 41.8906 31.9922C41.5625 31.7161 41.1224 31.3984 40.5703 31.0391C39.9245 30.6224 39.4115 30.2604 39.0312 29.9531C38.6562 29.6458 38.3438 29.2812 38.0938 28.8594C37.849 28.4375 37.7266 27.9479 37.7266 27.3906C37.7266 26.7448 37.8906 26.2031 38.2188 25.7656C38.5469 25.3229 38.9818 24.9948 39.5234 24.7812C40.0651 24.5677 40.6615 24.4609 41.3125 24.4609C41.6979 24.4609 42.0312 24.4896 42.3125 24.5469C42.599 24.6042 42.8359 24.6771 43.0234 24.7656C43.2161 24.849 43.4245 24.9557 43.6484 25.0859C43.9036 25.237 44.0833 25.3125 44.1875 25.3125C44.2865 25.3125 44.362 25.2578 44.4141 25.1484C44.4661 25.0339 44.5078 24.8542 44.5391 24.6094H44.9062C44.8542 25.3229 44.8281 26.5391 44.8281 28.2578H44.4609C44.4245 27.6797 44.2943 27.1302 44.0703 26.6094C43.8516 26.0885 43.5417 25.6667 43.1406 25.3438C42.7448 25.0156 42.2786 24.8516 41.7422 24.8516C41.4036 24.8516 41.099 24.9167 40.8281 25.0469C40.5625 25.1771 40.3542 25.3672 40.2031 25.6172C40.0573 25.862 39.9844 26.1484 39.9844 26.4766C39.9844 27.0078 40.1432 27.4427 40.4609 27.7812C40.7786 28.1198 41.1927 28.4635 41.7031 28.8125C42.2135 29.1562 42.5573 29.388 42.7344 29.5078C43.3594 29.9245 43.8542 30.2865 44.2188 30.5938C44.5833 30.901 44.8802 31.2604 45.1094 31.6719C45.3385 32.0833 45.4531 32.5599 45.4531 33.1016C45.4531 33.7839 45.276 34.3594 44.9219 34.8281C44.5677 35.2969 44.0911 35.6484 43.4922 35.8828C42.8932 36.112 42.224 36.2266 41.4844 36.2266C40.8854 36.2266 40.388 36.1719 39.9922 36.0625C39.6016 35.9583 39.2396 35.8151 38.9062 35.6328C38.6771 35.4818 38.4974 35.4062 38.3672 35.4062C38.2682 35.4062 38.1927 35.4635 38.1406 35.5781C38.0885 35.6875 38.0469 35.8646 38.0156 36.1094H37.6484C37.6901 35.4427 37.7109 34.0026 37.7109 31.7891H38.0781ZM51.6406 27.7422V28.0625H49.75V34.5156C49.75 34.8333 49.8073 35.0599 49.9219 35.1953C50.0365 35.3255 50.2135 35.3906 50.4531 35.3906C50.9062 35.3906 51.2682 35.0703 51.5391 34.4297L51.8125 34.5781C51.4115 35.6771 50.6823 36.2266 49.625 36.2266C48.9219 36.2266 48.388 36.0443 48.0234 35.6797C47.7995 35.4609 47.6458 35.1849 47.5625 34.8516C47.4844 34.513 47.4453 34.0469 47.4453 33.4531V28.0625H46.1016V27.7422H47.4453V25.6172C48.3255 25.6172 49.0938 25.4453 49.75 25.1016V27.7422H51.6406ZM54.7188 31.0547C54.7031 31.2109 54.6953 31.4609 54.6953 31.8047C54.6953 32.513 54.7943 33.1016 54.9922 33.5703C55.1901 34.0339 55.4453 34.375 55.7578 34.5938C56.0755 34.8073 56.4141 34.9141 56.7734 34.9141C57.6536 34.9141 58.3594 34.487 58.8906 33.6328L59.1719 33.7266C59.0365 34.1641 58.8255 34.5729 58.5391 34.9531C58.2578 35.3281 57.8984 35.6354 57.4609 35.875C57.0286 36.1094 56.5339 36.2266 55.9766 36.2266C55.2422 36.2266 54.5964 36.0703 54.0391 35.7578C53.487 35.4453 53.0547 34.9714 52.7422 34.3359C52.4349 33.6953 52.2812 32.901 52.2812 31.9531C52.2812 30.9844 52.4479 30.1693 52.7812 29.5078C53.1146 28.8411 53.5755 28.3411 54.1641 28.0078C54.7526 27.6745 55.4323 27.5078 56.2031 27.5078C58.2083 27.5078 59.2109 28.6901 59.2109 31.0547H54.7188ZM57.1953 30.75C57.2109 29.9167 57.125 29.224 56.9375 28.6719C56.7552 28.1198 56.4766 27.8438 56.1016 27.8438C55.7214 27.8438 55.4036 28.0807 55.1484 28.5547C54.8984 29.0234 54.7448 29.7552 54.6875 30.75H57.1953ZM63.3984 29.0391C63.6224 28.5391 63.9479 28.1589 64.375 27.8984C64.8073 27.638 65.3073 27.5078 65.875 27.5078C66.4271 27.5078 66.9193 27.6589 67.3516 27.9609C67.7839 28.2578 68.1224 28.7057 68.3672 29.3047C68.6172 29.8984 68.7422 30.625 68.7422 31.4844C68.7422 32.5052 68.5885 33.3724 68.2812 34.0859C67.9792 34.7943 67.5495 35.3281 66.9922 35.6875C66.4401 36.0469 65.7865 36.2266 65.0312 36.2266C64.3438 36.2266 63.7995 36.0573 63.3984 35.7188V37.3125C63.3984 37.7812 63.5156 38.1068 63.75 38.2891C63.9896 38.4714 64.3516 38.5625 64.8359 38.5625V38.8984C64.6797 38.8932 64.3255 38.8802 63.7734 38.8594C63.2214 38.8385 62.6797 38.8281 62.1484 38.8281C61.7422 38.8281 61.3281 38.8385 60.9062 38.8594C60.4896 38.8802 60.2318 38.8932 60.1328 38.8984V38.5625C60.3724 38.5625 60.5599 38.5286 60.6953 38.4609C60.8307 38.3984 60.9297 38.2865 60.9922 38.125C61.0599 37.9688 61.0938 37.75 61.0938 37.4688V29.4688C61.0938 28.9792 61.0156 28.6224 60.8594 28.3984C60.7083 28.1745 60.4453 28.0625 60.0703 28.0625V27.7266C60.4089 27.7578 60.7396 27.7734 61.0625 27.7734C61.9948 27.7734 62.7734 27.7005 63.3984 27.5547V29.0391ZM63.3984 35.3672C63.638 35.6484 63.974 35.7891 64.4062 35.7891C65.0885 35.7891 65.5781 35.4505 65.875 34.7734C66.1771 34.0911 66.3281 33.1016 66.3281 31.8047C66.3281 30.5078 66.2083 29.5833 65.9688 29.0312C65.7292 28.474 65.3854 28.1953 64.9375 28.1953C64.5729 28.1953 64.2474 28.3177 63.9609 28.5625C63.6745 28.8073 63.487 29.1458 63.3984 29.5781V35.3672ZM77.6094 34.4453C77.6094 34.763 77.6458 35.0104 77.7188 35.1875C77.7969 35.3594 77.9167 35.4818 78.0781 35.5547C78.2448 35.6276 78.4714 35.6641 78.7578 35.6641V36C77.612 35.9583 76.875 35.9375 76.5469 35.9375C76.2135 35.9375 75.2969 35.9583 73.7969 36V35.6641C74.3021 35.6641 74.6797 35.5703 74.9297 35.3828C75.1797 35.1901 75.3047 34.8464 75.3047 34.3516V30.4453C75.3047 29.9297 75.2578 29.5521 75.1641 29.3125C75.0755 29.0729 74.9245 28.9141 74.7109 28.8359C74.4974 28.7578 74.1719 28.7188 73.7344 28.7188V28.3672C74.6615 28.3516 75.4245 28.2839 76.0234 28.1641C76.6224 28.0391 77.151 27.8359 77.6094 27.5547V34.4453Z" fill="#2BCBC2"/>
<circle cx="57.8857" cy="145.081" r="30.9189" fill="#EEF1F3"/>
<path d="M36.0156 145.789C36.0833 146.982 36.3464 147.951 36.8047 148.695C37.2682 149.435 37.9766 149.805 38.9297 149.805C39.3047 149.805 39.6406 149.74 39.9375 149.609C40.2396 149.474 40.4766 149.271 40.6484 149C40.8255 148.729 40.9141 148.401 40.9141 148.016C40.9141 147.599 40.8151 147.227 40.6172 146.898C40.4245 146.565 40.1615 146.263 39.8281 145.992C39.5 145.716 39.0599 145.398 38.5078 145.039C37.862 144.622 37.349 144.26 36.9688 143.953C36.5938 143.646 36.2812 143.281 36.0312 142.859C35.7865 142.438 35.6641 141.948 35.6641 141.391C35.6641 140.745 35.8281 140.203 36.1562 139.766C36.4844 139.323 36.9193 138.995 37.4609 138.781C38.0026 138.568 38.599 138.461 39.25 138.461C39.6354 138.461 39.9688 138.49 40.25 138.547C40.5365 138.604 40.7734 138.677 40.9609 138.766C41.1536 138.849 41.362 138.956 41.5859 139.086C41.8411 139.237 42.0208 139.312 42.125 139.312C42.224 139.312 42.2995 139.258 42.3516 139.148C42.4036 139.034 42.4453 138.854 42.4766 138.609H42.8438C42.7917 139.323 42.7656 140.539 42.7656 142.258H42.3984C42.362 141.68 42.2318 141.13 42.0078 140.609C41.7891 140.089 41.4792 139.667 41.0781 139.344C40.6823 139.016 40.2161 138.852 39.6797 138.852C39.3411 138.852 39.0365 138.917 38.7656 139.047C38.5 139.177 38.2917 139.367 38.1406 139.617C37.9948 139.862 37.9219 140.148 37.9219 140.477C37.9219 141.008 38.0807 141.443 38.3984 141.781C38.7161 142.12 39.1302 142.464 39.6406 142.812C40.151 143.156 40.4948 143.388 40.6719 143.508C41.2969 143.924 41.7917 144.286 42.1562 144.594C42.5208 144.901 42.8177 145.26 43.0469 145.672C43.276 146.083 43.3906 146.56 43.3906 147.102C43.3906 147.784 43.2135 148.359 42.8594 148.828C42.5052 149.297 42.0286 149.648 41.4297 149.883C40.8307 150.112 40.1615 150.227 39.4219 150.227C38.8229 150.227 38.3255 150.172 37.9297 150.062C37.5391 149.958 37.1771 149.815 36.8438 149.633C36.6146 149.482 36.4349 149.406 36.3047 149.406C36.2057 149.406 36.1302 149.464 36.0781 149.578C36.026 149.688 35.9844 149.865 35.9531 150.109H35.5859C35.6276 149.443 35.6484 148.003 35.6484 145.789H36.0156ZM49.5781 141.742V142.062H47.6875V148.516C47.6875 148.833 47.7448 149.06 47.8594 149.195C47.974 149.326 48.151 149.391 48.3906 149.391C48.8438 149.391 49.2057 149.07 49.4766 148.43L49.75 148.578C49.349 149.677 48.6198 150.227 47.5625 150.227C46.8594 150.227 46.3255 150.044 45.9609 149.68C45.737 149.461 45.5833 149.185 45.5 148.852C45.4219 148.513 45.3828 148.047 45.3828 147.453V142.062H44.0391V141.742H45.3828V139.617C46.263 139.617 47.0312 139.445 47.6875 139.102V141.742H49.5781ZM52.6562 145.055C52.6406 145.211 52.6328 145.461 52.6328 145.805C52.6328 146.513 52.7318 147.102 52.9297 147.57C53.1276 148.034 53.3828 148.375 53.6953 148.594C54.013 148.807 54.3516 148.914 54.7109 148.914C55.5911 148.914 56.2969 148.487 56.8281 147.633L57.1094 147.727C56.974 148.164 56.763 148.573 56.4766 148.953C56.1953 149.328 55.8359 149.635 55.3984 149.875C54.9661 150.109 54.4714 150.227 53.9141 150.227C53.1797 150.227 52.5339 150.07 51.9766 149.758C51.4245 149.445 50.9922 148.971 50.6797 148.336C50.3724 147.695 50.2188 146.901 50.2188 145.953C50.2188 144.984 50.3854 144.169 50.7188 143.508C51.0521 142.841 51.513 142.341 52.1016 142.008C52.6901 141.674 53.3698 141.508 54.1406 141.508C56.1458 141.508 57.1484 142.69 57.1484 145.055H52.6562ZM55.1328 144.75C55.1484 143.917 55.0625 143.224 54.875 142.672C54.6927 142.12 54.4141 141.844 54.0391 141.844C53.6589 141.844 53.3411 142.081 53.0859 142.555C52.8359 143.023 52.6823 143.755 52.625 144.75H55.1328ZM61.3359 143.039C61.5599 142.539 61.8854 142.159 62.3125 141.898C62.7448 141.638 63.2448 141.508 63.8125 141.508C64.3646 141.508 64.8568 141.659 65.2891 141.961C65.7214 142.258 66.0599 142.706 66.3047 143.305C66.5547 143.898 66.6797 144.625 66.6797 145.484C66.6797 146.505 66.526 147.372 66.2188 148.086C65.9167 148.794 65.487 149.328 64.9297 149.688C64.3776 150.047 63.724 150.227 62.9688 150.227C62.2812 150.227 61.737 150.057 61.3359 149.719V151.312C61.3359 151.781 61.4531 152.107 61.6875 152.289C61.9271 152.471 62.2891 152.562 62.7734 152.562V152.898C62.6172 152.893 62.263 152.88 61.7109 152.859C61.1589 152.839 60.6172 152.828 60.0859 152.828C59.6797 152.828 59.2656 152.839 58.8438 152.859C58.4271 152.88 58.1693 152.893 58.0703 152.898V152.562C58.3099 152.562 58.4974 152.529 58.6328 152.461C58.7682 152.398 58.8672 152.286 58.9297 152.125C58.9974 151.969 59.0312 151.75 59.0312 151.469V143.469C59.0312 142.979 58.9531 142.622 58.7969 142.398C58.6458 142.174 58.3828 142.062 58.0078 142.062V141.727C58.3464 141.758 58.6771 141.773 59 141.773C59.9323 141.773 60.7109 141.701 61.3359 141.555V143.039ZM61.3359 149.367C61.5755 149.648 61.9115 149.789 62.3438 149.789C63.026 149.789 63.5156 149.451 63.8125 148.773C64.1146 148.091 64.2656 147.102 64.2656 145.805C64.2656 144.508 64.1458 143.583 63.9062 143.031C63.6667 142.474 63.3229 142.195 62.875 142.195C62.5104 142.195 62.1849 142.318 61.8984 142.562C61.612 142.807 61.4245 143.146 61.3359 143.578V149.367ZM71.5625 143.508C72.3438 142.174 73.5911 141.508 75.3047 141.508C75.8516 141.508 76.3255 141.589 76.7266 141.75C77.1276 141.906 77.4349 142.138 77.6484 142.445C77.8672 142.747 77.9766 143.112 77.9766 143.539C77.9766 144.159 77.75 144.706 77.2969 145.18C76.8438 145.654 76.1979 146.185 75.3594 146.773C74.5208 147.362 73.9635 147.802 73.6875 148.094H77.1484C77.4401 148.094 77.6562 148.073 77.7969 148.031C77.9375 147.984 78.0365 147.914 78.0938 147.82C78.151 147.721 78.1927 147.573 78.2188 147.375H78.5547C78.5547 148.635 78.5755 149.536 78.6172 150.078C78.3776 150.026 77.5833 150 76.2344 150H71.5781V149.695C71.7292 149.539 72.1875 149.112 72.9531 148.414C73.7188 147.716 74.3281 147.008 74.7812 146.289C75.2396 145.565 75.4688 144.823 75.4688 144.062C75.4688 142.974 74.9714 142.43 73.9766 142.43C73.5286 142.43 73.1302 142.534 72.7812 142.742C72.4375 142.945 72.1224 143.253 71.8359 143.664L71.5625 143.508Z" fill="#2BCBC2"/>
<circle cx="237.157" cy="144.919" r="30.9189" fill="#EEF1F3"/>
<path d="M215.102 145.789C215.169 146.982 215.432 147.951 215.891 148.695C216.354 149.435 217.062 149.805 218.016 149.805C218.391 149.805 218.727 149.74 219.023 149.609C219.326 149.474 219.562 149.271 219.734 149C219.911 148.729 220 148.401 220 148.016C220 147.599 219.901 147.227 219.703 146.898C219.51 146.565 219.247 146.263 218.914 145.992C218.586 145.716 218.146 145.398 217.594 145.039C216.948 144.622 216.435 144.26 216.055 143.953C215.68 143.646 215.367 143.281 215.117 142.859C214.872 142.438 214.75 141.948 214.75 141.391C214.75 140.745 214.914 140.203 215.242 139.766C215.57 139.323 216.005 138.995 216.547 138.781C217.089 138.568 217.685 138.461 218.336 138.461C218.721 138.461 219.055 138.49 219.336 138.547C219.622 138.604 219.859 138.677 220.047 138.766C220.24 138.849 220.448 138.956 220.672 139.086C220.927 139.237 221.107 139.312 221.211 139.312C221.31 139.312 221.385 139.258 221.438 139.148C221.49 139.034 221.531 138.854 221.562 138.609H221.93C221.878 139.323 221.852 140.539 221.852 142.258H221.484C221.448 141.68 221.318 141.13 221.094 140.609C220.875 140.089 220.565 139.667 220.164 139.344C219.768 139.016 219.302 138.852 218.766 138.852C218.427 138.852 218.122 138.917 217.852 139.047C217.586 139.177 217.378 139.367 217.227 139.617C217.081 139.862 217.008 140.148 217.008 140.477C217.008 141.008 217.167 141.443 217.484 141.781C217.802 142.12 218.216 142.464 218.727 142.812C219.237 143.156 219.581 143.388 219.758 143.508C220.383 143.924 220.878 144.286 221.242 144.594C221.607 144.901 221.904 145.26 222.133 145.672C222.362 146.083 222.477 146.56 222.477 147.102C222.477 147.784 222.299 148.359 221.945 148.828C221.591 149.297 221.115 149.648 220.516 149.883C219.917 150.112 219.247 150.227 218.508 150.227C217.909 150.227 217.411 150.172 217.016 150.062C216.625 149.958 216.263 149.815 215.93 149.633C215.701 149.482 215.521 149.406 215.391 149.406C215.292 149.406 215.216 149.464 215.164 149.578C215.112 149.688 215.07 149.865 215.039 150.109H214.672C214.714 149.443 214.734 148.003 214.734 145.789H215.102ZM228.664 141.742V142.062H226.773V148.516C226.773 148.833 226.831 149.06 226.945 149.195C227.06 149.326 227.237 149.391 227.477 149.391C227.93 149.391 228.292 149.07 228.562 148.43L228.836 148.578C228.435 149.677 227.706 150.227 226.648 150.227C225.945 150.227 225.411 150.044 225.047 149.68C224.823 149.461 224.669 149.185 224.586 148.852C224.508 148.513 224.469 148.047 224.469 147.453V142.062H223.125V141.742H224.469V139.617C225.349 139.617 226.117 139.445 226.773 139.102V141.742H228.664ZM231.742 145.055C231.727 145.211 231.719 145.461 231.719 145.805C231.719 146.513 231.818 147.102 232.016 147.57C232.214 148.034 232.469 148.375 232.781 148.594C233.099 148.807 233.438 148.914 233.797 148.914C234.677 148.914 235.383 148.487 235.914 147.633L236.195 147.727C236.06 148.164 235.849 148.573 235.562 148.953C235.281 149.328 234.922 149.635 234.484 149.875C234.052 150.109 233.557 150.227 233 150.227C232.266 150.227 231.62 150.07 231.062 149.758C230.51 149.445 230.078 148.971 229.766 148.336C229.458 147.695 229.305 146.901 229.305 145.953C229.305 144.984 229.471 144.169 229.805 143.508C230.138 142.841 230.599 142.341 231.188 142.008C231.776 141.674 232.456 141.508 233.227 141.508C235.232 141.508 236.234 142.69 236.234 145.055H231.742ZM234.219 144.75C234.234 143.917 234.148 143.224 233.961 142.672C233.779 142.12 233.5 141.844 233.125 141.844C232.745 141.844 232.427 142.081 232.172 142.555C231.922 143.023 231.768 143.755 231.711 144.75H234.219ZM240.422 143.039C240.646 142.539 240.971 142.159 241.398 141.898C241.831 141.638 242.331 141.508 242.898 141.508C243.451 141.508 243.943 141.659 244.375 141.961C244.807 142.258 245.146 142.706 245.391 143.305C245.641 143.898 245.766 144.625 245.766 145.484C245.766 146.505 245.612 147.372 245.305 148.086C245.003 148.794 244.573 149.328 244.016 149.688C243.464 150.047 242.81 150.227 242.055 150.227C241.367 150.227 240.823 150.057 240.422 149.719V151.312C240.422 151.781 240.539 152.107 240.773 152.289C241.013 152.471 241.375 152.562 241.859 152.562V152.898C241.703 152.893 241.349 152.88 240.797 152.859C240.245 152.839 239.703 152.828 239.172 152.828C238.766 152.828 238.352 152.839 237.93 152.859C237.513 152.88 237.255 152.893 237.156 152.898V152.562C237.396 152.562 237.583 152.529 237.719 152.461C237.854 152.398 237.953 152.286 238.016 152.125C238.083 151.969 238.117 151.75 238.117 151.469V143.469C238.117 142.979 238.039 142.622 237.883 142.398C237.732 142.174 237.469 142.062 237.094 142.062V141.727C237.432 141.758 237.763 141.773 238.086 141.773C239.018 141.773 239.797 141.701 240.422 141.555V143.039ZM240.422 149.367C240.661 149.648 240.997 149.789 241.43 149.789C242.112 149.789 242.602 149.451 242.898 148.773C243.201 148.091 243.352 147.102 243.352 145.805C243.352 144.508 243.232 143.583 242.992 143.031C242.753 142.474 242.409 142.195 241.961 142.195C241.596 142.195 241.271 142.318 240.984 142.562C240.698 142.807 240.51 143.146 240.422 143.578V149.367ZM257.633 147.055C257.633 148.19 257.654 149.008 257.695 149.508C257.534 149.471 257 149.445 256.094 149.43V152.258H254.234V149.422H249.867V149.086L255.836 141.508H256.094V147.773H256.219C256.51 147.773 256.727 147.753 256.867 147.711C257.013 147.664 257.112 147.594 257.164 147.5C257.221 147.406 257.266 147.258 257.297 147.055H257.633ZM254.234 144.055L251.344 147.773H254.234V144.055Z" fill="#2BCBC2"/>
<circle cx="237.157" cy="30.9189" r="30.9189" fill="#EEF1F3"/>
<path d="M21.1484 44.9769L22.5486 39.7513L26.3741 43.5767L21.1484 44.9769Z" fill="#546169"/>
<path d="M26.9857 136.5L21.6225 135.79L24.9187 131.501L26.9857 136.5Z" fill="#546169"/>
<path d="M93.7071 131.798L90.7987 136.36L88.3024 131.56L93.7071 131.798Z" fill="#546169"/>
<path d="M205.789 39.9332L202.88 44.4949L200.384 39.6952L205.789 39.9332Z" fill="#546169"/>
<path d="M272.867 44.2962L267.495 43.6563L270.735 39.324L272.867 44.2962Z" fill="#546169"/>
<path d="M274.448 134.293L269.038 134.247L271.783 129.585L274.448 134.293Z" fill="#546169"/>
<path d="M206.257 133.585L204.187 138.584L200.893 134.292L206.257 133.585Z" fill="#546169"/>
<path d="M95.1941 42.3375L92.2043 46.8463L89.7944 42.0026L95.1941 42.3375Z" fill="#546169"/>
<path d="M215.797 31.7891C215.865 32.9818 216.128 33.9505 216.586 34.6953C217.049 35.4349 217.758 35.8047 218.711 35.8047C219.086 35.8047 219.422 35.7396 219.719 35.6094C220.021 35.474 220.258 35.2708 220.43 35C220.607 34.7292 220.695 34.401 220.695 34.0156C220.695 33.599 220.596 33.2266 220.398 32.8984C220.206 32.5651 219.943 32.263 219.609 31.9922C219.281 31.7161 218.841 31.3984 218.289 31.0391C217.643 30.6224 217.13 30.2604 216.75 29.9531C216.375 29.6458 216.062 29.2812 215.812 28.8594C215.568 28.4375 215.445 27.9479 215.445 27.3906C215.445 26.7448 215.609 26.2031 215.938 25.7656C216.266 25.3229 216.701 24.9948 217.242 24.7812C217.784 24.5677 218.38 24.4609 219.031 24.4609C219.417 24.4609 219.75 24.4896 220.031 24.5469C220.318 24.6042 220.555 24.6771 220.742 24.7656C220.935 24.849 221.143 24.9557 221.367 25.0859C221.622 25.237 221.802 25.3125 221.906 25.3125C222.005 25.3125 222.081 25.2578 222.133 25.1484C222.185 25.0339 222.227 24.8542 222.258 24.6094H222.625C222.573 25.3229 222.547 26.5391 222.547 28.2578H222.18C222.143 27.6797 222.013 27.1302 221.789 26.6094C221.57 26.0885 221.26 25.6667 220.859 25.3438C220.464 25.0156 219.997 24.8516 219.461 24.8516C219.122 24.8516 218.818 24.9167 218.547 25.0469C218.281 25.1771 218.073 25.3672 217.922 25.6172C217.776 25.862 217.703 26.1484 217.703 26.4766C217.703 27.0078 217.862 27.4427 218.18 27.7812C218.497 28.1198 218.911 28.4635 219.422 28.8125C219.932 29.1562 220.276 29.388 220.453 29.5078C221.078 29.9245 221.573 30.2865 221.938 30.5938C222.302 30.901 222.599 31.2604 222.828 31.6719C223.057 32.0833 223.172 32.5599 223.172 33.1016C223.172 33.7839 222.995 34.3594 222.641 34.8281C222.286 35.2969 221.81 35.6484 221.211 35.8828C220.612 36.112 219.943 36.2266 219.203 36.2266C218.604 36.2266 218.107 36.1719 217.711 36.0625C217.32 35.9583 216.958 35.8151 216.625 35.6328C216.396 35.4818 216.216 35.4062 216.086 35.4062C215.987 35.4062 215.911 35.4635 215.859 35.5781C215.807 35.6875 215.766 35.8646 215.734 36.1094H215.367C215.409 35.4427 215.43 34.0026 215.43 31.7891H215.797ZM229.359 27.7422V28.0625H227.469V34.5156C227.469 34.8333 227.526 35.0599 227.641 35.1953C227.755 35.3255 227.932 35.3906 228.172 35.3906C228.625 35.3906 228.987 35.0703 229.258 34.4297L229.531 34.5781C229.13 35.6771 228.401 36.2266 227.344 36.2266C226.641 36.2266 226.107 36.0443 225.742 35.6797C225.518 35.4609 225.365 35.1849 225.281 34.8516C225.203 34.513 225.164 34.0469 225.164 33.4531V28.0625H223.82V27.7422H225.164V25.6172C226.044 25.6172 226.812 25.4453 227.469 25.1016V27.7422H229.359ZM232.438 31.0547C232.422 31.2109 232.414 31.4609 232.414 31.8047C232.414 32.513 232.513 33.1016 232.711 33.5703C232.909 34.0339 233.164 34.375 233.477 34.5938C233.794 34.8073 234.133 34.9141 234.492 34.9141C235.372 34.9141 236.078 34.487 236.609 33.6328L236.891 33.7266C236.755 34.1641 236.544 34.5729 236.258 34.9531C235.977 35.3281 235.617 35.6354 235.18 35.875C234.747 36.1094 234.253 36.2266 233.695 36.2266C232.961 36.2266 232.315 36.0703 231.758 35.7578C231.206 35.4453 230.773 34.9714 230.461 34.3359C230.154 33.6953 230 32.901 230 31.9531C230 30.9844 230.167 30.1693 230.5 29.5078C230.833 28.8411 231.294 28.3411 231.883 28.0078C232.471 27.6745 233.151 27.5078 233.922 27.5078C235.927 27.5078 236.93 28.6901 236.93 31.0547H232.438ZM234.914 30.75C234.93 29.9167 234.844 29.224 234.656 28.6719C234.474 28.1198 234.195 27.8438 233.82 27.8438C233.44 27.8438 233.122 28.0807 232.867 28.5547C232.617 29.0234 232.464 29.7552 232.406 30.75H234.914ZM241.117 29.0391C241.341 28.5391 241.667 28.1589 242.094 27.8984C242.526 27.638 243.026 27.5078 243.594 27.5078C244.146 27.5078 244.638 27.6589 245.07 27.9609C245.503 28.2578 245.841 28.7057 246.086 29.3047C246.336 29.8984 246.461 30.625 246.461 31.4844C246.461 32.5052 246.307 33.3724 246 34.0859C245.698 34.7943 245.268 35.3281 244.711 35.6875C244.159 36.0469 243.505 36.2266 242.75 36.2266C242.062 36.2266 241.518 36.0573 241.117 35.7188V37.3125C241.117 37.7812 241.234 38.1068 241.469 38.2891C241.708 38.4714 242.07 38.5625 242.555 38.5625V38.8984C242.398 38.8932 242.044 38.8802 241.492 38.8594C240.94 38.8385 240.398 38.8281 239.867 38.8281C239.461 38.8281 239.047 38.8385 238.625 38.8594C238.208 38.8802 237.951 38.8932 237.852 38.8984V38.5625C238.091 38.5625 238.279 38.5286 238.414 38.4609C238.549 38.3984 238.648 38.2865 238.711 38.125C238.779 37.9688 238.812 37.75 238.812 37.4688V29.4688C238.812 28.9792 238.734 28.6224 238.578 28.3984C238.427 28.1745 238.164 28.0625 237.789 28.0625V27.7266C238.128 27.7578 238.458 27.7734 238.781 27.7734C239.714 27.7734 240.492 27.7005 241.117 27.5547V29.0391ZM241.117 35.3672C241.357 35.6484 241.693 35.7891 242.125 35.7891C242.807 35.7891 243.297 35.4505 243.594 34.7734C243.896 34.0911 244.047 33.1016 244.047 31.8047C244.047 30.5078 243.927 29.5833 243.688 29.0312C243.448 28.474 243.104 28.1953 242.656 28.1953C242.292 28.1953 241.966 28.3177 241.68 28.5625C241.393 28.8073 241.206 29.1458 241.117 29.5781V35.3672ZM251.266 29.5078C251.594 28.8984 252.021 28.4141 252.547 28.0547C253.078 27.6901 253.771 27.5078 254.625 27.5078C255.151 27.5078 255.62 27.5833 256.031 27.7344C256.448 27.8802 256.773 28.0911 257.008 28.3672C257.242 28.6432 257.359 28.9688 257.359 29.3438C257.359 29.7448 257.227 30.1224 256.961 30.4766C256.701 30.8307 256.323 31.1406 255.828 31.4062C255.339 31.6667 254.766 31.8594 254.109 31.9844L254.383 31.9766C255.07 31.9766 255.682 32.0729 256.219 32.2656C256.755 32.4531 257.174 32.7292 257.477 33.0938C257.784 33.4583 257.938 33.8984 257.938 34.4141C257.938 35.2005 257.602 35.8958 256.93 36.5C256.258 37.1094 255.396 37.5807 254.344 37.9141C253.297 38.2474 252.232 38.4141 251.148 38.4141V38.0938C251.852 38.0729 252.542 37.9167 253.219 37.625C253.896 37.3333 254.453 36.9141 254.891 36.3672C255.333 35.8203 255.555 35.1745 255.555 34.4297C255.555 34.0182 255.487 33.6484 255.352 33.3203C255.216 32.9922 255.021 32.7318 254.766 32.5391C254.516 32.3464 254.219 32.237 253.875 32.2109C253.495 32.3776 253.221 32.4609 253.055 32.4609C252.852 32.4609 252.75 32.388 252.75 32.2422C252.75 32.1276 252.799 32.0417 252.898 31.9844C252.997 31.9219 253.12 31.8906 253.266 31.8906C253.328 31.8906 253.414 31.901 253.523 31.9219C253.638 31.9375 253.737 31.9479 253.82 31.9531C254.643 31.375 255.055 30.6589 255.055 29.8047C255.055 29.3307 254.93 28.9792 254.68 28.75C254.435 28.5156 254.086 28.3984 253.633 28.3984C253.206 28.3984 252.812 28.5052 252.453 28.7188C252.094 28.9271 251.794 29.237 251.555 29.6484L251.266 29.5078Z" fill="#2BCBC2"/>
</svg>
