<svg width="726" height="437" viewBox="0 0 726 437" fill="none" xmlns="http://www.w3.org/2000/svg">
<path d="M50.5345 111.498L54.0056 98.5433L63.4887 108.026L50.5345 111.498Z" fill="#546169"/>
<path d="M65.0069 338.38L51.7116 336.621L59.8829 325.986L65.0069 338.38Z" fill="#546169"/>
<path d="M230.406 326.725L223.196 338.033L217.008 326.135L230.406 326.725Z" fill="#546169"/>
<path d="M508.256 98.9925L501.046 110.301L494.857 98.4026L508.256 98.9925Z" fill="#546169"/>
<path d="M674.541 109.808L661.224 108.222L669.256 97.482L674.541 109.808Z" fill="#546169"/>
<path d="M678.462 332.911L665.052 332.797L671.856 321.24L678.462 332.911Z" fill="#546169"/>
<path d="M509.413 331.158L504.284 343.549L496.117 332.911L509.413 331.158Z" fill="#546169"/>
<path d="M234.093 104.952L226.682 116.129L220.708 104.122L234.093 104.952Z" fill="#546169"/>
<path d="M323.939 49.6738L326.372 52.0322" stroke="#546169" stroke-width="1.5" stroke-miterlimit="10" stroke-linecap="round"/>
<path d="M307.577 33.3125L309.64 35.3761" stroke="#546169" stroke-width="1.5" stroke-miterlimit="10" stroke-linecap="round"/>
<path d="M317.012 52.5469V55.9371" stroke="#546169" stroke-width="1.5" stroke-miterlimit="10" stroke-linecap="round"/>
<path d="M317.012 29.4805V32.3547" stroke="#546169" stroke-width="1.5" stroke-miterlimit="10" stroke-linecap="round"/>
<path d="M310.009 49.6738L307.577 52.0322" stroke="#546169" stroke-width="1.5" stroke-miterlimit="10" stroke-linecap="round"/>
<path d="M326.37 33.3125L324.307 35.3761" stroke="#546169" stroke-width="1.5" stroke-miterlimit="10" stroke-linecap="round"/>
<path d="M307.062 42.6719H303.746" stroke="#546169" stroke-width="1.5" stroke-miterlimit="10" stroke-linecap="round"/>
<path d="M330.203 42.6719H327.328" stroke="#546169" stroke-width="1.5" stroke-miterlimit="10" stroke-linecap="round"/>
<path d="M316.938 50.2649C321.252 50.2649 324.75 46.7673 324.75 42.4528C324.75 38.1382 321.252 34.6406 316.938 34.6406C312.623 34.6406 309.126 38.1382 309.126 42.4528C309.126 46.7673 312.623 50.2649 316.938 50.2649Z" stroke="#546169" stroke-width="1.5" stroke-miterlimit="10" stroke-linecap="round"/>
<path d="M376.34 400.409C374.719 398.493 373.761 396.061 373.761 393.408C373.761 387.438 378.625 382.574 384.594 382.574C385.184 382.574 385.847 382.648 386.437 382.722" stroke="#546169" stroke-width="1.5" stroke-linecap="round" stroke-linejoin="round"/>
<path d="M382.236 387.069L381.572 386.185L385.921 382.869L382.236 378.815L383.046 378.078L387.542 383.016L382.236 387.069Z" fill="#546169"/>
<path d="M392.773 386.406C394.394 388.322 395.353 390.755 395.353 393.408C395.353 399.377 390.488 404.242 384.519 404.242C383.929 404.242 383.34 404.168 382.824 404.094" stroke="#546169" stroke-width="1.5" stroke-linecap="round" stroke-linejoin="round"/>
<path d="M386.878 399.746L387.541 400.63L383.266 403.947L386.951 408L386.067 408.737L381.645 403.8L386.878 399.746Z" fill="#546169"/>
<path d="M178.085 231.09C179.472 231.09 180.597 230.247 180.597 229.206C180.597 228.166 179.472 227.322 178.085 227.322C176.698 227.322 175.573 228.166 175.573 229.206C175.573 230.247 176.698 231.09 178.085 231.09Z" fill="#FD583E"/>
<path d="M537.278 179.596C538.666 179.596 539.79 178.471 539.79 177.084C539.79 175.697 538.666 174.572 537.278 174.572C535.891 174.572 534.766 175.697 534.766 177.084C534.766 178.471 535.891 179.596 537.278 179.596Z" fill="#FF5533"/>
<circle cx="141.606" cy="76.6474" r="76.6474" fill="#EEF1F3"/>
<path d="M91.0558 93.5859C90.9255 94.7839 90.4959 95.7005 89.7667 96.3359C89.0427 96.9714 88.0766 97.2891 86.8683 97.2891C86.0245 97.2891 85.2771 97.0781 84.6261 96.6562C83.9802 96.2344 83.4802 95.638 83.1261 94.8672C82.7719 94.0911 82.5922 93.2057 82.587 92.2109V90.7344C82.587 89.724 82.7641 88.8281 83.1183 88.0469C83.4724 87.2656 83.9802 86.6641 84.6417 86.2422C85.3084 85.8151 86.074 85.6016 86.9386 85.6016C88.1573 85.6016 89.1183 85.9323 89.8214 86.5938C90.5297 87.25 90.9412 88.1589 91.0558 89.3203H90.087C89.8474 87.388 88.7979 86.4219 86.9386 86.4219C85.9073 86.4219 85.0844 86.8073 84.4698 87.5781C83.8604 88.349 83.5558 89.4141 83.5558 90.7734V92.1641C83.5558 93.4766 83.8526 94.5234 84.4464 95.3047C85.0453 96.0859 85.8526 96.4766 86.8683 96.4766C87.8735 96.4766 88.6313 96.237 89.1417 95.7578C89.6521 95.2734 89.9672 94.5495 90.087 93.5859H91.0558ZM98.6104 96.0625C98.0479 96.8802 97.1495 97.2891 95.9151 97.2891C95.0141 97.2891 94.3292 97.0286 93.8604 96.5078C93.3917 95.9818 93.1521 95.2057 93.1417 94.1797V88.6797H94.0714V94.0625C94.0714 95.6719 94.7224 96.4766 96.0245 96.4766C97.3787 96.4766 98.2354 95.9167 98.5948 94.7969V88.6797H99.5323V97.1328H98.6261L98.6104 96.0625ZM107.032 94.9844C107.032 94.5208 106.845 94.1484 106.47 93.8672C106.1 93.5859 105.54 93.3672 104.79 93.2109C104.04 93.0495 103.457 92.8672 103.04 92.6641C102.629 92.4557 102.321 92.2031 102.118 91.9062C101.92 91.6094 101.821 91.25 101.821 90.8281C101.821 90.1615 102.1 89.612 102.657 89.1797C103.215 88.7422 103.928 88.5234 104.798 88.5234C105.741 88.5234 106.496 88.7578 107.064 89.2266C107.636 89.6901 107.923 90.2969 107.923 91.0469H106.985C106.985 90.5521 106.777 90.1406 106.36 89.8125C105.949 89.4844 105.428 89.3203 104.798 89.3203C104.183 89.3203 103.689 89.4583 103.314 89.7344C102.944 90.0052 102.759 90.3594 102.759 90.7969C102.759 91.2188 102.913 91.5469 103.22 91.7812C103.532 92.0104 104.097 92.2214 104.915 92.4141C105.738 92.6068 106.353 92.8125 106.759 93.0312C107.17 93.25 107.475 93.513 107.673 93.8203C107.871 94.1276 107.97 94.5 107.97 94.9375C107.97 95.651 107.681 96.2214 107.103 96.6484C106.53 97.0755 105.78 97.2891 104.853 97.2891C103.868 97.2891 103.069 97.0521 102.454 96.5781C101.845 96.099 101.54 95.4948 101.54 94.7656H102.478C102.514 95.3125 102.743 95.7396 103.165 96.0469C103.592 96.349 104.155 96.5 104.853 96.5C105.504 96.5 106.03 96.3568 106.431 96.0703C106.832 95.7839 107.032 95.4219 107.032 94.9844ZM111.532 86.5156V88.6797H113.282V89.4453H111.532V95.0781C111.532 95.5469 111.616 95.8958 111.782 96.125C111.954 96.3542 112.238 96.4688 112.634 96.4688C112.79 96.4688 113.043 96.4427 113.392 96.3906L113.431 97.1562C113.186 97.2448 112.853 97.2891 112.431 97.2891C111.79 97.2891 111.324 97.1042 111.032 96.7344C110.741 96.3594 110.595 95.8099 110.595 95.0859V89.4453H109.04V88.6797H110.595V86.5156H111.532ZM114.548 92.7812C114.548 91.9688 114.704 91.237 115.017 90.5859C115.334 89.9349 115.78 89.4297 116.353 89.0703C116.931 88.7057 117.584 88.5234 118.314 88.5234C119.439 88.5234 120.35 88.9193 121.048 89.7109C121.746 90.4974 122.095 91.5417 122.095 92.8438V93.0391C122.095 93.8568 121.936 94.5938 121.618 95.25C121.306 95.901 120.863 96.4036 120.29 96.7578C119.717 97.112 119.064 97.2891 118.329 97.2891C117.209 97.2891 116.298 96.8958 115.595 96.1094C114.897 95.3177 114.548 94.2708 114.548 92.9688V92.7812ZM115.485 93.0391C115.485 94.0495 115.746 94.8802 116.267 95.5312C116.793 96.1771 117.48 96.5 118.329 96.5C119.173 96.5 119.855 96.1771 120.376 95.5312C120.902 94.8802 121.165 94.0234 121.165 92.9609V92.7812C121.165 92.1354 121.045 91.5443 120.806 91.0078C120.566 90.4714 120.23 90.0573 119.798 89.7656C119.366 89.4688 118.871 89.3203 118.314 89.3203C117.48 89.3203 116.801 89.6484 116.275 90.3047C115.748 90.9557 115.485 91.8099 115.485 92.8672V93.0391ZM124.884 88.6797L124.915 90.0547C125.228 89.5443 125.618 89.1615 126.087 88.9062C126.556 88.651 127.077 88.5234 127.65 88.5234C128.983 88.5234 129.829 89.0703 130.189 90.1641C130.491 89.638 130.894 89.2344 131.4 88.9531C131.905 88.6667 132.462 88.5234 133.071 88.5234C134.884 88.5234 135.808 89.513 135.845 91.4922V97.1328H134.907V91.5625C134.902 90.8073 134.738 90.2474 134.415 89.8828C134.097 89.5182 133.577 89.3359 132.853 89.3359C132.181 89.3464 131.613 89.5651 131.15 89.9922C130.686 90.4141 130.428 90.9297 130.376 91.5391V97.1328H129.439V91.4922C129.433 90.7682 129.261 90.2292 128.923 89.875C128.59 89.5156 128.074 89.3359 127.376 89.3359C126.788 89.3359 126.282 89.5052 125.86 89.8438C125.439 90.1771 125.126 90.6745 124.923 91.3359V97.1328H123.985V88.6797H124.884ZM141.493 97.2891C140.775 97.2891 140.123 97.112 139.54 96.7578C138.962 96.4036 138.511 95.9115 138.189 95.2812C137.866 94.6458 137.704 93.9349 137.704 93.1484V92.8125C137.704 92 137.86 91.2682 138.173 90.6172C138.491 89.9661 138.931 89.4557 139.493 89.0859C140.056 88.7109 140.665 88.5234 141.321 88.5234C142.347 88.5234 143.16 88.875 143.759 89.5781C144.363 90.276 144.665 91.2318 144.665 92.4453V92.9688H138.634V93.1484C138.634 94.1068 138.907 94.9062 139.454 95.5469C140.006 96.1823 140.699 96.5 141.532 96.5C142.032 96.5 142.472 96.4089 142.853 96.2266C143.238 96.0443 143.587 95.7526 143.9 95.3516L144.485 95.7969C143.798 96.7917 142.801 97.2891 141.493 97.2891ZM141.321 89.3203C140.618 89.3203 140.025 89.5781 139.54 90.0938C139.061 90.6094 138.769 91.3021 138.665 92.1719H143.735V92.0703C143.709 91.2578 143.478 90.5964 143.04 90.0859C142.603 89.5755 142.03 89.3203 141.321 89.3203ZM150.392 89.4766C150.194 89.4401 149.983 89.4219 149.759 89.4219C149.176 89.4219 148.681 89.5859 148.275 89.9141C147.873 90.237 147.587 90.7083 147.415 91.3281V97.1328H146.485V88.6797H147.4L147.415 90.0234C147.91 89.0234 148.704 88.5234 149.798 88.5234C150.058 88.5234 150.264 88.5573 150.415 88.625L150.392 89.4766ZM156.814 97.1328H155.876V88.6797H156.814V97.1328ZM155.712 86.2344C155.712 86.0573 155.769 85.9089 155.884 85.7891C155.998 85.6641 156.155 85.6016 156.353 85.6016C156.551 85.6016 156.707 85.6641 156.821 85.7891C156.941 85.9089 157.001 86.0573 157.001 86.2344C157.001 86.4115 156.941 86.5599 156.821 86.6797C156.707 86.7995 156.551 86.8594 156.353 86.8594C156.155 86.8594 155.998 86.7995 155.884 86.6797C155.769 86.5599 155.712 86.4115 155.712 86.2344ZM160.251 88.6797L160.282 90.125C160.6 89.6042 160.996 89.2083 161.47 88.9375C161.944 88.6615 162.467 88.5234 163.04 88.5234C163.946 88.5234 164.621 88.7786 165.064 89.2891C165.506 89.7995 165.73 90.5651 165.735 91.5859V97.1328H164.806V91.5781C164.801 90.8229 164.639 90.2604 164.321 89.8906C164.009 89.5208 163.506 89.3359 162.814 89.3359C162.235 89.3359 161.722 89.5182 161.275 89.8828C160.832 90.2422 160.504 90.7292 160.29 91.3438V97.1328H159.36V88.6797H160.251ZM173.22 94.9844C173.22 94.5208 173.032 94.1484 172.657 93.8672C172.288 93.5859 171.728 93.3672 170.978 93.2109C170.228 93.0495 169.644 92.8672 169.228 92.6641C168.816 92.4557 168.509 92.2031 168.306 91.9062C168.108 91.6094 168.009 91.25 168.009 90.8281C168.009 90.1615 168.288 89.612 168.845 89.1797C169.402 88.7422 170.116 88.5234 170.985 88.5234C171.928 88.5234 172.683 88.7578 173.251 89.2266C173.824 89.6901 174.11 90.2969 174.11 91.0469H173.173C173.173 90.5521 172.965 90.1406 172.548 89.8125C172.136 89.4844 171.616 89.3203 170.985 89.3203C170.371 89.3203 169.876 89.4583 169.501 89.7344C169.131 90.0052 168.946 90.3594 168.946 90.7969C168.946 91.2188 169.1 91.5469 169.407 91.7812C169.72 92.0104 170.285 92.2214 171.103 92.4141C171.926 92.6068 172.54 92.8125 172.946 93.0312C173.358 93.25 173.663 93.513 173.86 93.8203C174.058 94.1276 174.157 94.5 174.157 94.9375C174.157 95.651 173.868 96.2214 173.29 96.6484C172.717 97.0755 171.967 97.2891 171.04 97.2891C170.056 97.2891 169.256 97.0521 168.642 96.5781C168.032 96.099 167.728 95.4948 167.728 94.7656H168.665C168.702 95.3125 168.931 95.7396 169.353 96.0469C169.78 96.349 170.342 96.5 171.04 96.5C171.691 96.5 172.217 96.3568 172.618 96.0703C173.019 95.7839 173.22 95.4219 173.22 94.9844ZM177.314 97.1328H176.376V88.6797H177.314V97.1328ZM176.212 86.2344C176.212 86.0573 176.269 85.9089 176.384 85.7891C176.498 85.6641 176.655 85.6016 176.853 85.6016C177.051 85.6016 177.207 85.6641 177.321 85.7891C177.441 85.9089 177.501 86.0573 177.501 86.2344C177.501 86.4115 177.441 86.5599 177.321 86.6797C177.207 86.7995 177.051 86.8594 176.853 86.8594C176.655 86.8594 176.498 86.7995 176.384 86.6797C176.269 86.5599 176.212 86.4115 176.212 86.2344ZM179.485 92.8281C179.485 91.5052 179.777 90.4583 180.36 89.6875C180.949 88.9115 181.746 88.5234 182.751 88.5234C183.902 88.5234 184.777 88.9818 185.376 89.8984L185.423 88.6797H186.298V96.9609C186.298 98.0495 185.993 98.9115 185.384 99.5469C184.775 100.182 183.949 100.5 182.907 100.5C182.319 100.5 181.756 100.367 181.22 100.102C180.689 99.8411 180.269 99.4922 179.962 99.0547L180.485 98.4922C181.147 99.3047 181.933 99.7109 182.845 99.7109C183.626 99.7109 184.235 99.4792 184.673 99.0156C185.11 98.5573 185.337 97.9193 185.353 97.1016V96.0391C184.754 96.8724 183.881 97.2891 182.735 97.2891C181.756 97.2891 180.97 96.8984 180.376 96.1172C179.782 95.3359 179.485 94.2812 179.485 92.9531V92.8281ZM180.431 92.9922C180.431 94.0703 180.647 94.9219 181.079 95.5469C181.511 96.1667 182.121 96.4766 182.907 96.4766C184.058 96.4766 184.873 95.9609 185.353 94.9297V91C185.134 90.4583 184.819 90.0469 184.407 89.7656C183.996 89.4792 183.501 89.3359 182.923 89.3359C182.136 89.3359 181.525 89.6458 181.087 90.2656C180.65 90.8802 180.431 91.7891 180.431 92.9922ZM189.665 90.1094C189.972 89.6042 190.366 89.2135 190.845 88.9375C191.324 88.6615 191.847 88.5234 192.415 88.5234C193.321 88.5234 193.996 88.7786 194.439 89.2891C194.881 89.7995 195.105 90.5651 195.11 91.5859V97.1328H194.181V91.5781C194.176 90.8229 194.014 90.2604 193.696 89.8906C193.384 89.5208 192.881 89.3359 192.189 89.3359C191.61 89.3359 191.097 89.5182 190.65 89.8828C190.207 90.2422 189.879 90.7292 189.665 91.3438V97.1328H188.735V85.1328H189.665V90.1094ZM198.97 86.5156V88.6797H200.72V89.4453H198.97V95.0781C198.97 95.5469 199.053 95.8958 199.22 96.125C199.392 96.3542 199.676 96.4688 200.071 96.4688C200.228 96.4688 200.48 96.4427 200.829 96.3906L200.868 97.1562C200.623 97.2448 200.29 97.2891 199.868 97.2891C199.228 97.2891 198.761 97.1042 198.47 96.7344C198.178 96.3594 198.032 95.8099 198.032 95.0859V89.4453H196.478V88.6797H198.032V86.5156H198.97Z" fill="#546169"/>
<path d="M112.07 51.812C113.041 51.812 113.816 51.9053 114.394 52.092C114.973 52.2787 115.561 52.5493 116.158 52.904C116.364 53.016 116.541 53.1093 116.69 53.184C116.858 53.2587 116.998 53.296 117.11 53.296C117.278 53.296 117.409 53.2027 117.502 53.016C117.596 52.8107 117.67 52.4933 117.726 52.064H118.37C118.277 53.3147 118.23 55.4427 118.23 58.448H117.586C117.512 57.44 117.278 56.4787 116.886 55.564C116.513 54.6493 115.972 53.912 115.262 53.352C114.572 52.7733 113.76 52.484 112.826 52.484C111.912 52.484 111.165 52.7453 110.586 53.268C110.026 53.772 109.746 54.4627 109.746 55.34C109.746 55.9933 109.886 56.5627 110.166 57.048C110.446 57.5333 110.838 57.9813 111.342 58.392C111.846 58.784 112.621 59.3253 113.666 60.016L114.562 60.632C115.664 61.36 116.532 61.9947 117.166 62.536C117.801 63.0773 118.314 63.712 118.706 64.44C119.117 65.1493 119.322 65.98 119.322 66.932C119.322 68.1267 119.014 69.1347 118.398 69.956C117.782 70.7587 116.942 71.3653 115.878 71.776C114.833 72.1867 113.666 72.392 112.378 72.392C111.333 72.392 110.465 72.2987 109.774 72.112C109.084 71.9253 108.449 71.6733 107.87 71.356C107.46 71.0947 107.142 70.964 106.918 70.964C106.75 70.964 106.62 71.0667 106.526 71.272C106.433 71.4587 106.358 71.7667 106.302 72.196H105.658C105.733 71.02 105.77 68.5 105.77 64.636H106.414C106.545 66.7267 107.012 68.4253 107.814 69.732C108.617 71.02 109.849 71.664 111.51 71.664C112.518 71.664 113.349 71.3933 114.002 70.852C114.656 70.3107 114.982 69.536 114.982 68.528C114.982 67.4827 114.646 66.5867 113.974 65.84C113.302 65.0933 112.238 64.2533 110.782 63.32C109.662 62.592 108.766 61.9573 108.094 61.416C107.422 60.8747 106.872 60.24 106.442 59.512C106.013 58.7653 105.798 57.9067 105.798 56.936C105.798 55.816 106.078 54.8733 106.638 54.108C107.217 53.324 107.982 52.7453 108.934 52.372C109.886 51.9987 110.932 51.812 112.07 51.812ZM126.826 57.524H130.13V58.084H126.826V69.396C126.826 69.956 126.919 70.3573 127.106 70.6C127.311 70.824 127.628 70.936 128.058 70.936C128.86 70.936 129.495 70.376 129.962 69.256L130.438 69.508C129.728 71.4307 128.45 72.392 126.602 72.392C125.37 72.392 124.436 72.0747 123.802 71.44C123.41 71.048 123.139 70.5627 122.99 69.984C122.859 69.3867 122.794 68.5747 122.794 67.548V58.084H120.442V57.524H122.794V53.828C124.343 53.828 125.687 53.5293 126.826 52.932V57.524ZM139.108 70.096C140.639 70.096 141.871 69.3493 142.804 67.856L143.308 68.024C142.935 69.2373 142.263 70.2733 141.292 71.132C140.34 71.972 139.145 72.392 137.708 72.392C135.729 72.392 134.152 71.7667 132.976 70.516C131.819 69.2467 131.24 67.38 131.24 64.916C131.24 62.396 131.865 60.4733 133.116 59.148C134.367 57.804 136.028 57.132 138.1 57.132C141.609 57.132 143.364 59.204 143.364 63.348H135.496C135.477 63.628 135.468 64.0667 135.468 64.664C135.468 65.896 135.636 66.9227 135.972 67.744C136.327 68.5653 136.775 69.1627 137.316 69.536C137.876 69.9093 138.473 70.096 139.108 70.096ZM137.932 57.72C137.26 57.72 136.7 58.14 136.252 58.98C135.823 59.8013 135.552 61.08 135.44 62.816H139.836C139.873 61.3413 139.724 60.128 139.388 59.176C139.071 58.2053 138.585 57.72 137.932 57.72ZM155.038 57.132C156.008 57.132 156.867 57.3933 157.614 57.916C158.379 58.4387 158.976 59.2227 159.406 60.268C159.835 61.3133 160.05 62.592 160.05 64.104C160.05 66.7733 159.462 68.8267 158.286 70.264C157.128 71.6827 155.551 72.392 153.554 72.392C152.994 72.392 152.462 72.3173 151.958 72.168C151.472 72.0187 151.052 71.7947 150.698 71.496V74.296C150.698 75.1173 150.903 75.6867 151.314 76.004C151.724 76.3213 152.359 76.48 153.218 76.48V77.068L152.462 77.04C150.39 76.984 149.074 76.956 148.514 76.956C147.954 76.956 146.778 76.9933 144.986 77.068V76.48C145.602 76.48 146.031 76.34 146.274 76.06C146.535 75.7987 146.666 75.304 146.666 74.576V60.576C146.666 59.7173 146.526 59.092 146.246 58.7C145.984 58.308 145.527 58.112 144.874 58.112V57.524C145.471 57.58 146.05 57.608 146.61 57.608C148.234 57.608 149.596 57.4773 150.698 57.216V59.792C151.09 58.9333 151.659 58.28 152.406 57.832C153.152 57.3653 154.03 57.132 155.038 57.132ZM152.462 71.636C153.656 71.636 154.515 71.048 155.038 69.872C155.56 68.6773 155.822 66.9413 155.822 64.664C155.822 62.3867 155.607 60.7627 155.178 59.792C154.767 58.8213 154.17 58.336 153.386 58.336C152.751 58.336 152.182 58.5507 151.678 58.98C151.192 59.4093 150.866 60.0067 150.698 60.772V70.88C151.146 71.384 151.734 71.636 152.462 71.636ZM175.534 69.284C175.534 70.0867 175.683 70.6467 175.982 70.964C176.28 71.2627 176.803 71.412 177.55 71.412V72C175.534 71.9253 174.246 71.888 173.686 71.888C173.07 71.888 171.726 71.916 169.654 71.972L168.87 72V71.412C169.747 71.412 170.4 71.244 170.83 70.908C171.278 70.572 171.502 69.9747 171.502 69.116V62.284C171.502 61.388 171.418 60.7347 171.25 60.324C171.1 59.8947 170.839 59.6147 170.466 59.484C170.092 59.3347 169.523 59.26 168.758 59.26V58.644C170.382 58.6067 171.716 58.4853 172.762 58.28C173.807 58.056 174.731 57.7013 175.534 57.216V69.284Z" fill="#FD583E"/>
<circle cx="586.648" cy="76.6474" r="76.6474" fill="#EEF1F3"/>
<path d="M543.587 84.625L547.782 94.6641L551.993 84.625H553.274V96H552.313V91.0469L552.391 85.9688L548.157 96H547.415L543.196 86.0078L543.274 91.0156V96H542.313V84.625H543.587ZM559.212 96.1562C558.493 96.1562 557.842 95.9792 557.258 95.625C556.68 95.2708 556.23 94.7786 555.907 94.1484C555.584 93.513 555.422 92.8021 555.422 92.0156V91.6797C555.422 90.8672 555.579 90.1354 555.891 89.4844C556.209 88.8333 556.649 88.3229 557.212 87.9531C557.774 87.5781 558.383 87.3906 559.04 87.3906C560.066 87.3906 560.878 87.7422 561.477 88.4453C562.081 89.1432 562.383 90.099 562.383 91.3125V91.8359H556.352V92.0156C556.352 92.974 556.626 93.7734 557.172 94.4141C557.725 95.0495 558.417 95.3672 559.251 95.3672C559.751 95.3672 560.191 95.276 560.571 95.0938C560.956 94.9115 561.305 94.6198 561.618 94.2188L562.204 94.6641C561.516 95.6589 560.519 96.1562 559.212 96.1562ZM559.04 88.1875C558.337 88.1875 557.743 88.4453 557.258 88.9609C556.779 89.4766 556.488 90.1693 556.383 91.0391H561.454V90.9375C561.428 90.125 561.196 89.4635 560.758 88.9531C560.321 88.4427 559.748 88.1875 559.04 88.1875ZM569.54 96C569.446 95.7344 569.386 95.3411 569.36 94.8203C569.032 95.2474 568.613 95.5781 568.102 95.8125C567.597 96.0417 567.061 96.1562 566.493 96.1562C565.68 96.1562 565.021 95.9297 564.516 95.4766C564.016 95.0234 563.766 94.4505 563.766 93.7578C563.766 92.9349 564.107 92.2839 564.79 91.8047C565.477 91.3255 566.433 91.0859 567.657 91.0859H569.352V90.125C569.352 89.5208 569.165 89.0469 568.79 88.7031C568.42 88.3542 567.878 88.1797 567.165 88.1797C566.514 88.1797 565.975 88.3464 565.547 88.6797C565.12 89.013 564.907 89.4141 564.907 89.8828L563.969 89.875C563.969 89.2031 564.282 88.6224 564.907 88.1328C565.532 87.638 566.3 87.3906 567.212 87.3906C568.154 87.3906 568.896 87.6276 569.438 88.1016C569.985 88.5703 570.266 89.2266 570.282 90.0703V94.0703C570.282 94.888 570.368 95.5 570.54 95.9062V96H569.54ZM566.602 95.3281C567.227 95.3281 567.784 95.1771 568.274 94.875C568.769 94.5729 569.128 94.1693 569.352 93.6641V91.8047H567.68C566.748 91.8151 566.019 91.987 565.493 92.3203C564.967 92.6484 564.704 93.1016 564.704 93.6797C564.704 94.1536 564.878 94.5469 565.227 94.8594C565.581 95.1719 566.04 95.3281 566.602 95.3281ZM577.844 93.8516C577.844 93.388 577.657 93.0156 577.282 92.7344C576.912 92.4531 576.352 92.2344 575.602 92.0781C574.852 91.9167 574.269 91.7344 573.852 91.5312C573.441 91.3229 573.133 91.0703 572.93 90.7734C572.732 90.4766 572.633 90.1172 572.633 89.6953C572.633 89.0286 572.912 88.4792 573.469 88.0469C574.027 87.6094 574.74 87.3906 575.61 87.3906C576.553 87.3906 577.308 87.625 577.876 88.0938C578.449 88.5573 578.735 89.1641 578.735 89.9141H577.797C577.797 89.4193 577.589 89.0078 577.172 88.6797C576.761 88.3516 576.24 88.1875 575.61 88.1875C574.995 88.1875 574.501 88.3255 574.126 88.6016C573.756 88.8724 573.571 89.2266 573.571 89.6641C573.571 90.0859 573.725 90.4141 574.032 90.6484C574.344 90.8776 574.909 91.0885 575.727 91.2812C576.55 91.474 577.165 91.6797 577.571 91.8984C577.982 92.1172 578.287 92.3802 578.485 92.6875C578.683 92.9948 578.782 93.3672 578.782 93.8047C578.782 94.5182 578.493 95.0885 577.915 95.5156C577.342 95.9427 576.592 96.1562 575.665 96.1562C574.68 96.1562 573.881 95.9193 573.266 95.4453C572.657 94.9661 572.352 94.362 572.352 93.6328H573.29C573.326 94.1797 573.555 94.6068 573.977 94.9141C574.404 95.2161 574.967 95.3672 575.665 95.3672C576.316 95.3672 576.842 95.224 577.243 94.9375C577.644 94.651 577.844 94.2891 577.844 93.8516ZM586.329 94.9297C585.766 95.7474 584.868 96.1562 583.633 96.1562C582.732 96.1562 582.047 95.8958 581.579 95.375C581.11 94.849 580.87 94.0729 580.86 93.0469V87.5469H581.79V92.9297C581.79 94.5391 582.441 95.3438 583.743 95.3438C585.097 95.3438 585.954 94.7839 586.313 93.6641V87.5469H587.251V96H586.344L586.329 94.9297ZM593.594 88.3438C593.396 88.3073 593.186 88.2891 592.962 88.2891C592.378 88.2891 591.883 88.4531 591.477 88.7812C591.076 89.1042 590.79 89.5755 590.618 90.1953V96H589.688V87.5469H590.602L590.618 88.8906C591.113 87.8906 591.907 87.3906 593.001 87.3906C593.261 87.3906 593.467 87.4245 593.618 87.4922L593.594 88.3438ZM598.196 96.1562C597.477 96.1562 596.826 95.9792 596.243 95.625C595.665 95.2708 595.214 94.7786 594.891 94.1484C594.568 93.513 594.407 92.8021 594.407 92.0156V91.6797C594.407 90.8672 594.563 90.1354 594.876 89.4844C595.193 88.8333 595.633 88.3229 596.196 87.9531C596.758 87.5781 597.368 87.3906 598.024 87.3906C599.05 87.3906 599.863 87.7422 600.462 88.4453C601.066 89.1432 601.368 90.099 601.368 91.3125V91.8359H595.337V92.0156C595.337 92.974 595.61 93.7734 596.157 94.4141C596.709 95.0495 597.402 95.3672 598.235 95.3672C598.735 95.3672 599.175 95.276 599.555 95.0938C599.941 94.9115 600.29 94.6198 600.602 94.2188L601.188 94.6641C600.501 95.6589 599.503 96.1562 598.196 96.1562ZM598.024 88.1875C597.321 88.1875 596.727 88.4453 596.243 88.9609C595.764 89.4766 595.472 90.1693 595.368 91.0391H600.438V90.9375C600.412 90.125 600.18 89.4635 599.743 88.9531C599.305 88.4427 598.732 88.1875 598.024 88.1875ZM612.415 96C612.321 95.7344 612.261 95.3411 612.235 94.8203C611.907 95.2474 611.488 95.5781 610.977 95.8125C610.472 96.0417 609.936 96.1562 609.368 96.1562C608.555 96.1562 607.896 95.9297 607.391 95.4766C606.891 95.0234 606.641 94.4505 606.641 93.7578C606.641 92.9349 606.982 92.2839 607.665 91.8047C608.352 91.3255 609.308 91.0859 610.532 91.0859H612.227V90.125C612.227 89.5208 612.04 89.0469 611.665 88.7031C611.295 88.3542 610.753 88.1797 610.04 88.1797C609.389 88.1797 608.85 88.3464 608.422 88.6797C607.995 89.013 607.782 89.4141 607.782 89.8828L606.844 89.875C606.844 89.2031 607.157 88.6224 607.782 88.1328C608.407 87.638 609.175 87.3906 610.087 87.3906C611.029 87.3906 611.771 87.6276 612.313 88.1016C612.86 88.5703 613.141 89.2266 613.157 90.0703V94.0703C613.157 94.888 613.243 95.5 613.415 95.9062V96H612.415ZM609.477 95.3281C610.102 95.3281 610.659 95.1771 611.149 94.875C611.644 94.5729 612.003 94.1693 612.227 93.6641V91.8047H610.555C609.623 91.8151 608.894 91.987 608.368 92.3203C607.842 92.6484 607.579 93.1016 607.579 93.6797C607.579 94.1536 607.753 94.5469 608.102 94.8594C608.456 95.1719 608.915 95.3281 609.477 95.3281ZM616.547 87.5469L616.579 88.9922C616.896 88.4714 617.292 88.0755 617.766 87.8047C618.24 87.5286 618.764 87.3906 619.337 87.3906C620.243 87.3906 620.917 87.6458 621.36 88.1562C621.803 88.6667 622.027 89.4323 622.032 90.4531V96H621.102V90.4453C621.097 89.6901 620.936 89.1276 620.618 88.7578C620.305 88.388 619.803 88.2031 619.11 88.2031C618.532 88.2031 618.019 88.3854 617.571 88.75C617.128 89.1094 616.8 89.5964 616.587 90.2109V96H615.657V87.5469H616.547ZM624.079 91.6953C624.079 90.3828 624.37 89.3385 624.954 88.5625C625.542 87.7812 626.339 87.3906 627.344 87.3906C628.485 87.3906 629.355 87.8411 629.954 88.7422V84H630.883V96H630.008L629.969 94.875C629.37 95.7292 628.49 96.1562 627.329 96.1562C626.355 96.1562 625.568 95.7656 624.969 94.9844C624.376 94.1979 624.079 93.138 624.079 91.8047V91.6953ZM625.024 91.8594C625.024 92.9375 625.24 93.7891 625.672 94.4141C626.105 95.0339 626.714 95.3438 627.501 95.3438C628.652 95.3438 629.469 94.8359 629.954 93.8203V89.8516C629.469 88.7526 628.657 88.2031 627.516 88.2031C626.73 88.2031 626.118 88.513 625.68 89.1328C625.243 89.7474 625.024 90.6562 625.024 91.8594ZM571.454 120H570.516V108H571.454V120ZM577.274 120.156C576.555 120.156 575.904 119.979 575.321 119.625C574.743 119.271 574.292 118.779 573.969 118.148C573.646 117.513 573.485 116.802 573.485 116.016V115.68C573.485 114.867 573.641 114.135 573.954 113.484C574.271 112.833 574.712 112.323 575.274 111.953C575.837 111.578 576.446 111.391 577.102 111.391C578.128 111.391 578.941 111.742 579.54 112.445C580.144 113.143 580.446 114.099 580.446 115.312V115.836H574.415V116.016C574.415 116.974 574.688 117.773 575.235 118.414C575.787 119.049 576.48 119.367 577.313 119.367C577.813 119.367 578.253 119.276 578.633 119.094C579.019 118.911 579.368 118.62 579.68 118.219L580.266 118.664C579.579 119.659 578.581 120.156 577.274 120.156ZM577.102 112.188C576.399 112.188 575.805 112.445 575.321 112.961C574.842 113.477 574.55 114.169 574.446 115.039H579.516V114.938C579.49 114.125 579.258 113.464 578.821 112.953C578.383 112.443 577.811 112.188 577.102 112.188ZM587.602 120C587.508 119.734 587.449 119.341 587.422 118.82C587.094 119.247 586.675 119.578 586.165 119.812C585.659 120.042 585.123 120.156 584.555 120.156C583.743 120.156 583.084 119.93 582.579 119.477C582.079 119.023 581.829 118.451 581.829 117.758C581.829 116.935 582.17 116.284 582.852 115.805C583.54 115.326 584.495 115.086 585.719 115.086H587.415V114.125C587.415 113.521 587.227 113.047 586.852 112.703C586.482 112.354 585.941 112.18 585.227 112.18C584.576 112.18 584.037 112.346 583.61 112.68C583.183 113.013 582.969 113.414 582.969 113.883L582.032 113.875C582.032 113.203 582.344 112.622 582.969 112.133C583.594 111.638 584.363 111.391 585.274 111.391C586.217 111.391 586.959 111.628 587.501 112.102C588.047 112.57 588.329 113.227 588.344 114.07V118.07C588.344 118.888 588.43 119.5 588.602 119.906V120H587.602ZM584.665 119.328C585.29 119.328 585.847 119.177 586.337 118.875C586.831 118.573 587.191 118.169 587.415 117.664V115.805H585.743C584.811 115.815 584.081 115.987 583.555 116.32C583.029 116.648 582.766 117.102 582.766 117.68C582.766 118.154 582.941 118.547 583.29 118.859C583.644 119.172 584.102 119.328 584.665 119.328ZM594.751 112.344C594.553 112.307 594.342 112.289 594.118 112.289C593.534 112.289 593.04 112.453 592.633 112.781C592.232 113.104 591.946 113.576 591.774 114.195V120H590.844V111.547H591.758L591.774 112.891C592.269 111.891 593.063 111.391 594.157 111.391C594.417 111.391 594.623 111.424 594.774 111.492L594.751 112.344ZM597.126 111.547L597.157 112.992C597.475 112.471 597.87 112.076 598.344 111.805C598.818 111.529 599.342 111.391 599.915 111.391C600.821 111.391 601.495 111.646 601.938 112.156C602.381 112.667 602.605 113.432 602.61 114.453V120H601.68V114.445C601.675 113.69 601.514 113.128 601.196 112.758C600.883 112.388 600.381 112.203 599.688 112.203C599.11 112.203 598.597 112.385 598.149 112.75C597.706 113.109 597.378 113.596 597.165 114.211V120H596.235V111.547H597.126Z" fill="#546169"/>
<path d="M550.049 63.6309C550.168 65.7181 550.628 67.4134 551.43 68.7168C552.241 70.0111 553.481 70.6582 555.149 70.6582C555.805 70.6582 556.393 70.5443 556.913 70.3164C557.441 70.0794 557.856 69.724 558.157 69.25C558.467 68.776 558.622 68.2018 558.622 67.5273C558.622 66.7982 558.448 66.1465 558.102 65.5723C557.765 64.9889 557.305 64.4603 556.721 63.9863C556.147 63.5033 555.377 62.9473 554.411 62.3184C553.281 61.5892 552.383 60.9557 551.717 60.418C551.061 59.8802 550.514 59.2422 550.077 58.5039C549.648 57.7656 549.434 56.9089 549.434 55.9336C549.434 54.8034 549.721 53.8555 550.296 53.0898C550.87 52.3151 551.631 51.7409 552.579 51.3672C553.527 50.9935 554.57 50.8066 555.71 50.8066C556.384 50.8066 556.967 50.8568 557.46 50.957C557.961 51.0573 558.376 51.1849 558.704 51.3398C559.041 51.4857 559.406 51.6725 559.797 51.9004C560.244 52.1647 560.559 52.2969 560.741 52.2969C560.914 52.2969 561.046 52.2012 561.137 52.0098C561.228 51.8092 561.301 51.4948 561.356 51.0664H561.999C561.907 52.3151 561.862 54.4434 561.862 57.4512H561.219C561.156 56.4395 560.928 55.4779 560.536 54.5664C560.153 53.6549 559.611 52.9167 558.909 52.3516C558.216 51.7773 557.4 51.4902 556.462 51.4902C555.869 51.4902 555.336 51.6042 554.862 51.832C554.397 52.0599 554.032 52.3926 553.768 52.8301C553.513 53.2585 553.385 53.7598 553.385 54.334C553.385 55.2637 553.663 56.0247 554.219 56.6172C554.775 57.2096 555.5 57.8112 556.393 58.4219C557.286 59.0234 557.888 59.429 558.198 59.6387C559.292 60.3678 560.157 61.0013 560.796 61.5391C561.434 62.0768 561.953 62.7057 562.354 63.4258C562.755 64.1458 562.956 64.9798 562.956 65.9277C562.956 67.1217 562.646 68.1289 562.026 68.9492C561.406 69.7695 560.572 70.3848 559.524 70.7949C558.476 71.196 557.305 71.3965 556.01 71.3965C554.962 71.3965 554.092 71.3008 553.399 71.1094C552.715 70.9271 552.082 70.6764 551.499 70.3574C551.098 70.0931 550.783 69.9609 550.555 69.9609C550.382 69.9609 550.25 70.0612 550.159 70.2617C550.068 70.4531 549.995 70.763 549.94 71.1914H549.297C549.37 70.0247 549.407 67.5046 549.407 63.6309H550.049ZM573.784 56.5488V57.1094H570.475V68.4023C570.475 68.9583 570.575 69.3548 570.776 69.5918C570.976 69.8197 571.286 69.9336 571.706 69.9336C572.499 69.9336 573.132 69.373 573.606 68.252L574.085 68.5117C573.383 70.4349 572.107 71.3965 570.256 71.3965C569.026 71.3965 568.092 71.0775 567.454 70.4395C567.062 70.0566 566.793 69.5736 566.647 68.9902C566.51 68.3978 566.442 67.582 566.442 66.543V57.1094H564.09V56.5488H566.442V52.8301C567.982 52.8301 569.327 52.5293 570.475 51.9277V56.5488H573.784ZM579.171 62.3457C579.143 62.6191 579.129 63.0566 579.129 63.6582C579.129 64.8978 579.303 65.9277 579.649 66.748C579.995 67.5592 580.442 68.1562 580.989 68.5391C581.545 68.9128 582.137 69.0996 582.766 69.0996C584.307 69.0996 585.542 68.3522 586.471 66.8574L586.963 67.0215C586.726 67.7871 586.357 68.5026 585.856 69.168C585.364 69.8242 584.735 70.362 583.969 70.7812C583.213 71.1914 582.347 71.3965 581.372 71.3965C580.087 71.3965 578.956 71.123 577.981 70.5762C577.015 70.0293 576.258 69.1999 575.712 68.0879C575.174 66.9668 574.905 65.5768 574.905 63.918C574.905 62.2227 575.197 60.7962 575.78 59.6387C576.363 58.472 577.17 57.597 578.2 57.0137C579.23 56.4303 580.419 56.1387 581.768 56.1387C585.277 56.1387 587.032 58.2077 587.032 62.3457H579.171ZM583.504 61.8125C583.532 60.3542 583.381 59.1419 583.053 58.1758C582.734 57.2096 582.247 56.7266 581.59 56.7266C580.925 56.7266 580.369 57.1413 579.922 57.9707C579.485 58.791 579.216 60.0716 579.116 61.8125H583.504ZM594.36 58.8184C594.752 57.9434 595.322 57.278 596.069 56.8223C596.825 56.3665 597.7 56.1387 598.694 56.1387C599.66 56.1387 600.521 56.403 601.278 56.9316C602.034 57.4512 602.627 58.235 603.055 59.2832C603.493 60.3223 603.712 61.5938 603.712 63.0977C603.712 64.8841 603.443 66.4017 602.905 67.6504C602.376 68.89 601.624 69.8242 600.649 70.4531C599.683 71.082 598.539 71.3965 597.217 71.3965C596.014 71.3965 595.062 71.1003 594.36 70.5078V73.2969C594.36 74.1172 594.565 74.6868 594.975 75.0059C595.394 75.3249 596.028 75.4844 596.876 75.4844V76.0723C596.602 76.0632 595.982 76.0404 595.016 76.0039C594.05 75.9674 593.102 75.9492 592.172 75.9492C591.462 75.9492 590.737 75.9674 589.999 76.0039C589.269 76.0404 588.818 76.0632 588.645 76.0723V75.4844C589.064 75.4844 589.393 75.4251 589.629 75.3066C589.866 75.1973 590.04 75.0013 590.149 74.7188C590.268 74.4453 590.327 74.0625 590.327 73.5703V59.5703C590.327 58.7135 590.19 58.0892 589.917 57.6973C589.652 57.3053 589.192 57.1094 588.536 57.1094V56.5215C589.128 56.5762 589.707 56.6035 590.272 56.6035C591.904 56.6035 593.266 56.4759 594.36 56.2207V58.8184ZM594.36 69.8926C594.779 70.3848 595.367 70.6309 596.124 70.6309C597.318 70.6309 598.174 70.0384 598.694 68.8535C599.223 67.6595 599.487 65.9277 599.487 63.6582C599.487 61.3887 599.277 59.7708 598.858 58.8047C598.439 57.8294 597.837 57.3418 597.053 57.3418C596.415 57.3418 595.846 57.556 595.344 57.9844C594.843 58.4128 594.515 59.0052 594.36 59.7617V69.8926ZM612.12 59.6387C612.694 58.5723 613.441 57.7246 614.362 57.0957C615.292 56.4577 616.504 56.1387 617.999 56.1387C618.919 56.1387 619.74 56.2708 620.46 56.5352C621.189 56.7904 621.758 57.1595 622.169 57.6426C622.579 58.1257 622.784 58.6953 622.784 59.3516C622.784 60.0534 622.551 60.7142 622.087 61.334C621.631 61.9538 620.97 62.4961 620.104 62.9609C619.247 63.4167 618.245 63.7539 617.096 63.9727L617.575 63.959C618.778 63.959 619.849 64.1276 620.788 64.4648C621.726 64.793 622.46 65.276 622.989 65.9141C623.527 66.5521 623.796 67.3223 623.796 68.2246C623.796 69.6009 623.208 70.8177 622.032 71.875C620.856 72.9414 619.348 73.7663 617.506 74.3496C615.674 74.9329 613.81 75.2246 611.915 75.2246V74.6641C613.145 74.6276 614.353 74.3542 615.538 73.8438C616.723 73.3333 617.698 72.5996 618.463 71.6426C619.238 70.6855 619.626 69.5553 619.626 68.252C619.626 67.5319 619.507 66.8848 619.27 66.3105C619.033 65.7363 618.691 65.2806 618.245 64.9434C617.807 64.6061 617.288 64.4147 616.686 64.3691C616.021 64.6608 615.542 64.8066 615.251 64.8066C614.895 64.8066 614.717 64.679 614.717 64.4238C614.717 64.2233 614.804 64.0729 614.977 63.9727C615.15 63.8633 615.365 63.8086 615.62 63.8086C615.729 63.8086 615.879 63.8268 616.071 63.8633C616.271 63.8906 616.445 63.9089 616.59 63.918C618.031 62.9062 618.751 61.653 618.751 60.1582C618.751 59.3288 618.532 58.7135 618.094 58.3125C617.666 57.9023 617.055 57.6973 616.262 57.6973C615.515 57.6973 614.827 57.8841 614.198 58.2578C613.569 58.6224 613.045 59.1647 612.626 59.8848L612.12 59.6387Z" fill="#FD583E"/>
<circle cx="141.606" cy="359.653" r="76.6474" fill="#EEF1F3"/>
<path d="M98.6436 381.291H93.4796L92.3077 384.479H91.2999L95.6046 373.104H96.5186L100.823 384.479H99.8233L98.6436 381.291ZM93.7764 380.471H98.3389L96.0577 374.275L93.7764 380.471ZM107.347 382.33C107.347 381.867 107.159 381.494 106.784 381.213C106.414 380.932 105.855 380.713 105.105 380.557C104.355 380.395 103.771 380.213 103.355 380.01C102.943 379.801 102.636 379.549 102.433 379.252C102.235 378.955 102.136 378.596 102.136 378.174C102.136 377.507 102.414 376.958 102.972 376.525C103.529 376.088 104.243 375.869 105.112 375.869C106.055 375.869 106.81 376.104 107.378 376.572C107.951 377.036 108.237 377.643 108.237 378.393H107.3C107.3 377.898 107.092 377.486 106.675 377.158C106.263 376.83 105.743 376.666 105.112 376.666C104.498 376.666 104.003 376.804 103.628 377.08C103.258 377.351 103.073 377.705 103.073 378.143C103.073 378.564 103.227 378.893 103.534 379.127C103.847 379.356 104.412 379.567 105.23 379.76C106.052 379.952 106.667 380.158 107.073 380.377C107.485 380.596 107.789 380.859 107.987 381.166C108.185 381.473 108.284 381.846 108.284 382.283C108.284 382.997 107.995 383.567 107.417 383.994C106.844 384.421 106.094 384.635 105.167 384.635C104.183 384.635 103.383 384.398 102.769 383.924C102.159 383.445 101.855 382.84 101.855 382.111H102.792C102.829 382.658 103.058 383.085 103.48 383.393C103.907 383.695 104.469 383.846 105.167 383.846C105.818 383.846 106.344 383.702 106.745 383.416C107.146 383.13 107.347 382.768 107.347 382.33ZM115.456 382.33C115.456 381.867 115.269 381.494 114.894 381.213C114.524 380.932 113.964 380.713 113.214 380.557C112.464 380.395 111.881 380.213 111.464 380.01C111.052 379.801 110.745 379.549 110.542 379.252C110.344 378.955 110.245 378.596 110.245 378.174C110.245 377.507 110.524 376.958 111.081 376.525C111.638 376.088 112.352 375.869 113.222 375.869C114.164 375.869 114.92 376.104 115.487 376.572C116.06 377.036 116.347 377.643 116.347 378.393H115.409C115.409 377.898 115.201 377.486 114.784 377.158C114.373 376.83 113.852 376.666 113.222 376.666C112.607 376.666 112.112 376.804 111.737 377.08C111.368 377.351 111.183 377.705 111.183 378.143C111.183 378.564 111.336 378.893 111.644 379.127C111.956 379.356 112.521 379.567 113.339 379.76C114.162 379.952 114.776 380.158 115.183 380.377C115.594 380.596 115.899 380.859 116.097 381.166C116.295 381.473 116.394 381.846 116.394 382.283C116.394 382.997 116.105 383.567 115.526 383.994C114.954 384.421 114.204 384.635 113.276 384.635C112.292 384.635 111.493 384.398 110.878 383.924C110.269 383.445 109.964 382.84 109.964 382.111H110.901C110.938 382.658 111.167 383.085 111.589 383.393C112.016 383.695 112.579 383.846 113.276 383.846C113.927 383.846 114.454 383.702 114.855 383.416C115.256 383.13 115.456 382.768 115.456 382.33ZM121.776 384.635C121.058 384.635 120.407 384.458 119.823 384.104C119.245 383.749 118.795 383.257 118.472 382.627C118.149 381.992 117.987 381.281 117.987 380.494V380.158C117.987 379.346 118.144 378.614 118.456 377.963C118.774 377.312 119.214 376.801 119.776 376.432C120.339 376.057 120.948 375.869 121.605 375.869C122.631 375.869 123.443 376.221 124.042 376.924C124.646 377.622 124.948 378.577 124.948 379.791V380.314H118.917V380.494C118.917 381.452 119.19 382.252 119.737 382.893C120.289 383.528 120.982 383.846 121.815 383.846C122.315 383.846 122.756 383.755 123.136 383.572C123.521 383.39 123.87 383.098 124.183 382.697L124.769 383.143C124.081 384.137 123.084 384.635 121.776 384.635ZM121.605 376.666C120.901 376.666 120.308 376.924 119.823 377.439C119.344 377.955 119.052 378.648 118.948 379.518H124.019V379.416C123.993 378.604 123.761 377.942 123.323 377.432C122.886 376.921 122.313 376.666 121.605 376.666ZM128.222 373.861V376.025H129.972V376.791H128.222V382.424C128.222 382.893 128.305 383.242 128.472 383.471C128.644 383.7 128.927 383.814 129.323 383.814C129.48 383.814 129.732 383.788 130.081 383.736L130.12 384.502C129.875 384.59 129.542 384.635 129.12 384.635C128.48 384.635 128.013 384.45 127.722 384.08C127.43 383.705 127.284 383.156 127.284 382.432V376.791H125.73V376.025H127.284V373.861H128.222ZM138.925 383.846C139.576 383.846 140.12 383.663 140.558 383.299C141 382.929 141.24 382.452 141.276 381.869H142.175C142.149 382.385 141.987 382.856 141.69 383.283C141.394 383.705 140.998 384.036 140.503 384.275C140.013 384.515 139.487 384.635 138.925 384.635C137.815 384.635 136.935 384.249 136.284 383.479C135.638 382.708 135.315 381.671 135.315 380.369V380.088C135.315 379.255 135.461 378.518 135.753 377.877C136.045 377.236 136.461 376.742 137.003 376.393C137.55 376.044 138.188 375.869 138.917 375.869C139.844 375.869 140.607 376.145 141.206 376.697C141.81 377.249 142.133 377.976 142.175 378.877H141.276C141.235 378.215 140.995 377.682 140.558 377.275C140.125 376.869 139.579 376.666 138.917 376.666C138.073 376.666 137.417 376.971 136.948 377.58C136.485 378.189 136.253 379.044 136.253 380.143V380.416C136.253 381.494 136.485 382.335 136.948 382.939C137.417 383.544 138.076 383.846 138.925 383.846ZM147.956 376.822C147.758 376.786 147.547 376.768 147.323 376.768C146.74 376.768 146.245 376.932 145.839 377.26C145.438 377.583 145.151 378.054 144.98 378.674V384.479H144.05V376.025H144.964L144.98 377.369C145.474 376.369 146.269 375.869 147.362 375.869C147.623 375.869 147.829 375.903 147.98 375.971L147.956 376.822ZM152.558 384.635C151.839 384.635 151.188 384.458 150.605 384.104C150.026 383.749 149.576 383.257 149.253 382.627C148.93 381.992 148.769 381.281 148.769 380.494V380.158C148.769 379.346 148.925 378.614 149.237 377.963C149.555 377.312 149.995 376.801 150.558 376.432C151.12 376.057 151.73 375.869 152.386 375.869C153.412 375.869 154.224 376.221 154.823 376.924C155.427 377.622 155.73 378.577 155.73 379.791V380.314H149.698V380.494C149.698 381.452 149.972 382.252 150.519 382.893C151.071 383.528 151.763 383.846 152.597 383.846C153.097 383.846 153.537 383.755 153.917 383.572C154.302 383.39 154.651 383.098 154.964 382.697L155.55 383.143C154.862 384.137 153.865 384.635 152.558 384.635ZM152.386 376.666C151.683 376.666 151.089 376.924 150.605 377.439C150.125 377.955 149.834 378.648 149.73 379.518H154.8V379.416C154.774 378.604 154.542 377.942 154.105 377.432C153.667 376.921 153.094 376.666 152.386 376.666ZM162.886 384.479C162.792 384.213 162.732 383.82 162.706 383.299C162.378 383.726 161.959 384.057 161.448 384.291C160.943 384.52 160.407 384.635 159.839 384.635C159.026 384.635 158.368 384.408 157.862 383.955C157.362 383.502 157.112 382.929 157.112 382.236C157.112 381.413 157.454 380.762 158.136 380.283C158.823 379.804 159.779 379.564 161.003 379.564H162.698V378.604C162.698 377.999 162.511 377.525 162.136 377.182C161.766 376.833 161.224 376.658 160.511 376.658C159.86 376.658 159.321 376.825 158.894 377.158C158.467 377.492 158.253 377.893 158.253 378.361L157.315 378.354C157.315 377.682 157.628 377.101 158.253 376.611C158.878 376.117 159.646 375.869 160.558 375.869C161.5 375.869 162.243 376.106 162.784 376.58C163.331 377.049 163.612 377.705 163.628 378.549V382.549C163.628 383.367 163.714 383.979 163.886 384.385V384.479H162.886ZM159.948 383.807C160.573 383.807 161.131 383.656 161.62 383.354C162.115 383.051 162.474 382.648 162.698 382.143V380.283H161.026C160.094 380.294 159.365 380.465 158.839 380.799C158.313 381.127 158.05 381.58 158.05 382.158C158.05 382.632 158.224 383.025 158.573 383.338C158.927 383.65 159.386 383.807 159.948 383.807ZM167.581 373.861V376.025H169.331V376.791H167.581V382.424C167.581 382.893 167.664 383.242 167.831 383.471C168.003 383.7 168.287 383.814 168.683 383.814C168.839 383.814 169.092 383.788 169.44 383.736L169.48 384.502C169.235 384.59 168.901 384.635 168.48 384.635C167.839 384.635 167.373 384.45 167.081 384.08C166.789 383.705 166.644 383.156 166.644 382.432V376.791H165.089V376.025H166.644V373.861H167.581ZM172.315 384.479H171.378V376.025H172.315V384.479ZM171.214 373.58C171.214 373.403 171.271 373.255 171.386 373.135C171.5 373.01 171.657 372.947 171.855 372.947C172.052 372.947 172.209 373.01 172.323 373.135C172.443 373.255 172.503 373.403 172.503 373.58C172.503 373.757 172.443 373.906 172.323 374.025C172.209 374.145 172.052 374.205 171.855 374.205C171.657 374.205 171.5 374.145 171.386 374.025C171.271 373.906 171.214 373.757 171.214 373.58ZM174.347 380.127C174.347 379.314 174.503 378.583 174.815 377.932C175.133 377.281 175.579 376.775 176.151 376.416C176.73 376.051 177.383 375.869 178.112 375.869C179.237 375.869 180.149 376.265 180.847 377.057C181.545 377.843 181.894 378.887 181.894 380.189V380.385C181.894 381.202 181.735 381.939 181.417 382.596C181.105 383.247 180.662 383.749 180.089 384.104C179.516 384.458 178.862 384.635 178.128 384.635C177.008 384.635 176.097 384.242 175.394 383.455C174.696 382.663 174.347 381.617 174.347 380.314V380.127ZM175.284 380.385C175.284 381.395 175.545 382.226 176.065 382.877C176.592 383.523 177.279 383.846 178.128 383.846C178.972 383.846 179.654 383.523 180.175 382.877C180.701 382.226 180.964 381.369 180.964 380.307V380.127C180.964 379.481 180.844 378.89 180.605 378.354C180.365 377.817 180.029 377.403 179.597 377.111C179.164 376.814 178.67 376.666 178.112 376.666C177.279 376.666 176.599 376.994 176.073 377.65C175.547 378.301 175.284 379.156 175.284 380.213V380.385ZM184.722 376.025L184.753 377.471C185.071 376.95 185.467 376.554 185.94 376.283C186.414 376.007 186.938 375.869 187.511 375.869C188.417 375.869 189.092 376.124 189.534 376.635C189.977 377.145 190.201 377.911 190.206 378.932V384.479H189.276V378.924C189.271 378.169 189.11 377.606 188.792 377.236C188.48 376.867 187.977 376.682 187.284 376.682C186.706 376.682 186.193 376.864 185.745 377.229C185.302 377.588 184.974 378.075 184.761 378.689V384.479H183.831V376.025H184.722Z" fill="#546169"/>
<path d="M108.737 339.812C109.708 339.812 110.483 339.905 111.061 340.092C111.64 340.279 112.228 340.549 112.825 340.904C113.031 341.016 113.208 341.109 113.357 341.184C113.525 341.259 113.665 341.296 113.777 341.296C113.945 341.296 114.076 341.203 114.169 341.016C114.263 340.811 114.337 340.493 114.393 340.064H115.037C114.944 341.315 114.897 343.443 114.897 346.448H114.253C114.179 345.44 113.945 344.479 113.553 343.564C113.18 342.649 112.639 341.912 111.929 341.352C111.239 340.773 110.427 340.484 109.493 340.484C108.579 340.484 107.832 340.745 107.253 341.268C106.693 341.772 106.413 342.463 106.413 343.34C106.413 343.993 106.553 344.563 106.833 345.048C107.113 345.533 107.505 345.981 108.009 346.392C108.513 346.784 109.288 347.325 110.333 348.016L111.229 348.632C112.331 349.36 113.199 349.995 113.833 350.536C114.468 351.077 114.981 351.712 115.373 352.44C115.784 353.149 115.989 353.98 115.989 354.932C115.989 356.127 115.681 357.135 115.065 357.956C114.449 358.759 113.609 359.365 112.545 359.776C111.5 360.187 110.333 360.392 109.045 360.392C108 360.392 107.132 360.299 106.441 360.112C105.751 359.925 105.116 359.673 104.537 359.356C104.127 359.095 103.809 358.964 103.585 358.964C103.417 358.964 103.287 359.067 103.193 359.272C103.1 359.459 103.025 359.767 102.969 360.196H102.325C102.4 359.02 102.437 356.5 102.437 352.636H103.081C103.212 354.727 103.679 356.425 104.481 357.732C105.284 359.02 106.516 359.664 108.177 359.664C109.185 359.664 110.016 359.393 110.669 358.852C111.323 358.311 111.649 357.536 111.649 356.528C111.649 355.483 111.313 354.587 110.641 353.84C109.969 353.093 108.905 352.253 107.449 351.32C106.329 350.592 105.433 349.957 104.761 349.416C104.089 348.875 103.539 348.24 103.109 347.512C102.68 346.765 102.465 345.907 102.465 344.936C102.465 343.816 102.745 342.873 103.305 342.108C103.884 341.324 104.649 340.745 105.601 340.372C106.553 339.999 107.599 339.812 108.737 339.812ZM123.493 345.524H126.797V346.084H123.493V357.396C123.493 357.956 123.586 358.357 123.773 358.6C123.978 358.824 124.295 358.936 124.725 358.936C125.527 358.936 126.162 358.376 126.629 357.256L127.105 357.508C126.395 359.431 125.117 360.392 123.269 360.392C122.037 360.392 121.103 360.075 120.469 359.44C120.077 359.048 119.806 358.563 119.657 357.984C119.526 357.387 119.461 356.575 119.461 355.548V346.084H117.109V345.524H119.461V341.828C121.01 341.828 122.354 341.529 123.493 340.932V345.524ZM135.775 358.096C137.306 358.096 138.538 357.349 139.471 355.856L139.975 356.024C139.602 357.237 138.93 358.273 137.959 359.132C137.007 359.972 135.812 360.392 134.375 360.392C132.396 360.392 130.819 359.767 129.643 358.516C128.486 357.247 127.907 355.38 127.907 352.916C127.907 350.396 128.532 348.473 129.783 347.148C131.034 345.804 132.695 345.132 134.767 345.132C138.276 345.132 140.031 347.204 140.031 351.348H132.163C132.144 351.628 132.135 352.067 132.135 352.664C132.135 353.896 132.303 354.923 132.639 355.744C132.994 356.565 133.442 357.163 133.983 357.536C134.543 357.909 135.14 358.096 135.775 358.096ZM134.599 345.72C133.927 345.72 133.367 346.14 132.919 346.98C132.49 347.801 132.219 349.08 132.107 350.816H136.503C136.54 349.341 136.391 348.128 136.055 347.176C135.738 346.205 135.252 345.72 134.599 345.72ZM151.705 345.132C152.675 345.132 153.534 345.393 154.281 345.916C155.046 346.439 155.643 347.223 156.073 348.268C156.502 349.313 156.717 350.592 156.717 352.104C156.717 354.773 156.129 356.827 154.953 358.264C153.795 359.683 152.218 360.392 150.221 360.392C149.661 360.392 149.129 360.317 148.625 360.168C148.139 360.019 147.719 359.795 147.365 359.496V362.296C147.365 363.117 147.57 363.687 147.981 364.004C148.391 364.321 149.026 364.48 149.885 364.48V365.068L149.129 365.04C147.057 364.984 145.741 364.956 145.181 364.956C144.621 364.956 143.445 364.993 141.653 365.068V364.48C142.269 364.48 142.698 364.34 142.941 364.06C143.202 363.799 143.333 363.304 143.333 362.576V348.576C143.333 347.717 143.193 347.092 142.913 346.7C142.651 346.308 142.194 346.112 141.541 346.112V345.524C142.138 345.58 142.717 345.608 143.277 345.608C144.901 345.608 146.263 345.477 147.365 345.216V347.792C147.757 346.933 148.326 346.28 149.073 345.832C149.819 345.365 150.697 345.132 151.705 345.132ZM149.129 359.636C150.323 359.636 151.182 359.048 151.705 357.872C152.227 356.677 152.489 354.941 152.489 352.664C152.489 350.387 152.274 348.763 151.845 347.792C151.434 346.821 150.837 346.336 150.053 346.336C149.418 346.336 148.849 346.551 148.345 346.98C147.859 347.409 147.533 348.007 147.365 348.772V358.88C147.813 359.384 148.401 359.636 149.129 359.636ZM171.786 345.132C173.223 345.132 174.362 345.449 175.202 346.084C176.042 346.7 176.462 347.568 176.462 348.688C176.462 349.453 176.238 350.163 175.79 350.816C175.361 351.469 174.847 352.048 174.25 352.552C173.653 353.056 172.831 353.681 171.786 354.428C170.442 355.361 169.499 356.108 168.958 356.668H175.006C175.51 356.668 175.883 356.631 176.126 356.556C176.387 356.481 176.565 356.36 176.658 356.192C176.751 356.024 176.826 355.763 176.882 355.408H177.47C177.47 357.611 177.507 359.188 177.582 360.14C177.171 360.047 175.781 360 173.41 360H165.262V359.468C165.505 359.207 165.981 358.759 166.69 358.124C167.773 357.135 168.669 356.257 169.378 355.492C170.106 354.708 170.731 353.812 171.254 352.804C171.795 351.777 172.066 350.713 172.066 349.612C172.066 348.623 171.842 347.904 171.394 347.456C170.965 346.989 170.321 346.756 169.462 346.756C168.678 346.756 167.978 346.943 167.362 347.316C166.765 347.671 166.214 348.203 165.71 348.912L165.234 348.632C166.615 346.299 168.799 345.132 171.786 345.132Z" fill="#FD583E"/>
<circle cx="586.013" cy="359.653" r="76.6474" fill="#EEF1F3"/>
<path d="M541.272 383.127C540.939 383.601 540.415 383.971 539.702 384.236C538.993 384.502 538.199 384.635 537.319 384.635C536.428 384.635 535.637 384.421 534.944 383.994C534.251 383.567 533.715 382.963 533.334 382.182C532.954 381.4 532.762 380.505 532.756 379.494V378.057C532.756 376.479 533.155 375.234 533.952 374.322C534.749 373.406 535.819 372.947 537.163 372.947C538.334 372.947 539.277 373.247 539.991 373.846C540.704 374.439 541.129 375.26 541.264 376.307H540.303C540.163 375.473 539.821 374.843 539.28 374.416C538.743 373.984 538.04 373.768 537.17 373.768C536.108 373.768 535.267 374.145 534.647 374.9C534.027 375.656 533.717 376.721 533.717 378.096V379.439C533.717 380.304 533.863 381.07 534.155 381.736C534.452 382.398 534.874 382.911 535.42 383.275C535.972 383.64 536.605 383.822 537.319 383.822C538.147 383.822 538.858 383.692 539.452 383.432C539.837 383.26 540.124 383.059 540.311 382.83V379.893H537.256V379.08H541.272V383.127ZM547.686 376.822C547.488 376.786 547.277 376.768 547.053 376.768C546.47 376.768 545.975 376.932 545.569 377.26C545.168 377.583 544.881 378.054 544.709 378.674V384.479H543.78V376.025H544.694L544.709 377.369C545.204 376.369 545.999 375.869 547.092 375.869C547.353 375.869 547.558 375.903 547.709 375.971L547.686 376.822ZM548.499 380.127C548.499 379.314 548.655 378.583 548.967 377.932C549.285 377.281 549.73 376.775 550.303 376.416C550.881 376.051 551.535 375.869 552.264 375.869C553.389 375.869 554.301 376.265 554.999 377.057C555.696 377.843 556.045 378.887 556.045 380.189V380.385C556.045 381.202 555.887 381.939 555.569 382.596C555.256 383.247 554.814 383.749 554.241 384.104C553.668 384.458 553.014 384.635 552.28 384.635C551.16 384.635 550.249 384.242 549.545 383.455C548.847 382.663 548.499 381.617 548.499 380.314V380.127ZM549.436 380.385C549.436 381.395 549.696 382.226 550.217 382.877C550.743 383.523 551.431 383.846 552.28 383.846C553.124 383.846 553.806 383.523 554.327 382.877C554.853 382.226 555.116 381.369 555.116 380.307V380.127C555.116 379.481 554.996 378.89 554.756 378.354C554.517 377.817 554.181 377.403 553.749 377.111C553.316 376.814 552.821 376.666 552.264 376.666C551.431 376.666 550.751 376.994 550.225 377.65C549.699 378.301 549.436 379.156 549.436 380.213V380.385ZM560.006 382.533L560.147 383.26L560.334 382.494L562.366 376.025H563.163L565.17 382.439L565.389 383.33L565.569 382.51L567.303 376.025H568.272L565.811 384.479H565.014L562.842 377.775L562.741 377.314L562.639 377.783L560.506 384.479H559.709L557.256 376.025H558.217L560.006 382.533ZM579.272 384.479C579.178 384.213 579.118 383.82 579.092 383.299C578.764 383.726 578.345 384.057 577.834 384.291C577.329 384.52 576.793 384.635 576.225 384.635C575.413 384.635 574.754 384.408 574.249 383.955C573.749 383.502 573.499 382.929 573.499 382.236C573.499 381.413 573.84 380.762 574.522 380.283C575.209 379.804 576.165 379.564 577.389 379.564H579.084V378.604C579.084 377.999 578.897 377.525 578.522 377.182C578.152 376.833 577.61 376.658 576.897 376.658C576.246 376.658 575.707 376.825 575.28 377.158C574.853 377.492 574.639 377.893 574.639 378.361L573.702 378.354C573.702 377.682 574.014 377.101 574.639 376.611C575.264 376.117 576.032 375.869 576.944 375.869C577.887 375.869 578.629 376.106 579.17 376.58C579.717 377.049 579.999 377.705 580.014 378.549V382.549C580.014 383.367 580.1 383.979 580.272 384.385V384.479H579.272ZM576.334 383.807C576.959 383.807 577.517 383.656 578.006 383.354C578.501 383.051 578.86 382.648 579.084 382.143V380.283H577.413C576.48 380.294 575.751 380.465 575.225 380.799C574.699 381.127 574.436 381.58 574.436 382.158C574.436 382.632 574.61 383.025 574.959 383.338C575.314 383.65 575.772 383.807 576.334 383.807ZM583.405 376.025L583.436 377.471C583.754 376.95 584.15 376.554 584.624 376.283C585.097 376.007 585.621 375.869 586.194 375.869C587.1 375.869 587.775 376.124 588.217 376.635C588.66 377.145 588.884 377.911 588.889 378.932V384.479H587.959V378.924C587.954 378.169 587.793 377.606 587.475 377.236C587.163 376.867 586.66 376.682 585.967 376.682C585.389 376.682 584.876 376.864 584.428 377.229C583.985 377.588 583.657 378.075 583.444 378.689V384.479H582.514V376.025H583.405ZM590.936 380.174C590.936 378.861 591.228 377.817 591.811 377.041C592.4 376.26 593.196 375.869 594.202 375.869C595.342 375.869 596.212 376.32 596.811 377.221V372.479H597.741V384.479H596.866L596.827 383.354C596.228 384.208 595.347 384.635 594.186 384.635C593.212 384.635 592.426 384.244 591.827 383.463C591.233 382.676 590.936 381.617 590.936 380.283V380.174ZM591.881 380.338C591.881 381.416 592.097 382.268 592.53 382.893C592.962 383.512 593.571 383.822 594.358 383.822C595.509 383.822 596.327 383.314 596.811 382.299V378.33C596.327 377.231 595.514 376.682 594.374 376.682C593.587 376.682 592.975 376.992 592.538 377.611C592.1 378.226 591.881 379.135 591.881 380.338ZM609.155 382.33C609.155 381.867 608.967 381.494 608.592 381.213C608.222 380.932 607.663 380.713 606.913 380.557C606.163 380.395 605.579 380.213 605.163 380.01C604.751 379.801 604.444 379.549 604.241 379.252C604.043 378.955 603.944 378.596 603.944 378.174C603.944 377.507 604.222 376.958 604.78 376.525C605.337 376.088 606.051 375.869 606.92 375.869C607.863 375.869 608.618 376.104 609.186 376.572C609.759 377.036 610.045 377.643 610.045 378.393H609.108C609.108 377.898 608.9 377.486 608.483 377.158C608.071 376.83 607.551 376.666 606.92 376.666C606.306 376.666 605.811 376.804 605.436 377.08C605.066 377.351 604.881 377.705 604.881 378.143C604.881 378.564 605.035 378.893 605.342 379.127C605.655 379.356 606.22 379.567 607.038 379.76C607.86 379.952 608.475 380.158 608.881 380.377C609.293 380.596 609.597 380.859 609.795 381.166C609.993 381.473 610.092 381.846 610.092 382.283C610.092 382.997 609.803 383.567 609.225 383.994C608.652 384.421 607.902 384.635 606.975 384.635C605.991 384.635 605.191 384.398 604.577 383.924C603.967 383.445 603.663 382.84 603.663 382.111H604.6C604.637 382.658 604.866 383.085 605.288 383.393C605.715 383.695 606.277 383.846 606.975 383.846C607.626 383.846 608.152 383.702 608.553 383.416C608.954 383.13 609.155 382.768 609.155 382.33ZM615.327 383.846C615.978 383.846 616.522 383.663 616.959 383.299C617.402 382.929 617.642 382.452 617.678 381.869H618.577C618.551 382.385 618.389 382.856 618.092 383.283C617.795 383.705 617.4 384.036 616.905 384.275C616.415 384.515 615.889 384.635 615.327 384.635C614.217 384.635 613.337 384.249 612.686 383.479C612.04 382.708 611.717 381.671 611.717 380.369V380.088C611.717 379.255 611.863 378.518 612.155 377.877C612.446 377.236 612.863 376.742 613.405 376.393C613.952 376.044 614.59 375.869 615.319 375.869C616.246 375.869 617.009 376.145 617.608 376.697C618.212 377.249 618.535 377.976 618.577 378.877H617.678C617.637 378.215 617.397 377.682 616.959 377.275C616.527 376.869 615.98 376.666 615.319 376.666C614.475 376.666 613.819 376.971 613.35 377.58C612.887 378.189 612.655 379.044 612.655 380.143V380.416C612.655 381.494 612.887 382.335 613.35 382.939C613.819 383.544 614.478 383.846 615.327 383.846ZM625.788 384.479C625.694 384.213 625.634 383.82 625.608 383.299C625.28 383.726 624.86 384.057 624.35 384.291C623.845 384.52 623.308 384.635 622.741 384.635C621.928 384.635 621.269 384.408 620.764 383.955C620.264 383.502 620.014 382.929 620.014 382.236C620.014 381.413 620.355 380.762 621.038 380.283C621.725 379.804 622.681 379.564 623.905 379.564H625.6V378.604C625.6 377.999 625.413 377.525 625.038 377.182C624.668 376.833 624.126 376.658 623.413 376.658C622.762 376.658 622.222 376.825 621.795 377.158C621.368 377.492 621.155 377.893 621.155 378.361L620.217 378.354C620.217 377.682 620.53 377.101 621.155 376.611C621.78 376.117 622.548 375.869 623.459 375.869C624.402 375.869 625.144 376.106 625.686 376.58C626.233 377.049 626.514 377.705 626.53 378.549V382.549C626.53 383.367 626.616 383.979 626.788 384.385V384.479H625.788ZM622.85 383.807C623.475 383.807 624.032 383.656 624.522 383.354C625.017 383.051 625.376 382.648 625.6 382.143V380.283H623.928C622.996 380.294 622.267 380.465 621.741 380.799C621.215 381.127 620.952 381.58 620.952 382.158C620.952 382.632 621.126 383.025 621.475 383.338C621.829 383.65 622.288 383.807 622.85 383.807ZM630.077 384.479H629.139V372.479H630.077V384.479ZM635.897 384.635C635.178 384.635 634.527 384.458 633.944 384.104C633.366 383.749 632.915 383.257 632.592 382.627C632.269 381.992 632.108 381.281 632.108 380.494V380.158C632.108 379.346 632.264 378.614 632.577 377.963C632.894 377.312 633.334 376.801 633.897 376.432C634.459 376.057 635.069 375.869 635.725 375.869C636.751 375.869 637.564 376.221 638.163 376.924C638.767 377.622 639.069 378.577 639.069 379.791V380.314H633.038V380.494C633.038 381.452 633.311 382.252 633.858 382.893C634.41 383.528 635.103 383.846 635.936 383.846C636.436 383.846 636.876 383.755 637.256 383.572C637.642 383.39 637.991 383.098 638.303 382.697L638.889 383.143C638.202 384.137 637.204 384.635 635.897 384.635ZM635.725 376.666C635.022 376.666 634.428 376.924 633.944 377.439C633.465 377.955 633.173 378.648 633.069 379.518H638.139V379.416C638.113 378.604 637.881 377.942 637.444 377.432C637.006 376.921 636.433 376.666 635.725 376.666Z" fill="#546169"/>
<path d="M553.296 339.812C554.267 339.812 555.042 339.905 555.62 340.092C556.199 340.279 556.787 340.549 557.384 340.904C557.59 341.016 557.767 341.109 557.916 341.184C558.084 341.259 558.224 341.296 558.336 341.296C558.504 341.296 558.635 341.203 558.728 341.016C558.822 340.811 558.896 340.493 558.952 340.064H559.596C559.503 341.315 559.456 343.443 559.456 346.448H558.812C558.738 345.44 558.504 344.479 558.112 343.564C557.739 342.649 557.198 341.912 556.488 341.352C555.798 340.773 554.986 340.484 554.052 340.484C553.138 340.484 552.391 340.745 551.812 341.268C551.252 341.772 550.972 342.463 550.972 343.34C550.972 343.993 551.112 344.563 551.392 345.048C551.672 345.533 552.064 345.981 552.568 346.392C553.072 346.784 553.847 347.325 554.892 348.016L555.788 348.632C556.89 349.36 557.758 349.995 558.392 350.536C559.027 351.077 559.54 351.712 559.932 352.44C560.343 353.149 560.548 353.98 560.548 354.932C560.548 356.127 560.24 357.135 559.624 357.956C559.008 358.759 558.168 359.365 557.104 359.776C556.059 360.187 554.892 360.392 553.604 360.392C552.559 360.392 551.691 360.299 551 360.112C550.31 359.925 549.675 359.673 549.096 359.356C548.686 359.095 548.368 358.964 548.144 358.964C547.976 358.964 547.846 359.067 547.752 359.272C547.659 359.459 547.584 359.767 547.528 360.196H546.884C546.959 359.02 546.996 356.5 546.996 352.636H547.64C547.771 354.727 548.238 356.425 549.04 357.732C549.843 359.02 551.075 359.664 552.736 359.664C553.744 359.664 554.575 359.393 555.228 358.852C555.882 358.311 556.208 357.536 556.208 356.528C556.208 355.483 555.872 354.587 555.2 353.84C554.528 353.093 553.464 352.253 552.008 351.32C550.888 350.592 549.992 349.957 549.32 349.416C548.648 348.875 548.098 348.24 547.668 347.512C547.239 346.765 547.024 345.907 547.024 344.936C547.024 343.816 547.304 342.873 547.864 342.108C548.443 341.324 549.208 340.745 550.16 340.372C551.112 339.999 552.158 339.812 553.296 339.812ZM568.052 345.524H571.356V346.084H568.052V357.396C568.052 357.956 568.145 358.357 568.332 358.6C568.537 358.824 568.854 358.936 569.284 358.936C570.086 358.936 570.721 358.376 571.188 357.256L571.664 357.508C570.954 359.431 569.676 360.392 567.828 360.392C566.596 360.392 565.662 360.075 565.028 359.44C564.636 359.048 564.365 358.563 564.216 357.984C564.085 357.387 564.02 356.575 564.02 355.548V346.084H561.668V345.524H564.02V341.828C565.569 341.828 566.913 341.529 568.052 340.932V345.524ZM580.334 358.096C581.865 358.096 583.097 357.349 584.03 355.856L584.534 356.024C584.161 357.237 583.489 358.273 582.518 359.132C581.566 359.972 580.371 360.392 578.934 360.392C576.955 360.392 575.378 359.767 574.202 358.516C573.045 357.247 572.466 355.38 572.466 352.916C572.466 350.396 573.091 348.473 574.342 347.148C575.593 345.804 577.254 345.132 579.326 345.132C582.835 345.132 584.59 347.204 584.59 351.348H576.722C576.703 351.628 576.694 352.067 576.694 352.664C576.694 353.896 576.862 354.923 577.198 355.744C577.553 356.565 578.001 357.163 578.542 357.536C579.102 357.909 579.699 358.096 580.334 358.096ZM579.158 345.72C578.486 345.72 577.926 346.14 577.478 346.98C577.049 347.801 576.778 349.08 576.666 350.816H581.062C581.099 349.341 580.95 348.128 580.614 347.176C580.297 346.205 579.811 345.72 579.158 345.72ZM596.264 345.132C597.234 345.132 598.093 345.393 598.84 345.916C599.605 346.439 600.202 347.223 600.632 348.268C601.061 349.313 601.276 350.592 601.276 352.104C601.276 354.773 600.688 356.827 599.512 358.264C598.354 359.683 596.777 360.392 594.78 360.392C594.22 360.392 593.688 360.317 593.184 360.168C592.698 360.019 592.278 359.795 591.924 359.496V362.296C591.924 363.117 592.129 363.687 592.54 364.004C592.95 364.321 593.585 364.48 594.444 364.48V365.068L593.688 365.04C591.616 364.984 590.3 364.956 589.74 364.956C589.18 364.956 588.004 364.993 586.212 365.068V364.48C586.828 364.48 587.257 364.34 587.5 364.06C587.761 363.799 587.892 363.304 587.892 362.576V348.576C587.892 347.717 587.752 347.092 587.472 346.7C587.21 346.308 586.753 346.112 586.1 346.112V345.524C586.697 345.58 587.276 345.608 587.836 345.608C589.46 345.608 590.822 345.477 591.924 345.216V347.792C592.316 346.933 592.885 346.28 593.632 345.832C594.378 345.365 595.256 345.132 596.264 345.132ZM593.688 359.636C594.882 359.636 595.741 359.048 596.264 357.872C596.786 356.677 597.048 354.941 597.048 352.664C597.048 350.387 596.833 348.763 596.404 347.792C595.993 346.821 595.396 346.336 594.612 346.336C593.977 346.336 593.408 346.551 592.904 346.98C592.418 347.409 592.092 348.007 591.924 348.772V358.88C592.372 359.384 592.96 359.636 593.688 359.636ZM622.123 359.132C621.899 359.076 620.966 359.029 619.323 358.992V363.948H616.075V358.992H608.431V358.404L618.875 345.132H619.323V356.108H619.547C620.051 356.108 620.425 356.071 620.667 355.996C620.929 355.921 621.106 355.8 621.199 355.632C621.293 355.464 621.367 355.203 621.423 354.848H622.011C622.011 356.827 622.049 358.255 622.123 359.132ZM616.075 356.108V349.584L611.007 356.108H616.075Z" fill="#FD583E"/>
<path d="M492.064 330.307C443.268 299.843 396.881 253.152 362.19 218.862C362.19 218.862 298.803 155.134 233.345 113.033" stroke="#546169" stroke-width="1.5" stroke-miterlimit="10" stroke-linecap="round" stroke-dasharray="4 10"/>
<path d="M54.3176 109.023C21.7346 134.845 0.999953 174.721 0.999951 219.174C0.999949 266.599 24.4105 308.483 60.4068 334.075M671.091 328.672C703.674 302.85 724.409 262.974 724.409 218.521C724.409 177.75 707.018 141.075 679.253 115.326M492.531 108.01C443.591 138.316 397.234 184.962 362.375 219.174C362.375 219.174 299.487 282.362 234.301 324.198" stroke="#546169" stroke-width="1.5" stroke-miterlimit="10" stroke-linecap="round" stroke-dasharray="4 10"/>
</svg>
