<svg width="1236" height="592" viewBox="0 0 1236 592" fill="none" xmlns="http://www.w3.org/2000/svg">
<path d="M798 447.777C731.894 406.44 669.051 343.083 622.052 296.552C622.052 296.552 536.179 210.077 447.5 152.949" stroke="#546169" stroke-width="1.5" stroke-miterlimit="10" stroke-linecap="round" stroke-dasharray="4 10"/>
<path d="M203.157 146.885C158.85 182.18 130.655 236.686 130.655 297.447C130.655 362.27 162.489 419.519 211.437 454.5M1041.84 447.115C1086.15 411.82 1114.34 357.314 1114.34 296.553C1114.34 240.826 1090.7 190.696 1052.94 155.5M799.039 145.5C732.49 186.925 669.454 250.683 622.053 297.447C622.053 297.447 536.537 383.815 447.898 441" stroke="#546169" stroke-width="1.5" stroke-miterlimit="10" stroke-linecap="round" stroke-dasharray="4 10"/>
<circle id="circle1" cx="322" cy="104" r="104" fill="#EEF1F3"/>
<path class="circle1" d="M258.443 122.566C258.281 124.064 257.743 125.21 256.832 126.004C255.927 126.798 254.719 127.195 253.209 127.195C252.154 127.195 251.22 126.932 250.406 126.404C249.599 125.877 248.974 125.132 248.531 124.168C248.089 123.198 247.864 122.091 247.857 120.848V119.002C247.857 117.739 248.079 116.619 248.521 115.643C248.964 114.666 249.599 113.914 250.426 113.387C251.259 112.853 252.216 112.586 253.297 112.586C254.82 112.586 256.021 112.999 256.9 113.826C257.786 114.646 258.3 115.783 258.443 117.234H257.232C256.933 114.819 255.621 113.611 253.297 113.611C252.008 113.611 250.979 114.093 250.211 115.057C249.449 116.02 249.068 117.352 249.068 119.051V120.789C249.068 122.43 249.439 123.738 250.182 124.715C250.93 125.691 251.939 126.18 253.209 126.18C254.465 126.18 255.413 125.88 256.051 125.281C256.689 124.676 257.083 123.771 257.232 122.566H258.443ZM267.887 125.662C267.184 126.684 266.061 127.195 264.518 127.195C263.391 127.195 262.535 126.87 261.949 126.219C261.363 125.561 261.064 124.591 261.051 123.309V116.434H262.213V123.162C262.213 125.174 263.027 126.18 264.654 126.18C266.347 126.18 267.418 125.48 267.867 124.08V116.434H269.039V127H267.906L267.887 125.662ZM278.414 124.314C278.414 123.735 278.18 123.27 277.711 122.918C277.249 122.566 276.549 122.293 275.611 122.098C274.674 121.896 273.945 121.668 273.424 121.414C272.91 121.154 272.525 120.838 272.271 120.467C272.024 120.096 271.9 119.646 271.9 119.119C271.9 118.286 272.249 117.599 272.945 117.059C273.642 116.512 274.534 116.238 275.621 116.238C276.799 116.238 277.743 116.531 278.453 117.117C279.169 117.697 279.527 118.455 279.527 119.393H278.355C278.355 118.774 278.095 118.26 277.574 117.85C277.06 117.439 276.409 117.234 275.621 117.234C274.853 117.234 274.234 117.407 273.766 117.752C273.303 118.09 273.072 118.533 273.072 119.08C273.072 119.607 273.264 120.018 273.648 120.311C274.039 120.597 274.745 120.861 275.768 121.102C276.796 121.342 277.564 121.6 278.072 121.873C278.587 122.146 278.967 122.475 279.215 122.859C279.462 123.243 279.586 123.709 279.586 124.256C279.586 125.148 279.225 125.861 278.502 126.395C277.786 126.928 276.848 127.195 275.689 127.195C274.459 127.195 273.46 126.899 272.691 126.307C271.93 125.708 271.549 124.952 271.549 124.041H272.721C272.766 124.725 273.053 125.258 273.58 125.643C274.114 126.02 274.817 126.209 275.689 126.209C276.503 126.209 277.161 126.03 277.662 125.672C278.163 125.314 278.414 124.861 278.414 124.314ZM284.039 113.729V116.434H286.227V117.391H284.039V124.432C284.039 125.018 284.143 125.454 284.352 125.74C284.566 126.027 284.921 126.17 285.416 126.17C285.611 126.17 285.927 126.137 286.363 126.072L286.412 127.029C286.106 127.14 285.689 127.195 285.162 127.195C284.361 127.195 283.779 126.964 283.414 126.502C283.049 126.033 282.867 125.346 282.867 124.441V117.391H280.924V116.434H282.867V113.729H284.039ZM287.809 121.561C287.809 120.545 288.004 119.63 288.395 118.816C288.792 118.003 289.348 117.371 290.064 116.922C290.787 116.466 291.604 116.238 292.516 116.238C293.922 116.238 295.061 116.733 295.934 117.723C296.806 118.706 297.242 120.011 297.242 121.639V121.883C297.242 122.905 297.044 123.826 296.646 124.646C296.256 125.46 295.702 126.089 294.986 126.531C294.27 126.974 293.453 127.195 292.535 127.195C291.135 127.195 289.996 126.704 289.117 125.721C288.245 124.731 287.809 123.423 287.809 121.795V121.561ZM288.98 121.883C288.98 123.146 289.306 124.184 289.957 124.998C290.615 125.805 291.474 126.209 292.535 126.209C293.59 126.209 294.443 125.805 295.094 124.998C295.751 124.184 296.08 123.113 296.08 121.785V121.561C296.08 120.753 295.93 120.014 295.631 119.344C295.331 118.673 294.911 118.156 294.371 117.791C293.831 117.42 293.212 117.234 292.516 117.234C291.474 117.234 290.624 117.645 289.967 118.465C289.309 119.279 288.98 120.346 288.98 121.668V121.883ZM300.729 116.434L300.768 118.152C301.158 117.514 301.646 117.036 302.232 116.717C302.818 116.398 303.469 116.238 304.186 116.238C305.852 116.238 306.91 116.922 307.359 118.289C307.737 117.632 308.242 117.127 308.873 116.775C309.505 116.417 310.201 116.238 310.963 116.238C313.229 116.238 314.384 117.475 314.43 119.949V127H313.258V120.037C313.251 119.093 313.046 118.393 312.643 117.938C312.245 117.482 311.594 117.254 310.689 117.254C309.85 117.267 309.14 117.54 308.561 118.074C307.981 118.602 307.659 119.246 307.594 120.008V127H306.422V119.949C306.415 119.044 306.201 118.37 305.777 117.928C305.361 117.479 304.716 117.254 303.844 117.254C303.108 117.254 302.477 117.465 301.949 117.889C301.422 118.305 301.031 118.927 300.777 119.754V127H299.605V116.434H300.729ZM321.49 127.195C320.592 127.195 319.778 126.974 319.049 126.531C318.326 126.089 317.763 125.473 317.359 124.686C316.956 123.891 316.754 123.003 316.754 122.02V121.6C316.754 120.584 316.949 119.669 317.34 118.855C317.737 118.042 318.287 117.404 318.99 116.941C319.693 116.473 320.455 116.238 321.275 116.238C322.558 116.238 323.574 116.678 324.322 117.557C325.077 118.429 325.455 119.624 325.455 121.141V121.795H317.916V122.02C317.916 123.217 318.258 124.217 318.941 125.018C319.632 125.812 320.497 126.209 321.539 126.209C322.164 126.209 322.714 126.095 323.189 125.867C323.671 125.639 324.107 125.275 324.498 124.773L325.23 125.33C324.371 126.574 323.124 127.195 321.49 127.195ZM321.275 117.234C320.396 117.234 319.654 117.557 319.049 118.201C318.45 118.846 318.085 119.712 317.955 120.799H324.293V120.672C324.26 119.656 323.971 118.829 323.424 118.191C322.877 117.553 322.161 117.234 321.275 117.234ZM332.613 117.43C332.366 117.384 332.102 117.361 331.822 117.361C331.093 117.361 330.475 117.566 329.967 117.977C329.465 118.38 329.107 118.969 328.893 119.744V127H327.73V116.434H328.873L328.893 118.113C329.511 116.863 330.504 116.238 331.871 116.238C332.197 116.238 332.454 116.281 332.643 116.365L332.613 117.43ZM340.641 127H339.469V116.434H340.641V127ZM339.264 113.377C339.264 113.156 339.335 112.97 339.479 112.82C339.622 112.664 339.817 112.586 340.064 112.586C340.312 112.586 340.507 112.664 340.65 112.82C340.8 112.97 340.875 113.156 340.875 113.377C340.875 113.598 340.8 113.784 340.65 113.934C340.507 114.083 340.312 114.158 340.064 114.158C339.817 114.158 339.622 114.083 339.479 113.934C339.335 113.784 339.264 113.598 339.264 113.377ZM344.938 116.434L344.977 118.24C345.374 117.589 345.868 117.094 346.461 116.756C347.053 116.411 347.708 116.238 348.424 116.238C349.557 116.238 350.4 116.557 350.953 117.195C351.507 117.833 351.786 118.79 351.793 120.066V127H350.631V120.057C350.624 119.113 350.423 118.41 350.025 117.947C349.635 117.485 349.007 117.254 348.141 117.254C347.418 117.254 346.777 117.482 346.217 117.938C345.663 118.387 345.253 118.995 344.986 119.764V127H343.824V116.434H344.938ZM361.148 124.314C361.148 123.735 360.914 123.27 360.445 122.918C359.983 122.566 359.283 122.293 358.346 122.098C357.408 121.896 356.679 121.668 356.158 121.414C355.644 121.154 355.26 120.838 355.006 120.467C354.758 120.096 354.635 119.646 354.635 119.119C354.635 118.286 354.983 117.599 355.68 117.059C356.376 116.512 357.268 116.238 358.355 116.238C359.534 116.238 360.478 116.531 361.188 117.117C361.904 117.697 362.262 118.455 362.262 119.393H361.09C361.09 118.774 360.829 118.26 360.309 117.85C359.794 117.439 359.143 117.234 358.355 117.234C357.587 117.234 356.969 117.407 356.5 117.752C356.038 118.09 355.807 118.533 355.807 119.08C355.807 119.607 355.999 120.018 356.383 120.311C356.773 120.597 357.48 120.861 358.502 121.102C359.531 121.342 360.299 121.6 360.807 121.873C361.321 122.146 361.702 122.475 361.949 122.859C362.197 123.243 362.32 123.709 362.32 124.256C362.32 125.148 361.959 125.861 361.236 126.395C360.52 126.928 359.583 127.195 358.424 127.195C357.193 127.195 356.194 126.899 355.426 126.307C354.664 125.708 354.283 124.952 354.283 124.041H355.455C355.501 124.725 355.787 125.258 356.314 125.643C356.848 126.02 357.551 126.209 358.424 126.209C359.238 126.209 359.895 126.03 360.396 125.672C360.898 125.314 361.148 124.861 361.148 124.314ZM366.266 127H365.094V116.434H366.266V127ZM364.889 113.377C364.889 113.156 364.96 112.97 365.104 112.82C365.247 112.664 365.442 112.586 365.689 112.586C365.937 112.586 366.132 112.664 366.275 112.82C366.425 112.97 366.5 113.156 366.5 113.377C366.5 113.598 366.425 113.784 366.275 113.934C366.132 114.083 365.937 114.158 365.689 114.158C365.442 114.158 365.247 114.083 365.104 113.934C364.96 113.784 364.889 113.598 364.889 113.377ZM368.98 121.619C368.98 119.965 369.345 118.657 370.074 117.693C370.81 116.723 371.806 116.238 373.062 116.238C374.501 116.238 375.595 116.811 376.344 117.957L376.402 116.434H377.496V126.785C377.496 128.146 377.115 129.223 376.354 130.018C375.592 130.812 374.56 131.209 373.258 131.209C372.522 131.209 371.819 131.043 371.148 130.711C370.484 130.385 369.96 129.949 369.576 129.402L370.23 128.699C371.057 129.715 372.04 130.223 373.18 130.223C374.156 130.223 374.918 129.933 375.465 129.354C376.012 128.781 376.295 127.983 376.314 126.961V125.633C375.566 126.674 374.475 127.195 373.043 127.195C371.819 127.195 370.836 126.707 370.094 125.73C369.352 124.754 368.98 123.436 368.98 121.775V121.619ZM370.162 121.824C370.162 123.172 370.432 124.236 370.973 125.018C371.513 125.792 372.275 126.18 373.258 126.18C374.697 126.18 375.715 125.535 376.314 124.246V119.334C376.041 118.657 375.647 118.143 375.133 117.791C374.618 117.433 374 117.254 373.277 117.254C372.294 117.254 371.529 117.641 370.982 118.416C370.436 119.184 370.162 120.32 370.162 121.824ZM381.705 118.221C382.089 117.589 382.581 117.101 383.18 116.756C383.779 116.411 384.433 116.238 385.143 116.238C386.275 116.238 387.118 116.557 387.672 117.195C388.225 117.833 388.505 118.79 388.512 120.066V127H387.35V120.057C387.343 119.113 387.141 118.41 386.744 117.947C386.354 117.485 385.725 117.254 384.859 117.254C384.137 117.254 383.495 117.482 382.936 117.938C382.382 118.387 381.972 118.995 381.705 119.764V127H380.543V112H381.705V118.221ZM393.336 113.729V116.434H395.523V117.391H393.336V124.432C393.336 125.018 393.44 125.454 393.648 125.74C393.863 126.027 394.218 126.17 394.713 126.17C394.908 126.17 395.224 126.137 395.66 126.072L395.709 127.029C395.403 127.14 394.986 127.195 394.459 127.195C393.658 127.195 393.076 126.964 392.711 126.502C392.346 126.033 392.164 125.346 392.164 124.441V117.391H390.221V116.434H392.164V113.729H393.336Z" fill="#546169"/>
<path class="circle1" d="M284.146 87.1045C284.273 89.3408 284.767 91.1572 285.626 92.5537C286.495 93.9404 287.823 94.6338 289.61 94.6338C290.313 94.6338 290.943 94.5117 291.5 94.2676C292.066 94.0137 292.511 93.6328 292.833 93.125C293.165 92.6172 293.331 92.002 293.331 91.2793C293.331 90.498 293.146 89.7998 292.774 89.1846C292.413 88.5596 291.92 87.9932 291.295 87.4854C290.68 86.9678 289.854 86.3721 288.819 85.6982C287.608 84.917 286.646 84.2383 285.934 83.6621C285.23 83.0859 284.645 82.4023 284.176 81.6113C283.717 80.8203 283.487 79.9023 283.487 78.8574C283.487 77.6465 283.795 76.6309 284.41 75.8105C285.025 74.9805 285.841 74.3652 286.856 73.9648C287.872 73.5645 288.99 73.3643 290.211 73.3643C290.934 73.3643 291.559 73.418 292.086 73.5254C292.623 73.6328 293.067 73.7695 293.419 73.9355C293.78 74.0918 294.171 74.292 294.591 74.5361C295.069 74.8193 295.406 74.9609 295.602 74.9609C295.787 74.9609 295.929 74.8584 296.026 74.6533C296.124 74.4385 296.202 74.1016 296.261 73.6426H296.949C296.852 74.9805 296.803 77.2607 296.803 80.4834H296.114C296.046 79.3994 295.802 78.3691 295.382 77.3926C294.972 76.416 294.391 75.625 293.639 75.0195C292.896 74.4043 292.022 74.0967 291.017 74.0967C290.382 74.0967 289.811 74.2188 289.303 74.4629C288.805 74.707 288.414 75.0635 288.131 75.5322C287.857 75.9912 287.721 76.5283 287.721 77.1436C287.721 78.1396 288.019 78.9551 288.614 79.5898C289.21 80.2246 289.986 80.8691 290.943 81.5234C291.9 82.168 292.545 82.6025 292.877 82.8271C294.049 83.6084 294.977 84.2871 295.66 84.8633C296.344 85.4395 296.9 86.1133 297.33 86.8848C297.76 87.6562 297.975 88.5498 297.975 89.5654C297.975 90.8447 297.643 91.9238 296.979 92.8027C296.314 93.6816 295.421 94.3408 294.298 94.7803C293.175 95.21 291.92 95.4248 290.533 95.4248C289.41 95.4248 288.478 95.3223 287.735 95.1172C287.003 94.9219 286.324 94.6533 285.699 94.3115C285.27 94.0283 284.933 93.8867 284.688 93.8867C284.503 93.8867 284.361 93.9941 284.264 94.209C284.166 94.4141 284.088 94.7461 284.029 95.2051H283.341C283.419 93.9551 283.458 91.2549 283.458 87.1045H284.146ZM309.576 79.5166V80.1172H306.031V92.2168C306.031 92.8125 306.139 93.2373 306.354 93.4912C306.568 93.7354 306.9 93.8574 307.35 93.8574C308.199 93.8574 308.878 93.2568 309.386 92.0557L309.898 92.334C309.146 94.3945 307.779 95.4248 305.797 95.4248C304.479 95.4248 303.478 95.083 302.794 94.3994C302.374 93.9893 302.086 93.4717 301.93 92.8467C301.783 92.2119 301.71 91.3379 301.71 90.2246V80.1172H299.19V79.5166H301.71V75.5322C303.36 75.5322 304.801 75.21 306.031 74.5654V79.5166H309.576ZM315.348 85.7275C315.318 86.0205 315.304 86.4893 315.304 87.1338C315.304 88.4619 315.489 89.5654 315.86 90.4443C316.231 91.3135 316.71 91.9531 317.296 92.3633C317.892 92.7637 318.526 92.9639 319.2 92.9639C320.851 92.9639 322.174 92.1631 323.17 90.5615L323.697 90.7373C323.443 91.5576 323.048 92.3242 322.511 93.0371C321.983 93.7402 321.31 94.3164 320.489 94.7656C319.679 95.2051 318.751 95.4248 317.706 95.4248C316.329 95.4248 315.118 95.1318 314.073 94.5459C313.038 93.96 312.228 93.0713 311.642 91.8799C311.065 90.6787 310.777 89.1895 310.777 87.4121C310.777 85.5957 311.09 84.0674 311.715 82.8271C312.34 81.5771 313.204 80.6396 314.308 80.0146C315.411 79.3896 316.686 79.0771 318.131 79.0771C321.891 79.0771 323.771 81.2939 323.771 85.7275H315.348ZM319.991 85.1562C320.021 83.5938 319.859 82.2949 319.508 81.2598C319.166 80.2246 318.644 79.707 317.94 79.707C317.228 79.707 316.632 80.1514 316.153 81.04C315.685 81.9189 315.396 83.291 315.289 85.1562H319.991ZM331.622 81.9482C332.042 81.0107 332.652 80.2979 333.453 79.8096C334.264 79.3213 335.201 79.0771 336.266 79.0771C337.301 79.0771 338.224 79.3604 339.034 79.9268C339.845 80.4834 340.479 81.3232 340.938 82.4463C341.407 83.5596 341.642 84.9219 341.642 86.5332C341.642 88.4473 341.354 90.0732 340.777 91.4111C340.211 92.7393 339.405 93.7402 338.36 94.4141C337.325 95.0879 336.1 95.4248 334.684 95.4248C333.395 95.4248 332.374 95.1074 331.622 94.4727V97.4609C331.622 98.3398 331.842 98.9502 332.281 99.292C332.73 99.6338 333.409 99.8047 334.317 99.8047V100.435C334.024 100.425 333.36 100.4 332.325 100.361C331.29 100.322 330.274 100.303 329.278 100.303C328.517 100.303 327.74 100.322 326.949 100.361C326.168 100.4 325.685 100.425 325.499 100.435V99.8047C325.948 99.8047 326.3 99.7412 326.554 99.6143C326.808 99.4971 326.993 99.2871 327.11 98.9844C327.237 98.6914 327.301 98.2812 327.301 97.7539V82.7539C327.301 81.8359 327.154 81.167 326.861 80.7471C326.578 80.3271 326.085 80.1172 325.382 80.1172V79.4873C326.017 79.5459 326.637 79.5752 327.242 79.5752C328.99 79.5752 330.45 79.4385 331.622 79.165V81.9482ZM331.622 93.8135C332.071 94.3408 332.701 94.6045 333.512 94.6045C334.791 94.6045 335.709 93.9697 336.266 92.7002C336.832 91.4209 337.115 89.5654 337.115 87.1338C337.115 84.7021 336.891 82.9688 336.441 81.9336C335.992 80.8887 335.348 80.3662 334.508 80.3662C333.824 80.3662 333.214 80.5957 332.677 81.0547C332.14 81.5137 331.788 82.1484 331.622 82.959V93.8135ZM358.268 92.085C358.268 92.6807 358.336 93.1445 358.473 93.4766C358.619 93.7988 358.844 94.0283 359.146 94.165C359.459 94.3018 359.884 94.3701 360.421 94.3701V95C358.272 94.9219 356.891 94.8828 356.275 94.8828C355.65 94.8828 353.932 94.9219 351.119 95V94.3701C352.066 94.3701 352.774 94.1943 353.243 93.8428C353.712 93.4814 353.946 92.8369 353.946 91.9092V84.585C353.946 83.6182 353.858 82.9102 353.683 82.4609C353.517 82.0117 353.233 81.7139 352.833 81.5674C352.433 81.4209 351.822 81.3477 351.002 81.3477V80.6885C352.74 80.6592 354.171 80.5322 355.294 80.3076C356.417 80.0732 357.408 79.6924 358.268 79.165V92.085Z" fill="#FD583E"/>

<g><circle id="circle2" cx="925" cy="104" r="104" fill="#EEF1F3"/><text x="0" y="15">Test here</text></g>
<path class="circle2" d="M870.857 112.781L876.102 125.33L881.365 112.781H882.967V127H881.766V120.809L881.863 114.461L876.57 127H875.643L870.369 114.51L870.467 120.77V127H869.266V112.781H870.857ZM890.389 127.195C889.49 127.195 888.676 126.974 887.947 126.531C887.225 126.089 886.661 125.473 886.258 124.686C885.854 123.891 885.652 123.003 885.652 122.02V121.6C885.652 120.584 885.848 119.669 886.238 118.855C886.635 118.042 887.186 117.404 887.889 116.941C888.592 116.473 889.354 116.238 890.174 116.238C891.456 116.238 892.472 116.678 893.221 117.557C893.976 118.429 894.354 119.624 894.354 121.141V121.795H886.814V122.02C886.814 123.217 887.156 124.217 887.84 125.018C888.53 125.812 889.396 126.209 890.438 126.209C891.062 126.209 891.613 126.095 892.088 125.867C892.57 125.639 893.006 125.275 893.396 124.773L894.129 125.33C893.27 126.574 892.023 127.195 890.389 127.195ZM890.174 117.234C889.295 117.234 888.553 117.557 887.947 118.201C887.348 118.846 886.984 119.712 886.854 120.799H893.191V120.672C893.159 119.656 892.869 118.829 892.322 118.191C891.775 117.553 891.059 117.234 890.174 117.234ZM903.299 127C903.182 126.668 903.107 126.176 903.074 125.525C902.664 126.059 902.14 126.473 901.502 126.766C900.87 127.052 900.2 127.195 899.49 127.195C898.475 127.195 897.651 126.912 897.02 126.346C896.395 125.779 896.082 125.063 896.082 124.197C896.082 123.169 896.508 122.355 897.361 121.756C898.221 121.157 899.415 120.857 900.945 120.857H903.064V119.656C903.064 118.901 902.83 118.309 902.361 117.879C901.899 117.443 901.222 117.225 900.33 117.225C899.516 117.225 898.842 117.433 898.309 117.85C897.775 118.266 897.508 118.768 897.508 119.354L896.336 119.344C896.336 118.504 896.727 117.778 897.508 117.166C898.289 116.548 899.249 116.238 900.389 116.238C901.567 116.238 902.495 116.535 903.172 117.127C903.855 117.713 904.207 118.533 904.227 119.588V124.588C904.227 125.61 904.334 126.375 904.549 126.883V127H903.299ZM899.627 126.16C900.408 126.16 901.105 125.971 901.717 125.594C902.335 125.216 902.785 124.712 903.064 124.08V121.756H900.975C899.809 121.769 898.898 121.984 898.24 122.4C897.583 122.811 897.254 123.377 897.254 124.1C897.254 124.692 897.472 125.184 897.908 125.574C898.351 125.965 898.924 126.16 899.627 126.16ZM913.68 124.314C913.68 123.735 913.445 123.27 912.977 122.918C912.514 122.566 911.814 122.293 910.877 122.098C909.939 121.896 909.21 121.668 908.689 121.414C908.175 121.154 907.791 120.838 907.537 120.467C907.29 120.096 907.166 119.646 907.166 119.119C907.166 118.286 907.514 117.599 908.211 117.059C908.908 116.512 909.799 116.238 910.887 116.238C912.065 116.238 913.009 116.531 913.719 117.117C914.435 117.697 914.793 118.455 914.793 119.393H913.621C913.621 118.774 913.361 118.26 912.84 117.85C912.326 117.439 911.674 117.234 910.887 117.234C910.118 117.234 909.5 117.407 909.031 117.752C908.569 118.09 908.338 118.533 908.338 119.08C908.338 119.607 908.53 120.018 908.914 120.311C909.305 120.597 910.011 120.861 911.033 121.102C912.062 121.342 912.83 121.6 913.338 121.873C913.852 122.146 914.233 122.475 914.48 122.859C914.728 123.243 914.852 123.709 914.852 124.256C914.852 125.148 914.49 125.861 913.768 126.395C913.051 126.928 912.114 127.195 910.955 127.195C909.725 127.195 908.725 126.899 907.957 126.307C907.195 125.708 906.814 124.952 906.814 124.041H907.986C908.032 124.725 908.318 125.258 908.846 125.643C909.38 126.02 910.083 126.209 910.955 126.209C911.769 126.209 912.426 126.03 912.928 125.672C913.429 125.314 913.68 124.861 913.68 124.314ZM924.285 125.662C923.582 126.684 922.459 127.195 920.916 127.195C919.79 127.195 918.934 126.87 918.348 126.219C917.762 125.561 917.462 124.591 917.449 123.309V116.434H918.611V123.162C918.611 125.174 919.425 126.18 921.053 126.18C922.745 126.18 923.816 125.48 924.266 124.08V116.434H925.438V127H924.305L924.285 125.662ZM933.367 117.43C933.12 117.384 932.856 117.361 932.576 117.361C931.847 117.361 931.229 117.566 930.721 117.977C930.219 118.38 929.861 118.969 929.646 119.744V127H928.484V116.434H929.627L929.646 118.113C930.265 116.863 931.258 116.238 932.625 116.238C932.951 116.238 933.208 116.281 933.396 116.365L933.367 117.43ZM939.119 127.195C938.221 127.195 937.407 126.974 936.678 126.531C935.955 126.089 935.392 125.473 934.988 124.686C934.585 123.891 934.383 123.003 934.383 122.02V121.6C934.383 120.584 934.578 119.669 934.969 118.855C935.366 118.042 935.916 117.404 936.619 116.941C937.322 116.473 938.084 116.238 938.904 116.238C940.187 116.238 941.202 116.678 941.951 117.557C942.706 118.429 943.084 119.624 943.084 121.141V121.795H935.545V122.02C935.545 123.217 935.887 124.217 936.57 125.018C937.26 125.812 938.126 126.209 939.168 126.209C939.793 126.209 940.343 126.095 940.818 125.867C941.3 125.639 941.736 125.275 942.127 124.773L942.859 125.33C942 126.574 940.753 127.195 939.119 127.195ZM938.904 117.234C938.025 117.234 937.283 117.557 936.678 118.201C936.079 118.846 935.714 119.712 935.584 120.799H941.922V120.672C941.889 119.656 941.6 118.829 941.053 118.191C940.506 117.553 939.79 117.234 938.904 117.234ZM956.893 127C956.775 126.668 956.701 126.176 956.668 125.525C956.258 126.059 955.734 126.473 955.096 126.766C954.464 127.052 953.794 127.195 953.084 127.195C952.068 127.195 951.245 126.912 950.613 126.346C949.988 125.779 949.676 125.063 949.676 124.197C949.676 123.169 950.102 122.355 950.955 121.756C951.814 121.157 953.009 120.857 954.539 120.857H956.658V119.656C956.658 118.901 956.424 118.309 955.955 117.879C955.493 117.443 954.816 117.225 953.924 117.225C953.11 117.225 952.436 117.433 951.902 117.85C951.368 118.266 951.102 118.768 951.102 119.354L949.93 119.344C949.93 118.504 950.32 117.778 951.102 117.166C951.883 116.548 952.843 116.238 953.982 116.238C955.161 116.238 956.089 116.535 956.766 117.127C957.449 117.713 957.801 118.533 957.82 119.588V124.588C957.82 125.61 957.928 126.375 958.143 126.883V127H956.893ZM953.221 126.16C954.002 126.16 954.699 125.971 955.311 125.594C955.929 125.216 956.378 124.712 956.658 124.08V121.756H954.568C953.403 121.769 952.492 121.984 951.834 122.4C951.176 122.811 950.848 123.377 950.848 124.1C950.848 124.692 951.066 125.184 951.502 125.574C951.945 125.965 952.518 126.16 953.221 126.16ZM962.059 116.434L962.098 118.24C962.495 117.589 962.99 117.094 963.582 116.756C964.174 116.411 964.829 116.238 965.545 116.238C966.678 116.238 967.521 116.557 968.074 117.195C968.628 117.833 968.908 118.79 968.914 120.066V127H967.752V120.057C967.745 119.113 967.544 118.41 967.146 117.947C966.756 117.485 966.128 117.254 965.262 117.254C964.539 117.254 963.898 117.482 963.338 117.938C962.785 118.387 962.374 118.995 962.107 119.764V127H960.945V116.434H962.059ZM971.473 121.619C971.473 119.979 971.837 118.673 972.566 117.703C973.302 116.727 974.298 116.238 975.555 116.238C976.98 116.238 978.068 116.801 978.816 117.928V112H979.979V127H978.885L978.836 125.594C978.087 126.661 976.987 127.195 975.535 127.195C974.318 127.195 973.335 126.707 972.586 125.73C971.844 124.747 971.473 123.423 971.473 121.756V121.619ZM972.654 121.824C972.654 123.172 972.924 124.236 973.465 125.018C974.005 125.792 974.767 126.18 975.75 126.18C977.189 126.18 978.211 125.545 978.816 124.275V119.314C978.211 117.941 977.195 117.254 975.77 117.254C974.786 117.254 974.021 117.641 973.475 118.416C972.928 119.184 972.654 120.32 972.654 121.824ZM902.84 149.984H909.861V151H901.629V136.781H902.84V149.984ZM915.994 151.195C915.096 151.195 914.282 150.974 913.553 150.531C912.83 150.089 912.267 149.473 911.863 148.686C911.46 147.891 911.258 147.003 911.258 146.02V145.6C911.258 144.584 911.453 143.669 911.844 142.855C912.241 142.042 912.791 141.404 913.494 140.941C914.197 140.473 914.959 140.238 915.779 140.238C917.062 140.238 918.077 140.678 918.826 141.557C919.581 142.429 919.959 143.624 919.959 145.141V145.795H912.42V146.02C912.42 147.217 912.762 148.217 913.445 149.018C914.135 149.812 915.001 150.209 916.043 150.209C916.668 150.209 917.218 150.095 917.693 149.867C918.175 149.639 918.611 149.275 919.002 148.773L919.734 149.33C918.875 150.574 917.628 151.195 915.994 151.195ZM915.779 141.234C914.9 141.234 914.158 141.557 913.553 142.201C912.954 142.846 912.589 143.712 912.459 144.799H918.797V144.672C918.764 143.656 918.475 142.829 917.928 142.191C917.381 141.553 916.665 141.234 915.779 141.234ZM928.904 151C928.787 150.668 928.712 150.176 928.68 149.525C928.27 150.059 927.745 150.473 927.107 150.766C926.476 151.052 925.805 151.195 925.096 151.195C924.08 151.195 923.257 150.912 922.625 150.346C922 149.779 921.688 149.063 921.688 148.197C921.688 147.169 922.114 146.355 922.967 145.756C923.826 145.157 925.021 144.857 926.551 144.857H928.67V143.656C928.67 142.901 928.436 142.309 927.967 141.879C927.505 141.443 926.827 141.225 925.936 141.225C925.122 141.225 924.448 141.433 923.914 141.85C923.38 142.266 923.113 142.768 923.113 143.354L921.941 143.344C921.941 142.504 922.332 141.778 923.113 141.166C923.895 140.548 924.855 140.238 925.994 140.238C927.173 140.238 928.1 140.535 928.777 141.127C929.461 141.713 929.812 142.533 929.832 143.588V148.588C929.832 149.61 929.939 150.375 930.154 150.883V151H928.904ZM925.232 150.16C926.014 150.16 926.71 149.971 927.322 149.594C927.941 149.216 928.39 148.712 928.67 148.08V145.756H926.58C925.415 145.769 924.503 145.984 923.846 146.4C923.188 146.811 922.859 147.377 922.859 148.1C922.859 148.692 923.077 149.184 923.514 149.574C923.956 149.965 924.529 150.16 925.232 150.16ZM937.84 141.43C937.592 141.384 937.329 141.361 937.049 141.361C936.32 141.361 935.701 141.566 935.193 141.977C934.692 142.38 934.334 142.969 934.119 143.744V151H932.957V140.434H934.1L934.119 142.113C934.738 140.863 935.73 140.238 937.098 140.238C937.423 140.238 937.68 140.281 937.869 140.365L937.84 141.43ZM940.809 140.434L940.848 142.24C941.245 141.589 941.74 141.094 942.332 140.756C942.924 140.411 943.579 140.238 944.295 140.238C945.428 140.238 946.271 140.557 946.824 141.195C947.378 141.833 947.658 142.79 947.664 144.066V151H946.502V144.057C946.495 143.113 946.294 142.41 945.896 141.947C945.506 141.485 944.878 141.254 944.012 141.254C943.289 141.254 942.648 141.482 942.088 141.938C941.535 142.387 941.124 142.995 940.857 143.764V151H939.695V140.434H940.809Z" fill="#546169"/>
<path class="circle2"  d="M885.682 87.1045C885.809 89.3408 886.302 91.1572 887.161 92.5537C888.03 93.9404 889.358 94.6338 891.146 94.6338C891.849 94.6338 892.479 94.5117 893.035 94.2676C893.602 94.0137 894.046 93.6328 894.368 93.125C894.7 92.6172 894.866 92.002 894.866 91.2793C894.866 90.498 894.681 89.7998 894.31 89.1846C893.948 88.5596 893.455 87.9932 892.83 87.4854C892.215 86.9678 891.39 86.3721 890.354 85.6982C889.144 84.917 888.182 84.2383 887.469 83.6621C886.766 83.0859 886.18 82.4023 885.711 81.6113C885.252 80.8203 885.022 79.9023 885.022 78.8574C885.022 77.6465 885.33 76.6309 885.945 75.8105C886.561 74.9805 887.376 74.3652 888.392 73.9648C889.407 73.5645 890.525 73.3643 891.746 73.3643C892.469 73.3643 893.094 73.418 893.621 73.5254C894.158 73.6328 894.603 73.7695 894.954 73.9355C895.315 74.0918 895.706 74.292 896.126 74.5361C896.604 74.8193 896.941 74.9609 897.137 74.9609C897.322 74.9609 897.464 74.8584 897.562 74.6533C897.659 74.4385 897.737 74.1016 897.796 73.6426H898.484C898.387 74.9805 898.338 77.2607 898.338 80.4834H897.649C897.581 79.3994 897.337 78.3691 896.917 77.3926C896.507 76.416 895.926 75.625 895.174 75.0195C894.432 74.4043 893.558 74.0967 892.552 74.0967C891.917 74.0967 891.346 74.2188 890.838 74.4629C890.34 74.707 889.949 75.0635 889.666 75.5322C889.393 75.9912 889.256 76.5283 889.256 77.1436C889.256 78.1396 889.554 78.9551 890.149 79.5898C890.745 80.2246 891.521 80.8691 892.479 81.5234C893.436 82.168 894.08 82.6025 894.412 82.8271C895.584 83.6084 896.512 84.2871 897.195 84.8633C897.879 85.4395 898.436 86.1133 898.865 86.8848C899.295 87.6562 899.51 88.5498 899.51 89.5654C899.51 90.8447 899.178 91.9238 898.514 92.8027C897.85 93.6816 896.956 94.3408 895.833 94.7803C894.71 95.21 893.455 95.4248 892.068 95.4248C890.945 95.4248 890.013 95.3223 889.271 95.1172C888.538 94.9219 887.859 94.6533 887.234 94.3115C886.805 94.0283 886.468 93.8867 886.224 93.8867C886.038 93.8867 885.896 93.9941 885.799 94.209C885.701 94.4141 885.623 94.7461 885.564 95.2051H884.876C884.954 93.9551 884.993 91.2549 884.993 87.1045H885.682ZM911.111 79.5166V80.1172H907.566V92.2168C907.566 92.8125 907.674 93.2373 907.889 93.4912C908.104 93.7354 908.436 93.8574 908.885 93.8574C909.734 93.8574 910.413 93.2568 910.921 92.0557L911.434 92.334C910.682 94.3945 909.314 95.4248 907.332 95.4248C906.014 95.4248 905.013 95.083 904.329 94.3994C903.909 93.9893 903.621 93.4717 903.465 92.8467C903.318 92.2119 903.245 91.3379 903.245 90.2246V80.1172H900.726V79.5166H903.245V75.5322C904.896 75.5322 906.336 75.21 907.566 74.5654V79.5166H911.111ZM916.883 85.7275C916.854 86.0205 916.839 86.4893 916.839 87.1338C916.839 88.4619 917.024 89.5654 917.396 90.4443C917.767 91.3135 918.245 91.9531 918.831 92.3633C919.427 92.7637 920.062 92.9639 920.735 92.9639C922.386 92.9639 923.709 92.1631 924.705 90.5615L925.232 90.7373C924.979 91.5576 924.583 92.3242 924.046 93.0371C923.519 93.7402 922.845 94.3164 922.024 94.7656C921.214 95.2051 920.286 95.4248 919.241 95.4248C917.864 95.4248 916.653 95.1318 915.608 94.5459C914.573 93.96 913.763 93.0713 913.177 91.8799C912.601 90.6787 912.312 89.1895 912.312 87.4121C912.312 85.5957 912.625 84.0674 913.25 82.8271C913.875 81.5771 914.739 80.6396 915.843 80.0146C916.946 79.3896 918.221 79.0771 919.666 79.0771C923.426 79.0771 925.306 81.2939 925.306 85.7275H916.883ZM921.526 85.1562C921.556 83.5938 921.395 82.2949 921.043 81.2598C920.701 80.2246 920.179 79.707 919.476 79.707C918.763 79.707 918.167 80.1514 917.688 81.04C917.22 81.9189 916.932 83.291 916.824 85.1562H921.526ZM933.157 81.9482C933.577 81.0107 934.188 80.2979 934.988 79.8096C935.799 79.3213 936.736 79.0771 937.801 79.0771C938.836 79.0771 939.759 79.3604 940.569 79.9268C941.38 80.4834 942.015 81.3232 942.474 82.4463C942.942 83.5596 943.177 84.9219 943.177 86.5332C943.177 88.4473 942.889 90.0732 942.312 91.4111C941.746 92.7393 940.94 93.7402 939.896 94.4141C938.86 95.0879 937.635 95.4248 936.219 95.4248C934.93 95.4248 933.909 95.1074 933.157 94.4727V97.4609C933.157 98.3398 933.377 98.9502 933.816 99.292C934.266 99.6338 934.944 99.8047 935.853 99.8047V100.435C935.56 100.425 934.896 100.4 933.86 100.361C932.825 100.322 931.81 100.303 930.813 100.303C930.052 100.303 929.275 100.322 928.484 100.361C927.703 100.4 927.22 100.425 927.034 100.435V99.8047C927.483 99.8047 927.835 99.7412 928.089 99.6143C928.343 99.4971 928.528 99.2871 928.646 98.9844C928.772 98.6914 928.836 98.2812 928.836 97.7539V82.7539C928.836 81.8359 928.689 81.167 928.396 80.7471C928.113 80.3271 927.62 80.1172 926.917 80.1172V79.4873C927.552 79.5459 928.172 79.5752 928.777 79.5752C930.525 79.5752 931.985 79.4385 933.157 79.165V81.9482ZM933.157 93.8135C933.606 94.3408 934.236 94.6045 935.047 94.6045C936.326 94.6045 937.244 93.9697 937.801 92.7002C938.367 91.4209 938.65 89.5654 938.65 87.1338C938.65 84.7021 938.426 82.9688 937.977 81.9336C937.527 80.8887 936.883 80.3662 936.043 80.3662C935.359 80.3662 934.749 80.5957 934.212 81.0547C933.675 81.5137 933.323 82.1484 933.157 82.959V93.8135ZM952.186 82.8271C952.801 81.6846 953.602 80.7764 954.588 80.1025C955.584 79.4189 956.883 79.0771 958.484 79.0771C959.471 79.0771 960.35 79.2188 961.121 79.502C961.902 79.7754 962.513 80.1709 962.952 80.6885C963.392 81.2061 963.611 81.8164 963.611 82.5195C963.611 83.2715 963.362 83.9795 962.864 84.6436C962.376 85.3076 961.668 85.8887 960.74 86.3867C959.822 86.875 958.748 87.2363 957.518 87.4707L958.03 87.4561C959.319 87.4561 960.467 87.6367 961.473 87.998C962.479 88.3496 963.265 88.8672 963.831 89.5508C964.407 90.2344 964.695 91.0596 964.695 92.0264C964.695 93.501 964.065 94.8047 962.806 95.9375C961.546 97.0801 959.93 97.9639 957.957 98.5889C955.994 99.2139 953.997 99.5264 951.966 99.5264V98.9258C953.284 98.8867 954.578 98.5938 955.848 98.0469C957.117 97.5 958.162 96.7139 958.982 95.6885C959.812 94.6631 960.228 93.4521 960.228 92.0557C960.228 91.2842 960.101 90.5908 959.847 89.9756C959.593 89.3604 959.227 88.8721 958.748 88.5107C958.279 88.1494 957.723 87.9443 957.078 87.8955C956.365 88.208 955.853 88.3643 955.54 88.3643C955.159 88.3643 954.969 88.2275 954.969 87.9541C954.969 87.7393 955.062 87.5781 955.247 87.4707C955.433 87.3535 955.662 87.2949 955.936 87.2949C956.053 87.2949 956.214 87.3145 956.419 87.3535C956.634 87.3828 956.819 87.4023 956.976 87.4121C958.519 86.3281 959.29 84.9854 959.29 83.3838C959.29 82.4951 959.056 81.8359 958.587 81.4062C958.128 80.9668 957.474 80.7471 956.624 80.7471C955.823 80.7471 955.086 80.9473 954.412 81.3477C953.738 81.7383 953.177 82.3193 952.728 83.0908L952.186 82.8271Z" fill="#FD583E"/>
<circle id="circle3" cx="322" cy="488" r="104" fill="#EEF1F3"/>
<path class="circle3" d="M268.258 507.016H261.803L260.338 511H259.078L264.459 496.781H265.602L270.982 511H269.732L268.258 507.016ZM262.174 505.99H267.877L265.025 498.246L262.174 505.99ZM279.137 508.314C279.137 507.735 278.902 507.27 278.434 506.918C277.971 506.566 277.271 506.293 276.334 506.098C275.396 505.896 274.667 505.668 274.146 505.414C273.632 505.154 273.248 504.838 272.994 504.467C272.747 504.096 272.623 503.646 272.623 503.119C272.623 502.286 272.971 501.599 273.668 501.059C274.365 500.512 275.257 500.238 276.344 500.238C277.522 500.238 278.466 500.531 279.176 501.117C279.892 501.697 280.25 502.455 280.25 503.393H279.078C279.078 502.774 278.818 502.26 278.297 501.85C277.783 501.439 277.132 501.234 276.344 501.234C275.576 501.234 274.957 501.407 274.488 501.752C274.026 502.09 273.795 502.533 273.795 503.08C273.795 503.607 273.987 504.018 274.371 504.311C274.762 504.597 275.468 504.861 276.49 505.102C277.519 505.342 278.287 505.6 278.795 505.873C279.309 506.146 279.69 506.475 279.938 506.859C280.185 507.243 280.309 507.709 280.309 508.256C280.309 509.148 279.947 509.861 279.225 510.395C278.508 510.928 277.571 511.195 276.412 511.195C275.182 511.195 274.182 510.899 273.414 510.307C272.652 509.708 272.271 508.952 272.271 508.041H273.443C273.489 508.725 273.775 509.258 274.303 509.643C274.837 510.02 275.54 510.209 276.412 510.209C277.226 510.209 277.883 510.03 278.385 509.672C278.886 509.314 279.137 508.861 279.137 508.314ZM289.273 508.314C289.273 507.735 289.039 507.27 288.57 506.918C288.108 506.566 287.408 506.293 286.471 506.098C285.533 505.896 284.804 505.668 284.283 505.414C283.769 505.154 283.385 504.838 283.131 504.467C282.883 504.096 282.76 503.646 282.76 503.119C282.76 502.286 283.108 501.599 283.805 501.059C284.501 500.512 285.393 500.238 286.48 500.238C287.659 500.238 288.603 500.531 289.312 501.117C290.029 501.697 290.387 502.455 290.387 503.393H289.215C289.215 502.774 288.954 502.26 288.434 501.85C287.919 501.439 287.268 501.234 286.48 501.234C285.712 501.234 285.094 501.407 284.625 501.752C284.163 502.09 283.932 502.533 283.932 503.08C283.932 503.607 284.124 504.018 284.508 504.311C284.898 504.597 285.605 504.861 286.627 505.102C287.656 505.342 288.424 505.6 288.932 505.873C289.446 506.146 289.827 506.475 290.074 506.859C290.322 507.243 290.445 507.709 290.445 508.256C290.445 509.148 290.084 509.861 289.361 510.395C288.645 510.928 287.708 511.195 286.549 511.195C285.318 511.195 284.319 510.899 283.551 510.307C282.789 509.708 282.408 508.952 282.408 508.041H283.58C283.626 508.725 283.912 509.258 284.439 509.643C284.973 510.02 285.676 510.209 286.549 510.209C287.363 510.209 288.02 510.03 288.521 509.672C289.023 509.314 289.273 508.861 289.273 508.314ZM297.174 511.195C296.275 511.195 295.462 510.974 294.732 510.531C294.01 510.089 293.447 509.473 293.043 508.686C292.639 507.891 292.438 507.003 292.438 506.02V505.6C292.438 504.584 292.633 503.669 293.023 502.855C293.421 502.042 293.971 501.404 294.674 500.941C295.377 500.473 296.139 500.238 296.959 500.238C298.242 500.238 299.257 500.678 300.006 501.557C300.761 502.429 301.139 503.624 301.139 505.141V505.795H293.6V506.02C293.6 507.217 293.941 508.217 294.625 509.018C295.315 509.812 296.181 510.209 297.223 510.209C297.848 510.209 298.398 510.095 298.873 509.867C299.355 509.639 299.791 509.275 300.182 508.773L300.914 509.33C300.055 510.574 298.808 511.195 297.174 511.195ZM296.959 501.234C296.08 501.234 295.338 501.557 294.732 502.201C294.133 502.846 293.769 503.712 293.639 504.799H299.977V504.672C299.944 503.656 299.654 502.829 299.107 502.191C298.561 501.553 297.844 501.234 296.959 501.234ZM305.23 497.729V500.434H307.418V501.391H305.23V508.432C305.23 509.018 305.335 509.454 305.543 509.74C305.758 510.027 306.113 510.17 306.607 510.17C306.803 510.17 307.118 510.137 307.555 510.072L307.604 511.029C307.298 511.14 306.881 511.195 306.354 511.195C305.553 511.195 304.97 510.964 304.605 510.502C304.241 510.033 304.059 509.346 304.059 508.441V501.391H302.115V500.434H304.059V497.729H305.23ZM318.609 510.209C319.423 510.209 320.104 509.981 320.65 509.525C321.204 509.063 321.503 508.467 321.549 507.738H322.672C322.639 508.383 322.438 508.972 322.066 509.506C321.695 510.033 321.201 510.447 320.582 510.746C319.97 511.046 319.312 511.195 318.609 511.195C317.223 511.195 316.122 510.714 315.309 509.75C314.501 508.786 314.098 507.491 314.098 505.863V505.512C314.098 504.47 314.28 503.549 314.645 502.748C315.009 501.947 315.53 501.329 316.207 500.893C316.891 500.456 317.688 500.238 318.6 500.238C319.758 500.238 320.712 500.583 321.461 501.273C322.216 501.964 322.62 502.872 322.672 503.998H321.549C321.497 503.171 321.197 502.504 320.65 501.996C320.11 501.488 319.426 501.234 318.6 501.234C317.545 501.234 316.725 501.615 316.139 502.377C315.559 503.139 315.27 504.206 315.27 505.58V505.922C315.27 507.27 315.559 508.321 316.139 509.076C316.725 509.831 317.548 510.209 318.609 510.209ZM329.898 501.43C329.651 501.384 329.387 501.361 329.107 501.361C328.378 501.361 327.76 501.566 327.252 501.977C326.751 502.38 326.393 502.969 326.178 503.744V511H325.016V500.434H326.158L326.178 502.113C326.796 500.863 327.789 500.238 329.156 500.238C329.482 500.238 329.739 500.281 329.928 500.365L329.898 501.43ZM335.65 511.195C334.752 511.195 333.938 510.974 333.209 510.531C332.486 510.089 331.923 509.473 331.52 508.686C331.116 507.891 330.914 507.003 330.914 506.02V505.6C330.914 504.584 331.109 503.669 331.5 502.855C331.897 502.042 332.447 501.404 333.15 500.941C333.854 500.473 334.615 500.238 335.436 500.238C336.718 500.238 337.734 500.678 338.482 501.557C339.238 502.429 339.615 503.624 339.615 505.141V505.795H332.076V506.02C332.076 507.217 332.418 508.217 333.102 509.018C333.792 509.812 334.658 510.209 335.699 510.209C336.324 510.209 336.874 510.095 337.35 509.867C337.831 509.639 338.268 509.275 338.658 508.773L339.391 509.33C338.531 510.574 337.285 511.195 335.65 511.195ZM335.436 501.234C334.557 501.234 333.814 501.557 333.209 502.201C332.61 502.846 332.245 503.712 332.115 504.799H338.453V504.672C338.421 503.656 338.131 502.829 337.584 502.191C337.037 501.553 336.321 501.234 335.436 501.234ZM348.561 511C348.443 510.668 348.368 510.176 348.336 509.525C347.926 510.059 347.402 510.473 346.764 510.766C346.132 511.052 345.462 511.195 344.752 511.195C343.736 511.195 342.913 510.912 342.281 510.346C341.656 509.779 341.344 509.063 341.344 508.197C341.344 507.169 341.77 506.355 342.623 505.756C343.482 505.157 344.677 504.857 346.207 504.857H348.326V503.656C348.326 502.901 348.092 502.309 347.623 501.879C347.161 501.443 346.484 501.225 345.592 501.225C344.778 501.225 344.104 501.433 343.57 501.85C343.036 502.266 342.77 502.768 342.77 503.354L341.598 503.344C341.598 502.504 341.988 501.778 342.77 501.166C343.551 500.548 344.511 500.238 345.65 500.238C346.829 500.238 347.757 500.535 348.434 501.127C349.117 501.713 349.469 502.533 349.488 503.588V508.588C349.488 509.61 349.596 510.375 349.811 510.883V511H348.561ZM344.889 510.16C345.67 510.16 346.367 509.971 346.979 509.594C347.597 509.216 348.046 508.712 348.326 508.08V505.756H346.236C345.071 505.769 344.16 505.984 343.502 506.4C342.844 506.811 342.516 507.377 342.516 508.1C342.516 508.692 342.734 509.184 343.17 509.574C343.613 509.965 344.186 510.16 344.889 510.16ZM354.43 497.729V500.434H356.617V501.391H354.43V508.432C354.43 509.018 354.534 509.454 354.742 509.74C354.957 510.027 355.312 510.17 355.807 510.17C356.002 510.17 356.318 510.137 356.754 510.072L356.803 511.029C356.497 511.14 356.08 511.195 355.553 511.195C354.752 511.195 354.169 510.964 353.805 510.502C353.44 510.033 353.258 509.346 353.258 508.441V501.391H351.314V500.434H353.258V497.729H354.43ZM360.348 511H359.176V500.434H360.348V511ZM358.971 497.377C358.971 497.156 359.042 496.97 359.186 496.82C359.329 496.664 359.524 496.586 359.771 496.586C360.019 496.586 360.214 496.664 360.357 496.82C360.507 496.97 360.582 497.156 360.582 497.377C360.582 497.598 360.507 497.784 360.357 497.934C360.214 498.083 360.019 498.158 359.771 498.158C359.524 498.158 359.329 498.083 359.186 497.934C359.042 497.784 358.971 497.598 358.971 497.377ZM362.887 505.561C362.887 504.545 363.082 503.63 363.473 502.816C363.87 502.003 364.426 501.371 365.143 500.922C365.865 500.466 366.682 500.238 367.594 500.238C369 500.238 370.139 500.733 371.012 501.723C371.884 502.706 372.32 504.011 372.32 505.639V505.883C372.32 506.905 372.122 507.826 371.725 508.646C371.334 509.46 370.781 510.089 370.064 510.531C369.348 510.974 368.531 511.195 367.613 511.195C366.214 511.195 365.074 510.704 364.195 509.721C363.323 508.731 362.887 507.423 362.887 505.795V505.561ZM364.059 505.883C364.059 507.146 364.384 508.184 365.035 508.998C365.693 509.805 366.552 510.209 367.613 510.209C368.668 510.209 369.521 509.805 370.172 508.998C370.829 508.184 371.158 507.113 371.158 505.785V505.561C371.158 504.753 371.008 504.014 370.709 503.344C370.41 502.673 369.99 502.156 369.449 501.791C368.909 501.42 368.29 501.234 367.594 501.234C366.552 501.234 365.702 501.645 365.045 502.465C364.387 503.279 364.059 504.346 364.059 505.668V505.883ZM375.855 500.434L375.895 502.24C376.292 501.589 376.786 501.094 377.379 500.756C377.971 500.411 378.626 500.238 379.342 500.238C380.475 500.238 381.318 500.557 381.871 501.195C382.424 501.833 382.704 502.79 382.711 504.066V511H381.549V504.057C381.542 503.113 381.34 502.41 380.943 501.947C380.553 501.485 379.924 501.254 379.059 501.254C378.336 501.254 377.695 501.482 377.135 501.938C376.581 502.387 376.171 502.995 375.904 503.764V511H374.742V500.434H375.855Z" fill="#546169"/>
<path class="circle3" d="M280.154 471.104C280.281 473.341 280.774 475.157 281.634 476.554C282.503 477.94 283.831 478.634 285.618 478.634C286.321 478.634 286.951 478.512 287.508 478.268C288.074 478.014 288.519 477.633 288.841 477.125C289.173 476.617 289.339 476.002 289.339 475.279C289.339 474.498 289.153 473.8 288.782 473.185C288.421 472.56 287.928 471.993 287.303 471.485C286.688 470.968 285.862 470.372 284.827 469.698C283.616 468.917 282.654 468.238 281.941 467.662C281.238 467.086 280.652 466.402 280.184 465.611C279.725 464.82 279.495 463.902 279.495 462.857C279.495 461.646 279.803 460.631 280.418 459.811C281.033 458.98 281.849 458.365 282.864 457.965C283.88 457.564 284.998 457.364 286.219 457.364C286.941 457.364 287.566 457.418 288.094 457.525C288.631 457.633 289.075 457.77 289.427 457.936C289.788 458.092 290.179 458.292 290.599 458.536C291.077 458.819 291.414 458.961 291.609 458.961C291.795 458.961 291.937 458.858 292.034 458.653C292.132 458.438 292.21 458.102 292.269 457.643H292.957C292.859 458.98 292.811 461.261 292.811 464.483H292.122C292.054 463.399 291.81 462.369 291.39 461.393C290.979 460.416 290.398 459.625 289.646 459.02C288.904 458.404 288.03 458.097 287.024 458.097C286.39 458.097 285.818 458.219 285.311 458.463C284.812 458.707 284.422 459.063 284.139 459.532C283.865 459.991 283.729 460.528 283.729 461.144C283.729 462.14 284.026 462.955 284.622 463.59C285.218 464.225 285.994 464.869 286.951 465.523C287.908 466.168 288.553 466.603 288.885 466.827C290.057 467.608 290.984 468.287 291.668 468.863C292.352 469.439 292.908 470.113 293.338 470.885C293.768 471.656 293.982 472.55 293.982 473.565C293.982 474.845 293.65 475.924 292.986 476.803C292.322 477.682 291.429 478.341 290.306 478.78C289.183 479.21 287.928 479.425 286.541 479.425C285.418 479.425 284.485 479.322 283.743 479.117C283.011 478.922 282.332 478.653 281.707 478.312C281.277 478.028 280.94 477.887 280.696 477.887C280.511 477.887 280.369 477.994 280.271 478.209C280.174 478.414 280.096 478.746 280.037 479.205H279.349C279.427 477.955 279.466 475.255 279.466 471.104H280.154ZM305.584 463.517V464.117H302.039V476.217C302.039 476.812 302.146 477.237 302.361 477.491C302.576 477.735 302.908 477.857 303.357 477.857C304.207 477.857 304.886 477.257 305.394 476.056L305.906 476.334C305.154 478.395 303.787 479.425 301.805 479.425C300.486 479.425 299.485 479.083 298.802 478.399C298.382 477.989 298.094 477.472 297.938 476.847C297.791 476.212 297.718 475.338 297.718 474.225V464.117H295.198V463.517H297.718V459.532C299.368 459.532 300.809 459.21 302.039 458.565V463.517H305.584ZM311.355 469.728C311.326 470.021 311.312 470.489 311.312 471.134C311.312 472.462 311.497 473.565 311.868 474.444C312.239 475.313 312.718 475.953 313.304 476.363C313.899 476.764 314.534 476.964 315.208 476.964C316.858 476.964 318.182 476.163 319.178 474.562L319.705 474.737C319.451 475.558 319.056 476.324 318.519 477.037C317.991 477.74 317.317 478.316 316.497 478.766C315.687 479.205 314.759 479.425 313.714 479.425C312.337 479.425 311.126 479.132 310.081 478.546C309.046 477.96 308.235 477.071 307.649 475.88C307.073 474.679 306.785 473.189 306.785 471.412C306.785 469.596 307.098 468.067 307.723 466.827C308.348 465.577 309.212 464.64 310.315 464.015C311.419 463.39 312.693 463.077 314.139 463.077C317.898 463.077 319.778 465.294 319.778 469.728H311.355ZM315.999 469.156C316.028 467.594 315.867 466.295 315.516 465.26C315.174 464.225 314.651 463.707 313.948 463.707C313.235 463.707 312.64 464.151 312.161 465.04C311.692 465.919 311.404 467.291 311.297 469.156H315.999ZM327.63 465.948C328.05 465.011 328.66 464.298 329.461 463.81C330.271 463.321 331.209 463.077 332.273 463.077C333.309 463.077 334.231 463.36 335.042 463.927C335.853 464.483 336.487 465.323 336.946 466.446C337.415 467.56 337.649 468.922 337.649 470.533C337.649 472.447 337.361 474.073 336.785 475.411C336.219 476.739 335.413 477.74 334.368 478.414C333.333 479.088 332.107 479.425 330.691 479.425C329.402 479.425 328.382 479.107 327.63 478.473V481.461C327.63 482.34 327.85 482.95 328.289 483.292C328.738 483.634 329.417 483.805 330.325 483.805V484.435C330.032 484.425 329.368 484.4 328.333 484.361C327.298 484.322 326.282 484.303 325.286 484.303C324.524 484.303 323.748 484.322 322.957 484.361C322.176 484.4 321.692 484.425 321.507 484.435V483.805C321.956 483.805 322.308 483.741 322.562 483.614C322.815 483.497 323.001 483.287 323.118 482.984C323.245 482.691 323.309 482.281 323.309 481.754V466.754C323.309 465.836 323.162 465.167 322.869 464.747C322.586 464.327 322.093 464.117 321.39 464.117V463.487C322.024 463.546 322.645 463.575 323.25 463.575C324.998 463.575 326.458 463.438 327.63 463.165V465.948ZM327.63 477.813C328.079 478.341 328.709 478.604 329.52 478.604C330.799 478.604 331.717 477.97 332.273 476.7C332.84 475.421 333.123 473.565 333.123 471.134C333.123 468.702 332.898 466.969 332.449 465.934C332 464.889 331.355 464.366 330.516 464.366C329.832 464.366 329.222 464.596 328.685 465.055C328.147 465.514 327.796 466.148 327.63 466.959V477.813ZM346.805 466.827C348.27 464.327 350.608 463.077 353.821 463.077C354.847 463.077 355.735 463.229 356.487 463.531C357.239 463.824 357.815 464.259 358.216 464.835C358.626 465.401 358.831 466.085 358.831 466.886C358.831 468.048 358.406 469.073 357.557 469.962C356.707 470.851 355.496 471.847 353.924 472.95C352.352 474.054 351.307 474.879 350.789 475.426H357.278C357.825 475.426 358.23 475.387 358.494 475.309C358.758 475.221 358.943 475.089 359.051 474.913C359.158 474.728 359.236 474.449 359.285 474.078H359.915C359.915 476.441 359.954 478.131 360.032 479.146C359.583 479.049 358.094 479 355.564 479H346.834V478.429C347.117 478.136 347.977 477.335 349.412 476.026C350.848 474.718 351.99 473.39 352.84 472.042C353.699 470.685 354.129 469.293 354.129 467.867C354.129 465.826 353.196 464.806 351.331 464.806C350.491 464.806 349.744 465.001 349.09 465.392C348.445 465.772 347.854 466.349 347.317 467.12L346.805 466.827Z" fill="#FD583E"/>
<circle id="circle4" cx="925" cy="488" r="104" fill="#EEF1F3"/>
<path class="circle4" d="M869.031 509.311C868.615 509.903 867.96 510.365 867.068 510.697C866.183 511.029 865.19 511.195 864.09 511.195C862.977 511.195 861.987 510.928 861.121 510.395C860.255 509.861 859.585 509.105 859.109 508.129C858.634 507.152 858.393 506.033 858.387 504.77V502.973C858.387 501 858.885 499.444 859.881 498.305C860.877 497.159 862.215 496.586 863.895 496.586C865.359 496.586 866.538 496.96 867.43 497.709C868.322 498.451 868.852 499.477 869.021 500.785H867.82C867.645 499.743 867.218 498.956 866.541 498.422C865.87 497.882 864.992 497.611 863.904 497.611C862.576 497.611 861.525 498.083 860.75 499.027C859.975 499.971 859.588 501.303 859.588 503.021V504.701C859.588 505.782 859.77 506.739 860.135 507.572C860.506 508.399 861.033 509.04 861.717 509.496C862.407 509.952 863.198 510.18 864.09 510.18C865.125 510.18 866.014 510.017 866.756 509.691C867.238 509.477 867.596 509.226 867.83 508.939V505.268H864.012V504.252H869.031V509.311ZM877.049 501.43C876.801 501.384 876.538 501.361 876.258 501.361C875.529 501.361 874.91 501.566 874.402 501.977C873.901 502.38 873.543 502.969 873.328 503.744V511H872.166V500.434H873.309L873.328 502.113C873.947 500.863 874.939 500.238 876.307 500.238C876.632 500.238 876.889 500.281 877.078 500.365L877.049 501.43ZM878.064 505.561C878.064 504.545 878.26 503.63 878.65 502.816C879.048 502.003 879.604 501.371 880.32 500.922C881.043 500.466 881.86 500.238 882.771 500.238C884.178 500.238 885.317 500.733 886.189 501.723C887.062 502.706 887.498 504.011 887.498 505.639V505.883C887.498 506.905 887.299 507.826 886.902 508.646C886.512 509.46 885.958 510.089 885.242 510.531C884.526 510.974 883.709 511.195 882.791 511.195C881.391 511.195 880.252 510.704 879.373 509.721C878.501 508.731 878.064 507.423 878.064 505.795V505.561ZM879.236 505.883C879.236 507.146 879.562 508.184 880.213 508.998C880.87 509.805 881.73 510.209 882.791 510.209C883.846 510.209 884.699 509.805 885.35 508.998C886.007 508.184 886.336 507.113 886.336 505.785V505.561C886.336 504.753 886.186 504.014 885.887 503.344C885.587 502.673 885.167 502.156 884.627 501.791C884.087 501.42 883.468 501.234 882.771 501.234C881.73 501.234 880.88 501.645 880.223 502.465C879.565 503.279 879.236 504.346 879.236 505.668V505.883ZM892.449 508.568L892.625 509.477L892.859 508.52L895.398 500.434H896.395L898.904 508.451L899.178 509.564L899.402 508.539L901.57 500.434H902.781L899.705 511H898.709L895.994 502.621L895.867 502.045L895.74 502.631L893.074 511H892.078L889.012 500.434H890.213L892.449 508.568ZM916.531 511C916.414 510.668 916.339 510.176 916.307 509.525C915.896 510.059 915.372 510.473 914.734 510.766C914.103 511.052 913.432 511.195 912.723 511.195C911.707 511.195 910.883 510.912 910.252 510.346C909.627 509.779 909.314 509.063 909.314 508.197C909.314 507.169 909.741 506.355 910.594 505.756C911.453 505.157 912.648 504.857 914.178 504.857H916.297V503.656C916.297 502.901 916.062 502.309 915.594 501.879C915.132 501.443 914.454 501.225 913.562 501.225C912.749 501.225 912.075 501.433 911.541 501.85C911.007 502.266 910.74 502.768 910.74 503.354L909.568 503.344C909.568 502.504 909.959 501.778 910.74 501.166C911.521 500.548 912.482 500.238 913.621 500.238C914.799 500.238 915.727 500.535 916.404 501.127C917.088 501.713 917.439 502.533 917.459 503.588V508.588C917.459 509.61 917.566 510.375 917.781 510.883V511H916.531ZM912.859 510.16C913.641 510.16 914.337 509.971 914.949 509.594C915.568 509.216 916.017 508.712 916.297 508.08V505.756H914.207C913.042 505.769 912.13 505.984 911.473 506.4C910.815 506.811 910.486 507.377 910.486 508.1C910.486 508.692 910.704 509.184 911.141 509.574C911.583 509.965 912.156 510.16 912.859 510.16ZM921.697 500.434L921.736 502.24C922.133 501.589 922.628 501.094 923.221 500.756C923.813 500.411 924.467 500.238 925.184 500.238C926.316 500.238 927.16 500.557 927.713 501.195C928.266 501.833 928.546 502.79 928.553 504.066V511H927.391V504.057C927.384 503.113 927.182 502.41 926.785 501.947C926.395 501.485 925.766 501.254 924.9 501.254C924.178 501.254 923.536 501.482 922.977 501.938C922.423 502.387 922.013 502.995 921.746 503.764V511H920.584V500.434H921.697ZM931.111 505.619C931.111 503.979 931.476 502.673 932.205 501.703C932.941 500.727 933.937 500.238 935.193 500.238C936.619 500.238 937.706 500.801 938.455 501.928V496H939.617V511H938.523L938.475 509.594C937.726 510.661 936.626 511.195 935.174 511.195C933.956 511.195 932.973 510.707 932.225 509.73C931.482 508.747 931.111 507.423 931.111 505.756V505.619ZM932.293 505.824C932.293 507.172 932.563 508.236 933.104 509.018C933.644 509.792 934.406 510.18 935.389 510.18C936.827 510.18 937.85 509.545 938.455 508.275V503.314C937.85 501.941 936.834 501.254 935.408 501.254C934.425 501.254 933.66 501.641 933.113 502.416C932.566 503.184 932.293 504.32 932.293 505.824ZM953.885 508.314C953.885 507.735 953.65 507.27 953.182 506.918C952.719 506.566 952.02 506.293 951.082 506.098C950.145 505.896 949.415 505.668 948.895 505.414C948.38 505.154 947.996 504.838 947.742 504.467C947.495 504.096 947.371 503.646 947.371 503.119C947.371 502.286 947.719 501.599 948.416 501.059C949.113 500.512 950.005 500.238 951.092 500.238C952.27 500.238 953.214 500.531 953.924 501.117C954.64 501.697 954.998 502.455 954.998 503.393H953.826C953.826 502.774 953.566 502.26 953.045 501.85C952.531 501.439 951.88 501.234 951.092 501.234C950.324 501.234 949.705 501.407 949.236 501.752C948.774 502.09 948.543 502.533 948.543 503.08C948.543 503.607 948.735 504.018 949.119 504.311C949.51 504.597 950.216 504.861 951.238 505.102C952.267 505.342 953.035 505.6 953.543 505.873C954.057 506.146 954.438 506.475 954.686 506.859C954.933 507.243 955.057 507.709 955.057 508.256C955.057 509.148 954.695 509.861 953.973 510.395C953.257 510.928 952.319 511.195 951.16 511.195C949.93 511.195 948.93 510.899 948.162 510.307C947.4 509.708 947.02 508.952 947.02 508.041H948.191C948.237 508.725 948.523 509.258 949.051 509.643C949.585 510.02 950.288 510.209 951.16 510.209C951.974 510.209 952.632 510.03 953.133 509.672C953.634 509.314 953.885 508.861 953.885 508.314ZM961.6 510.209C962.413 510.209 963.094 509.981 963.641 509.525C964.194 509.063 964.493 508.467 964.539 507.738H965.662C965.63 508.383 965.428 508.972 965.057 509.506C964.686 510.033 964.191 510.447 963.572 510.746C962.96 511.046 962.303 511.195 961.6 511.195C960.213 511.195 959.113 510.714 958.299 509.75C957.492 508.786 957.088 507.491 957.088 505.863V505.512C957.088 504.47 957.27 503.549 957.635 502.748C957.999 501.947 958.52 501.329 959.197 500.893C959.881 500.456 960.678 500.238 961.59 500.238C962.749 500.238 963.702 500.583 964.451 501.273C965.206 501.964 965.61 502.872 965.662 503.998H964.539C964.487 503.171 964.188 502.504 963.641 501.996C963.1 501.488 962.417 501.234 961.59 501.234C960.535 501.234 959.715 501.615 959.129 502.377C958.549 503.139 958.26 504.206 958.26 505.58V505.922C958.26 507.27 958.549 508.321 959.129 509.076C959.715 509.831 960.538 510.209 961.6 510.209ZM974.676 511C974.559 510.668 974.484 510.176 974.451 509.525C974.041 510.059 973.517 510.473 972.879 510.766C972.247 511.052 971.577 511.195 970.867 511.195C969.852 511.195 969.028 510.912 968.396 510.346C967.771 509.779 967.459 509.063 967.459 508.197C967.459 507.169 967.885 506.355 968.738 505.756C969.598 505.157 970.792 504.857 972.322 504.857H974.441V503.656C974.441 502.901 974.207 502.309 973.738 501.879C973.276 501.443 972.599 501.225 971.707 501.225C970.893 501.225 970.219 501.433 969.686 501.85C969.152 502.266 968.885 502.768 968.885 503.354L967.713 503.344C967.713 502.504 968.104 501.778 968.885 501.166C969.666 500.548 970.626 500.238 971.766 500.238C972.944 500.238 973.872 500.535 974.549 501.127C975.232 501.713 975.584 502.533 975.604 503.588V508.588C975.604 509.61 975.711 510.375 975.926 510.883V511H974.676ZM971.004 510.16C971.785 510.16 972.482 509.971 973.094 509.594C973.712 509.216 974.161 508.712 974.441 508.08V505.756H972.352C971.186 505.769 970.275 505.984 969.617 506.4C968.96 506.811 968.631 507.377 968.631 508.1C968.631 508.692 968.849 509.184 969.285 509.574C969.728 509.965 970.301 510.16 971.004 510.16ZM980.037 511H978.865V496H980.037V511ZM987.312 511.195C986.414 511.195 985.6 510.974 984.871 510.531C984.148 510.089 983.585 509.473 983.182 508.686C982.778 507.891 982.576 507.003 982.576 506.02V505.6C982.576 504.584 982.771 503.669 983.162 502.855C983.559 502.042 984.109 501.404 984.812 500.941C985.516 500.473 986.277 500.238 987.098 500.238C988.38 500.238 989.396 500.678 990.145 501.557C990.9 502.429 991.277 503.624 991.277 505.141V505.795H983.738V506.02C983.738 507.217 984.08 508.217 984.764 509.018C985.454 509.812 986.32 510.209 987.361 510.209C987.986 510.209 988.536 510.095 989.012 509.867C989.493 509.639 989.93 509.275 990.32 508.773L991.053 509.33C990.193 510.574 988.947 511.195 987.312 511.195ZM987.098 501.234C986.219 501.234 985.477 501.557 984.871 502.201C984.272 502.846 983.908 503.712 983.777 504.799H990.115V504.672C990.083 503.656 989.793 502.829 989.246 502.191C988.699 501.553 987.983 501.234 987.098 501.234Z" fill="#546169"/>
<path class="circle4" d="M883.315 471.104C883.442 473.341 883.936 475.157 884.795 476.554C885.664 477.94 886.992 478.634 888.779 478.634C889.482 478.634 890.112 478.512 890.669 478.268C891.235 478.014 891.68 477.633 892.002 477.125C892.334 476.617 892.5 476.002 892.5 475.279C892.5 474.498 892.314 473.8 891.943 473.185C891.582 472.56 891.089 471.993 890.464 471.485C889.849 470.968 889.023 470.372 887.988 469.698C886.777 468.917 885.815 468.238 885.103 467.662C884.399 467.086 883.813 466.402 883.345 465.611C882.886 464.82 882.656 463.902 882.656 462.857C882.656 461.646 882.964 460.631 883.579 459.811C884.194 458.98 885.01 458.365 886.025 457.965C887.041 457.564 888.159 457.364 889.38 457.364C890.103 457.364 890.728 457.418 891.255 457.525C891.792 457.633 892.236 457.77 892.588 457.936C892.949 458.092 893.34 458.292 893.76 458.536C894.238 458.819 894.575 458.961 894.771 458.961C894.956 458.961 895.098 458.858 895.195 458.653C895.293 458.438 895.371 458.102 895.43 457.643H896.118C896.021 458.98 895.972 461.261 895.972 464.483H895.283C895.215 463.399 894.971 462.369 894.551 461.393C894.141 460.416 893.56 459.625 892.808 459.02C892.065 458.404 891.191 458.097 890.186 458.097C889.551 458.097 888.979 458.219 888.472 458.463C887.974 458.707 887.583 459.063 887.3 459.532C887.026 459.991 886.89 460.528 886.89 461.144C886.89 462.14 887.188 462.955 887.783 463.59C888.379 464.225 889.155 464.869 890.112 465.523C891.069 466.168 891.714 466.603 892.046 466.827C893.218 467.608 894.146 468.287 894.829 468.863C895.513 469.439 896.069 470.113 896.499 470.885C896.929 471.656 897.144 472.55 897.144 473.565C897.144 474.845 896.812 475.924 896.147 476.803C895.483 477.682 894.59 478.341 893.467 478.78C892.344 479.21 891.089 479.425 889.702 479.425C888.579 479.425 887.646 479.322 886.904 479.117C886.172 478.922 885.493 478.653 884.868 478.312C884.438 478.028 884.102 477.887 883.857 477.887C883.672 477.887 883.53 477.994 883.433 478.209C883.335 478.414 883.257 478.746 883.198 479.205H882.51C882.588 477.955 882.627 475.255 882.627 471.104H883.315ZM908.745 463.517V464.117H905.2V476.217C905.2 476.812 905.308 477.237 905.522 477.491C905.737 477.735 906.069 477.857 906.519 477.857C907.368 477.857 908.047 477.257 908.555 476.056L909.067 476.334C908.315 478.395 906.948 479.425 904.966 479.425C903.647 479.425 902.646 479.083 901.963 478.399C901.543 477.989 901.255 477.472 901.099 476.847C900.952 476.212 900.879 475.338 900.879 474.225V464.117H898.359V463.517H900.879V459.532C902.529 459.532 903.97 459.21 905.2 458.565V463.517H908.745ZM914.517 469.728C914.487 470.021 914.473 470.489 914.473 471.134C914.473 472.462 914.658 473.565 915.029 474.444C915.4 475.313 915.879 475.953 916.465 476.363C917.061 476.764 917.695 476.964 918.369 476.964C920.02 476.964 921.343 476.163 922.339 474.562L922.866 474.737C922.612 475.558 922.217 476.324 921.68 477.037C921.152 477.74 920.479 478.316 919.658 478.766C918.848 479.205 917.92 479.425 916.875 479.425C915.498 479.425 914.287 479.132 913.242 478.546C912.207 477.96 911.396 477.071 910.811 475.88C910.234 474.679 909.946 473.189 909.946 471.412C909.946 469.596 910.259 468.067 910.884 466.827C911.509 465.577 912.373 464.64 913.477 464.015C914.58 463.39 915.854 463.077 917.3 463.077C921.06 463.077 922.939 465.294 922.939 469.728H914.517ZM919.16 469.156C919.189 467.594 919.028 466.295 918.677 465.26C918.335 464.225 917.812 463.707 917.109 463.707C916.396 463.707 915.801 464.151 915.322 465.04C914.854 465.919 914.565 467.291 914.458 469.156H919.16ZM930.791 465.948C931.211 465.011 931.821 464.298 932.622 463.81C933.433 463.321 934.37 463.077 935.435 463.077C936.47 463.077 937.393 463.36 938.203 463.927C939.014 464.483 939.648 465.323 940.107 466.446C940.576 467.56 940.811 468.922 940.811 470.533C940.811 472.447 940.522 474.073 939.946 475.411C939.38 476.739 938.574 477.74 937.529 478.414C936.494 479.088 935.269 479.425 933.853 479.425C932.563 479.425 931.543 479.107 930.791 478.473V481.461C930.791 482.34 931.011 482.95 931.45 483.292C931.899 483.634 932.578 483.805 933.486 483.805V484.435C933.193 484.425 932.529 484.4 931.494 484.361C930.459 484.322 929.443 484.303 928.447 484.303C927.686 484.303 926.909 484.322 926.118 484.361C925.337 484.4 924.854 484.425 924.668 484.435V483.805C925.117 483.805 925.469 483.741 925.723 483.614C925.977 483.497 926.162 483.287 926.279 482.984C926.406 482.691 926.47 482.281 926.47 481.754V466.754C926.47 465.836 926.323 465.167 926.03 464.747C925.747 464.327 925.254 464.117 924.551 464.117V463.487C925.186 463.546 925.806 463.575 926.411 463.575C928.159 463.575 929.619 463.438 930.791 463.165V465.948ZM930.791 477.813C931.24 478.341 931.87 478.604 932.681 478.604C933.96 478.604 934.878 477.97 935.435 476.7C936.001 475.421 936.284 473.565 936.284 471.134C936.284 468.702 936.06 466.969 935.61 465.934C935.161 464.889 934.517 464.366 933.677 464.366C932.993 464.366 932.383 464.596 931.846 465.055C931.309 465.514 930.957 466.148 930.791 466.959V477.813ZM963.062 473.478C963.062 475.606 963.101 477.14 963.179 478.077C962.876 478.009 961.875 477.96 960.176 477.931V483.233H956.689V477.916H948.501V477.286L959.692 463.077H960.176V474.825H960.41C960.957 474.825 961.362 474.786 961.626 474.708C961.899 474.62 962.085 474.488 962.183 474.312C962.29 474.137 962.373 473.858 962.432 473.478H963.062ZM956.689 467.853L951.27 474.825H956.689V467.853Z" fill="#FD583E"/>
<path d="M198.429 151.286L203.139 133.709L216.006 146.576L198.429 151.286Z" fill="#546169"/>
<path d="M218.063 459.134L200.023 456.746L211.111 442.317L218.063 459.134Z" fill="#546169"/>
<path d="M442.489 443.321L432.706 458.665L424.31 442.52L442.489 443.321Z" fill="#546169"/>
<path d="M819.489 134.321L809.706 149.665L801.31 133.52L819.489 134.321Z" fill="#546169"/>
<path d="M1045.12 148.997L1027.05 146.845L1037.95 132.273L1045.12 148.997Z" fill="#546169"/>
<path d="M1050.44 451.714L1032.24 451.56L1041.47 435.878L1050.44 451.714Z" fill="#546169"/>
<path d="M821.065 449.334L814.105 466.147L803.024 451.713L821.065 449.334Z" fill="#546169"/>
<path d="M447.492 142.406L437.436 157.572L429.33 141.28L447.492 142.406Z" fill="#546169"/>
<path d="M1201.97 157.401L1205.27 145.301" stroke="#546169" stroke-width="1.5" stroke-miterlimit="10" stroke-linecap="round"/>
<path d="M1205.17 145.499C1205.17 145.499 1218.27 150.499 1222.27 135.199C1207.47 131.299 1205.17 145.499 1205.17 145.499Z" stroke="#546169" stroke-width="1.5" stroke-miterlimit="10" stroke-linecap="round"/>
<path d="M1204.27 148.6C1204.27 148.6 1190.47 146.2 1194.87 131C1209.57 135.3 1204.27 148.6 1204.27 148.6Z" stroke="#546169" stroke-width="1.5" stroke-miterlimit="10" stroke-linecap="round"/>
<path d="M1225.5 449.162C1226.06 456.295 1220.78 462.751 1213.67 463.567C1206.61 464.296 1200.45 459.26 1199.75 452.162C1199.19 445.029 1210.61 427.162 1210.61 427.162C1210.61 427.162 1224.93 442.029 1225.5 449.162Z" stroke="#546169" stroke-width="1.5" stroke-miterlimit="10"/>
<path d="M1211.83 459.638C1207.84 460.095 1204.37 457.205 1203.97 453.053" stroke="#546169" stroke-width="1.5" stroke-miterlimit="10" stroke-linecap="round"/>
<path d="M21.0849 143.431C22.2999 143.431 23.2849 142.446 23.2849 141.231C23.2849 140.016 22.2999 139.031 21.0849 139.031C19.8699 139.031 18.8849 140.016 18.8849 141.231C18.8849 142.446 19.8699 143.431 21.0849 143.431Z" fill="#6F6F6E"/>
<path d="M38.2988 148.184C40.2006 143.651 33.9396 136.703 24.3146 132.665C14.6895 128.626 5.34519 129.027 3.44343 133.559C1.54168 138.091 7.80264 145.039 17.4277 149.078C27.0528 153.116 36.3971 152.716 38.2988 148.184Z" stroke="#546169" stroke-width="1.5" stroke-miterlimit="10"/>
<path d="M29.0778 144.315C33.1164 134.69 32.716 125.345 28.1836 123.443C23.6511 121.542 16.703 127.803 12.6645 137.428C8.62593 147.053 9.02631 156.397 13.5587 158.299C18.0912 160.201 25.0393 153.94 29.0778 144.315Z" stroke="#546169" stroke-width="1.5" stroke-miterlimit="10"/>
<path d="M569.4 67.4004L572.7 70.6004" stroke="#546169" stroke-width="1.5" stroke-miterlimit="10" stroke-linecap="round"/>
<path d="M547.2 45.1992L550 47.9992" stroke="#546169" stroke-width="1.5" stroke-miterlimit="10" stroke-linecap="round"/>
<path d="M560 71.3008V75.9008" stroke="#546169" stroke-width="1.5" stroke-miterlimit="10" stroke-linecap="round"/>
<path d="M560 40V43.9" stroke="#546169" stroke-width="1.5" stroke-miterlimit="10" stroke-linecap="round"/>
<path d="M550.5 67.4004L547.2 70.6004" stroke="#546169" stroke-width="1.5" stroke-miterlimit="10" stroke-linecap="round"/>
<path d="M572.7 45.1992L569.9 47.9992" stroke="#546169" stroke-width="1.5" stroke-miterlimit="10" stroke-linecap="round"/>
<path d="M546.5 57.9004H542" stroke="#546169" stroke-width="1.5" stroke-miterlimit="10" stroke-linecap="round"/>
<path d="M577.9 57.9004H574" stroke="#546169" stroke-width="1.5" stroke-miterlimit="10" stroke-linecap="round"/>
<path d="M559.9 68.2C565.754 68.2 570.5 63.4542 570.5 57.6C570.5 51.7458 565.754 47 559.9 47C554.046 47 549.3 51.7458 549.3 57.6C549.3 63.4542 554.046 68.2 559.9 68.2Z" stroke="#546169" stroke-width="1.5" stroke-miterlimit="10" stroke-linecap="round"/>
<path d="M640.5 543.3C638.3 540.7 637 537.4 637 533.8C637 525.7 643.6 519.1 651.7 519.1C652.5 519.1 653.4 519.2 654.2 519.3" stroke="#546169" stroke-width="1.5" stroke-linecap="round" stroke-linejoin="round"/>
<path d="M648.5 525.2L647.6 524L653.5 519.5L648.5 514L649.6 513L655.7 519.7L648.5 525.2Z" fill="#546169"/>
<path d="M662.8 524.301C665 526.901 666.3 530.201 666.3 533.801C666.3 541.901 659.7 548.501 651.6 548.501C650.8 548.501 650 548.401 649.3 548.301" stroke="#546169" stroke-width="1.5" stroke-linecap="round" stroke-linejoin="round"/>
<path d="M654.8 542.4L655.7 543.6L649.9 548.1L654.9 553.6L653.7 554.6L647.7 547.9L654.8 542.4Z" fill="#546169"/>
<path d="M1225.1 296.2C1226.81 296.2 1228.2 294.812 1228.2 293.1C1228.2 291.388 1226.81 290 1225.1 290C1223.39 290 1222 291.388 1222 293.1C1222 294.812 1223.39 296.2 1225.1 296.2Z" fill="#EDF1F4"/>
<path d="M371.1 315.2C372.812 315.2 374.2 313.812 374.2 312.1C374.2 310.388 372.812 309 371.1 309C369.388 309 368 310.388 368 312.1C368 313.812 369.388 315.2 371.1 315.2Z" fill="#FD583E"/>
<path d="M858.1 244.2C859.812 244.2 861.2 242.812 861.2 241.1C861.2 239.388 859.812 238 858.1 238C856.388 238 855 239.388 855 241.1C855 242.812 856.388 244.2 858.1 244.2Z" fill="#FF5533"/>
<path d="M20.1 461.2C21.8121 461.2 23.2 459.812 23.2 458.1C23.2 456.388 21.8121 455 20.1 455C18.3879 455 17 456.388 17 458.1C17 459.812 18.3879 461.2 20.1 461.2Z" fill="#FF5533"/>
<path d="M1155.1 64.2C1156.81 64.2 1158.2 62.8121 1158.2 61.1C1158.2 59.3879 1156.81 58 1155.1 58C1153.39 58 1152 59.3879 1152 61.1C1152 62.8121 1153.39 64.2 1155.1 64.2Z" fill="#FF5533"/>
</svg>
