<svg width="486" height="297" viewBox="0 0 486 297" fill="none" xmlns="http://www.w3.org/2000/svg">
<g clip-path="url(#clip0)">
<path d="M245.654 254.264C305.044 254.264 353.19 206.091 353.19 146.666C353.19 87.2415 305.044 39.0684 245.654 39.0684C186.263 39.0684 138.117 87.2415 138.117 146.666C138.117 206.091 186.263 254.264 245.654 254.264Z" fill="#EEF1F3"/>
<path d="M152.775 204.069V86.1031C152.775 83.9537 154.544 82.1836 156.693 82.1836H336.131C338.279 82.1836 340.048 83.9537 340.048 86.1031V203.942" stroke="#546169" stroke-width="1.5" stroke-miterlimit="10" stroke-linecap="round" stroke-linejoin="round"/>
<path d="M349.273 218.229H137.232C131.546 218.229 126.997 213.678 126.997 207.988V204.574H359.635V207.988C359.509 213.551 354.959 218.229 349.273 218.229Z" stroke="#546169" stroke-width="1.5" stroke-miterlimit="10" stroke-linejoin="round"/>
<path d="M329.939 94.0684H162.885V194.839H329.939V94.0684Z" stroke="#546169" stroke-width="1.5" stroke-miterlimit="10" stroke-linecap="round" stroke-linejoin="round"/>
<path d="M271.558 123.402H223.793V170.058H271.558V123.402Z" fill="#1ADCD0"/>
<path d="M194.602 130.103L206.607 130.609L204.08 118.85L201.3 122.264L191.696 114.172L187.905 118.724L197.509 126.816L194.602 130.103Z" fill="#FF5533"/>
<path d="M194.602 159.437L206.607 158.932L204.08 170.69L201.3 167.276L191.696 175.368L187.905 170.817L197.509 162.851L194.602 159.437Z" fill="#FF5533"/>
<path d="M301.76 130.103L289.755 130.609L292.282 118.85L295.189 122.264L304.666 114.172L308.457 118.724L298.98 126.816L301.76 130.103Z" fill="#FF5533"/>
<path d="M70.1326 102.161C70.1326 102.161 54.8424 123.908 35.8877 123.908C16.9329 123.908 1.51639 102.161 1.51639 102.161C1.51639 102.161 16.8066 80.4141 35.7613 80.4141C54.7161 80.4141 70.1326 102.161 70.1326 102.161Z" fill="#EEF1F3"/>
<path d="M301.76 159.437L289.755 158.932L292.282 170.69L295.189 167.276L304.666 175.368L308.457 170.817L298.98 162.851L301.76 159.437Z" fill="#FF5533"/>
<path d="M48.1529 116.322C55.9693 116.322 62.3058 109.982 62.3058 102.161C62.3058 94.3401 55.9693 88 48.1529 88C40.3365 88 34 94.3401 34 102.161C34 109.982 40.3365 116.322 48.1529 116.322Z" stroke="#546169" stroke-width="1.5" stroke-miterlimit="10" stroke-linecap="round"/>
<path d="M53 109C56.866 109 60 105.866 60 102C60 98.134 56.866 95 53 95C49.134 95 46 98.134 46 102C46 105.866 49.134 109 53 109Z" stroke="#546169" stroke-width="1.5" stroke-miterlimit="10" stroke-linecap="round"/>
<path d="M417.384 112.401C417.384 112.401 432.674 134.149 451.629 134.149C470.583 134.149 485.874 112.401 485.874 112.401C485.874 112.401 470.583 90.6543 451.629 90.6543C432.674 90.6543 417.384 112.401 417.384 112.401Z" fill="#EEF1F3"/>
<path d="M439.5 122C443.642 122 447 118.642 447 114.5C447 110.358 443.642 107 439.5 107C435.358 107 432 110.358 432 114.5C432 118.642 435.358 122 439.5 122Z" stroke="#546169" stroke-width="1.5" stroke-miterlimit="10" stroke-linecap="round"/>
<path d="M445.184 129.091C454.606 129.091 462.243 121.449 462.243 112.022C462.243 102.595 454.606 94.9531 445.184 94.9531C435.762 94.9531 428.125 102.595 428.125 112.022C428.125 121.449 435.762 129.091 445.184 129.091Z" stroke="#546169" stroke-width="1.5" stroke-miterlimit="10" stroke-linecap="round"/>
<path d="M483.725 260.587C483.725 260.587 468.435 282.334 449.481 282.334C430.526 282.334 415.236 260.587 415.236 260.587C415.236 260.587 430.526 238.84 449.481 238.84C468.435 238.84 483.725 260.587 483.725 260.587Z" fill="#EEF1F3"/>
<path d="M443.162 275.38C452.584 275.38 460.222 267.738 460.222 258.311C460.222 248.884 452.584 241.242 443.162 241.242C433.741 241.242 426.103 248.884 426.103 258.311C426.103 267.738 433.741 275.38 443.162 275.38Z" stroke="#546169" stroke-width="1.5" stroke-miterlimit="10" stroke-linecap="round"/>
<path d="M60.1498 213.932C60.1498 213.932 46.6287 233.024 30.0749 233.024C13.5211 233.024 0 213.932 0 213.932C0 213.932 13.5211 194.84 30.0749 194.84C46.6287 194.84 60.1498 213.932 60.1498 213.932Z" fill="#EEF1F3"/>
<path d="M438.36 250.471C441.772 250.471 444.679 253.252 444.679 256.793C444.679 260.333 441.899 263.114 438.36 263.114C434.822 263.114 432.042 260.333 432.042 256.793C432.042 253.252 434.948 250.471 438.36 250.471ZM438.36 248.574C433.811 248.574 430.147 252.241 430.147 256.793C430.147 261.344 433.811 265.011 438.36 265.011C442.909 265.011 446.574 261.344 446.574 256.793C446.574 252.241 442.909 248.574 438.36 248.574Z" fill="#546169"/>
<path d="M38.5413 228.725C46.8463 228.725 53.5788 221.988 53.5788 213.679C53.5788 205.369 46.8463 198.633 38.5413 198.633C30.2364 198.633 23.5039 205.369 23.5039 213.679C23.5039 221.988 30.2364 228.725 38.5413 228.725Z" stroke="#546169" stroke-width="1.5" stroke-miterlimit="10" stroke-linecap="round"/>
<path d="M43.5 218C47.6421 218 51 214.642 51 210.5C51 206.358 47.6421 203 43.5 203C39.3579 203 36 206.358 36 210.5C36 214.642 39.3579 218 43.5 218Z" stroke="#546169" stroke-width="1.5" stroke-miterlimit="10" stroke-linecap="round"/>
<path d="M347.378 281.828C347.378 281.828 336.637 297.127 323.368 297.127C310.1 297.127 299.359 281.828 299.359 281.828C299.359 281.828 310.1 266.529 323.368 266.529C336.637 266.529 347.378 281.828 347.378 281.828Z" fill="#EEF1F3"/>
<path d="M318.566 292.701C325.196 292.701 330.571 287.323 330.571 280.689C330.571 274.055 325.196 268.678 318.566 268.678C311.936 268.678 306.562 274.055 306.562 280.689C306.562 287.323 311.936 292.701 318.566 292.701Z" stroke="#546169" stroke-width="1.5" stroke-miterlimit="10" stroke-linecap="round"/>
<path d="M315.5 284C318.538 284 321 281.538 321 278.5C321 275.462 318.538 273 315.5 273C312.462 273 310 275.462 310 278.5C310 281.538 312.462 284 315.5 284Z" stroke="#546169" stroke-width="1.5" stroke-miterlimit="10" stroke-linecap="round"/>
<path d="M173.626 271.713C173.626 271.713 162.885 287.012 149.616 287.012C136.348 287.012 125.607 271.713 125.607 271.713C125.607 271.713 136.348 256.414 149.616 256.414C162.885 256.414 173.626 271.713 173.626 271.713Z" fill="#EEF1F3"/>
<path d="M154.165 282.586C160.795 282.586 166.17 277.208 166.17 270.574C166.17 263.94 160.795 258.562 154.165 258.562C147.535 258.562 142.161 263.94 142.161 270.574C142.161 277.208 147.535 282.586 154.165 282.586Z" stroke="#546169" stroke-width="1.5" stroke-miterlimit="10" stroke-linecap="round"/>
<path d="M157.5 273C160.538 273 163 270.538 163 267.5C163 264.462 160.538 262 157.5 262C154.462 262 152 264.462 152 267.5C152 270.538 154.462 273 157.5 273Z" stroke="#546169" stroke-width="1.5" stroke-miterlimit="10" stroke-linecap="round"/>
<path d="M287.607 10.8736C287.607 10.8736 279.899 0 270.421 0C260.944 0 253.236 10.8736 253.236 10.8736C253.236 10.8736 260.944 21.7471 270.421 21.7471C279.899 21.7471 287.607 10.8736 287.607 10.8736Z" fill="#EEF1F3"/>
<path d="M270.421 20.609C274.539 20.609 277.877 17.2691 277.877 13.1492C277.877 9.02931 274.539 5.68945 270.421 5.68945C266.304 5.68945 262.966 9.02931 262.966 13.1492C262.966 17.2691 266.304 20.609 270.421 20.609Z" stroke="#546169" stroke-width="1.5" stroke-miterlimit="10" stroke-linecap="round"/>
<path d="M270.5 18C272.433 18 274 16.433 274 14.5C274 12.567 272.433 11 270.5 11C268.567 11 267 12.567 267 14.5C267 16.433 268.567 18 270.5 18Z" stroke="#546169" stroke-width="1.5" stroke-miterlimit="10" stroke-linecap="round"/>
<path d="M158.462 42.1035C158.462 42.1035 147.721 57.4024 134.452 57.4024C121.184 57.4024 110.443 42.1035 110.443 42.1035C110.443 42.1035 121.184 26.8047 134.452 26.8047C147.721 26.8047 158.462 42.1035 158.462 42.1035Z" fill="#EEF1F3"/>
<path d="M138.622 55.7593C145.252 55.7593 150.627 50.3816 150.627 43.7478C150.627 37.1141 145.252 31.7363 138.622 31.7363C131.992 31.7363 126.618 37.1141 126.618 43.7478C126.618 50.3816 131.992 55.7593 138.622 55.7593Z" stroke="#546169" stroke-width="1.5" stroke-miterlimit="10" stroke-linecap="round"/>
<path d="M141 52C143.761 52 146 49.7614 146 47C146 44.2386 143.761 42 141 42C138.239 42 136 44.2386 136 47C136 49.7614 138.239 52 141 52Z" stroke="#546169" stroke-width="1.5" stroke-miterlimit="10" stroke-linecap="round"/>
<path d="M358.119 47.1602C358.119 47.1602 368.86 62.459 382.128 62.459C395.396 62.459 406.137 47.1602 406.137 47.1602C406.137 47.1602 395.396 31.8613 382.128 31.8613C368.86 31.8613 358.119 47.1602 358.119 47.1602Z" fill="#EEF1F3"/>
<path d="M377.452 60.564C384.082 60.564 389.457 55.1863 389.457 48.5525C389.457 41.9187 384.082 36.541 377.452 36.541C370.822 36.541 365.448 41.9187 365.448 48.5525C365.448 55.1863 370.822 60.564 377.452 60.564Z" stroke="#546169" stroke-width="1.5" stroke-miterlimit="10" stroke-linecap="round"/>
<path d="M374.5 57C376.985 57 379 54.9853 379 52.5C379 50.0147 376.985 48 374.5 48C372.015 48 370 50.0147 370 52.5C370 54.9853 372.015 57 374.5 57Z" stroke="#546169" stroke-width="1.5" stroke-miterlimit="10" stroke-linecap="round"/>
<path d="M77.7145 111.391L132.051 128.839" stroke="#546169" stroke-width="1.5" stroke-miterlimit="10" stroke-linecap="round" stroke-dasharray="2 5"/>
<path d="M67.7317 200.276L129.145 179.92" stroke="#546169" stroke-width="1.5" stroke-miterlimit="10" stroke-linecap="round" stroke-dasharray="2 5"/>
<path d="M365.827 134.908L411.824 123.908" stroke="#546169" stroke-width="1.5" stroke-miterlimit="10" stroke-linecap="round" stroke-dasharray="2 5"/>
<path d="M367.217 219.873L413.972 246.931" stroke="#546169" stroke-width="1.5" stroke-miterlimit="10" stroke-linecap="round" stroke-dasharray="2 5"/>
</g>
<defs>
<clipPath id="clip0">
<rect width="486" height="297" fill="white"/>
</clipPath>
</defs>
</svg>
