<svg width="239" height="169" viewBox="0 0 239 169" fill="none" xmlns="http://www.w3.org/2000/svg">

<path d="M81.6772 92.9622C77.9075 92.9622 74.3263 92.2043 71.0592 90.8149C71.0592 90.5623 70.9963 90.2466 70.9963 89.9939C70.8707 88.1625 70.8079 86.331 70.8079 84.4364C70.8079 67.1322 75.9598 51.028 84.8815 37.5762C98.6409 39.2813 109.322 51.028 109.322 65.2376C109.322 80.584 96.9446 92.9622 81.6772 92.9622Z" fill="white"/>
<path d="M239 84.5C239 131.171 201.366 169 154.935 169C124.401 169 97.6985 152.643 82.9966 128.139C77.719 119.424 74.0121 109.635 72.1901 99.278C75.2058 100.162 78.4101 100.604 81.74 100.604C101.154 100.604 116.924 84.7526 116.924 65.238C116.924 48.5654 105.489 34.6084 90.0334 30.8823C105.364 11.9993 128.736 0 154.935 0C201.366 0 239 37.8292 239 84.5Z" fill="white"/>
<path d="M196.654 74.3319L173.281 33.9766" stroke="#546169" stroke-width="1.5" stroke-miterlimit="10" stroke-linecap="round" stroke-linejoin="round"/>
<path d="M173.407 67.7006L213.115 44.46" stroke="#546169" stroke-width="1.5" stroke-miterlimit="10" stroke-linecap="round" stroke-linejoin="round"/>
<path d="M216.068 66.6906L173.721 55.4492" stroke="#546169" stroke-width="1.5" stroke-miterlimit="10" stroke-linecap="round" stroke-linejoin="round"/>
<path d="M183.648 75.5952L195.397 30.9453" stroke="#546169" stroke-width="1.5" stroke-miterlimit="10" stroke-linecap="round" stroke-linejoin="round"/>
<path d="M187.669 79.8261C198.912 79.8261 208.025 70.665 208.025 59.3642C208.025 48.0634 198.912 38.9023 187.669 38.9023C176.426 38.9023 167.312 48.0634 167.312 59.3642C167.312 70.665 176.426 79.8261 187.669 79.8261Z" fill="white"/>
<path d="M52.2734 28.1035V150.306" stroke="#546169" stroke-width="1.5" stroke-miterlimit="10" stroke-linecap="round" stroke-linejoin="round"/>
<path d="M113.154 28.1035V150.306" stroke="#546169" stroke-width="1.5" stroke-miterlimit="10" stroke-linecap="round" stroke-linejoin="round"/>
<path d="M0.502686 40.3555L4.08392 42.8816L7.66515 40.3555L11.3092 42.8816L14.8904 40.3555L18.5345 42.8816L22.1157 40.3555L25.7598 42.8816L29.341 40.3555L32.9851 42.8816L36.5663 40.3555L40.2104 42.8816" stroke="#546169" stroke-width="1.5" stroke-miterlimit="10" stroke-linecap="round" stroke-linejoin="round"/>
<path d="M0.502686 65.0488L4.08392 67.575L7.66515 65.0488L11.3092 67.575L14.8904 65.0488L18.5345 67.575L22.1157 65.0488L25.7598 67.575L29.341 65.0488L32.9851 67.575L36.5663 65.0488L40.2104 67.575" stroke="#546169" stroke-width="1.5" stroke-miterlimit="10" stroke-linecap="round" stroke-linejoin="round"/>
<path d="M0.502686 89.7422L4.08392 92.3315L7.66515 89.7422L11.3092 92.3315L14.8904 89.7422L18.5345 92.3315L22.1157 89.7422L25.7598 92.3315L29.341 89.7422L32.9851 92.3315L36.5663 89.7422L40.2104 92.3315" stroke="#546169" stroke-width="1.5" stroke-miterlimit="10" stroke-linecap="round" stroke-linejoin="round"/>
<path d="M50.1373 61.9541L56.0432 70.7325L62.0119 61.9541L67.9178 70.7325L73.8237 61.9541L79.7924 70.7325L85.6983 61.9541L91.6042 70.7325L97.5729 61.9541L103.479 70.7325L109.385 61.9541L115.353 70.7325" stroke="#546169" stroke-width="1.5" stroke-miterlimit="10" stroke-linecap="round" stroke-linejoin="round"/>
<path d="M0.502686 114.436L4.08392 117.025L7.66515 114.436L11.3092 117.025L14.8904 114.436L18.5345 117.025L22.1157 114.436L25.7598 117.025L29.341 114.436L32.9851 117.025L36.5663 114.436L40.2104 117.025" stroke="#546169" stroke-width="1.5" stroke-miterlimit="10" stroke-linecap="round" stroke-linejoin="round"/>
<path d="M0.502686 138.434L4.08392 140.96L7.66515 138.434L11.3092 140.96L14.8904 138.434L18.5345 140.96L22.1157 138.434L25.7598 140.96L29.341 138.434L32.9851 140.96L36.5663 138.434L40.2104 140.96" stroke="#546169" stroke-width="1.5" stroke-miterlimit="10" stroke-linecap="round" stroke-linejoin="round"/>
<path d="M124.401 40.3555L127.982 42.8816L131.626 40.3555L135.207 42.8816L138.789 40.3555L142.433 42.8816L146.014 40.3555L149.658 42.8816L153.239 40.3555L156.883 42.8816L160.464 40.3555L164.108 42.8816" stroke="#546169" stroke-width="1.5" stroke-miterlimit="10" stroke-linecap="round" stroke-linejoin="round"/>
<path d="M124.401 65.0488L127.982 67.575L131.626 65.0488L135.207 67.575L138.789 65.0488L142.433 67.575L146.014 65.0488L149.658 67.575L153.239 65.0488L156.883 67.575L160.464 65.0488L164.108 67.575" stroke="#546169" stroke-width="1.5" stroke-miterlimit="10" stroke-linecap="round" stroke-linejoin="round"/>
<path d="M124.401 89.7422L127.982 92.3315L131.626 89.7422L135.207 92.3315L138.789 89.7422L142.433 92.3315L146.014 89.7422L149.658 92.3315L153.239 89.7422L156.883 92.3315L160.464 89.7422L164.108 92.3315" stroke="#546169" stroke-width="1.5" stroke-miterlimit="10" stroke-linecap="round" stroke-linejoin="round"/>
<path d="M124.401 114.436L127.982 117.025L131.626 114.436L135.207 117.025L138.789 114.436L142.433 117.025L146.014 114.436L149.658 117.025L153.239 114.436L156.883 117.025L160.464 114.436L164.108 117.025" stroke="#546169" stroke-width="1.5" stroke-miterlimit="10" stroke-linecap="round" stroke-linejoin="round"/>
<path d="M124.401 138.434L127.982 140.96L131.626 138.434L135.207 140.96L138.789 138.434L142.433 140.96L146.014 138.434L149.658 140.96L153.239 138.434L156.883 140.96L160.464 138.434L164.108 140.96" stroke="#546169" stroke-width="1.5" stroke-miterlimit="10" stroke-linecap="round" stroke-linejoin="round"/>
<path d="M62.4517 114.436L66.0329 117.025L69.6141 114.436L73.2582 117.025L76.8394 114.436L80.4835 117.025L84.0647 114.436L87.7088 117.025L91.29 114.436L94.934 117.025L98.5153 114.436L102.159 117.025" stroke="#546169" stroke-width="1.5" stroke-miterlimit="10" stroke-linecap="round" stroke-linejoin="round"/>
<path d="M62.4517 138.434L66.0329 140.96L69.6141 138.434L73.2582 140.96L76.8394 138.434L80.4835 140.96L84.0647 138.434L87.7088 140.96L91.29 138.434L94.934 140.96L98.5153 138.434L102.159 140.96" stroke="#546169" stroke-width="1.5" stroke-miterlimit="10" stroke-linecap="round" stroke-linejoin="round"/>
<path d="M73.127 98.1373C73.0808 98.1642 73.0279 98.197 72.9729 98.2367C65.2908 96.126 58.4108 91.3058 53.9575 84.8937L53.9559 84.8914C52.786 83.2204 51.7405 81.4272 50.8806 79.575C48.7911 75.0655 47.7458 70.2473 47.7458 65.2386L47.7458 65.2361C47.6843 46.3871 62.9319 31.0645 81.6772 31.0645C84.2295 31.0645 87.5311 31.491 90.1115 32.1028C91.5443 32.7198 92.3742 33.4042 92.7607 33.9941C93.1255 34.551 93.0922 34.9955 92.849 35.3634C92.5658 35.7918 91.9026 36.2551 90.7273 36.5302C89.5704 36.801 88.0027 36.8665 86.0579 36.5824L86.0432 36.5803L86.0285 36.5787C84.8443 36.4534 82.7924 36.2588 81.74 36.2588C65.8663 36.2588 52.9056 49.2922 52.9056 65.2386C52.9056 76.5458 60.6989 87.6487 71.7941 92.4364C72.9784 93.1032 73.9992 93.7574 74.7978 94.3712C75.6174 95.0011 76.1496 95.5483 76.4078 95.9823C76.534 96.1943 76.5697 96.3379 76.5737 96.4218C76.5768 96.4872 76.5636 96.5378 76.5138 96.6017C76.3743 96.7808 75.9383 97.0628 74.8627 97.2632L74.2501 97.3773V97.659C74.1548 97.6995 74.0388 97.7438 73.8988 97.7972C73.8789 97.8048 73.8585 97.8126 73.8377 97.8206C73.6273 97.901 73.349 98.0083 73.127 98.1373Z" fill="white" stroke="#546169" stroke-width="1.5"/>
<path d="M116.861 65.2386C116.861 84.7531 101.091 100.605 81.6772 100.605C78.3473 100.605 75.1431 100.163 72.1273 99.2785C71.6247 96.4998 71.3105 93.721 71.0592 90.8791C74.3263 92.2685 77.9075 93.0263 81.6772 93.0263C96.9446 93.0263 109.322 80.585 109.322 65.3017C109.322 51.0921 98.7038 39.3454 84.9443 37.7034C86.515 35.3667 88.2114 33.0932 89.9706 30.8828C105.426 34.6089 116.861 48.5659 116.861 65.2386Z" fill="#1ADCD0"/>
<path d="M49.7075 80.0491L46.1709 82.1016L50.2233 89.1567L53.76 87.1042L49.7075 80.0491Z" fill="white" stroke="#546169" stroke-width="1.5" stroke-miterlimit="10" stroke-linecap="round" stroke-linejoin="round"/>
<path d="M45.2116 79.6101L11.0424 99.4404L17.4823 110.652L51.6515 90.8218L45.2116 79.6101Z" fill="white" stroke="#546169" stroke-width="1.5" stroke-miterlimit="10" stroke-linecap="round" stroke-linejoin="round"/>
<path d="M195.271 79.5104L193.512 52.291L167.815 57.9117L177.491 65.5533L148.338 104.393L133.888 96.6251C131.689 95.4252 128.987 95.9936 127.354 97.8882L105.112 124.792L113.154 131.549L132.631 107.93L147.27 115.824C149.532 117.024 152.359 116.392 153.93 114.371L185.659 72.0582L195.271 79.5104Z" fill="#FF5533"/>

<defs>
<clipPath id="clip0">
<rect width="239" height="169" fill="white"/>
</clipPath>
</defs>
</svg>
