<svg width="42" height="42" viewBox="0 0 42 42" fill="none" xmlns="http://www.w3.org/2000/svg">
<path d="M21.0849 23.4322C22.3 23.4322 23.2849 22.4472 23.2849 21.2322C23.2849 20.0172 22.3 19.0322 21.0849 19.0322C19.8699 19.0322 18.8849 20.0172 18.8849 21.2322C18.8849 22.4472 19.8699 23.4322 21.0849 23.4322Z" fill="#6F6F6E"/>
<path d="M38.2988 28.1837C40.2006 23.6512 33.9396 16.7031 24.3146 12.6646C14.6895 8.62612 5.34519 9.02652 3.44343 13.5589C1.54168 18.0914 7.80264 25.0395 17.4277 29.078C27.0528 33.1165 36.3971 32.7161 38.2988 28.1837Z" stroke="#546169" stroke-width="1.5" stroke-miterlimit="10"/>
<path d="M29.0778 24.3146C33.1163 14.6895 32.7159 5.34524 28.1835 3.44349C23.6511 1.54175 16.7029 7.80273 12.6644 17.4278C8.62587 27.0528 9.02624 36.3971 13.5587 38.2989C18.0911 40.2006 25.0392 33.9396 29.0778 24.3146Z" stroke="#546169" stroke-width="1.5" stroke-miterlimit="10"/>
</svg>
