<svg width="421" height="255" viewBox="0 0 421 255" fill="none" xmlns="http://www.w3.org/2000/svg">
<g clip-path="url(#clip0)">
<path d="M156.5 83.8999C156.5 83.8999 155.8 73.2999 157.7 67.3999C159.6 61.1999 168.9 56.4999 174.2 61.7999C179.5 67.0999 176.5 72.4999 172.7 73.8999C168.8 75.1999 163.7 81.6999 164.3 84.3999C164.7 87.0999 157.2 85.4999 156.5 83.8999Z" fill="white" stroke="#546169" stroke-width="1.5" stroke-miterlimit="10" stroke-linecap="round" stroke-linejoin="round"/>
<path d="M139.7 184.101C139.7 184.901 144 247.901 144 247.901L151.6 248.001L153.2 182.801" stroke="#546169" stroke-width="1.5" stroke-miterlimit="10" stroke-linecap="round" stroke-linejoin="round"/>
<path d="M162.5 182.199C162.5 183.199 170.1 248.699 170.1 248.699L178.5 248.299L178.3 181.199" stroke="#546169" stroke-width="1.5" stroke-miterlimit="10" stroke-linecap="round" stroke-linejoin="round"/>
<path d="M144 247.9C143.2 247.9 143.6 252.8 143 252.8C142.4 252.8 160.6 253.2 160.6 253.2L160 250.6C159.6 249.9 158.9 249.4 158.1 249.3L151.6 248L144 247.9Z" stroke="#546169" stroke-width="1.5" stroke-miterlimit="10" stroke-linecap="round" stroke-linejoin="round"/>
<path d="M170.6 248.199C169.8 248.199 170.2 253.099 169.6 253.099C169 253.099 187.2 253.499 187.2 253.499L186.6 250.899C186.2 250.199 185.5 249.699 184.7 249.599L178.2 248.299L170.6 248.199Z" stroke="#546169" stroke-width="1.5" stroke-miterlimit="10" stroke-linecap="round" stroke-linejoin="round"/>
<path d="M420.2 254H1" stroke="#546169" stroke-width="1.5" stroke-miterlimit="10" stroke-linecap="round" stroke-linejoin="round"/>
<path d="M185.2 171.2C184.9 174.4 184.6 177.6 184.2 180.7L136.5 184.1C137.2 161 137.9 137.8 138.6 114.7C138.8 108.3 139 101.8 141.4 95.6999C143.8 89.6999 148.8 84.1999 155.5 82.7999C163 81.1999 170.8 84.9999 175.6 90.5999C186.3 100.5 199.8 149.4 185.2 171.2Z" fill="#EDF1F4" stroke="#546169" stroke-width="1.5" stroke-miterlimit="10" stroke-linecap="round" stroke-linejoin="round"/>
<path d="M167.4 106.9C167.5 127.1 168.2 147.3 169.6 167.5C165.7 168.2 158.6 168.2 158.6 168.2C158.6 168.2 157.2 148.9 157 145.5C156.3 129.4 157.5 123.4 155.5 107.2" stroke="#546169" stroke-width="1.5" stroke-miterlimit="10" stroke-linecap="round" stroke-linejoin="round"/>
<path d="M167.8 168.4C168.4 170.8 170.5 176.9 165.9 176.7C162.2 176.6 161.3 171.3 161 168.5" stroke="#546169" stroke-width="1.5" stroke-miterlimit="10" stroke-linecap="round" stroke-linejoin="round"/>
<path d="M42.7 92.9995C42.7 92.9995 43.4 82.3995 41.5 76.4995C39.6 70.2995 30.3 65.5995 25 70.8995C19.7 76.1995 22.7 81.6995 26.6 82.9995C30.5 84.2995 35.6 90.7995 35 93.4995C34.4 96.1995 41.9 94.5995 42.7 92.9995Z" fill="white" stroke="#546169" stroke-width="1.5" stroke-miterlimit="10" stroke-linecap="round" stroke-linejoin="round"/>
<path d="M55.2 184.101C55.2 184.901 50.9 247.901 50.9 247.901L43.2999 248.001L41.7 182.801" stroke="#546169" stroke-width="1.5" stroke-miterlimit="10" stroke-linecap="round" stroke-linejoin="round"/>
<path d="M37.6 182.199C37.6 183.199 30 248.699 30 248.699L21.6 248.299L21.8 181.199" stroke="#546169" stroke-width="1.5" stroke-miterlimit="10" stroke-linecap="round" stroke-linejoin="round"/>
<path d="M50.9001 247.9C51.7001 247.9 51.3001 252.8 51.9001 252.8C52.5001 252.8 34.3 253.2 34.3 253.2L34.9001 250.6C35.3001 249.9 36 249.4 36.8 249.3L43.3 248L50.9001 247.9Z" stroke="#546169" stroke-width="1.5" stroke-miterlimit="10" stroke-linecap="round" stroke-linejoin="round"/>
<path d="M29.5 248.199C30.3 248.199 29.9 253.099 30.5 253.099C31.1 253.099 12.9 253.499 12.9 253.499L13.5 250.899C13.9 250.199 14.6 249.699 15.4 249.599L21.9 248.299L29.5 248.199Z" stroke="#546169" stroke-width="1.5" stroke-miterlimit="10" stroke-linecap="round" stroke-linejoin="round"/>
<path d="M100.6 86.2995C100.6 86.2995 97.4 76.1995 97.7 69.9995C98 63.4995 105.8 56.6995 112.3 60.4995C118.8 64.3995 117.2 70.2995 113.8 72.5995C110.4 74.8995 107 82.3995 108.2 84.7995C109.4 87.2995 101.7 87.5995 100.6 86.2995Z" fill="white" stroke="#546169" stroke-width="1.5" stroke-miterlimit="10" stroke-linecap="round" stroke-linejoin="round"/>
<path d="M120.9 183.5C120.9 184.3 116.7 247.9 116.7 247.9L109.1 248L103.9 179.6" stroke="#546169" stroke-width="1.5" stroke-miterlimit="10" stroke-linecap="round" stroke-linejoin="round"/>
<path d="M99.8 179.2C99.8 179.7 89.1 208.2 89.1 208.2L90.6 248.7L82.2 248.3L76.3 207L82.1 175.1" stroke="#546169" stroke-width="1.5" stroke-miterlimit="10" stroke-linecap="round" stroke-linejoin="round"/>
<path d="M116.7 247.9C117.5 247.9 117.1 252.8 117.7 252.8C118.3 252.8 100.1 253.2 100.1 253.2L100.7 250.6C101.1 249.9 101.8 249.4 102.6 249.3L109.1 248L116.7 247.9Z" stroke="#546169" stroke-width="1.5" stroke-miterlimit="10" stroke-linecap="round" stroke-linejoin="round"/>
<path d="M90.1 248.199C90.9 248.199 90.5 253.099 91.1 253.099C91.7 253.099 73.5 253.499 73.5 253.499L74.1 250.899C74.5 250.199 75.2 249.699 76 249.599L82.5 248.299L90.1 248.199Z" stroke="#546169" stroke-width="1.5" stroke-miterlimit="10" stroke-linecap="round" stroke-linejoin="round"/>
<path d="M124.2 184.201C123.5 161.101 122.8 137.901 122 114.801C121.8 108.401 121.6 101.901 119.2 95.8008C116.8 89.8008 112 82.8008 105.1 82.8008C80.9001 83.1008 78.1001 125.901 78.1001 125.901C78.1001 125.901 74.1001 151.901 76.9001 173.901L124.2 184.201Z" fill="#EDF1F4" stroke="#546169" stroke-width="1.5" stroke-miterlimit="10" stroke-linecap="round" stroke-linejoin="round"/>
<path d="M93.3 106.9C93.2 127.1 92.5 147.3 91.1 167.5C95 168.2 102.1 168.2 102.1 168.2C102.1 168.2 103.5 148.9 103.7 145.5C104.4 129.4 103.2 123.4 105.2 107.2" stroke="#546169" stroke-width="1.5" stroke-miterlimit="10" stroke-linecap="round" stroke-linejoin="round"/>
<path d="M92.9 168.4C92.3 170.8 90.2 176.9 94.8 176.7C98.5 176.6 99.4 171.3 99.7 168.5" stroke="#546169" stroke-width="1.5" stroke-miterlimit="10" stroke-linecap="round" stroke-linejoin="round"/>
<path d="M58.6 184.2C58 163.2 57.4 142.2 56.7 121.2C56.5 115.4 56.3 109.5 54.3 104C52.2 98.4995 47.9 93.5995 42.1 92.1995C35.1 90.5995 25.1 96.4995 21.1 102.4C17.1 108.3 16.1 123.1 15.9 130.2C15.3 150.8 14.9 161.1 17.3 181.1L58.6 184.2Z" fill="#EDF1F4" stroke="#546169" stroke-width="1.5" stroke-miterlimit="10" stroke-linecap="round" stroke-linejoin="round"/>
<path d="M36.4 106.9C42.5 126.6 44.4 132.9 31.5 160C35.4 160.7 42.6 163.6 42.6 163.6C42.6 163.6 52 140.3 52.2 137C52.9 120.9 51.1 112.2 48.3 107.2" stroke="#546169" stroke-width="1.5" stroke-miterlimit="10" stroke-linecap="round" stroke-linejoin="round"/>
<path d="M33.7001 161.4C33.1001 163.8 31.0001 169.9 35.6001 169.7C39.3001 169.6 39.9001 165.5 40.2001 162.7" stroke="#546169" stroke-width="1.5" stroke-miterlimit="10" stroke-linecap="round" stroke-linejoin="round"/>
<path d="M408.1 117.8C408.1 182.9 355.3 235.6 290.3 235.6C244.4 235.6 204.7 209.4 185.2 171.1C186.9 152.2 186.5 133.1 184 114.2C183 106.5 181.4 98.6 176.8 92.1C176.4 91.6 176 91.1 175.6 90.6C187.9 38.6 234.6 0 290.3 0C355.4 0 408.1 52.8 408.1 117.8Z" fill="#EEF1F3"/>
<path d="M352.715 86.7167C352.715 86.7167 355.715 76.5167 355.215 70.3167C354.715 63.8167 346.715 57.2167 340.315 61.2167C333.915 65.2167 335.615 71.2167 339.115 73.3167C342.615 75.5167 346.215 82.9167 345.015 85.4167C343.915 87.9167 351.615 88.1167 352.715 86.7167Z" fill="white" stroke="#546169" stroke-width="1.5" stroke-miterlimit="10" stroke-linecap="round" stroke-linejoin="round"/>
<path d="M369 178.416C369 179.287 364.541 247.891 364.541 247.891L356.659 248L355 177" stroke="#546169" stroke-width="1.5" stroke-miterlimit="10" stroke-linecap="round" stroke-linejoin="round"/>
<path d="M346.1 182.199C346.1 183.199 338.5 248.699 338.5 248.699L330.1 248.299L330.3 181.199" stroke="#546169" stroke-width="1.5" stroke-miterlimit="10" stroke-linecap="round" stroke-linejoin="round"/>
<path d="M364.6 247.9C365.4 247.9 365 252.8 365.6 252.8C366.2 252.8 348 253.2 348 253.2L348.6 250.6C349 249.9 349.7 249.4 350.5 249.3L357 248L364.6 247.9Z" stroke="#546169" stroke-width="1.5" stroke-miterlimit="10" stroke-linecap="round" stroke-linejoin="round"/>
<path d="M338 248.199C338.8 248.199 338.4 253.099 339 253.099C339.6 253.099 321.4 253.499 321.4 253.499L322 250.899C322.4 250.199 323.1 249.699 323.9 249.599L330.4 248.299L338 248.199Z" stroke="#546169" stroke-width="1.5" stroke-miterlimit="10" stroke-linecap="round" stroke-linejoin="round"/>
<path d="M325.2 184.2C325.9 161.1 326.6 137.9 327.4 114.8C327.6 108.4 327.8 101.9 330.2 95.7998C332.6 89.7998 337.6 84.2998 344.3 82.7998C352.4 80.9998 360.9 85.6998 365.6 92.0998C370.2 98.5998 371.7 106.5 372.8 114.2C375.8 136.2 375.8 158.6 373 180.6L325.2 184.2Z" fill="#FF5533"/>
<path d="M205.8 184.101C205.8 184.901 210.1 247.901 210.1 247.901L217.7 248.001L219.3 182.801" stroke="#546169" stroke-width="1.5" stroke-miterlimit="10" stroke-linecap="round" stroke-linejoin="round"/>
<path d="M223.4 182.199C223.4 183.199 231 248.699 231 248.699L239.4 248.299L239.2 181.199" stroke="#546169" stroke-width="1.5" stroke-miterlimit="10" stroke-linecap="round" stroke-linejoin="round"/>
<path d="M210.2 247.9C209.4 247.9 209.8 252.8 209.2 252.8C208.6 252.8 226.8 253.2 226.8 253.2L226.2 250.6C225.8 249.9 225.1 249.4 224.3 249.3L217.8 248L210.2 247.9Z" stroke="#546169" stroke-width="1.5" stroke-miterlimit="10" stroke-linecap="round" stroke-linejoin="round"/>
<path d="M231.6 248.199C230.8 248.199 231.2 253.099 230.6 253.099C230 253.099 248.2 253.499 248.2 253.499L247.6 250.899C247.2 250.199 246.5 249.699 245.7 249.599L239.2 248.299L231.6 248.199Z" stroke="#546169" stroke-width="1.5" stroke-miterlimit="10" stroke-linecap="round" stroke-linejoin="round"/>
<path d="M286.3 93.2002C286.3 93.2002 280.7 84.2002 279.4 78.1002C278.1 71.7002 284 63.2002 291.3 65.3002C298.5 67.5002 298.5 73.6002 295.7 76.7002C292.9 79.7002 291.5 87.9002 293.3 89.9002C295.1 92.0002 287.7 94.2002 286.3 93.2002Z" fill="white" stroke="#546169" stroke-width="1.5" stroke-miterlimit="10" stroke-linecap="round" stroke-linejoin="round"/>
<path d="M292.9 180.6C292.9 181.4 297.3 247.9 297.3 247.9L304.9 248L310.1 179.6" stroke="#546169" stroke-width="1.5" stroke-miterlimit="10" stroke-linecap="round" stroke-linejoin="round"/>
<path d="M297.3 247.9C296.5 247.9 296.9 252.8 296.3 252.8C295.7 252.8 313.9 253.2 313.9 253.2L313.3 250.6C312.9 249.9 312.2 249.4 311.4 249.3L304.9 248L297.3 247.9Z" stroke="#546169" stroke-width="1.5" stroke-miterlimit="10" stroke-linecap="round" stroke-linejoin="round"/>
<path d="M271.1 179.301C271.1 180.101 275.5 247.901 275.5 247.901L283.1 248.001L288.3 179.601" stroke="#546169" stroke-width="1.5" stroke-miterlimit="10" stroke-linecap="round" stroke-linejoin="round"/>
<path d="M275.5 247.9C274.7 247.9 275.1 252.8 274.5 252.8C273.9 252.8 292.1 253.2 292.1 253.2L291.5 250.6C291.1 249.9 290.4 249.4 289.6 249.3L283.1 248L275.5 247.9Z" stroke="#546169" stroke-width="1.5" stroke-miterlimit="10" stroke-linecap="round" stroke-linejoin="round"/>
<path d="M315.1 180.501C312.9 157.501 312.1 140.401 309.9 117.301C309.3 110.901 308.6 104.401 305.8 98.6006C303 92.8006 297.7 86.1006 290.9 86.6006C266.7 88.5006 266.7 131.401 266.7 131.401C266.7 131.401 264.4 157.601 268.6 179.401L315.1 180.501Z" fill="#1ADCD0"/>
<path d="M264.7 64.9996C264.7 64.9996 257.9 57.4996 259.1 56.4996C260.3 55.4996 263.5 58.6996 263.5 58.6996C263.5 58.6996 261.6 52.0996 263 51.9996C264.4 51.8996 265.6 57.7996 265.6 57.7996C265.6 57.7996 266.1 51.2996 267.5 51.3996C268.9 51.4996 267.7 58.0996 267.7 58.0996C267.7 58.0996 269.4 53.6996 270.8 54.0996C272.2 54.4996 269.7 60.0996 269.7 60.0996L269.4 64.7996L264.7 64.9996Z" fill="white" stroke="#546169" stroke-miterlimit="10" stroke-linecap="round" stroke-linejoin="round"/>
<path d="M214.2 86.8003C214.2 86.8003 207.1 79.0003 204.9 73.3003C202.5 67.3003 206.8 58.0003 214.2 58.8003C221.6 59.7003 222.6 65.7003 220.5 69.1003C218.3 72.5003 218.3 80.7003 220.4 82.4003C222.5 84.1003 215.8 87.6003 214.2 86.8003Z" fill="white" stroke="#546169" stroke-width="1.5" stroke-miterlimit="10" stroke-linecap="round" stroke-linejoin="round"/>
<path d="M271.7 63.6992L262.5 63.9992C262.5 63.9992 269.2 85.6992 257.6 87.2992C251 88.1992 245.2 85.6992 240.7 83.1992C237.4 81.5992 228.6 80.9992 223.9 81.4992C217.6 82.0992 212.6 82.9992 208.3 84.5992C202.6 86.5992 198.4 91.3992 197 97.2992C189.9 126.899 204.6 187.499 204.6 187.499L247.3 180.099C247.3 180.099 251.2 126.399 251.4 118.999C251.6 111.599 253.5 105.299 259.4 102.399C287.2 88.6992 271.7 63.6992 271.7 63.6992Z" fill="#FF5533"/>
<path d="M197.622 166.718C197.694 169.191 198.439 175.599 193.989 174.418C190.396 173.528 190.652 168.159 190.958 165.359" stroke="#546169" stroke-width="1.5" stroke-miterlimit="10" stroke-linecap="round" stroke-linejoin="round"/>
<path d="M354.361 162.718C354.018 165.168 352.574 171.456 357.127 170.771C360.796 170.281 361.131 164.915 361.134 162.099" fill="white"/>
<path d="M185.2 171.2C177 155.2 172.4 137.1 172.4 117.8C172.4 108.4 173.5 99.2996 175.6 90.5996C176 91.0996 176.4 91.5996 176.8 92.0996C181.4 98.5996 182.9 106.5 184 114.2C186.5 133.1 187 152.2 185.2 171.2Z" fill="#1ADCD0"/>
<path d="M207.32 106.955C204 126.881 201.272 146.908 199.234 167.053C195.271 167.083 188.274 165.882 188.274 165.882C188.274 165.882 190.16 146.623 190.538 143.239C192.573 127.252 194.771 121.542 195.541 105.237" fill="#FD583E"/>
<path d="M355.5 119.5C355.401 136.965 354.39 144.93 353 162.395C356.872 163 363.922 163 363.922 163C363.922 163 365.312 146.314 365.511 143.374C366.206 129.454 368 124 367 110.26" stroke="white" stroke-miterlimit="10" stroke-linecap="round" stroke-linejoin="round"/>
</g>
<defs>
<clipPath id="clip0">
<rect width="420.7" height="254.8" fill="white"/>
</clipPath>
</defs>
</svg>
