<svg width="1216" height="779" viewBox="0 0 1216 779" fill="none" xmlns="http://www.w3.org/2000/svg">
<g clip-path="url(#clip0)">
<path d="M848 106.5C848 165.322 895.555 213 954.224 213C992.808 213 1026.55 192.385 1045.13 161.501C1051.79 150.517 1056.48 138.179 1058.78 125.126C1054.97 126.24 1050.92 126.797 1046.71 126.797C1022.18 126.797 1002.25 106.818 1002.25 82.2231C1002.25 61.2096 1016.7 43.6188 1036.23 38.9226C1016.86 15.1233 987.33 0 954.224 0C895.555 0 848 47.6783 848 106.5Z" fill="white"/>
<path d="M1083.95 35.4199V189.439" stroke="#546169" stroke-width="1.5" stroke-miterlimit="10" stroke-linecap="round" stroke-linejoin="round"/>
<path d="M1007.02 35.4199V189.439" stroke="#546169" stroke-width="1.5" stroke-miterlimit="10" stroke-linecap="round" stroke-linejoin="round"/>
<path d="M1149.36 50.8613L1144.84 54.0452L1140.31 50.8613L1135.71 54.0452L1131.18 50.8613L1126.58 54.0452L1122.05 50.8613L1117.45 54.0452L1112.92 50.8613L1108.32 54.0452L1103.79 50.8613L1099.19 54.0452" stroke="#546169" stroke-width="1.5" stroke-miterlimit="10" stroke-linecap="round" stroke-linejoin="round"/>
<path d="M1149.36 81.9844L1144.84 85.1682L1140.31 81.9844L1135.71 85.1682L1131.18 81.9844L1126.58 85.1682L1122.05 81.9844L1117.45 85.1682L1112.92 81.9844L1108.32 85.1682L1103.79 81.9844L1099.19 85.1682" stroke="#546169" stroke-width="1.5" stroke-miterlimit="10" stroke-linecap="round" stroke-linejoin="round"/>
<path d="M1149.36 113.105L1144.84 116.369L1140.31 113.105L1135.71 116.369L1131.18 113.105L1126.58 116.369L1122.05 113.105L1117.45 116.369L1112.92 113.105L1108.32 116.369L1103.79 113.105L1099.19 116.369" stroke="#546169" stroke-width="1.5" stroke-miterlimit="10" stroke-linecap="round" stroke-linejoin="round"/>
<path d="M1086.65 78.084L1079.18 89.1479L1071.64 78.084L1064.18 89.1479L1056.72 78.084L1049.17 89.1479L1041.71 78.084L1034.25 89.1479L1026.71 78.084L1019.24 89.1479L1011.78 78.084L1004.24 89.1479" stroke="#546169" stroke-width="1.5" stroke-miterlimit="10" stroke-linecap="round" stroke-linejoin="round"/>
<path d="M1149.36 144.229L1144.84 147.492L1140.31 144.229L1135.71 147.492L1131.18 144.229L1126.58 147.492L1122.05 144.229L1117.45 147.492L1112.92 144.229L1108.32 147.492L1103.79 144.229L1099.19 147.492" stroke="#546169" stroke-width="1.5" stroke-miterlimit="10" stroke-linecap="round" stroke-linejoin="round"/>
<path d="M1149.36 174.475L1144.84 177.658L1140.31 174.475L1135.71 177.658L1131.18 174.475L1126.58 177.658L1122.05 174.475L1117.45 177.658L1112.92 174.475L1108.32 177.658L1103.79 174.475L1099.19 177.658" stroke="#546169" stroke-width="1.5" stroke-miterlimit="10" stroke-linecap="round" stroke-linejoin="round"/>
<path d="M992.808 50.8613L988.282 54.0452L983.678 50.8613L979.152 54.0452L974.627 50.8613L970.023 54.0452L965.497 50.8613L960.893 54.0452L956.368 50.8613L951.763 54.0452L947.238 50.8613L942.633 54.0452" stroke="#546169" stroke-width="1.5" stroke-miterlimit="10" stroke-linecap="round" stroke-linejoin="round"/>
<path d="M992.808 81.9844L988.282 85.1682L983.678 81.9844L979.152 85.1682L974.627 81.9844L970.023 85.1682L965.497 81.9844L960.893 85.1682L956.368 81.9844L951.763 85.1682L947.238 81.9844L942.633 85.1682" stroke="#546169" stroke-width="1.5" stroke-miterlimit="10" stroke-linecap="round" stroke-linejoin="round"/>
<path d="M992.808 113.105L988.282 116.369L983.678 113.105L979.152 116.369L974.627 113.105L970.023 116.369L965.497 113.105L960.893 116.369L956.368 113.105L951.763 116.369L947.238 113.105L942.633 116.369" stroke="#546169" stroke-width="1.5" stroke-miterlimit="10" stroke-linecap="round" stroke-linejoin="round"/>
<path d="M992.808 144.229L988.282 147.492L983.678 144.229L979.152 147.492L974.627 144.229L970.023 147.492L965.497 144.229L960.893 147.492L956.368 144.229L951.763 147.492L947.238 144.229L942.633 147.492" stroke="#546169" stroke-width="1.5" stroke-miterlimit="10" stroke-linecap="round" stroke-linejoin="round"/>
<path d="M992.808 174.475L988.282 177.658L983.678 174.475L979.152 177.658L974.627 174.475L970.023 177.658L965.497 174.475L960.893 177.658L956.368 174.475L951.763 177.658L947.238 174.475L942.633 177.658" stroke="#546169" stroke-width="1.5" stroke-miterlimit="10" stroke-linecap="round" stroke-linejoin="round"/>
<path d="M1071.09 144.229L1066.56 147.492L1062.04 144.229L1057.43 147.492L1052.91 144.229L1048.3 147.492L1043.78 144.229L1039.17 147.492L1034.65 144.229L1030.04 147.492L1025.52 144.229L1020.91 147.492" stroke="#546169" stroke-width="1.5" stroke-miterlimit="10" stroke-linecap="round" stroke-linejoin="round"/>
<path d="M1071.09 174.475L1066.56 177.658L1062.04 174.475L1057.43 177.658L1052.91 174.475L1048.3 177.658L1043.78 174.475L1039.17 177.658L1034.65 174.475L1030.04 177.658L1025.52 174.475L1020.91 177.658" stroke="#546169" stroke-width="1.5" stroke-miterlimit="10" stroke-linecap="round" stroke-linejoin="round"/>
<path d="M1087.19 100.89L1091.66 103.477L1086.54 112.369L1082.07 109.782L1087.19 100.89Z" fill="white" stroke="#546169" stroke-width="1.5" stroke-miterlimit="10" stroke-linecap="round" stroke-linejoin="round"/>
<path d="M1092.87 100.337L1136.05 125.33L1127.91 139.461L1084.73 114.468L1092.87 100.337Z" fill="white" stroke="#546169" stroke-width="1.5" stroke-miterlimit="10" stroke-linecap="round" stroke-linejoin="round"/>
<path fill-rule="evenodd" clip-rule="evenodd" d="M1045.83 127.037C1070.64 127.037 1090.75 106.938 1090.75 82.1443C1090.75 57.351 1070.64 37.252 1045.83 37.252C1021.02 37.252 1000.91 57.351 1000.91 82.1443C1000.91 106.938 1021.02 127.037 1045.83 127.037ZM1045.83 116.53C1064.83 116.53 1080.23 101.135 1080.23 82.1444C1080.23 63.1537 1064.83 47.7587 1045.83 47.7587C1026.83 47.7587 1011.42 63.1537 1011.42 82.1444C1011.42 101.135 1026.83 116.53 1045.83 116.53Z" fill="#27DAD0"/>
</g>
<path d="M226 185L56 185" stroke="#546169" stroke-width="1.5" stroke-miterlimit="10" stroke-linecap="round" stroke-linejoin="round"/>
<path d="M176.276 62.4341C176.276 62.4341 178.299 55.778 177.962 51.7322C177.625 47.4906 172.228 43.1838 167.911 45.794C163.593 48.4042 164.74 52.3195 167.101 53.6899C169.462 55.1255 171.891 59.9544 171.081 61.5858C170.339 63.2172 175.534 63.3477 176.276 62.4341Z" fill="white" stroke="#546169" stroke-width="1.5" stroke-miterlimit="10" stroke-linecap="round" stroke-linejoin="round"/>
<path d="M159 133.957C159 134.546 162.185 180.926 162.185 180.926L167.815 181L169 133" stroke="#546169" stroke-width="1.5" stroke-miterlimit="10" stroke-linecap="round" stroke-linejoin="round"/>
<path d="M176 132.741C176 133.481 181.7 182 181.7 182L188 181.704L187.85 132" stroke="#546169" stroke-width="1.5" stroke-miterlimit="10" stroke-linecap="round" stroke-linejoin="round"/>
<path d="M162.749 181C162.158 181 162.454 184.698 162.011 184.698C161.568 184.698 175 185 175 185L174.557 183.038C174.262 182.509 173.745 182.132 173.155 182.057L168.358 181.075L162.749 181Z" stroke="#546169" stroke-width="1.5" stroke-miterlimit="10" stroke-linecap="round" stroke-linejoin="round"/>
<path d="M181.749 181C181.158 181 181.454 184.698 181.011 184.698C180.568 184.698 194 185 194 185L193.557 183.038C193.262 182.509 192.745 182.132 192.155 182.057L187.358 181.075L181.749 181Z" stroke="#546169" stroke-width="1.5" stroke-miterlimit="10" stroke-linecap="round" stroke-linejoin="round"/>
<path d="M157 134C157.519 117.206 158.039 100.34 158.632 83.546C158.78 78.8931 158.929 74.1676 160.709 69.7329C162.49 65.3709 166.199 61.3723 171.169 60.2818C177.178 58.9732 183.484 62.3902 186.971 67.043C190.383 71.7685 191.496 77.5118 192.312 83.1098C194.537 99.1038 194.537 115.389 192.46 131.383L157 134Z" fill="#FF5533"/>
<path d="M70 133.957C70 134.546 72.8667 180.926 72.8667 180.926L77.9333 181L79 133" stroke="#546169" stroke-width="1.5" stroke-miterlimit="10" stroke-linecap="round" stroke-linejoin="round"/>
<path d="M82 132.741C82 133.481 87.7 182 87.7 182L94 181.704L93.85 132" stroke="#546169" stroke-width="1.5" stroke-miterlimit="10" stroke-linecap="round" stroke-linejoin="round"/>
<path d="M72.7487 181C72.1583 181 72.4535 184.698 72.0107 184.698C71.5679 184.698 85 185 85 185L84.5572 183.038C84.262 182.509 83.7454 182.132 83.1549 182.057L78.3578 181.075L72.7487 181Z" stroke="#546169" stroke-width="1.5" stroke-miterlimit="10" stroke-linecap="round" stroke-linejoin="round"/>
<path d="M88.7487 181C88.1583 181 88.4535 184.698 88.0107 184.698C87.5679 184.698 101 185 101 185L100.557 183.038C100.262 182.509 99.7454 182.132 99.1549 182.057L94.3577 181.075L88.7487 181Z" stroke="#546169" stroke-width="1.5" stroke-miterlimit="10" stroke-linecap="round" stroke-linejoin="round"/>
<path d="M128.052 67.834C128.052 67.834 124.056 61.8286 123.129 57.7583C122.201 53.4878 126.411 47.816 131.62 49.2173C136.758 50.6853 136.758 54.7556 134.76 56.8241C132.762 58.8259 131.763 64.2975 133.047 65.632C134.332 67.0333 129.051 68.5013 128.052 67.834Z" fill="white" stroke="#546169" stroke-width="1.5" stroke-miterlimit="10" stroke-linecap="round" stroke-linejoin="round"/>
<path d="M133 131.731C133 132.316 136.326 180.927 136.326 180.927L142.07 181L146 131" stroke="#546169" stroke-width="1.5" stroke-miterlimit="10" stroke-linecap="round" stroke-linejoin="round"/>
<path d="M136.749 181C136.158 181 136.454 184.698 136.011 184.698C135.568 184.698 149 185 149 185L148.557 183.038C148.262 182.509 147.745 182.132 147.155 182.057L142.358 181.075L136.749 181Z" stroke="#546169" stroke-width="1.5" stroke-miterlimit="10" stroke-linecap="round" stroke-linejoin="round"/>
<path d="M117 131C117 131.582 120.326 180.927 120.326 180.927L126.07 181L130 131.218" stroke="#546169" stroke-width="1.5" stroke-miterlimit="10" stroke-linecap="round" stroke-linejoin="round"/>
<path d="M120.749 181C120.158 181 120.454 184.698 120.011 184.698C119.568 184.698 133 185 133 185L132.557 183.038C132.262 182.509 131.745 182.132 131.155 182.057L126.358 181.075L120.749 181Z" stroke="#546169" stroke-width="1.5" stroke-miterlimit="10" stroke-linecap="round" stroke-linejoin="round"/>
<path d="M150 132C148.385 115.104 147.797 102.542 146.182 85.5722C145.741 80.8706 145.227 76.0956 143.171 71.8348C141.115 67.574 137.224 62.6521 132.231 63.0194C114.461 64.4152 114.461 95.9303 114.461 95.9303C114.461 95.9303 112.773 115.177 115.857 131.192L150 132Z" fill="#1ADCD0"/>
<path d="M112.212 47C112.212 47 107.224 41.4858 108.104 40.7505C108.985 40.0153 111.332 42.368 111.332 42.368C111.332 42.368 109.938 37.5155 110.965 37.442C111.992 37.3685 112.873 41.7063 112.873 41.7063C112.873 41.7063 113.24 36.9273 114.267 37.0008C115.294 37.0744 114.413 41.9269 114.413 41.9269C114.413 41.9269 115.66 38.6919 116.688 38.986C117.715 39.2801 115.881 43.3974 115.881 43.3974L115.66 46.853L112.212 47Z" fill="white" stroke="#546169" stroke-miterlimit="10" stroke-linecap="round" stroke-linejoin="round"/>
<path d="M74.3626 62.9252C74.3626 62.9252 69.8303 57.9403 68.4259 54.2976C66.8938 50.4631 69.6387 44.5197 74.3626 45.0309C79.0865 45.6061 79.7249 49.4406 78.3843 51.6134C76.9799 53.7863 76.9799 59.0268 78.3205 60.1132C79.661 61.1996 75.384 63.4364 74.3626 62.9252Z" fill="white" stroke="#546169" stroke-width="1.5" stroke-miterlimit="10" stroke-linecap="round" stroke-linejoin="round"/>
<path d="M117.86 46L111.154 46.2205C111.154 46.2205 116.038 62.1712 107.583 63.3473C102.772 64.0089 98.5443 62.1712 95.2644 60.3336C92.859 59.1575 86.4448 58.7165 83.0191 59.084C78.4271 59.525 74.7827 60.1866 71.6485 61.3627C67.4938 62.8328 64.4325 66.3611 63.4121 70.6979C58.237 92.4556 68.9516 137 68.9516 137L100.075 131.561C100.075 131.561 102.918 92.088 103.063 86.6486C103.209 81.2092 104.594 76.5784 108.894 74.4467C129.157 64.3764 117.86 46 117.86 46Z" fill="#FF5533"/>
<g clip-path="url(#clip1)">
<path d="M280.136 739.688V615.396C280.136 613.167 278.317 611.35 276.085 611.35H86.659C84.4266 611.35 82.6076 613.167 82.6076 615.396V739.688" stroke="#546169" stroke-width="1.5" stroke-miterlimit="10" stroke-linecap="round" stroke-linejoin="round"/>
<path d="M72.603 754.638H296.507C302.543 754.638 307.339 749.765 307.339 743.819V740.268H61.6889V743.819C61.6889 749.765 66.5671 754.638 72.603 754.638Z" stroke="#546169" stroke-width="1.5" stroke-miterlimit="10" stroke-linejoin="round"/>
<path d="M86.0802 647.688L104.601 589.465" stroke="#546169" stroke-width="1.5" stroke-miterlimit="10" stroke-linecap="round" stroke-linejoin="round"/>
<path d="M114.109 632.574L56.4798 614.322" stroke="#546169" stroke-width="1.5" stroke-miterlimit="10" stroke-linecap="round" stroke-linejoin="round"/>
<path d="M59.0431 643.476L110.224 617.049" stroke="#546169" stroke-width="1.5" stroke-miterlimit="10" stroke-linecap="round" stroke-linejoin="round"/>
<path d="M103.195 645.624L75.3315 591.943" stroke="#546169" stroke-width="1.5" stroke-miterlimit="10" stroke-linecap="round" stroke-linejoin="round"/>
<path d="M93.3562 652.727C78.561 652.727 66.5671 640.747 66.5671 625.969C66.5671 611.191 78.561 599.211 93.3562 599.211C108.151 599.211 120.145 611.191 120.145 625.969C120.145 640.747 108.151 652.727 93.3562 652.727Z" fill="white"/>
<path d="M92.9429 623.82H269.387V729.943H92.9429V623.82Z" stroke="#546169" stroke-width="1.5" stroke-miterlimit="10" stroke-linecap="round" stroke-linejoin="round"/>
<path d="M259.3 662.141H174.881V715.987H259.3V662.141Z" fill="#27DAD0"/>
<path d="M104.105 635.301V652.396H259C259 646.5 259 642 259 635.301H104.105Z" fill="#FF5533"/>
<path d="M174.633 662.141V715.987H211.84C218.455 701.864 222.093 686.091 222.093 669.491C222.093 667.013 222.01 664.618 221.845 662.141H174.633Z" fill="#1ADCD0"/>
<path d="M104.353 662.141H159.502V715.987H104.353V662.141Z" fill="#1ADCD0"/>
<path d="M248 673H186" stroke="white" stroke-width="1.5" stroke-miterlimit="10" stroke-linecap="round" stroke-linejoin="round"/>
<path d="M248 681H186" stroke="white" stroke-width="1.5" stroke-miterlimit="10" stroke-linecap="round" stroke-linejoin="round"/>
<path d="M248 688H186" stroke="white" stroke-width="1.5" stroke-miterlimit="10" stroke-linecap="round" stroke-linejoin="round"/>
<path d="M248 696H186" stroke="white" stroke-width="1.5" stroke-miterlimit="10" stroke-linecap="round" stroke-linejoin="round"/>
<path d="M248 703H186" stroke="white" stroke-width="1.5" stroke-miterlimit="10" stroke-linecap="round" stroke-linejoin="round"/>
<path d="M150.482 673.455H110.05" stroke="white" stroke-width="1.5" stroke-miterlimit="10" stroke-linecap="round" stroke-linejoin="round"/>
<path d="M150.482 680.971H110.05" stroke="white" stroke-width="1.5" stroke-miterlimit="10" stroke-linecap="round" stroke-linejoin="round"/>
<path d="M150.482 688.486H110.05" stroke="white" stroke-width="1.5" stroke-miterlimit="10" stroke-linecap="round" stroke-linejoin="round"/>
<path d="M150.482 695.918H110.05" stroke="white" stroke-width="1.5" stroke-miterlimit="10" stroke-linecap="round" stroke-linejoin="round"/>
<path d="M150.482 703.434H110.05" stroke="white" stroke-width="1.5" stroke-miterlimit="10" stroke-linecap="round" stroke-linejoin="round"/>
</g>
<g clip-path="url(#clip2)">
<path d="M1024.98 738.31C967.552 738.31 921 687.649 921 625.155C921 562.661 967.552 512 1024.98 512C1082.4 512 1128.95 562.661 1128.95 625.155C1128.95 687.649 1082.4 738.31 1024.98 738.31Z" fill="white"/>
<path d="M1128.87 618.305L1122.81 616.275" stroke="#546169" stroke-width="1.5" stroke-miterlimit="10" stroke-linecap="round" stroke-linejoin="round"/>
<path d="M1124.6 623.547L1128.8 622.533" stroke="#546169" stroke-width="1.5" stroke-miterlimit="10" stroke-linecap="round" stroke-linejoin="round"/>
<path d="M1131.13 614.245L1127.55 610.777" stroke="#546169" stroke-width="1.5" stroke-miterlimit="10" stroke-linecap="round" stroke-linejoin="round"/>
<path d="M967.082 681.14H1092.35C1094.76 681.14 1096.7 679.026 1096.7 676.404V588.705C1096.7 586.083 1094.76 583.969 1092.35 583.969H967.082C964.673 583.969 962.73 586.083 962.73 588.705V676.404C962.73 679.026 964.673 681.14 967.082 681.14Z" stroke="#546169" stroke-width="1.5" stroke-miterlimit="10" stroke-linecap="round" stroke-linejoin="round"/>
<path d="M1036.4 681.902V748.459H1062.04V755.394H994.048V748.459H1019.69V681.902" stroke="#546169" stroke-width="1.5" stroke-miterlimit="10" stroke-linecap="round" stroke-linejoin="round"/>
<path d="M1151.41 662.874C1150.32 641.816 1144.42 636.826 1143.41 637.164" stroke="#546169" stroke-width="1.5" stroke-miterlimit="10" stroke-linecap="round"/>
<path d="M1139.13 638.263C1139.13 638.263 1143.8 632.597 1145.27 628.537C1146.83 624.224 1144.03 617.458 1139.06 618.135C1134.08 618.812 1133.46 623.125 1134.94 625.577C1136.34 628.03 1136.41 633.95 1135.01 635.134C1133.62 636.402 1138.12 638.855 1139.13 638.263Z" fill="white" stroke="#546169" stroke-width="1.5" stroke-miterlimit="10" stroke-linecap="round" stroke-linejoin="round"/>
<path d="M1108.44 649.427C1105.33 646.044 1079.84 633.612 1079.84 633.612L1082.56 630.229L1083.26 629.299C1083.26 629.299 1101.91 637.502 1109.6 638.602C1113.95 639.194 1117.76 637.418 1120.79 635.642C1122.97 634.458 1128.8 634.035 1131.91 634.373C1140.53 635.303 1145.58 636.995 1150.48 642.323C1157.01 649.173 1161.36 657.038 1163.22 667.102C1165.09 677.166 1149.78 687.145 1149.78 687.145L1150.79 679.872C1150.79 679.872 1157.32 672.599 1156.46 668.032C1155.61 663.634 1151.18 657.714 1151.18 657.714C1151.18 657.714 1151.95 675.559 1150.79 679.872C1148.54 688.075 1144.65 710.571 1144.65 710.571L1116.44 705.243C1116.44 705.243 1112.09 682.071 1113.72 661.182V659.66C1113.72 659.829 1111.55 652.725 1108.44 649.427Z" fill="white" stroke="#546169" stroke-width="1.5" stroke-miterlimit="10" stroke-linecap="round" stroke-linejoin="round"/>
<path d="M1142.71 710.316C1142.71 710.908 1139.05 752.601 1139.05 752.601H1134.08V708.709" stroke="#546169" stroke-width="1.5" stroke-miterlimit="10" stroke-linecap="round" stroke-linejoin="round"/>
<path d="M1127.01 707.525C1127.01 708.286 1121.96 752.939 1121.96 752.939L1116.52 752.601L1117.22 705.58" stroke="#546169" stroke-width="1.5" stroke-miterlimit="10" stroke-linecap="round" stroke-linejoin="round"/>
<path d="M1139.06 752.518C1139.6 752.518 1139.29 755.985 1139.68 755.985C1140.07 755.985 1128.18 756.154 1128.18 756.154L1128.64 754.294C1128.95 753.786 1129.34 753.448 1129.89 753.363L1134.16 752.518H1139.06Z" stroke="#546169" stroke-width="1.5" stroke-miterlimit="10" stroke-linecap="round" stroke-linejoin="round"/>
<path d="M1121.57 752.518C1122.11 752.518 1121.8 755.985 1122.19 755.985C1122.58 755.985 1110.69 756.154 1110.69 756.154L1111.16 754.294C1111.47 753.786 1111.86 753.448 1112.4 753.363L1116.67 752.518H1121.57Z" stroke="#546169" stroke-width="1.5" stroke-miterlimit="10" stroke-linecap="round" stroke-linejoin="round"/>
<path d="M1149.47 756.408H1092.97" stroke="#546169" stroke-width="1.5" stroke-miterlimit="10" stroke-linecap="round" stroke-linejoin="round"/>
<path d="M1082.33 629.213C1082.33 629.213 1076.42 622.786 1075.25 623.124C1074.09 623.463 1076.58 627.353 1076.58 627.353C1076.58 627.353 1074.48 630.651 1074.79 631.581C1075.1 632.512 1081.63 632.089 1081.63 632.089L1082.33 629.213Z" stroke="#546169" stroke-width="1.5" stroke-miterlimit="10" stroke-linecap="round" stroke-linejoin="round"/>
<path d="M1012.24 629.052L1013.2 612.643L1027.27 616.031L1021.97 620.638L1037.93 644.052L1045.84 639.369C1047.04 638.646 1048.52 638.988 1049.41 640.13L1061.59 656.349L1057.18 660.423L1046.52 646.184L1038.51 650.943C1037.27 651.666 1035.73 651.285 1034.87 650.067L1017.5 624.559L1012.24 629.052Z" fill="#FF5533"/>
</g>
<path d="M785 511.777C718.894 470.44 656.051 407.083 609.052 360.552C609.052 360.552 523.179 274.077 434.5 216.949" stroke="#546169" stroke-width="1.5" stroke-miterlimit="10" stroke-linecap="round" stroke-dasharray="4 10"/>
<path d="M190.157 210.885C145.85 246.18 117.655 300.686 117.655 361.447C117.655 426.27 149.489 483.519 198.437 518.5M1028.84 511.115C1073.15 475.82 1101.34 421.314 1101.34 360.553C1101.34 304.826 1077.7 254.696 1039.94 219.5M786.039 209.5C719.49 250.925 656.454 314.683 609.053 361.447C609.053 361.447 523.537 447.815 434.898 505" stroke="#546169" stroke-width="1.5" stroke-miterlimit="10" stroke-linecap="round" stroke-dasharray="4 10"/>
<circle cx="309" cy="168" r="104" fill="#EEF1F3"/>
<text fill="#546169" xml:space="preserve" style="white-space: pre" font-family="Roboto" font-size="20" font-weight="300" letter-spacing="0px"><tspan x="233.578" y="160.555">&#x2028;</tspan><tspan x="233.578" y="192.555">Customer insight </tspan></text>
<text fill="#FD583E" xml:space="preserve" style="white-space: pre" font-family="Playfair Display" font-size="30" font-weight="bold" letter-spacing="0em"><tspan x="268.7" y="153.461">Step 1</tspan></text>
<circle cx="309" cy="552" r="104" fill="#EEF1F3"/>
<text fill="#546169" xml:space="preserve" style="white-space: pre" font-family="Roboto" font-size="20" font-weight="300" letter-spacing="0px"><tspan x="245.785" y="544.555">&#x2028;</tspan><tspan x="245.785" y="576.555">Asset creation </tspan></text>
<text fill="#FD583E" xml:space="preserve" style="white-space: pre" font-family="Playfair Display" font-size="30" font-weight="bold" letter-spacing="0em"><tspan x="264.708" y="537.461">Step 2</tspan></text>
<circle cx="912" cy="552" r="104" fill="#EEF1F3"/>
<text fill="#546169" xml:space="preserve" style="white-space: pre" font-family="Roboto" font-size="20" font-weight="300" letter-spacing="0px"><tspan x="843.971" y="544.555">&#x2028;</tspan><tspan x="843.971" y="576.555">Grow and scale</tspan></text>
<text fill="#FD583E" xml:space="preserve" style="white-space: pre" font-family="Playfair Display" font-size="30" font-weight="bold" letter-spacing="0em"><tspan x="867.869" y="537.461">Step 4</tspan></text>
<circle cx="912" cy="168" r="104" fill="#2BCBC2"/>
<text fill="white" xml:space="preserve" style="white-space: pre" font-family="Roboto" font-size="16" letter-spacing="0px"><tspan x="842.82" y="135.844">Constantly improve </tspan><tspan x="831.266" y="159.844">with insights and data. </tspan><tspan x="841.539" y="183.844">Use this to enhance </tspan><tspan x="847.289" y="207.844">your products and </tspan><tspan x="881.977" y="231.844">services</tspan></text>
<path d="M185.429 215.286L190.139 197.709L203.006 210.576L185.429 215.286Z" fill="#546169"/>
<path d="M205.063 523.136L187.023 520.748L198.111 506.319L205.063 523.136Z" fill="#546169"/>
<path d="M429.489 507.321L419.706 522.665L411.31 506.52L429.489 507.321Z" fill="#546169"/>
<path d="M806.489 198.321L796.706 213.665L788.31 197.52L806.489 198.321Z" fill="#546169"/>
<path d="M1032.12 212.999L1014.05 210.847L1024.95 196.275L1032.12 212.999Z" fill="#546169"/>
<path d="M1037.44 515.714L1019.24 515.56L1028.47 499.878L1037.44 515.714Z" fill="#546169"/>
<path d="M808.065 513.334L801.104 530.147L790.024 515.713L808.065 513.334Z" fill="#546169"/>
<path d="M434.492 206.406L424.436 221.572L416.33 205.28L434.492 206.406Z" fill="#546169"/>
<path d="M1212.1 360.2C1213.81 360.2 1215.2 358.812 1215.2 357.1C1215.2 355.388 1213.81 354 1212.1 354C1210.39 354 1209 355.388 1209 357.1C1209 358.812 1210.39 360.2 1212.1 360.2Z" fill="#EDF1F4"/>
<path d="M358.1 379.2C359.812 379.2 361.2 377.812 361.2 376.1C361.2 374.388 359.812 373 358.1 373C356.388 373 355 374.388 355 376.1C355 377.812 356.388 379.2 358.1 379.2Z" fill="#FD583E"/>
<path d="M814.1 357.2C815.812 357.2 817.2 355.812 817.2 354.1C817.2 352.388 815.812 351 814.1 351C812.388 351 811 352.388 811 354.1C811 355.812 812.388 357.2 814.1 357.2Z" fill="#FD583E"/>
<path d="M686.1 158.2C687.812 158.2 689.2 156.812 689.2 155.1C689.2 153.388 687.812 152 686.1 152C684.388 152 683 153.388 683 155.1C683 156.812 684.388 158.2 686.1 158.2Z" fill="#FD583E"/>
<path d="M545.1 634.2C546.812 634.2 548.2 632.812 548.2 631.1C548.2 629.388 546.812 628 545.1 628C543.388 628 542 629.388 542 631.1C542 632.812 543.388 634.2 545.1 634.2Z" fill="#FD583E"/>
<path d="M1107.1 566.2C1108.81 566.2 1110.2 564.812 1110.2 563.1C1110.2 561.388 1108.81 560 1107.1 560C1105.39 560 1104 561.388 1104 563.1C1104 564.812 1105.39 566.2 1107.1 566.2Z" fill="#FF5533"/>
<path d="M96.1 521.2C97.8121 521.2 99.2 519.812 99.2 518.1C99.2 516.388 97.8121 515 96.1 515C94.3879 515 93 516.388 93 518.1C93 519.812 94.3879 521.2 96.1 521.2Z" fill="#FF5533"/>
<circle cx="912" cy="168" r="104" fill="#EEF1F3"/>
<text fill="#546169" xml:space="preserve" style="white-space: pre" font-family="Roboto" font-size="20" font-weight="300" letter-spacing="0px"><tspan x="830.396" y="192.555">Measure and learn</tspan></text>
<text fill="#FD583E" xml:space="preserve" style="white-space: pre" font-family="Playfair Display" font-size="30" font-weight="bold" letter-spacing="0em"><tspan x="868.235" y="153.461">Step 3</tspan></text>
<defs>
<clipPath id="clip0">
<rect width="302" height="213" fill="white" transform="matrix(-1 0 0 1 1150 0)"/>
</clipPath>
<clipPath id="clip1">
<rect width="307" height="221" fill="white" transform="matrix(-1 0 0 1 307 558)"/>
</clipPath>
<clipPath id="clip2">
<rect width="243" height="245" fill="white" transform="matrix(-1 0 0 1 1164 512)"/>
</clipPath>
</defs>
</svg>
