<svg width="726" height="437" viewBox="0 0 726 437" fill="none" xmlns="http://www.w3.org/2000/svg">
<path d="M50.5345 111.498L54.0056 98.5433L63.4887 108.026L50.5345 111.498Z" fill="#546169"/>
<path d="M65.0069 338.38L51.7116 336.621L59.8829 325.986L65.0069 338.38Z" fill="#546169"/>
<path d="M230.406 326.725L223.196 338.033L217.008 326.135L230.406 326.725Z" fill="#546169"/>
<path d="M508.256 98.9925L501.046 110.301L494.857 98.4026L508.256 98.9925Z" fill="#546169"/>
<path d="M674.541 109.808L661.224 108.222L669.256 97.482L674.541 109.808Z" fill="#546169"/>
<path d="M678.462 332.911L665.052 332.797L671.856 321.24L678.462 332.911Z" fill="#546169"/>
<path d="M509.413 331.158L504.284 343.549L496.117 332.911L509.413 331.158Z" fill="#546169"/>
<path d="M234.093 104.952L226.682 116.129L220.708 104.122L234.093 104.952Z" fill="#546169"/>
<path d="M323.939 49.6738L326.372 52.0322" stroke="#546169" stroke-width="1.5" stroke-miterlimit="10" stroke-linecap="round"/>
<path d="M307.577 33.3125L309.64 35.3761" stroke="#546169" stroke-width="1.5" stroke-miterlimit="10" stroke-linecap="round"/>
<path d="M317.012 52.5469V55.9371" stroke="#546169" stroke-width="1.5" stroke-miterlimit="10" stroke-linecap="round"/>
<path d="M317.012 29.4805V32.3547" stroke="#546169" stroke-width="1.5" stroke-miterlimit="10" stroke-linecap="round"/>
<path d="M310.009 49.6738L307.577 52.0322" stroke="#546169" stroke-width="1.5" stroke-miterlimit="10" stroke-linecap="round"/>
<path d="M326.37 33.3125L324.307 35.3761" stroke="#546169" stroke-width="1.5" stroke-miterlimit="10" stroke-linecap="round"/>
<path d="M307.062 42.6719H303.746" stroke="#546169" stroke-width="1.5" stroke-miterlimit="10" stroke-linecap="round"/>
<path d="M330.203 42.6719H327.328" stroke="#546169" stroke-width="1.5" stroke-miterlimit="10" stroke-linecap="round"/>
<path d="M316.938 50.2649C321.252 50.2649 324.75 46.7673 324.75 42.4528C324.75 38.1382 321.252 34.6406 316.938 34.6406C312.623 34.6406 309.126 38.1382 309.126 42.4528C309.126 46.7673 312.623 50.2649 316.938 50.2649Z" stroke="#546169" stroke-width="1.5" stroke-miterlimit="10" stroke-linecap="round"/>
<path d="M376.34 400.409C374.719 398.493 373.761 396.061 373.761 393.408C373.761 387.438 378.625 382.574 384.594 382.574C385.184 382.574 385.847 382.648 386.437 382.722" stroke="#546169" stroke-width="1.5" stroke-linecap="round" stroke-linejoin="round"/>
<path d="M382.236 387.069L381.572 386.185L385.921 382.869L382.236 378.815L383.046 378.078L387.542 383.016L382.236 387.069Z" fill="#546169"/>
<path d="M392.773 386.406C394.394 388.322 395.353 390.755 395.353 393.408C395.353 399.377 390.488 404.242 384.519 404.242C383.929 404.242 383.34 404.168 382.824 404.094" stroke="#546169" stroke-width="1.5" stroke-linecap="round" stroke-linejoin="round"/>
<path d="M386.878 399.746L387.541 400.63L383.266 403.947L386.951 408L386.067 408.737L381.645 403.8L386.878 399.746Z" fill="#546169"/>
<path d="M178.085 231.09C179.472 231.09 180.597 230.247 180.597 229.206C180.597 228.166 179.472 227.322 178.085 227.322C176.698 227.322 175.573 228.166 175.573 229.206C175.573 230.247 176.698 231.09 178.085 231.09Z" fill="#FD583E"/>
<path d="M537.278 179.596C538.666 179.596 539.79 178.471 539.79 177.084C539.79 175.697 538.666 174.572 537.278 174.572C535.891 174.572 534.766 175.697 534.766 177.084C534.766 178.471 535.891 179.596 537.278 179.596Z" fill="#FF5533"/>
<circle cx="141.606" cy="76.6474" r="76.6474" fill="#EEF1F3"/>
<text fill="#546169" xml:space="preserve" style="white-space: pre" font-family="Roboto" font-size="16" font-weight="300" letter-spacing="0px"><tspan x="81.5636" y="64.9766">&#x2028;</tspan><tspan x="81.5636" y="96.9766">Customer insight </tspan></text>
<text fill="#FD583E" xml:space="preserve" style="white-space: pre" font-family="Playfair Display" font-size="28" font-weight="bold" letter-spacing="0em"><tspan x="104.118" y="72.296">Step 1</tspan></text>
<circle cx="586.648" cy="76.6474" r="76.6474" fill="#EEF1F3"/>
<text fill="#546169" xml:space="preserve" style="white-space: pre" font-family="Roboto" font-size="16" font-weight="300" letter-spacing="0px"><tspan x="540.876" y="95.8438">Measure and </tspan><tspan x="569.188" y="119.844">learn</tspan></text>
<text fill="#FD583E" xml:space="preserve" style="white-space: pre" font-family="Playfair Display" font-size="28" font-weight="bold" letter-spacing="0em"><tspan x="547.766" y="71.2969">Step 3</tspan></text>
<circle cx="141.606" cy="359.653" r="76.6474" fill="#EEF1F3"/>
<text fill="#546169" xml:space="preserve" style="white-space: pre" font-family="Roboto" font-size="16" font-weight="300" letter-spacing="0px"><tspan x="91.0655" y="352.322">&#x2028;</tspan><tspan x="91.0655" y="384.322">Asset creation </tspan></text>
<text fill="#FD583E" xml:space="preserve" style="white-space: pre" font-family="Playfair Display" font-size="28" font-weight="bold" letter-spacing="0em"><tspan x="100.785" y="360.296">Step 2</tspan></text>
<circle cx="586.013" cy="359.653" r="76.6474" fill="#EEF1F3"/>
<text fill="#546169" xml:space="preserve" style="white-space: pre" font-family="Roboto" font-size="16" font-weight="300" letter-spacing="0px"><tspan x="531.624" y="352.322">&#x2028;</tspan><tspan x="531.624" y="384.322">Grow and scale</tspan></text>
<text fill="#FD583E" xml:space="preserve" style="white-space: pre" font-family="Playfair Display" font-size="28" font-weight="bold" letter-spacing="0em"><tspan x="545.344" y="360.296">Step 4</tspan></text>
<path d="M492.064 330.307C443.268 299.843 396.881 253.152 362.19 218.862C362.19 218.862 298.803 155.134 233.345 113.033" stroke="#546169" stroke-width="1.5" stroke-miterlimit="10" stroke-linecap="round" stroke-dasharray="4 10"/>
<path d="M54.3176 109.023C21.7346 134.845 0.999953 174.721 0.999951 219.174C0.999949 266.599 24.4105 308.483 60.4068 334.075M671.091 328.672C703.674 302.85 724.409 262.974 724.409 218.521C724.409 177.75 707.018 141.075 679.253 115.326M492.531 108.01C443.591 138.316 397.234 184.962 362.375 219.174C362.375 219.174 299.487 282.362 234.301 324.198" stroke="#546169" stroke-width="1.5" stroke-miterlimit="10" stroke-linecap="round" stroke-dasharray="4 10"/>
</svg>
