<svg width="763" height="573" viewBox="0 0 763 573" fill="none" xmlns="http://www.w3.org/2000/svg">
<path d="M149.716 101L36 101" stroke="#546169" stroke-width="1.5" stroke-miterlimit="10" stroke-linecap="round" stroke-linejoin="round"/>
<path d="M116.455 19.0136C116.455 19.0136 117.808 14.5612 117.583 11.8549C117.357 9.01759 113.747 6.13666 110.859 7.88268C107.971 9.6287 108.738 12.2477 110.318 13.1644C111.897 14.1247 113.522 17.3548 112.98 18.4461C112.484 19.5374 115.958 19.6247 116.455 19.0136Z" fill="white" stroke="#546169" stroke-width="1.5" stroke-miterlimit="10" stroke-linecap="round" stroke-linejoin="round"/>
<path d="M104.899 66.857C104.899 67.251 107.029 98.2757 107.029 98.2757L110.795 98.3249L111.588 66.2168" stroke="#546169" stroke-width="1.5" stroke-miterlimit="10" stroke-linecap="round" stroke-linejoin="round"/>
<path d="M116.27 66.0424C116.27 66.5379 120.083 98.9928 120.083 98.9928L124.297 98.7946L124.197 65.5469" stroke="#546169" stroke-width="1.5" stroke-miterlimit="10" stroke-linecap="round" stroke-linejoin="round"/>
<path d="M107.406 98.3242C107.011 98.3242 107.209 100.798 106.913 100.798C106.616 100.798 115.601 101 115.601 101L115.305 99.6873C115.108 99.3339 114.762 99.0815 114.367 99.031L111.158 98.3747L107.406 98.3242Z" stroke="#546169" stroke-width="1.5" stroke-miterlimit="10" stroke-linecap="round" stroke-linejoin="round"/>
<path d="M120.116 98.3242C119.721 98.3242 119.918 100.798 119.622 100.798C119.326 100.798 128.311 101 128.311 101L128.015 99.6873C127.817 99.3339 127.472 99.0815 127.077 99.031L123.868 98.3747L120.116 98.3242Z" stroke="#546169" stroke-width="1.5" stroke-miterlimit="10" stroke-linecap="round" stroke-linejoin="round"/>
<path d="M103.561 66.8848C103.908 55.6511 104.256 44.3688 104.653 33.1351C104.752 30.0227 104.851 26.8617 106.042 23.8953C107.233 20.9774 109.714 18.3028 113.039 17.5733C117.058 16.6979 121.276 18.9836 123.609 22.0959C125.891 25.2569 126.636 29.0988 127.182 32.8433C128.67 43.5421 128.67 54.4353 127.281 65.1341L103.561 66.8848Z" fill="#FF5533"/>
<path d="M45.3649 66.857C45.3649 67.251 47.2824 98.2757 47.2824 98.2757L50.6716 98.3249L51.3851 66.2168" stroke="#546169" stroke-width="1.5" stroke-miterlimit="10" stroke-linecap="round" stroke-linejoin="round"/>
<path d="M53.3919 66.0424C53.3919 66.5379 57.2047 98.9928 57.2047 98.9928L61.4189 98.7946L61.3186 65.5469" stroke="#546169" stroke-width="1.5" stroke-miterlimit="10" stroke-linecap="round" stroke-linejoin="round"/>
<path d="M47.2035 98.3242C46.8086 98.3242 47.0061 100.798 46.7099 100.798C46.4137 100.798 55.3986 101 55.3986 101L55.1024 99.6873C54.905 99.3339 54.5594 99.0815 54.1644 99.031L50.9555 98.3747L47.2035 98.3242Z" stroke="#546169" stroke-width="1.5" stroke-miterlimit="10" stroke-linecap="round" stroke-linejoin="round"/>
<path d="M57.9063 98.3242C57.5113 98.3242 57.7088 100.798 57.4126 100.798C57.1164 100.798 66.1014 101 66.1014 101L65.8052 99.6873C65.6077 99.3339 65.2621 99.0815 64.8672 99.031L61.6582 98.3747L57.9063 98.3242Z" stroke="#546169" stroke-width="1.5" stroke-miterlimit="10" stroke-linecap="round" stroke-linejoin="round"/>
<path d="M84.1972 22.6258C84.1972 22.6258 81.5243 18.6086 80.9038 15.8859C80.2832 13.0293 83.0994 9.23536 86.5838 10.1727C90.0205 11.1546 90.0205 13.8774 88.684 15.261C87.3475 16.6001 86.6793 20.2601 87.5384 21.1528C88.3976 22.0901 84.8655 23.0721 84.1972 22.6258Z" fill="white" stroke="#546169" stroke-width="1.5" stroke-miterlimit="10" stroke-linecap="round" stroke-linejoin="round"/>
<path d="M87.5067 65.3679C87.5067 65.7591 89.7313 98.276 89.7313 98.276L93.5737 98.3249L96.2027 64.8789" stroke="#546169" stroke-width="1.5" stroke-miterlimit="10" stroke-linecap="round" stroke-linejoin="round"/>
<path d="M90.0144 98.3242C89.6194 98.3242 89.8169 100.798 89.5207 100.798C89.2245 100.798 98.2095 101 98.2095 101L97.9133 99.6873C97.7158 99.3339 97.3702 99.0815 96.9753 99.031L93.7663 98.3747L90.0144 98.3242Z" stroke="#546169" stroke-width="1.5" stroke-miterlimit="10" stroke-linecap="round" stroke-linejoin="round"/>
<path d="M76.804 64.8789C76.804 65.2684 79.0286 98.2762 79.0286 98.2762L82.871 98.3249L85.5 65.025" stroke="#546169" stroke-width="1.5" stroke-miterlimit="10" stroke-linecap="round" stroke-linejoin="round"/>
<path d="M79.3117 98.3242C78.9167 98.3242 79.1142 100.798 78.818 100.798C78.5218 100.798 87.5068 101 87.5068 101L87.2106 99.6873C87.0131 99.3339 86.6675 99.0815 86.2726 99.031L83.0636 98.3747L79.3117 98.3242Z" stroke="#546169" stroke-width="1.5" stroke-miterlimit="10" stroke-linecap="round" stroke-linejoin="round"/>
<path d="M98.8784 65.548C97.7978 54.2458 97.4049 45.8429 96.3243 34.4915C96.0296 31.3466 95.6858 28.1525 94.3105 25.3023C92.9353 22.4522 90.3321 19.1598 86.9922 19.4055C75.106 20.3392 75.106 41.4203 75.106 41.4203C75.106 41.4203 73.9763 54.2949 76.0392 65.0074L98.8784 65.548Z" fill="#1ADCD0"/>
<path d="M73.6016 8.68919C73.6016 8.68919 70.2646 5.00061 70.8535 4.5088C71.4423 4.01699 73.0127 5.59078 73.0127 5.59078C73.0127 5.59078 72.0803 2.34483 72.7673 2.29565C73.4544 2.24647 74.0432 5.14815 74.0432 5.14815C74.0432 5.14815 74.2886 1.95138 74.9756 2.00056C75.6627 2.04974 75.0738 5.29569 75.0738 5.29569C75.0738 5.29569 75.908 3.13173 76.5951 3.32845C77.2821 3.52517 76.0553 6.27931 76.0553 6.27931L75.908 8.59083L73.6016 8.68919Z" fill="white" stroke="#546169" stroke-miterlimit="10" stroke-linecap="round" stroke-linejoin="round"/>
<path d="M48.2831 19.342C48.2831 19.342 45.2513 16.0076 44.3119 13.5709C43.2871 11.0059 45.1232 7.03026 48.2831 7.37225C51.443 7.75699 51.87 10.3219 50.9733 11.7754C50.0339 13.2289 50.0339 16.7343 50.9306 17.4611C51.8273 18.1878 48.9663 19.684 48.2831 19.342Z" fill="white" stroke="#546169" stroke-width="1.5" stroke-miterlimit="10" stroke-linecap="round" stroke-linejoin="round"/>
<path d="M77.3792 8.01953L72.8936 8.16704C72.8936 8.16704 76.1603 18.8368 70.5045 19.6235C67.2866 20.066 64.4587 18.8368 62.2647 17.6075C60.6557 16.8208 56.3651 16.5258 54.0736 16.7717C51.0019 17.0667 48.5641 17.5092 46.4676 18.2959C43.6885 19.2793 41.6407 21.6394 40.9581 24.5404C37.4964 39.0945 44.6636 68.8912 44.6636 68.8912L65.4826 65.2526C65.4826 65.2526 67.3841 38.8487 67.4816 35.2102C67.5791 31.5716 68.5055 28.474 71.3821 27.0481C84.9364 20.3119 77.3792 8.01953 77.3792 8.01953Z" fill="#FF5533"/>
<g clip-path="url(#clip0)">
<path d="M553 73C553 113.319 585.595 146 625.809 146C652.255 146 675.382 131.869 688.116 110.7C692.687 103.171 695.897 94.7145 697.476 85.7668C694.864 86.5306 692.088 86.9126 689.204 86.9126C672.39 86.9126 658.731 73.2182 658.731 56.3595C658.731 41.9559 668.635 29.8984 682.021 26.6794C668.744 10.3662 648.501 0 625.809 0C585.595 0 553 32.6809 553 73Z" fill="white"/>
<path d="M714.726 24.2793V129.851" stroke="#546169" stroke-width="1.5" stroke-miterlimit="10" stroke-linecap="round" stroke-linejoin="round"/>
<path d="M661.996 24.2793V129.851" stroke="#546169" stroke-width="1.5" stroke-miterlimit="10" stroke-linecap="round" stroke-linejoin="round"/>
<path d="M759.565 34.8633L756.463 37.0456L753.361 34.8633L750.205 37.0456L747.103 34.8633L743.947 37.0456L740.845 34.8633L737.689 37.0456L734.588 34.8633L731.431 37.0456L728.33 34.8633L725.173 37.0456" stroke="#546169" stroke-width="1.5" stroke-miterlimit="10" stroke-linecap="round" stroke-linejoin="round"/>
<path d="M759.565 56.1953L756.463 58.3777L753.361 56.1953L750.205 58.3777L747.103 56.1953L743.947 58.3777L740.845 56.1953L737.689 58.3777L734.588 56.1953L731.431 58.3777L728.33 56.1953L725.173 58.3777" stroke="#546169" stroke-width="1.5" stroke-miterlimit="10" stroke-linecap="round" stroke-linejoin="round"/>
<path d="M759.565 77.5293L756.463 79.7662L753.361 77.5293L750.205 79.7662L747.103 77.5293L743.947 79.7662L740.845 77.5293L737.689 79.7662L734.588 77.5293L731.431 79.7662L728.33 77.5293L725.173 79.7662" stroke="#546169" stroke-width="1.5" stroke-miterlimit="10" stroke-linecap="round" stroke-linejoin="round"/>
<path d="M716.576 53.5215L711.461 61.1052L706.291 53.5215L701.176 61.1052L696.061 53.5215L690.891 61.1052L685.776 53.5215L680.661 61.1052L675.491 53.5215L670.376 61.1052L665.261 53.5215L660.091 61.1052" stroke="#546169" stroke-width="1.5" stroke-miterlimit="10" stroke-linecap="round" stroke-linejoin="round"/>
<path d="M759.565 98.8613L756.463 101.098L753.361 98.8613L750.205 101.098L747.103 98.8613L743.947 101.098L740.845 98.8613L737.689 101.098L734.588 98.8613L731.431 101.098L728.33 98.8613L725.173 101.098" stroke="#546169" stroke-width="1.5" stroke-miterlimit="10" stroke-linecap="round" stroke-linejoin="round"/>
<path d="M759.565 119.594L756.463 121.776L753.361 119.594L750.205 121.776L747.103 119.594L743.947 121.776L740.845 119.594L737.689 121.776L734.588 119.594L731.431 121.776L728.33 119.594L725.173 121.776" stroke="#546169" stroke-width="1.5" stroke-miterlimit="10" stroke-linecap="round" stroke-linejoin="round"/>
<path d="M652.255 34.8633L649.154 37.0456L645.998 34.8633L642.896 37.0456L639.794 34.8633L636.638 37.0456L633.536 34.8633L630.38 37.0456L627.278 34.8633L624.122 37.0456L621.02 34.8633L617.864 37.0456" stroke="#546169" stroke-width="1.5" stroke-miterlimit="10" stroke-linecap="round" stroke-linejoin="round"/>
<path d="M652.255 56.1953L649.154 58.3777L645.998 56.1953L642.896 58.3777L639.794 56.1953L636.638 58.3777L633.536 56.1953L630.38 58.3777L627.278 56.1953L624.122 58.3777L621.02 56.1953L617.864 58.3777" stroke="#546169" stroke-width="1.5" stroke-miterlimit="10" stroke-linecap="round" stroke-linejoin="round"/>
<path d="M652.255 77.5293L649.154 79.7662L645.998 77.5293L642.896 79.7662L639.794 77.5293L636.638 79.7662L633.536 77.5293L630.38 79.7662L627.278 77.5293L624.122 79.7662L621.02 77.5293L617.864 79.7662" stroke="#546169" stroke-width="1.5" stroke-miterlimit="10" stroke-linecap="round" stroke-linejoin="round"/>
<path d="M652.255 98.8613L649.154 101.098L645.998 98.8613L642.896 101.098L639.794 98.8613L636.638 101.098L633.536 98.8613L630.38 101.098L627.278 98.8613L624.122 101.098L621.02 98.8613L617.864 101.098" stroke="#546169" stroke-width="1.5" stroke-miterlimit="10" stroke-linecap="round" stroke-linejoin="round"/>
<path d="M652.255 119.594L649.154 121.776L645.998 119.594L642.896 121.776L639.794 119.594L636.638 121.776L633.536 119.594L630.38 121.776L627.278 119.594L624.122 121.776L621.02 119.594L617.864 121.776" stroke="#546169" stroke-width="1.5" stroke-miterlimit="10" stroke-linecap="round" stroke-linejoin="round"/>
<path d="M705.91 98.8613L702.808 101.098L699.707 98.8613L696.55 101.098L693.449 98.8613L690.293 101.098L687.191 98.8613L684.035 101.098L680.933 98.8613L677.777 101.098L674.675 98.8613L671.519 101.098" stroke="#546169" stroke-width="1.5" stroke-miterlimit="10" stroke-linecap="round" stroke-linejoin="round"/>
<path d="M705.91 119.594L702.808 121.776L699.707 119.594L696.55 121.776L693.449 119.594L690.293 121.776L687.191 119.594L684.035 121.776L680.933 119.594L677.777 121.776L674.675 119.594L671.519 121.776" stroke="#546169" stroke-width="1.5" stroke-miterlimit="10" stroke-linecap="round" stroke-linejoin="round"/>
<path d="M716.948 69.1546L720.011 70.9277L716.501 77.0227L713.438 75.2496L716.948 69.1546Z" fill="white" stroke="#546169" stroke-width="1.5" stroke-miterlimit="10" stroke-linecap="round" stroke-linejoin="round"/>
<path d="M720.842 68.7747L750.436 85.9062L744.858 95.5921L715.264 78.4606L720.842 68.7747Z" fill="white" stroke="#546169" stroke-width="1.5" stroke-miterlimit="10" stroke-linecap="round" stroke-linejoin="round"/>
<path fill-rule="evenodd" clip-rule="evenodd" d="M688.598 87.0758C705.602 87.0758 719.386 73.299 719.386 56.3045C719.386 39.31 705.602 25.5332 688.598 25.5332C671.594 25.5332 657.81 39.31 657.81 56.3045C657.81 73.299 671.594 87.0758 688.598 87.0758ZM688.598 79.8743C701.622 79.8743 712.18 69.3219 712.18 56.3048C712.18 43.2877 701.622 32.7353 688.598 32.7353C675.574 32.7353 665.016 43.2877 665.016 56.3048C665.016 69.3219 675.574 79.8743 688.598 79.8743Z" fill="#27DAD0"/>
</g>
<path d="M85.5344 168.498L89.0055 155.543L98.4887 165.026L85.5344 168.498Z" fill="#546169"/>
<path d="M100.007 395.38L86.7115 393.621L94.8829 382.986L100.007 395.38Z" fill="#546169"/>
<path d="M265.406 383.727L258.196 395.035L252.008 383.137L265.406 383.727Z" fill="#546169"/>
<path d="M543.256 155.994L536.046 167.303L529.857 155.405L543.256 155.994Z" fill="#546169"/>
<path d="M709.541 166.81L696.224 165.224L704.256 154.484L709.541 166.81Z" fill="#546169"/>
<path d="M713.462 389.913L700.052 389.799L706.855 378.242L713.462 389.913Z" fill="#546169"/>
<path d="M544.413 388.16L539.283 400.551L531.117 389.913L544.413 388.16Z" fill="#546169"/>
<path d="M269.093 161.954L261.682 173.131L255.708 161.124L269.093 161.954Z" fill="#546169"/>
<path d="M213.085 288.092C214.472 288.092 215.597 287.249 215.597 286.208C215.597 285.168 214.472 284.324 213.085 284.324C211.697 284.324 210.573 285.168 210.573 286.208C210.573 287.249 211.697 288.092 213.085 288.092Z" fill="#FD583E"/>
<path d="M572.278 236.598C573.666 236.598 574.79 235.473 574.79 234.086C574.79 232.699 573.666 231.574 572.278 231.574C570.891 231.574 569.766 232.699 569.766 234.086C569.766 235.473 570.891 236.598 572.278 236.598Z" fill="#FF5533"/>
<circle cx="176.605" cy="133.647" r="76.6474" fill="#EEF1F3"/>
<text fill="#546169" xml:space="preserve" style="white-space: pre" font-family="Roboto" font-size="16" font-weight="300" letter-spacing="0px"><tspan x="116.563" y="117.977">&#x2028;</tspan><tspan x="116.563" y="149.977">Customer insight </tspan></text>
<text fill="#FD583E" xml:space="preserve" style="white-space: pre" font-family="Playfair Display" font-size="28" font-weight="bold" letter-spacing="0em"><tspan x="139.118" y="125.296">Step 1</tspan></text>
<circle cx="620.647" cy="133.647" r="76.6474" fill="#EEF1F3"/>
<g clip-path="url(#clip1)">
<path d="M177.937 548.097V469.36C177.937 467.948 176.781 466.797 175.363 466.797H55.044C53.6261 466.797 52.4707 467.948 52.4707 469.36V548.097" stroke="#546169" stroke-width="1.5" stroke-miterlimit="10" stroke-linecap="round" stroke-linejoin="round"/>
<path d="M46.1159 557.568H188.335C192.169 557.568 195.215 554.481 195.215 550.714V548.465H39.1835V550.714C39.1835 554.481 42.2821 557.568 46.1159 557.568Z" stroke="#546169" stroke-width="1.5" stroke-miterlimit="10" stroke-linejoin="round"/>
<path d="M54.6763 489.817L66.4404 452.934" stroke="#546169" stroke-width="1.5" stroke-miterlimit="10" stroke-linecap="round" stroke-linejoin="round"/>
<path d="M72.48 480.244L35.8749 468.682" stroke="#546169" stroke-width="1.5" stroke-miterlimit="10" stroke-linecap="round" stroke-linejoin="round"/>
<path d="M37.5029 487.15L70.0116 470.408" stroke="#546169" stroke-width="1.5" stroke-miterlimit="10" stroke-linecap="round" stroke-linejoin="round"/>
<path d="M65.5476 488.51L47.849 454.504" stroke="#546169" stroke-width="1.5" stroke-miterlimit="10" stroke-linecap="round" stroke-linejoin="round"/>
<path d="M59.2979 493.009C49.9003 493.009 42.282 485.42 42.282 476.058C42.282 466.696 49.9003 459.107 59.2979 459.107C68.6956 459.107 76.3138 466.696 76.3138 476.058C76.3138 485.42 68.6956 493.009 59.2979 493.009Z" fill="white"/>
<path d="M59.0354 474.697H171.109V541.924H59.0354V474.697Z" stroke="#546169" stroke-width="1.5" stroke-miterlimit="10" stroke-linecap="round" stroke-linejoin="round"/>
<path d="M164.702 498.973H111.081V533.083H164.702V498.973Z" fill="#27DAD0"/>
<path d="M66.1253 481.969V492.798H164.511C164.511 489.063 164.511 486.213 164.511 481.969H66.1253Z" fill="#FF5533"/>
<path d="M110.923 498.973V533.083H134.557C138.758 524.137 141.069 514.145 141.069 503.629C141.069 502.059 141.016 500.542 140.911 498.973H110.923Z" fill="#1ADCD0"/>
<path d="M66.2829 498.973H101.313V533.083H66.2829V498.973Z" fill="#1ADCD0"/>
<path d="M157.524 505.852H118.143" stroke="white" stroke-width="1.5" stroke-miterlimit="10" stroke-linecap="round" stroke-linejoin="round"/>
<path d="M157.524 510.918H118.143" stroke="white" stroke-width="1.5" stroke-miterlimit="10" stroke-linecap="round" stroke-linejoin="round"/>
<path d="M157.524 515.354H118.143" stroke="white" stroke-width="1.5" stroke-miterlimit="10" stroke-linecap="round" stroke-linejoin="round"/>
<path d="M157.524 520.42H118.143" stroke="white" stroke-width="1.5" stroke-miterlimit="10" stroke-linecap="round" stroke-linejoin="round"/>
<path d="M157.524 524.855H118.143" stroke="white" stroke-width="1.5" stroke-miterlimit="10" stroke-linecap="round" stroke-linejoin="round"/>
<path d="M95.5831 506.139H69.9017" stroke="white" stroke-width="1.5" stroke-miterlimit="10" stroke-linecap="round" stroke-linejoin="round"/>
<path d="M95.5831 510.9H69.9017" stroke="white" stroke-width="1.5" stroke-miterlimit="10" stroke-linecap="round" stroke-linejoin="round"/>
<path d="M95.5831 515.66H69.9017" stroke="white" stroke-width="1.5" stroke-miterlimit="10" stroke-linecap="round" stroke-linejoin="round"/>
<path d="M95.5831 520.369H69.9017" stroke="white" stroke-width="1.5" stroke-miterlimit="10" stroke-linecap="round" stroke-linejoin="round"/>
<path d="M95.5831 525.131H69.9017" stroke="white" stroke-width="1.5" stroke-miterlimit="10" stroke-linecap="round" stroke-linejoin="round"/>
</g>
<text fill="#546169" xml:space="preserve" style="white-space: pre" font-family="Roboto" font-size="16" font-weight="300" letter-spacing="0px"><tspan x="574.875" y="149.844">Measure and </tspan><tspan x="603.188" y="173.844">learn</tspan></text>
<g clip-path="url(#clip2)">
<path d="M681.188 552.015C647.395 552.015 620 522.238 620 485.507C620 448.776 647.395 419 681.188 419C714.981 419 742.375 448.776 742.375 485.507C742.375 522.238 714.981 552.015 681.188 552.015Z" fill="white"/>
<path d="M742.33 481.48L738.763 480.287" stroke="#546169" stroke-width="1.5" stroke-miterlimit="10" stroke-linecap="round" stroke-linejoin="round"/>
<path d="M739.814 484.561L742.284 483.965" stroke="#546169" stroke-width="1.5" stroke-miterlimit="10" stroke-linecap="round" stroke-linejoin="round"/>
<path d="M743.656 479.095L741.552 477.057" stroke="#546169" stroke-width="1.5" stroke-miterlimit="10" stroke-linecap="round" stroke-linejoin="round"/>
<path d="M647.118 518.414L720.836 518.414C722.254 518.414 723.397 517.171 723.397 515.63L723.397 464.084C723.397 462.543 722.254 461.301 720.836 461.301L647.118 461.301C645.701 461.301 644.557 462.543 644.557 464.084L644.557 515.63C644.557 517.171 645.701 518.414 647.118 518.414Z" stroke="#546169" stroke-width="1.5" stroke-miterlimit="10" stroke-linecap="round" stroke-linejoin="round"/>
<path d="M687.91 518.859L687.91 557.978L703.001 557.978L703.001 562.054L662.987 562.054L662.987 557.978L678.078 557.978L678.078 518.859" stroke="#546169" stroke-width="1.5" stroke-miterlimit="10" stroke-linecap="round" stroke-linejoin="round"/>
<path d="M755.592 507.677C754.951 495.3 751.476 492.367 750.881 492.566" stroke="#546169" stroke-width="1.5" stroke-miterlimit="10" stroke-linecap="round"/>
<path d="M748.366 493.211C748.366 493.211 751.11 489.881 751.979 487.495C752.894 484.96 751.247 480.984 748.32 481.381C745.394 481.779 745.028 484.314 745.897 485.755C746.72 487.197 746.766 490.676 745.942 491.372C745.119 492.118 747.772 493.559 748.366 493.211Z" fill="white" stroke="#546169" stroke-width="1.5" stroke-miterlimit="10" stroke-linecap="round" stroke-linejoin="round"/>
<path d="M730.303 499.772C728.473 497.783 713.474 490.476 713.474 490.476L715.074 488.488L715.486 487.941C715.486 487.941 726.461 492.763 730.989 493.409C733.549 493.757 735.79 492.713 737.574 491.669C738.854 490.974 742.284 490.725 744.113 490.924C749.189 491.471 752.162 492.465 755.043 495.596C758.884 499.622 761.445 504.245 762.543 510.16C763.64 516.075 754.631 521.941 754.631 521.941L755.226 517.666C755.226 517.666 759.067 513.391 758.564 510.707C758.061 508.122 755.454 504.643 755.454 504.643C755.454 504.643 755.912 515.131 755.226 517.666C753.9 522.487 751.613 535.709 751.613 535.709L735.013 532.578C735.013 532.578 732.452 518.958 733.412 506.681L733.412 505.786C733.412 505.885 732.132 501.71 730.303 499.772Z" fill="white" stroke="#546169" stroke-width="1.5" stroke-miterlimit="10" stroke-linecap="round" stroke-linejoin="round"/>
<path d="M750.47 535.562C750.47 535.91 748.321 560.415 748.321 560.415L745.394 560.415L745.394 534.617" stroke="#546169" stroke-width="1.5" stroke-miterlimit="10" stroke-linecap="round" stroke-linejoin="round"/>
<path d="M741.232 533.921C741.232 534.368 738.26 560.613 738.26 560.613L735.059 560.414L735.47 532.777" stroke="#546169" stroke-width="1.5" stroke-miterlimit="10" stroke-linecap="round" stroke-linejoin="round"/>
<path d="M748.32 560.365C748.641 560.365 748.458 562.403 748.686 562.403C748.915 562.403 741.918 562.503 741.918 562.503L742.193 561.409C742.375 561.111 742.604 560.912 742.924 560.862L745.439 560.365L748.32 560.365Z" stroke="#546169" stroke-width="1.5" stroke-miterlimit="10" stroke-linecap="round" stroke-linejoin="round"/>
<path d="M738.031 560.365C738.351 560.365 738.168 562.403 738.397 562.403C738.626 562.403 731.629 562.503 731.629 562.503L731.903 561.409C732.086 561.111 732.315 560.912 732.635 560.862L735.15 560.365L738.031 560.365Z" stroke="#546169" stroke-width="1.5" stroke-miterlimit="10" stroke-linecap="round" stroke-linejoin="round"/>
<path d="M754.448 562.65L721.202 562.65" stroke="#546169" stroke-width="1.5" stroke-miterlimit="10" stroke-linecap="round" stroke-linejoin="round"/>
<path d="M714.937 487.893C714.937 487.893 711.462 484.115 710.776 484.314C710.09 484.513 711.553 486.8 711.553 486.8C711.553 486.8 710.318 488.738 710.501 489.285C710.684 489.832 714.525 489.583 714.525 489.583L714.937 487.893Z" stroke="#546169" stroke-width="1.5" stroke-miterlimit="10" stroke-linecap="round" stroke-linejoin="round"/>
<path d="M673.694 487.799L674.26 478.154L682.537 480.146L679.42 482.853L688.81 496.615L693.464 493.863C694.172 493.438 695.042 493.639 695.568 494.31L702.732 503.843L700.142 506.237L693.869 497.868L689.154 500.665C688.425 501.091 687.515 500.867 687.009 500.151L676.79 485.158L673.694 487.799Z" fill="#FF5533"/>
</g>
<text fill="#FD583E" xml:space="preserve" style="white-space: pre" font-family="Playfair Display" font-size="28" font-weight="bold" letter-spacing="0em"><tspan x="581.766" y="125.297">Step 3</tspan></text>
<circle cx="176.605" cy="416.653" r="76.6474" fill="#EEF1F3"/>
<text fill="#546169" xml:space="preserve" style="white-space: pre" font-family="Roboto" font-size="16" font-weight="300" letter-spacing="0px"><tspan x="126.065" y="405.322">&#x2028;</tspan><tspan x="126.065" y="437.322">Asset creation </tspan></text>
<text fill="#FD583E" xml:space="preserve" style="white-space: pre" font-family="Playfair Display" font-size="28" font-weight="bold" letter-spacing="0em"><tspan x="135.785" y="413.296">Step 2</tspan></text>
<circle cx="621.013" cy="416.653" r="76.6474" fill="#EEF1F3"/>
<text fill="#546169" xml:space="preserve" style="white-space: pre" font-family="Roboto" font-size="16" font-weight="300" letter-spacing="0px"><tspan x="566.624" y="405.322">&#x2028;</tspan><tspan x="566.624" y="437.322">Grow and scale</tspan></text>
<text fill="#FD583E" xml:space="preserve" style="white-space: pre" font-family="Playfair Display" font-size="28" font-weight="bold" letter-spacing="0em"><tspan x="580.344" y="413.296">Step 4</tspan></text>
<path d="M527.064 387.307C478.268 356.843 431.881 310.152 397.19 275.862C397.19 275.862 333.803 212.134 268.345 170.033" stroke="#546169" stroke-width="1.5" stroke-miterlimit="10" stroke-linecap="round" stroke-dasharray="4 10"/>
<path d="M89.3176 166.023C56.7346 191.845 36 231.721 36 276.174C35.9999 323.599 59.4105 365.483 95.4068 391.075M706.091 385.672C738.674 359.85 759.409 319.974 759.409 275.521C759.409 234.75 742.018 198.075 714.253 172.326M527.531 165.01C478.591 195.316 432.234 241.962 397.375 276.174C397.375 276.174 334.487 339.362 269.301 381.198" stroke="#546169" stroke-width="1.5" stroke-miterlimit="10" stroke-linecap="round" stroke-dasharray="4 10"/>
<path d="M445.1 51.2C446.812 51.2 448.2 49.8121 448.2 48.1C448.2 46.3879 446.812 45 445.1 45C443.388 45 442 46.3879 442 48.1C442 49.8121 443.388 51.2 445.1 51.2Z" fill="#FD583E"/>
<path d="M304.1 527.2C305.812 527.2 307.2 525.812 307.2 524.1C307.2 522.388 305.812 521 304.1 521C302.388 521 301 522.388 301 524.1C301 525.812 302.388 527.2 304.1 527.2Z" fill="#FD583E"/>
<defs>
<clipPath id="clip0">
<rect width="207" height="146" fill="white" transform="matrix(-1 0 0 1 760 0)"/>
</clipPath>
<clipPath id="clip1">
<rect width="195" height="140" fill="white" transform="matrix(-1 0 0 1 195 433)"/>
</clipPath>
<clipPath id="clip2">
<rect width="143" height="144" fill="white" transform="matrix(-1 -8.74228e-08 -8.74228e-08 1 763 419)"/>
</clipPath>
</defs>
</svg>
