<svg width="18" height="36" viewBox="0 0 18 36" fill="none" xmlns="http://www.w3.org/2000/svg">
<path d="M7.38006 16.8961C7.33022 17.4848 7.33022 18.0245 7.28037 18.5642C7.13084 20.0361 6.93146 21.5079 6.33333 22.9307C5.63551 24.697 4.48909 25.9235 2.39564 25.9726C1.54828 26.0216 0.999997 26.6104 0.999997 27.3954C0.999997 29.456 0.999997 31.5166 0.999997 33.5281C0.999997 34.4113 1.69782 35 2.59501 35C2.99377 35 3.44236 34.9509 3.84112 34.9509C6.48286 34.7547 8.82554 33.8716 10.8193 32.2035C13.2617 30.241 14.757 27.6898 15.7041 24.746C16.7009 21.7042 17 18.5152 17 15.3261C17 11.1068 17 6.88745 17 2.71717C17 1.63781 16.4019 1 15.2555 1C11.0685 1 6.88162 0.999999 2.6947 0.999999C1.59813 0.999999 0.999999 1.58874 0.999999 2.66811C0.999999 6.83838 0.999999 11.0577 0.999998 15.228C0.999998 16.3074 1.59813 16.8961 2.6947 16.8961C4.09034 16.8961 5.48598 16.8961 6.93146 16.8961C7.03115 16.8961 7.18068 16.8961 7.38006 16.8961Z" stroke="#27DAD0" stroke-width="1.5" stroke-miterlimit="10"/>
</svg>
